<?xml version="1.0" encoding="utf-8"?>
<!-- Generator: Adobe Illustrator 21.0.0, SVG Export Plug-In . SVG Version: 6.00 Build 0)  -->
<svg version="1.1" id="Layer_1" xmlns="http://www.w3.org/2000/svg" xmlns:xlink="http://www.w3.org/1999/xlink" x="0px" y="0px"
	 viewBox="0 0 449.6 449.5" style="enable-background:new 0 0 449.6 449.5;" xml:space="preserve">
<polygon points="78.2,193.1 78.2,119.2 184.7,225.7 78.2,332.2 78.2,260.3 7.7,260.3 7.7,193.2 78.2,193.2 "/>
<polygon points="225.4,185 118.9,78.5 190.8,78.5 190.8,8 257.2,8 257.2,78.5 331.1,78.5 "/>
<polygon points="225.4,265.7 331.1,372.2 259.9,372.2 259.9,442.7 192.8,442.7 192.8,372.2 118.9,372.2 "/>
<polygon points="371.8,258.2 371.8,332.1 265.3,225.7 371.8,119.2 371.8,191.1 442.3,191.1 442.3,258.2 "/>
</svg>
