<?xml version="1.0" encoding="utf-8"?>
<!-- Generator: Adobe Illustrator 21.0.0, SVG Export Plug-In . SVG Version: 6.00 Build 0)  -->
<svg version="1.1" id="Layer_1" xmlns="http://www.w3.org/2000/svg" xmlns:xlink="http://www.w3.org/1999/xlink" x="0px" y="0px"
	 viewBox="0 0 449.6 449.5" style="enable-background:new 0 0 449.6 449.5;" xml:space="preserve">
<path d="M190.1,190 6,190 68.1,127.9 7.5,67.3 65.1,8.9 126.3,70.2 190,6.6 190,190 z"/>
<path d="M70.5,323.5 6,259.9 190.1,259.9 190.1,444 128,381.9 67.3,442.5 9.1,384.9 z"/>
<path d="M379.5,126.4 444,190 259.9,190 259.9,6.7 322,68 382.7,7.4 440.9,65 z"/>
<path d="M259.9,259.8 444,259.8 381.9,321.9 442.5,382.6 384.9,440.8 323.5,379.6 259.9,444 z"/>
</svg>