<?xml version="1.0" encoding="utf-8"?>
<!-- Generator: Adobe Illustrator 21.0.0, SVG Export Plug-In . SVG Version: 6.00 Build 0)  -->
<svg version="1.1" id="Layer_1" xmlns="http://www.w3.org/2000/svg" xmlns:xlink="http://www.w3.org/1999/xlink" x="0px" y="0px"
	 viewBox="0 0 449.6 449.5" style="enable-background:new 0 0 449.6 449.5;" xml:space="preserve">
<title>fiction</title>
<path d="M28.7,106.3L28.7,106.3c0-13.2,10.7-23.8,23.8-23.8h344.9c13.2,0,23.8,10.7,23.8,23.8v0c0,13.2-10.7,23.8-23.8,23.8H52.5
	C39.4,130.2,28.7,119.5,28.7,106.3z"/>
<path d="M28.7,224.3L28.7,224.3c0-13.2,10.7-23.8,23.8-23.8h232.3c13.2,0,23.8,10.7,23.8,23.8v0c0,13.2-10.7,23.8-23.8,23.8H52.5
	C39.4,248.2,28.7,237.5,28.7,224.3z"/>
<path d="M28.7,342.3L28.7,342.3c0-13.2,10.7-23.8,23.8-23.8h344.9c13.2,0,23.8,10.7,23.8,23.8v0c0,13.2-10.7,23.8-23.8,23.8H52.5
	C39.4,366.2,28.7,355.5,28.7,342.3z"/>
</svg>
