<?xml version="1.0" encoding="utf-8"?>
<!-- Generator: Adobe Illustrator 21.0.0, SVG Export Plug-In . SVG Version: 6.00 Build 0)  -->
<svg version="1.1" id="Layer_1" xmlns="http://www.w3.org/2000/svg" xmlns:xlink="http://www.w3.org/1999/xlink" x="0px" y="0px"
	 viewBox="0 0 449.6 449.5" style="enable-background:new 0 0 449.6 449.5;" xml:space="preserve">
<g>
	<g>
		<path d="M361.4,77.5c5.8,0,10.6,4.8,10.6,10.6v267.9c0,5.8-4.8,10.6-10.6,10.6H93.5c-5.8,0-10.6-4.8-10.6-10.6V88.1
			c0-5.8,4.8-10.6,10.6-10.6H361.4 M361.4,37.5H93.5c-27.9,0-50.6,22.7-50.6,50.6v267.9c0,27.9,22.7,50.6,50.6,50.6h267.9
			c27.9,0,50.6-22.7,50.6-50.6V88.1C412,60.2,389.3,37.5,361.4,37.5L361.4,37.5z"/>
	</g>
	<path d="M143,219.5c0-5.7,2.3-10.1,6.9-13.4l115.2-82.3c5.3-3.9,11-4.4,17-1.3c6,2.9,9,7.8,9,14.7v164.5c0,6.9-3,11.7-9,14.7
		c-6,3.1-11.7,2.7-17-1.3L150,232.8C145.3,229.6,143,225.1,143,219.5z"/>
</g>
</svg>
