<?xml version="1.0" encoding="utf-8"?>
<!-- Generator: Adobe Illustrator 21.0.0, SVG Export Plug-In . SVG Version: 6.00 Build 0)  -->
<svg version="1.1" id="Layer_1" xmlns="http://www.w3.org/2000/svg" xmlns:xlink="http://www.w3.org/1999/xlink" x="0px" y="0px"
	 viewBox="0 0 449.6 449.5" style="enable-background:new 0 0 449.6 449.5;" xml:space="preserve">
<g>
	<g>
		<path d="M361.4,77.5c5.8,0,10.6,4.8,10.6,10.6v267.9c0,5.8-4.8,10.6-10.6,10.6H93.5c-5.8,0-10.6-4.8-10.6-10.6V88.1
			c0-5.8,4.8-10.6,10.6-10.6H361.4 M361.4,37.5H93.5c-27.9,0-50.6,22.7-50.6,50.6v267.9c0,27.9,22.7,50.6,50.6,50.6h267.9
			c27.9,0,50.6-22.7,50.6-50.6V88.1C412,60.2,389.3,37.5,361.4,37.5L361.4,37.5z"/>
	</g>
	<path d="M224.8,306.5c-5.7,0-10.1-2.3-13.4-6.9l-82.3-115.2c-3.9-5.3-4.4-11-1.3-17c2.9-6,7.8-9,14.7-9h164.5c6.9,0,11.7,3,14.7,9
		c3.1,6,2.7,11.7-1.3,17l-82.3,115.2C234.9,304.2,230.4,306.5,224.8,306.5z"/>
</g>
</svg>
