<?xml version="1.0" encoding="utf-8"?>
<!-- Generator: Adobe Illustrator 21.0.0, SVG Export Plug-In . SVG Version: 6.00 Build 0)  -->
<svg version="1.1" id="Layer_1" xmlns="http://www.w3.org/2000/svg" xmlns:xlink="http://www.w3.org/1999/xlink" x="0px" y="0px"
	 viewBox="0 0 449.6 449.5" style="enable-background:new 0 0 449.6 449.5;" xml:space="preserve">
<path d="M66.4,383.8L66.4,383.8c-13.7-13.7-13.7-35.8,0-49.5L334.1,66.7c13.7-13.7,35.8-13.7,49.5,0l0,0c13.7,13.7,13.7,35.8,0,49.5
	L115.9,383.8C102.3,397.5,80.1,397.5,66.4,383.8z"/>
<path d="M383.6,383.8L383.6,383.8c-13.7,13.7-35.8,13.7-49.5,0L66.4,116.2c-13.7-13.7-13.7-35.8,0-49.5l0,0
	c13.7-13.7,35.8-13.7,49.5,0l267.6,267.6C397.2,348,397.2,370.1,383.6,383.8z"/>
</svg>
