<?xml version="1.0" encoding="utf-8"?>
<!-- Generator: Adobe Illustrator 16.0.0, SVG Export Plug-In . SVG Version: 6.00 Build 0)  -->
<!DOCTYPE svg PUBLIC "-//W3C//DTD SVG 1.1//EN" "http://www.w3.org/Graphics/SVG/1.1/DTD/svg11.dtd">
<svg version="1.1" id="Layer_1" xmlns="http://www.w3.org/2000/svg" xmlns:xlink="http://www.w3.org/1999/xlink" x="0px" y="0px"
	 width="1792px" height="1792px" viewBox="0 0 1792 1792" enable-background="new 0 0 1792 1792" xml:space="preserve">
<g>
	<path d="M1065.971,973.898c-18.02-11.361-41.4-9.514-57.384,4.566c-49.002,43.16-109.646,68.863-175.488,68.863
		c-67.137,0-128.878-26.701-178.386-71.395c-15.803-14.268-39.064-16.418-57.234-5.324
		c-94.006,57.395-165.161,148.525-196.18,256.752c-8.339,29.031-2.488,60.332,15.692,84.486c18.217,24.113,46.669,38.33,76.89,38.33
		h670.204c30.226,0,58.701-14.178,76.912-38.344c18.188-24.141,24.009-55.418,15.675-84.473
		C1226.264,1121.207,1157.283,1031.471,1065.971,973.898z"/>
	<path d="M833.104,981.426c131.938,0,238.9-126.328,238.9-282.16c0-155.844-106.962-282.138-238.9-282.138
		c-131.933,0-238.887,126.294-238.887,282.138C594.217,855.098,701.171,981.426,833.104,981.426z"/>
	<path d="M1616.845,616.169c68.002,0,123.144-55.129,123.144-123.13V380.924c0-68.002-55.142-123.129-123.144-123.129
		c-3.666,0-7.283,0.208-10.87,0.522v-57.89c0-110.088-89.556-199.651-199.642-199.651H251.662
		c-110.087,0-199.65,89.563-199.65,199.651V1591.58c0,110.088,89.563,199.645,199.65,199.645h1154.671
		c110.086,0,199.642-89.557,199.642-199.645v-57.887c3.587,0.316,7.204,0.523,10.87,0.523c68.002,0,123.144-55.127,123.144-123.129
		v-112.117c0-68-55.142-123.129-123.144-123.129c-3.666,0-7.283,0.209-10.87,0.525v-101.691c3.587,0.316,7.204,0.523,10.87,0.523
		c68.002,0,123.144-55.129,123.144-123.143V839.942c0-68.001-55.142-123.129-123.144-123.129c-3.666,0-7.283,0.208-10.87,0.523
		V615.645C1609.562,615.96,1613.179,616.169,1616.845,616.169z M1494.682,1591.58c0,48.715-39.635,88.35-88.349,88.35H251.662
		c-48.722,0-88.355-39.635-88.355-88.35V200.427c0-48.723,39.634-88.356,88.355-88.356h1154.671
		c48.714,0,88.349,39.633,88.349,88.356V1591.58z"/>
</g>
</svg>
