<?xml version="1.0" encoding="utf-8"?>
<!-- Generator: Adobe Illustrator 16.0.0, SVG Export Plug-In . SVG Version: 6.00 Build 0)  -->
<!DOCTYPE svg PUBLIC "-//W3C//DTD SVG 1.1//EN" "http://www.w3.org/Graphics/SVG/1.1/DTD/svg11.dtd">
<svg version="1.1" id="Layer_1" xmlns="http://www.w3.org/2000/svg" xmlns:xlink="http://www.w3.org/1999/xlink" x="0px" y="0px"
	 width="200px" height="200px" viewBox="924 796 200 200" enable-background="new 924 796 200 200" xml:space="preserve">
<g>
	<path d="M1003.992,882.528c11.051,0,20.008-8.958,20.008-20.008c0-11.047-8.958-20.007-20.008-20.007
		c-11.05,0-20.008,8.96-20.008,20.007C983.984,873.57,992.942,882.528,1003.992,882.528z"/>
	<path d="M1110.195,816.042h-172.39c-7.612,0-13.805,6.193-13.805,13.805v132.306c0,7.611,6.193,13.806,13.805,13.806h172.39
		c7.611,0,13.805-6.194,13.805-13.806V829.847C1124,822.235,1117.807,816.042,1110.195,816.042z M937.805,828.1h172.39
		c0.963,0,1.747,0.784,1.747,1.747v68.164l-43.076-43.079l-57.94,57.937c-1.835,1.839-4.323,2.867-6.92,2.867
		c-2.595,0-5.083-1.028-6.919-2.867l-27.403-27.403l-33.626,33.624v-89.242C936.058,828.884,936.842,828.1,937.805,828.1z"/>
</g>
</svg>
