<?xml version="1.0" encoding="utf-8"?>
<!-- Generator: Adobe Illustrator 16.0.0, SVG Export Plug-In . SVG Version: 6.00 Build 0)  -->
<!DOCTYPE svg PUBLIC "-//W3C//DTD SVG 1.1//EN" "http://www.w3.org/Graphics/SVG/1.1/DTD/svg11.dtd">
<svg version="1.1" id="Layer_1" xmlns="http://www.w3.org/2000/svg" xmlns:xlink="http://www.w3.org/1999/xlink" x="0px" y="0px"
	 width="200px" height="200px" viewBox="924 796 200 200" enable-background="new 924 796 200 200" xml:space="preserve">
<g>
	<g>
		<path d="M1102.815,970.354H945.184c-11.313,0-20.516-9.203-20.516-20.517V842.163c0-11.313,9.203-20.517,20.516-20.517h157.632
			c11.313,0,20.517,9.203,20.517,20.517v107.674C1123.332,961.15,1114.129,970.354,1102.815,970.354z M945.184,833.778
			c-4.623,0-8.384,3.761-8.384,8.385v107.674c0,4.623,3.761,8.385,8.384,8.385h157.632c4.623,0,8.384-3.762,8.384-8.385V842.163
			c0-4.624-3.761-8.385-8.384-8.385H945.184L945.184,833.778z"/>
	</g>
	<g>
		<g>
			<path d="M1016.824,922.871c-2.391-8.348-7.815-15.404-14.996-19.934c-1.418-0.894-3.256-0.748-4.514,0.359
				c-3.854,3.395-8.623,5.416-13.801,5.416c-5.279,0-10.134-2.099-14.027-5.614c-1.243-1.122-3.072-1.292-4.502-0.42
				c-7.392,4.515-12.987,11.682-15.428,20.192c-0.654,2.282-0.194,4.745,1.236,6.645c1.432,1.897,3.668,3.014,6.047,3.014h52.703
				c2.378,0,4.617-1.113,6.05-3.015C1017.022,927.616,1017.479,925.155,1016.824,922.871z"/>
		</g>
		<g>
			<path d="M1002.302,881.341c0,12.254-8.412,22.188-18.788,22.188c-10.374,0-18.784-9.935-18.784-22.188
				c0-12.255,8.41-22.187,18.784-22.187C993.89,859.154,1002.302,869.086,1002.302,881.341z"/>
		</g>
	</g>
	<g>
		<path d="M1086.462,871.521h-45.854c-3.351,0-6.066-2.716-6.066-6.065c0-3.352,2.716-6.066,6.066-6.066h45.854
			c3.351,0,6.066,2.715,6.066,6.066C1092.528,868.805,1089.813,871.521,1086.462,871.521z"/>
	</g>
	<g>
		<path d="M1086.462,901.823h-45.854c-3.351,0-6.066-2.716-6.066-6.067c0-3.35,2.716-6.066,6.066-6.066h45.854
			c3.351,0,6.066,2.717,6.066,6.066C1092.528,899.107,1089.813,901.823,1086.462,901.823z"/>
	</g>
	<g>
		<path d="M1086.462,932.124h-45.854c-3.351,0-6.066-2.716-6.066-6.065c0-3.351,2.716-6.066,6.066-6.066h45.854
			c3.351,0,6.066,2.716,6.066,6.066C1092.528,929.408,1089.813,932.124,1086.462,932.124z"/>
	</g>
</g>
</svg>
