<?xml version="1.0" encoding="utf-8"?>
<!-- Generator: Adobe Illustrator 16.0.0, SVG Export Plug-In . SVG Version: 6.00 Build 0)  -->
<!DOCTYPE svg PUBLIC "-//W3C//DTD SVG 1.1//EN" "http://www.w3.org/Graphics/SVG/1.1/DTD/svg11.dtd">
<svg version="1.1" id="Layer_1" xmlns="http://www.w3.org/2000/svg" xmlns:xlink="http://www.w3.org/1999/xlink" x="0px" y="0px"
	 width="200px" height="200px" viewBox="796 796 200 200" enable-background="new 796 796 200 200" xml:space="preserve">
<path d="M988.172,851.844v-12.285c0-7.451-6.041-13.493-13.492-13.493v-12.549c0-9.419-7.636-17.054-17.055-17.054H820.882
	c-9.418,0-17.054,7.635-17.054,17.054v164.968c0,9.417,7.636,17.052,17.054,17.052h136.743c9.419,0,17.055-7.635,17.055-17.052
	v-12.552c7.451,0,13.492-6.04,13.492-13.493v-12.285c0-7.45-6.041-13.492-13.492-13.492v-11.027c7.451,0,13.492-6.041,13.492-13.492
	v-12.286c0-7.452-6.041-13.493-13.492-13.493v-11.028C982.131,865.337,988.172,859.296,988.172,851.844z M889.741,839.399
	c15.624,0,28.291,14.957,28.291,33.413c0,18.455-12.667,33.416-28.291,33.416c-15.625,0-28.292-14.96-28.292-33.416
	C861.449,854.356,874.116,839.399,889.741,839.399z M938.047,945.355c-2.155,2.861-5.528,4.538-9.108,4.538h-79.37
	c-3.579,0-6.949-1.682-9.105-4.536c-2.153-2.859-2.846-6.566-1.858-10.006c3.674-12.817,12.1-23.609,23.232-30.406
	c2.152-1.313,4.907-1.059,6.779,0.631c5.862,5.293,13.174,8.455,21.125,8.455c7.797,0,14.979-3.044,20.783-8.156
	c1.892-1.667,4.661-1.886,6.794-0.54c10.815,6.817,18.983,17.445,22.585,30.017C940.891,938.792,940.201,942.498,938.047,945.355z"
	/>
</svg>
