<?xml version="1.0" encoding="utf-8"?>
<!-- Generator: Adobe Illustrator 16.0.0, SVG Export Plug-In . SVG Version: 6.00 Build 0)  -->
<!DOCTYPE svg PUBLIC "-//W3C//DTD SVG 1.1//EN" "http://www.w3.org/Graphics/SVG/1.1/DTD/svg11.dtd">
<svg version="1.1" id="Layer_1" xmlns="http://www.w3.org/2000/svg" xmlns:xlink="http://www.w3.org/1999/xlink" x="0px" y="0px"
	 width="1792px" height="1792px" viewBox="0 0 1792 1792" enable-background="new 0 0 1792 1792" xml:space="preserve">
<path d="M1725.232,499.724V389.281c0-66.987-54.306-121.293-121.293-121.293v-112.82c0-84.671-68.64-153.311-153.315-153.311
	H221.333c-84.67,0-153.311,68.64-153.311,153.311v1483.027c0,84.663,68.641,153.304,153.311,153.304h1229.291
	c84.676,0,153.315-68.641,153.315-153.304v-112.821c66.987,0,121.293-54.306,121.293-121.307v-110.441
	c0-66.975-54.306-121.291-121.293-121.291v-99.138c66.987,0,121.293-54.306,121.293-121.297V841.457
	c0-66.987-54.306-121.293-121.293-121.293v-99.141C1670.927,621.022,1725.232,566.717,1725.232,499.724z M840.356,387.848
	c140.468,0,254.338,134.461,254.338,300.375c0,165.902-113.87,300.395-254.338,300.395c-140.457,0-254.332-134.492-254.332-300.395
	C586.024,522.309,699.899,387.848,840.356,387.848z M1274.621,1340.375c-19.377,25.721-49.701,40.804-81.88,40.804H479.216
	c-32.173,0-62.466-15.13-81.857-40.792c-19.361-25.705-25.582-59.027-16.708-89.945c33.03-115.224,108.771-212.243,208.859-273.348
	c19.344-11.806,44.111-9.517,60.938,5.671c52.706,47.582,118.437,76.009,189.908,76.009c70.097,0,134.664-27.369,186.839-73.321
	c17.013-14.984,41.897-16.952,61.074-4.854c97.227,61.286,170.661,156.831,203.042,269.843
	C1300.174,1281.371,1293.989,1314.682,1274.621,1340.375z"/>
</svg>
