<?xml version="1.0" encoding="utf-8"?>
<!-- Generator: Adobe Illustrator 16.0.0, SVG Export Plug-In . SVG Version: 6.00 Build 0)  -->
<!DOCTYPE svg PUBLIC "-//W3C//DTD SVG 1.1//EN" "http://www.w3.org/Graphics/SVG/1.1/DTD/svg11.dtd">
<svg version="1.1" id="Layer_1" xmlns="http://www.w3.org/2000/svg" xmlns:xlink="http://www.w3.org/1999/xlink" x="0px" y="0px"
	 width="200px" height="200px" viewBox="924 796 200 200" enable-background="new 924 796 200 200" xml:space="preserve">
<path d="M1108.21,823.04H939.79c-8.527,0-15.439,6.911-15.439,15.438v115.043c0,8.526,6.912,15.438,15.439,15.438h168.42
	c8.527,0,15.439-6.912,15.439-15.438V838.479C1123.649,829.951,1116.737,823.04,1108.21,823.04z M984.06,856.633
	c11.085,0,20.074,10.611,20.074,23.705c0,13.093-8.989,23.706-20.074,23.706s-20.07-10.613-20.07-23.706
	C963.989,867.244,972.975,856.633,984.06,856.633z M1018.334,931.807c-1.532,2.031-3.924,3.222-6.464,3.222h-56.312
	c-2.541,0-4.931-1.194-6.461-3.22c-1.527-2.03-2.019-4.661-1.319-7.1c2.606-9.092,8.585-16.749,16.483-21.573
	c1.527-0.933,3.482-0.751,4.811,0.447c4.159,3.756,9.347,5.999,14.987,5.999c5.532,0,10.627-2.16,14.744-5.787
	c1.344-1.183,3.308-1.337,4.821-0.383c7.674,4.838,13.469,12.377,16.024,21.297C1020.35,927.149,1019.861,929.778,1018.334,931.807z
	 M1094.053,934.597h-48.992c-3.58,0-6.481-2.901-6.481-6.482c0-3.579,2.901-6.48,6.481-6.48h48.992c3.578,0,6.48,2.901,6.48,6.48
	C1100.533,931.695,1097.631,934.597,1094.053,934.597z M1094.053,902.221h-48.992c-3.58,0-6.481-2.901-6.481-6.481
	c0-3.579,2.901-6.48,6.481-6.48h48.992c3.578,0,6.48,2.901,6.48,6.48C1100.533,899.319,1097.631,902.221,1094.053,902.221z
	 M1094.053,869.845h-48.992c-3.58,0-6.481-2.901-6.481-6.479c0-3.581,2.901-6.482,6.481-6.482h48.992c3.578,0,6.48,2.901,6.48,6.482
	C1100.533,866.943,1097.631,869.845,1094.053,869.845z"/>
</svg>
