<?xml version="1.0" encoding="utf-8"?>
<!-- Generator: Adobe Illustrator 16.0.0, SVG Export Plug-In . SVG Version: 6.00 Build 0)  -->
<!DOCTYPE svg PUBLIC "-//W3C//DTD SVG 1.1//EN" "http://www.w3.org/Graphics/SVG/1.1/DTD/svg11.dtd">
<svg version="1.1" id="Layer_1" xmlns="http://www.w3.org/2000/svg" xmlns:xlink="http://www.w3.org/1999/xlink" x="0px" y="0px"
	 width="2048px" height="1792px" viewBox="0 0 2048 1792" enable-background="new 0 0 2048 1792" xml:space="preserve">
<path d="M1888.564,145.401H161.268c-87.447,0-158.337,70.89-158.337,158.337v1179.869c0,87.447,70.89,158.338,158.337,158.338
	h1727.296c87.449,0,158.338-70.891,158.338-158.338V303.738C2046.902,216.291,1976.014,145.401,1888.564,145.401z M615.293,489.923
	c113.687,0,205.876,108.835,205.876,243.128c0,134.273-92.189,243.128-205.876,243.128c-113.685,0-205.836-108.855-205.836-243.128
	C409.457,598.758,501.608,489.923,615.293,489.923z M966.809,1260.901c-15.712,20.837-40.239,33.038-66.298,33.038H322.995
	c-26.058,0-50.572-12.24-66.264-33.014c-15.666-20.826-20.707-47.796-13.533-72.808c26.73-93.253,88.051-171.782,169.055-221.256
	c15.66-9.564,35.708-7.712,49.328,4.586c42.661,38.519,95.861,61.525,153.712,61.525c56.734,0,108.99-22.158,151.218-59.35
	c13.774-12.132,33.92-13.721,49.447-3.933c78.698,49.617,138.131,126.945,164.344,218.427
	C987.475,1213.142,982.467,1240.1,966.809,1260.901z M1743.37,1289.515h-502.459c-36.724,0-66.478-29.754-66.478-66.478
	c0-36.708,29.754-66.462,66.478-66.462h502.459c36.694,0,66.451,29.754,66.451,66.462
	C1809.821,1259.761,1780.064,1289.515,1743.37,1289.515z M1743.37,957.475h-502.459c-36.724,0-66.478-29.756-66.478-66.47
	c0-36.71,29.754-66.473,66.478-66.473h502.459c36.694,0,66.451,29.763,66.451,66.473
	C1809.821,927.719,1780.064,957.475,1743.37,957.475z M1743.37,625.433h-502.459c-36.724,0-66.478-29.754-66.478-66.464
	c0-36.716,29.754-66.47,66.478-66.47h502.459c36.694,0,66.451,29.754,66.451,66.47
	C1809.821,595.679,1780.064,625.433,1743.37,625.433z"/>
</svg>
