<?xml version="1.0" encoding="utf-8"?>
<!-- Generator: Adobe Illustrator 16.0.0, SVG Export Plug-In . SVG Version: 6.00 Build 0)  -->
<!DOCTYPE svg PUBLIC "-//W3C//DTD SVG 1.1//EN" "http://www.w3.org/Graphics/SVG/1.1/DTD/svg11.dtd">
<svg version="1.1" id="Layer_1" xmlns="http://www.w3.org/2000/svg" xmlns:xlink="http://www.w3.org/1999/xlink" x="0px" y="0px"
	 width="200px" height="200px" viewBox="796 796 200 200" enable-background="new 796 796 200 200" xml:space="preserve">
<g>
	<path d="M914.847,904.638c-1.999-1.26-4.591-1.055-6.363,0.506c-5.433,4.786-12.157,7.636-19.458,7.636
		c-7.444,0-14.291-2.96-19.78-7.916c-1.752-1.582-4.331-1.82-6.346-0.591c-10.424,6.365-18.313,16.47-21.753,28.47
		c-0.925,3.219-0.276,6.689,1.74,9.368c2.02,2.673,5.174,4.25,8.525,4.25h74.313c3.352,0,6.509-1.572,8.527-4.252
		c2.018-2.677,2.663-6.145,1.738-9.366C932.62,920.972,924.972,911.021,914.847,904.638z"/>
	<path d="M889.025,905.473c14.63,0,26.49-14.008,26.49-31.287c0-17.28-11.86-31.284-26.49-31.284
		c-14.629,0-26.487,14.004-26.487,31.284C862.538,891.465,874.396,905.473,889.025,905.473z"/>
	<path d="M975.928,864.972c7.54,0,13.655-6.112,13.655-13.652v-12.432c0-7.54-6.114-13.653-13.655-13.653
		c-0.405,0-0.807,0.022-1.204,0.059v-6.42c0-12.206-9.931-22.138-22.137-22.138H824.555c-12.207,0-22.138,9.932-22.138,22.138
		v154.255c0,12.206,9.931,22.137,22.138,22.137h128.032c12.206,0,22.137-9.931,22.137-22.137v-6.419
		c0.397,0.035,0.799,0.058,1.204,0.058c7.54,0,13.655-6.112,13.655-13.652v-12.432c0-7.54-6.114-13.653-13.655-13.653
		c-0.405,0-0.807,0.023-1.204,0.059v-11.276c0.397,0.036,0.799,0.059,1.204,0.059c7.54,0,13.655-6.113,13.655-13.654v-12.432
		c0-7.54-6.114-13.652-13.655-13.652c-0.405,0-0.807,0.022-1.204,0.058v-11.275C975.121,864.948,975.522,864.972,975.928,864.972z
		 M962.382,973.128c0,5.401-4.394,9.797-9.795,9.797H824.555c-5.402,0-9.798-4.396-9.798-9.797V818.873
		c0-5.402,4.396-9.797,9.798-9.797h128.032c5.401,0,9.795,4.395,9.795,9.797V973.128z"/>
</g>
</svg>
