<?xml version="1.0" encoding="utf-8"?>
<!-- Generator: Adobe Illustrator 16.0.0, SVG Export Plug-In . SVG Version: 6.00 Build 0)  -->
<!DOCTYPE svg PUBLIC "-//W3C//DTD SVG 1.1//EN" "http://www.w3.org/Graphics/SVG/1.1/DTD/svg11.dtd">
<svg version="1.1" id="Layer_1" xmlns="http://www.w3.org/2000/svg" xmlns:xlink="http://www.w3.org/1999/xlink" x="0px" y="0px"
	 width="200px" height="200px" viewBox="796 796 200 200" enable-background="new 796 796 200 200" xml:space="preserve">
<g>
	<path d="M995.506,818.847c0-7.854-6.368-14.222-14.223-14.222H810.716c-7.854,0-14.222,6.367-14.222,14.222v37.521h10.573v111.149
		c0,10.95,8.907,19.857,19.857,19.857h134.833c10.949,0,19.857-8.907,19.857-19.857V856.368h13.891V818.847L995.506,818.847z
		 M969.674,967.518c0,4.365-3.551,7.916-7.916,7.916H826.925c-4.365,0-7.916-3.551-7.916-7.916V856.368h150.665V967.518
		L969.674,967.518z"/>
	<path d="M867.805,891.303h53.512c5.496,0,9.951-4.456,9.951-9.951c0-5.496-4.455-9.951-9.951-9.951h-53.512
		c-5.495,0-9.95,4.455-9.95,9.951C857.854,886.847,862.309,891.303,867.805,891.303z"/>
</g>
</svg>
