<?xml version="1.0" encoding="utf-8"?>
<!-- Generator: Adobe Illustrator 16.0.0, SVG Export Plug-In . SVG Version: 6.00 Build 0)  -->
<!DOCTYPE svg PUBLIC "-//W3C//DTD SVG 1.1//EN" "http://www.w3.org/Graphics/SVG/1.1/DTD/svg11.dtd">
<svg version="1.1" id="Layer_1" xmlns="http://www.w3.org/2000/svg" xmlns:xlink="http://www.w3.org/1999/xlink" x="0px" y="0px"
	 width="1792px" height="1792px" viewBox="0 0 1792 1792" enable-background="new 0 0 1792 1792" xml:space="preserve">
<g>
	<path d="M1790.434,202.493c0-70.605-57.241-127.841-127.841-127.841H129.407c-70.605,0-127.841,57.235-127.841,127.841v337.265
		h95.045v999.099c0,98.422,80.068,178.491,178.491,178.491h1211.98c98.423,0,178.49-80.069,178.49-178.491V539.758h124.86V202.493z
		 M1558.242,1538.856c0,39.237-31.924,71.158-71.159,71.158H275.103c-39.236,0-71.159-31.921-71.159-71.158V539.758h1354.299
		V1538.856z"/>
	<path d="M642.56,853.771h481.009c49.403,0,89.443-40.046,89.443-89.444c0-49.397-40.04-89.443-89.443-89.443H642.56
		c-49.397,0-89.443,40.046-89.443,89.443C553.116,813.725,593.162,853.771,642.56,853.771z"/>
</g>
</svg>
