<?xml version="1.0" encoding="utf-8"?>
<!-- Generator: Adobe Illustrator 21.0.0, SVG Export Plug-In . SVG Version: 6.00 Build 0)  -->
<svg version="1.1" id="Layer_1" xmlns="http://www.w3.org/2000/svg" xmlns:xlink="http://www.w3.org/1999/xlink" x="0px" y="0px"
	 viewBox="0 0 449.6 449.5" style="enable-background:new 0 0 449.6 449.5;" xml:space="preserve">
<path d="M156,197.3L111.7,153l-46.2,46.2L65.1,65.6h134l-45.3,45.3l44.2,44.2L156,197.3z M252.9,155.8l43.5-43.5l-46.7-46.7l134-0.3
	L383.4,199l-45-45l-44.2,44.2L252.9,155.8z M197.8,292.3l-45.1,45.1l46.2,46.2l-133.6,0.1l0-133.7l45.3,45.3l44.3-44.3L197.8,292.3z
	 M384.6,249.5l-0.4,133.6H251l44.3-44.3l-44.6-44.6l41.5-41.5l44.7,44.7L384.6,249.5z"/>
</svg>
