<?xml version="1.0" encoding="utf-8"?>
<!-- Generator: Adobe Illustrator 21.0.0, SVG Export Plug-In . SVG Version: 6.00 Build 0)  -->
<svg version="1.1" id="Layer_1" xmlns="http://www.w3.org/2000/svg" xmlns:xlink="http://www.w3.org/1999/xlink" x="0px" y="0px"
	 viewBox="0 0 1792 1792" style="enable-background:new 0 0 1792 1792;" xml:space="preserve">
<path d="M732.6,895.6l-429.1,429.1v-289.5H21l-1.9-270.4l285.5,0.2l0.2-296.7l427.5,427.5L732.6,895.6z"/>
<path d="M765,1485.6l-298.6,2.1l429.1-429.1l429.1,429.1h-289.5l-0.2,282.7l-269.9,1.4V1485.6z"/>
<path d="M1025.8,305.9l298.6-2.1L895.3,732.9L468,305.7l287.6-1.9l0.2-282.7l269.9-1.4v286.2H1025.8z"/>
<path d="M1058,895.6l429.1-429.1V756l282.7,0.2l1.4,269.9l-285.8,0.5l1.9,298.3L1058,895.6z"/>
</svg>
