<!-- Generator: Adobe Illustrator 21.0.0, SVG Export Plug-In  -->
<svg version="1.1"
	 xmlns="http://www.w3.org/2000/svg" xmlns:xlink="http://www.w3.org/1999/xlink" xmlns:a="http://ns.adobe.com/AdobeSVGViewerExtensions/3.0/"
	 x="0px" y="0px" width="319.5px" height="318.4px" viewBox="0 0 319.5 318.4" style="enable-background:new 0 0 319.5 318.4;"
	 xml:space="preserve">
<defs>
</defs>
<path d="M90.9,132 46.6,87.7 0.4,133.9 0,0.3 134,0.3 88.7,45.6 132.9,89.8 z"/>
<path d="M187.8,90.5 231.3,47 184.6,0.3 318.6,0 318.3,133.7 273.3,88.7 229.1,132.9 z"/>
<path d="M132.7,227 87.6,272.1 133.8,318.3 0.2,318.4 0.2,184.7 45.5,230 89.8,185.7 z"/>
<path d="M319.5,184.2 319.1,317.8 185.9,317.8 230.2,273.5 185.6,228.9 227.1,187.4 271.8,232.1 z"/>
</svg>