<?xml version="1.0" encoding="utf-8"?>
<!-- Generator: Adobe Illustrator 21.0.0, SVG Export Plug-In . SVG Version: 6.00 Build 0)  -->
<svg version="1.1" id="Layer_1" xmlns="http://www.w3.org/2000/svg" xmlns:xlink="http://www.w3.org/1999/xlink" x="0px" y="0px"
	 viewBox="0 0 1792 1792" style="enable-background:new 0 0 1792 1792;" xml:space="preserve">
<path d="M1411.1,1078.7L1093,895l318.2-183.6c46.7-27.2,62.7-87,35.7-133.7l0,0c-27.2-46.7-87-62.7-133.7-35.7L991.2,725.6V358.3
	c0-54.1-44-98.1-98.1-98.1s-97.7,44-97.7,98.1v367.2L477.2,541.9c-47-27.1-107.1-11-134,36c-27.2,47.1-11.1,107.1,36,134
	l318.2,183.6l-314,183c-47.1,27.2-63.2,87.3-36,134c27.2,47.1,87.3,63.2,134,36L799.5,1065v367.2c0,54.1,44,98.1,98.1,98.1
	c54.1,0,98.1-44,98.1-98.1V1065l318.2,183.6c46.7,26.9,106.5,11.1,133.7-35.7l0,0c27.2-46.7,11.3-106.9-35.4-134
	C1412,1079,1411.5,1078.7,1411.1,1078.7z"/>
</svg>
