<?xml version="1.0" encoding="utf-8"?>
<!-- Generator: Adobe Illustrator 21.0.0, SVG Export Plug-In . SVG Version: 6.00 Build 0)  -->
<svg version="1.1" id="Layer_1" xmlns="http://www.w3.org/2000/svg" xmlns:xlink="http://www.w3.org/1999/xlink" x="0px" y="0px"
	 viewBox="0 0 449.6 449.5" style="enable-background:new 0 0 449.6 449.5;" xml:space="preserve">
<path d="M406.3,288.8L294,224l112.3-64.8c16.5-9.6,22.1-30.7,12.6-47.2l0,0c-9.6-16.5-30.7-22.1-47.2-12.6l-113.6,64.8V34.6
	c0-19.1-15.5-34.6-34.6-34.6S189,15.5,189,34.6v129.6L76.7,99.4c-16.6-9.6-37.8-3.9-47.3,12.7c-9.6,16.6-3.9,37.8,12.7,47.3
	l112.3,64.8L43.6,288.8c-16.6,9.6-22.3,30.8-12.7,47.3c9.6,16.6,30.8,22.3,47.3,12.7L190.5,284v129.6c0,19.1,15.5,34.6,34.6,34.6
	s34.6-15.5,34.6-34.6V284L372,348.8c16.5,9.5,37.6,3.9,47.2-12.6l0,0c9.6-16.5,4-37.7-12.5-47.3
	C406.6,288.9,406.4,288.8,406.3,288.8z"/>
</svg>
