<?xml version="1.0" encoding="utf-8"?>
<!-- Generator: Adobe Illustrator 16.0.0, SVG Export Plug-In . SVG Version: 6.00 Build 0)  -->
<!DOCTYPE svg PUBLIC "-//W3C//DTD SVG 1.1//EN" "http://www.w3.org/Graphics/SVG/1.1/DTD/svg11.dtd">
<svg version="1.1" id="Layer_1" xmlns="http://www.w3.org/2000/svg" xmlns:xlink="http://www.w3.org/1999/xlink" x="0px" y="0px"
	 width="200px" height="200px" viewBox="924 796 200 200" enable-background="new 924 796 200 200" xml:space="preserve">
<g>
	<path d="M1101.414,873.977l-9.372-40.909l-0.064-0.253c-4.326-15.694-14.527-23.323-31.188-23.323h-73.578
		c-16.66,0-26.861,7.629-31.189,23.323l-9.433,41.162c-13.941,4.836-21.634,16.388-21.634,28.319v33.34
		c0,6.106,4.126,11.074,10.607,11.074v27.101c0,4.804,3.896,8.698,8.7,8.698h19.935c4.803,0,8.699-3.895,8.699-8.698V946.71H1024
		h51.105v27.101c0,4.804,3.895,8.698,8.698,8.698h19.935c4.805,0,8.698-3.895,8.698-8.698V946.71h0.002
		c6.48,0,10.606-4.968,10.606-11.074v-33.34C1123.045,890.364,1115.352,878.814,1101.414,873.977z M963.21,920.686h-17.963
		c-5.347,0-9.685-4.335-9.685-9.684s4.338-9.686,9.685-9.686h17.963c5.349,0,9.685,4.337,9.685,9.686
		S968.559,920.686,963.21,920.686z M961.483,871.598c-0.524,0-1.02-0.238-1.346-0.648c-0.326-0.41-0.449-0.946-0.332-1.457
		l7.707-33.641c2.941-10.551,8.292-14.477,19.699-14.477h73.578c11.407,0,16.759,3.926,19.7,14.477l7.705,33.64
		c0.117,0.511-0.006,1.047-0.331,1.456c-0.327,0.41-0.822,0.65-1.346,0.65c-26.014,0-33.279,0-62.518,0
		C994.763,871.598,987.497,871.598,961.483,871.598z M1102.753,920.686h-17.964c-5.347,0-9.684-4.335-9.684-9.684
		s4.337-9.686,9.684-9.686h17.964c5.348,0,9.684,4.337,9.684,9.686S1108.101,920.686,1102.753,920.686z"/>
</g>
</svg>
