<?xml version="1.0" encoding="utf-8"?>
<!-- Generator: Adobe Illustrator 16.0.0, SVG Export Plug-In . SVG Version: 6.00 Build 0)  -->
<!DOCTYPE svg PUBLIC "-//W3C//DTD SVG 1.1//EN" "http://www.w3.org/Graphics/SVG/1.1/DTD/svg11.dtd">
<svg version="1.1" id="Layer_1" xmlns="http://www.w3.org/2000/svg" xmlns:xlink="http://www.w3.org/1999/xlink" x="0px" y="0px"
	 width="200px" height="200px" viewBox="924 796 200 200" enable-background="new 924 796 200 200" xml:space="preserve">
<path d="M1118.293,860.259L1024,820.132l-94.293,40.127c-3.929,1.671-6.161,5.921-5.309,10.103c0.852,4.185,4.57,7.222,8.841,7.222
	h5.456c0.219,3.192,2.876,5.714,6.124,5.714h1.741c1.513,0,2.74,1.227,2.74,2.74v70.81c0,1.515-1.227,2.74-2.74,2.74h-1.741
	c-3.391,0-6.139,2.749-6.139,6.14s2.749,6.14,6.139,6.14h158.358c3.392,0,6.14-2.748,6.14-6.14c0-3.391-2.748-6.14-6.14-6.14h-1.735
	c-1.514,0-2.741-1.226-2.741-2.74v-70.81c0-1.513,1.228-2.74,2.741-2.74h1.735c3.248,0,5.904-2.522,6.124-5.714h5.46
	c4.271,0,7.988-3.037,8.84-7.216C1124.456,866.183,1122.224,861.932,1118.293,860.259z M1028.415,883.298
	c1.512,0,2.739,1.227,2.739,2.74v70.81c0,1.515-1.228,2.74-2.739,2.74h-8.829c-1.513,0-2.74-1.226-2.74-2.74v-70.81
	c0-1.513,1.227-2.74,2.74-2.74H1028.415z M1024,833.478l74.788,31.826H949.212L1024,833.478z M975.921,886.038
	c0-1.513,1.227-2.74,2.74-2.74h8.825c1.513,0,2.74,1.227,2.74,2.74v70.81c0,1.515-1.227,2.74-2.74,2.74h-8.825
	c-1.513,0-2.74-1.226-2.74-2.74V886.038z M1072.079,956.848c0,1.515-1.227,2.74-2.739,2.74h-8.824c-1.515,0-2.741-1.226-2.741-2.74
	v-70.81c0-1.513,1.227-2.74,2.741-2.74h8.824c1.513,0,2.739,1.227,2.739,2.74V956.848z"/>
</svg>
