<?xml version="1.0" encoding="utf-8"?>
<!-- Generator: Adobe Illustrator 16.0.0, SVG Export Plug-In . SVG Version: 6.00 Build 0)  -->
<!DOCTYPE svg PUBLIC "-//W3C//DTD SVG 1.1//EN" "http://www.w3.org/Graphics/SVG/1.1/DTD/svg11.dtd">
<svg version="1.1" id="Layer_1" xmlns="http://www.w3.org/2000/svg" xmlns:xlink="http://www.w3.org/1999/xlink" x="0px" y="0px"
	 width="2048px" height="1792px" viewBox="0 0 2048 1792" enable-background="new 0 0 2048 1792" xml:space="preserve">
<path d="M1990.994,529.475l-966.99-411.512L57.008,529.475C16.719,546.616-6.175,590.198,2.57,633.076
	c8.731,42.913,46.861,74.06,90.662,74.06h55.951c2.245,32.737,29.492,58.599,62.798,58.599h17.854
	c15.519,0,28.099,12.581,28.099,28.099v726.175c0,15.519-12.581,28.099-28.099,28.099h-17.854
	c-34.775,0-62.965,28.188-62.965,62.963c0,34.776,28.189,62.966,62.965,62.966h1623.995c34.774,0,62.963-28.189,62.963-62.966
	c0-34.775-28.188-62.963-62.963-62.963h-17.8c-15.52,0-28.1-12.58-28.1-28.099V793.834c0-15.519,12.58-28.099,28.1-28.099h17.8
	c33.306,0,60.551-25.862,62.795-58.599h56.001c43.794,0,81.916-31.147,90.647-74.005
	C2054.192,590.219,2031.305,546.623,1990.994,529.475z M1069.27,765.735c15.52,0,28.1,12.581,28.1,28.099v726.175
	c0,15.519-12.58,28.099-28.1,28.099H978.74c-15.519,0-28.099-12.58-28.099-28.099V793.834c0-15.519,12.581-28.099,28.099-28.099
	H1069.27z M1024.004,254.824l766.958,326.383H257.039L1024.004,254.824z M530.945,793.834c0-15.519,12.581-28.099,28.099-28.099
	h90.5c15.519,0,28.099,12.581,28.099,28.099v726.175c0,15.519-12.581,28.099-28.099,28.099h-90.5
	c-15.519,0-28.099-12.58-28.099-28.099V793.834z M1517.064,1520.01c0,15.519-12.58,28.099-28.1,28.099h-90.498
	c-15.52,0-28.1-12.58-28.1-28.099V793.834c0-15.519,12.58-28.099,28.1-28.099h90.498c15.52,0,28.1,12.581,28.1,28.099V1520.01z"/>
</svg>
