<svg xmlns="http://www.w3.org/2000/svg" viewBox="0 0 14.24 11.49"><title>bars</title><path d="M17.86,19.65h0a1,1,0,0,1,1-1H31.06a1,1,0,0,1,1,1h0a1,1,0,0,1-1,1H18.91A1,1,0,0,1,17.86,19.65Z" transform="translate(-17.86 -18.6)" style="fill:#232527"/><path d="M17.86,29h0a1,1,0,0,1,1-1H31.06a1,1,0,0,1,1,1h0a1,1,0,0,1-1,1H18.91A1,1,0,0,1,17.86,29Z" transform="translate(-17.86 -18.6)" style="fill:#232527"/><path d="M17.86,24.35h0a1,1,0,0,1,1-1H31.06a1,1,0,0,1,1,1h0a1,1,0,0,1-1,1H18.91A1,1,0,0,1,17.86,24.35Z" transform="translate(-17.86 -18.6)" style="fill:#232527"/></svg>