<?xml version="1.0" encoding="utf-8"?>
<!-- Generator: Adobe Illustrator 21.0.0, SVG Export Plug-In . SVG Version: 6.00 Build 0)  -->
<svg version="1.1" id="Layer_1" xmlns="http://www.w3.org/2000/svg" xmlns:xlink="http://www.w3.org/1999/xlink" x="0px" y="0px"
	 viewBox="0 0 1792 1792" style="enable-background:new 0 0 1792 1792;" xml:space="preserve">
<title>fiction</title>
<path d="M118.4,427.9L118.4,427.9c0-52.3,42.4-94.3,94.3-94.3h1366.8c52.3,0,94.3,42.4,94.3,94.3l0,0c0,52.3-42.4,94.3-94.3,94.3
	H212.7C160.8,522.6,118.4,480.2,118.4,427.9z"/>
<path d="M118.4,895.5L118.4,895.5c0-52.3,42.4-94.3,94.3-94.3h920.6c52.3,0,94.3,42.4,94.3,94.3l0,0c0,52.3-42.4,94.3-94.3,94.3
	H212.7C160.8,990.3,118.4,947.9,118.4,895.5z"/>
<path d="M118.4,1363.2L118.4,1363.2c0-52.3,42.4-94.3,94.3-94.3h1366.8c52.3,0,94.3,42.4,94.3,94.3l0,0c0,52.3-42.4,94.3-94.3,94.3
	H212.7C160.8,1457.9,118.4,1415.5,118.4,1363.2z"/>
</svg>
