<?xml version="1.0" encoding="utf-8"?>
<!-- Generator: Adobe Illustrator 16.0.0, SVG Export Plug-In . SVG Version: 6.00 Build 0)  -->
<!DOCTYPE svg PUBLIC "-//W3C//DTD SVG 1.1//EN" "http://www.w3.org/Graphics/SVG/1.1/DTD/svg11.dtd">
<svg version="1.1" id="Layer_1" xmlns="http://www.w3.org/2000/svg" xmlns:xlink="http://www.w3.org/1999/xlink" x="0px" y="0px"
	 width="200px" height="200px" viewBox="796 796 200 200" enable-background="new 796 796 200 200" xml:space="preserve">
<g>
	<path d="M970.416,936.733l0.015-0.02c-7.079-7.08-16.065-17.402-16.065-47.163c0-0.055-0.003-0.101-0.003-0.154v-22.952
		c0-27.831-19.484-51.096-45.554-56.937c0.003-0.112,0.018-0.222,0.018-0.335c0-7.083-5.743-12.826-12.825-12.826
		c-7.083,0-12.826,5.743-12.826,12.826c0,0.113,0.014,0.223,0.016,0.336c-26.07,5.84-45.555,29.105-45.555,56.936v23.106
		c0,29.76-8.987,40.083-16.066,47.163l0.015,0.018c-3.277,3.04-5.34,7.37-5.34,12.193c0,9.194,7.454,16.647,16.646,16.647h126.217
		c9.193,0,16.646-7.453,16.646-16.647C975.756,944.103,973.692,939.771,970.416,936.733z"/>
	<path d="M914.72,970.461h-37.436c-1.786,0-3.466,0.844-4.532,2.279c-1.066,1.433-1.391,3.284-0.875,4.995
		c3.121,10.366,12.742,17.918,24.126,17.918c11.384,0,21.003-7.552,24.125-17.918c0.516-1.711,0.188-3.563-0.876-4.995
		C918.186,971.305,916.506,970.461,914.72,970.461z"/>
</g>
</svg>
