<?xml version="1.0" encoding="utf-8"?>
<!-- Generator: Adobe Illustrator 16.0.0, SVG Export Plug-In . SVG Version: 6.00 Build 0)  -->
<!DOCTYPE svg PUBLIC "-//W3C//DTD SVG 1.1//EN" "http://www.w3.org/Graphics/SVG/1.1/DTD/svg11.dtd">
<svg version="1.1" id="Layer_1" xmlns="http://www.w3.org/2000/svg" xmlns:xlink="http://www.w3.org/1999/xlink" x="0px" y="0px"
	 width="200px" height="200px" viewBox="924 796 200 200" enable-background="new 924 796 200 200" xml:space="preserve">
<path d="M1087.822,893.437l-0.002-22.164c0-6.757-1.104-13.259-3.112-19.353l22.45-22.45c2.332-2.331,2.332-6.111,0-8.442
	c-2.329-2.331-6.111-2.331-8.441,0l-19.245,19.246c-8.771-15.107-23.729-26.191-41.391-29.736c0.055-0.474,0.093-0.953,0.093-1.443
	c0-6.794-5.508-12.302-12.302-12.302c-6.794,0-12.303,5.508-12.303,12.302c0,0.489,0.031,0.971,0.086,1.445
	c-28.328,5.689-49.734,30.756-49.734,60.735v22.164c0,27.229-8.147,35.5-13.588,40.943c-4.405,4.132-6.929,9.959-6.929,16.007
	c0,7.07,3.376,13.353,8.586,17.368l-11.151,11.149c-2.332,2.33-2.332,6.111,0,8.441c1.166,1.166,2.693,1.749,4.221,1.749
	c1.528,0,3.056-0.583,4.221-1.749l15.073-15.073c0.329,0.016,0.653,0.052,0.985,0.052h36.435
	c0.669,12.745,11.186,22.883,24.098,22.883c12.913,0,23.429-10.138,24.099-22.883h36.431c12.097,0,21.938-9.843,21.938-21.938
	c0-6.048-2.523-11.874-6.928-16.007C1095.973,928.939,1087.822,920.67,1087.822,893.437z M955.342,950.387
	c0-2.818,1.136-5.424,3.198-7.336l0.162-0.157c8.301-8.302,17.158-19.655,17.158-49.456v-22.164
	c0-27.576,22.435-50.011,50.012-50.011c18.884,0,35.348,10.528,43.854,26.018c0.576,1.048,0.39,2.348-0.455,3.193L962.185,957.561
	c-1.034,1.033-2.705,1.051-3.76,0.04C956.526,955.779,955.342,953.219,955.342,950.387z M1086.402,960.385H976.244l98.703-98.704
	c0.606,3.106,0.933,6.311,0.933,9.592v22.015l0.003,0.148c0,29.802,8.856,41.156,17.16,49.457l0.16,0.156
	c2.062,1.913,3.197,4.519,3.197,7.337C1096.4,955.899,1091.916,960.385,1086.402,960.385z"/>
</svg>
