<?xml version="1.0" encoding="utf-8"?>
<!-- Generator: Adobe Illustrator 16.0.0, SVG Export Plug-In . SVG Version: 6.00 Build 0)  -->
<!DOCTYPE svg PUBLIC "-//W3C//DTD SVG 1.1//EN" "http://www.w3.org/Graphics/SVG/1.1/DTD/svg11.dtd">
<svg version="1.1" id="Layer_1" xmlns="http://www.w3.org/2000/svg" xmlns:xlink="http://www.w3.org/1999/xlink" x="0px" y="0px"
	 width="200px" height="200px" viewBox="924 796 200 200" enable-background="new 924 796 200 200" xml:space="preserve">
<g>
	<path d="M1044.412,970.181h-37.295c-1.779,0-3.454,0.841-4.515,2.27c-1.062,1.429-1.385,3.273-0.872,4.978
		c3.109,10.327,12.694,17.851,24.036,17.851c11.342,0,20.925-7.523,24.035-17.851c0.512-1.704,0.187-3.55-0.875-4.979
		C1047.865,971.021,1046.19,970.181,1044.412,970.181z"/>
	<path d="M948.997,955.278c0.994,0.258,2.049-0.031,2.775-0.758l119.731-119.731c1.031-1.03,1.137-2.667,0.243-3.819
		c-8.14-10.504-19.799-18.144-33.211-21.149c0.004-0.107,0.005-0.214,0.005-0.321c0-7.057-5.722-12.777-12.775-12.777
		c-7.058,0-12.779,5.721-12.779,12.777c0,0.107,0.001,0.215,0.003,0.322c-25.969,5.821-45.371,29.012-45.371,56.735v23.02
		c0,29.647-8.953,39.93-16.005,46.985l0.004,0.005c-3.265,3.028-5.309,7.355-5.309,12.159c0,1.575,0.22,3.099,0.63,4.542
		C947.219,954.255,948.002,955.021,948.997,955.278z"/>
	<path d="M1107.245,820.919c-2.331-2.333-6.119-2.333-8.45,0L940.754,978.96c-2.333,2.333-2.333,6.117,0,8.451
		c1.167,1.167,2.696,1.749,4.225,1.749c1.53,0,3.059-0.582,4.226-1.749l22.101-22.102h117.328c9.157,0,16.584-7.424,16.584-16.584
		c0-4.803-2.044-9.131-5.309-12.158l0.005-0.006c-7.055-7.056-16.007-17.338-16.007-46.985c0-0.128-0.001-0.251-0.002-0.373v-22.647
		c0-4.292-0.465-8.474-1.347-12.5l24.687-24.687C1109.58,827.037,1109.58,823.253,1107.245,820.919z"/>
</g>
</svg>
