<?xml version="1.0" encoding="utf-8"?>
<!-- Generator: Adobe Illustrator 16.0.0, SVG Export Plug-In . SVG Version: 6.00 Build 0)  -->
<!DOCTYPE svg PUBLIC "-//W3C//DTD SVG 1.1//EN" "http://www.w3.org/Graphics/SVG/1.1/DTD/svg11.dtd">
<svg version="1.1" id="Layer_1" xmlns="http://www.w3.org/2000/svg" xmlns:xlink="http://www.w3.org/1999/xlink" x="0px" y="0px"
	 width="2048px" height="1792px" viewBox="0 0 2048 1792" enable-background="new 0 0 2048 1792" xml:space="preserve">
<path d="M1599.553,872.895l-0.023-199.873c0-60.937-9.943-119.572-28.063-174.521l202.461-202.46
	c21.029-21.023,21.029-55.113,0-76.136c-21.006-21.018-55.119-21.018-76.125,0l-173.557,173.563
	c-79.092-136.237-213.992-236.194-373.262-268.164c0.502-4.275,0.842-8.599,0.842-13.015c0-61.27-49.674-110.944-110.939-110.944
	c-61.269,0-110.944,49.675-110.944,110.944c0,4.41,0.281,8.757,0.777,13.026c-255.465,51.305-448.503,277.363-448.503,547.706
	v199.873c0,245.552-73.478,320.146-122.54,369.224c-39.732,37.256-62.49,89.805-62.49,144.34
	c0,63.764,30.451,120.424,77.438,156.629l-100.559,100.553c-21.023,21.016-21.023,55.107,0,76.123
	c10.515,10.516,24.288,15.771,38.068,15.771s27.554-5.256,38.068-15.771l135.922-135.928c2.967,0.141,5.888,0.457,8.885,0.457
	h328.563c6.034,114.934,100.874,206.361,217.314,206.361c116.453,0,211.281-91.428,217.322-206.361h328.539
	c109.08,0,197.834-88.754,197.834-197.834c0-54.535-22.758-107.072-62.467-144.34
	C1673.047,1193.053,1599.553,1118.48,1599.553,872.895z M404.854,1386.459c0-25.41,10.24-48.904,28.839-66.148l1.46-1.414
	c74.862-74.873,154.731-177.26,154.731-446.001V673.022c0-248.683,202.32-450.997,451.002-450.997
	c170.3,0,318.769,94.935,395.486,234.622c5.191,9.453,3.51,21.172-4.116,28.797l-965.7,965.707
	c-9.322,9.322-24.39,9.487-33.905,0.361C415.531,1435.094,404.854,1412.002,404.854,1386.459z M1586.748,1476.625H593.343
	l890.106-890.107c5.469,28.015,8.412,56.918,8.412,86.504v198.529l0.023,1.344c0,268.753,79.875,371.14,154.748,446.001l1.449,1.402
	c18.588,17.256,28.832,40.75,28.832,66.16C1676.914,1436.18,1636.469,1476.625,1586.748,1476.625z"/>
</svg>
