<?xml version="1.0" encoding="utf-8"?>
<!-- Generator: Adobe Illustrator 16.0.0, SVG Export Plug-In . SVG Version: 6.00 Build 0)  -->
<!DOCTYPE svg PUBLIC "-//W3C//DTD SVG 1.1//EN" "http://www.w3.org/Graphics/SVG/1.1/DTD/svg11.dtd">
<svg version="1.1" id="Layer_1" xmlns="http://www.w3.org/2000/svg" xmlns:xlink="http://www.w3.org/1999/xlink" x="0px" y="0px"
	 width="2048px" height="1792px" viewBox="0 0 2048 1792" enable-background="new 0 0 2048 1792" xml:space="preserve">
<g>
	<path d="M1207.879,1564.225H871.917c-16.026,0-31.111,7.584-40.673,20.444c-9.561,12.863-12.475,29.488-7.854,44.834
		c28.013,93.033,114.352,160.803,216.512,160.803c102.162,0,188.494-67.771,216.504-160.804c4.619-15.344,1.691-31.976-7.869-44.836
		C1238.979,1571.808,1223.901,1564.225,1207.879,1564.225z"/>
	<path d="M348.364,1429.987c8.957,2.322,18.457-0.285,24.999-6.83L1451.91,344.61c9.283-9.282,10.236-24.029,2.195-34.404
		c-73.326-94.622-178.356-163.441-299.161-190.521c0.024-0.96,0.037-1.923,0.037-2.889c0-63.567-51.541-115.102-115.091-115.102
		c-63.568,0-115.108,51.534-115.108,115.102c0,0.97,0.013,1.936,0.037,2.898c-233.93,52.438-408.705,261.345-408.705,511.076
		v207.366c0,267.061-80.652,359.695-144.178,423.247l0.036,0.039c-29.412,27.284-47.826,66.26-47.826,109.534
		c0,14.189,1.979,27.912,5.676,40.912C332.353,1420.77,339.407,1427.667,348.364,1429.987z"/>
	<path d="M1773.877,219.666c-21.006-21.016-55.117-21.016-76.121,0L274.118,1643.312c-21.021,21.017-21.021,55.104,0,76.12
		c10.513,10.514,24.286,15.771,38.065,15.771c13.779,0,27.551-5.257,38.065-15.771l199.083-199.085h1056.896
		c82.498,0,149.389-66.878,149.389-149.39c0-43.271-18.41-82.243-47.818-109.526l0.039-0.047
		c-63.549-63.552-144.178-156.187-144.178-423.247c0-1.152-0.01-2.266-0.023-3.359V630.771c0-38.653-4.189-76.328-12.135-112.597
		l222.375-222.376C1794.904,274.776,1794.904,240.688,1773.877,219.666z"/>
</g>
</svg>
