<?xml version="1.0" encoding="utf-8"?>
<!-- Generator: Adobe Illustrator 16.0.0, SVG Export Plug-In . SVG Version: 6.00 Build 0)  -->
<!DOCTYPE svg PUBLIC "-//W3C//DTD SVG 1.1//EN" "http://www.w3.org/Graphics/SVG/1.1/DTD/svg11.dtd">
<svg version="1.1" id="Layer_1" xmlns="http://www.w3.org/2000/svg" xmlns:xlink="http://www.w3.org/1999/xlink" x="0px" y="0px"
	 width="1792px" height="1792px" viewBox="0 0 1792 1792" enable-background="new 0 0 1792 1792" xml:space="preserve">
<path d="M1575.787,1241.402c-48.951-48.965-122.281-123.391-122.281-368.455l-0.023-199.456
	c0-269.793-192.664-495.392-447.605-546.564c0.502-4.268,0.83-8.591,0.83-12.993c0-61.141-49.572-110.711-110.707-110.711
	c-61.136,0-110.706,49.57-110.706,110.711c0,4.401,0.326,8.725,0.827,12.993C531.168,178.1,338.505,403.699,338.505,673.492v199.456
	c0,245.043-73.33,319.48-122.289,368.455c-39.643,37.18-62.353,89.617-62.353,144.023c0,108.854,88.555,197.422,197.407,197.422
	h327.875c6.021,114.705,100.663,205.93,216.866,205.93c116.197,0,210.838-91.225,216.865-205.93h327.852
	c108.85,0,197.408-88.568,197.408-197.422C1638.137,1331.006,1615.426,1278.568,1575.787,1241.402z M1440.729,1475.406H351.271
	c-49.605,0-89.965-40.361-89.965-89.98c0-25.344,10.218-48.789,28.777-65.994l1.457-1.412
	c74.706-74.717,154.407-176.889,154.407-445.072V673.492c0-243.731,194.785-442.684,436.844-449.72
	c4.336,0.519,8.732,0.863,13.209,0.863c4.477,0,8.871-0.344,13.209-0.863c242.059,7.036,436.83,205.988,436.83,449.72v198.113
	l0.025,1.342c0,268.207,79.705,370.367,154.412,445.072l1.457,1.412c18.549,17.195,28.76,40.639,28.76,65.994
	C1530.693,1435.045,1490.334,1475.406,1440.729,1475.406z"/>
</svg>
