<?xml version="1.0" encoding="utf-8"?>
<!-- Generator: Adobe Illustrator 16.0.0, SVG Export Plug-In . SVG Version: 6.00 Build 0)  -->
<!DOCTYPE svg PUBLIC "-//W3C//DTD SVG 1.1//EN" "http://www.w3.org/Graphics/SVG/1.1/DTD/svg11.dtd">
<svg version="1.1" id="Layer_1" xmlns="http://www.w3.org/2000/svg" xmlns:xlink="http://www.w3.org/1999/xlink" x="0px" y="0px"
	 width="200px" height="200px" viewBox="796 796 200 200" enable-background="new 796 796 200 200" xml:space="preserve">
<path d="M971.765,934.496c-5.456-5.457-13.628-13.752-13.628-41.065l-0.003-22.23c0-30.07-21.474-55.214-49.888-60.917
	c0.057-0.476,0.092-0.958,0.092-1.448c0-6.814-5.525-12.339-12.338-12.339c-6.814,0-12.339,5.524-12.339,12.339
	c0,0.491,0.037,0.973,0.092,1.448c-28.416,5.704-49.889,30.848-49.889,60.917v22.23c0,27.313-8.174,35.607-13.63,41.065
	c-4.418,4.145-6.949,9.989-6.949,16.053c0,12.133,9.87,22.004,22.002,22.004h36.543c0.671,12.784,11.22,22.951,24.171,22.951
	c12.95,0,23.5-10.167,24.17-22.951h36.541c12.132,0,22.002-9.871,22.002-22.004C978.714,944.483,976.183,938.639,971.765,934.496z
	 M956.712,960.577H835.287c-5.528,0-10.027-4.498-10.027-10.028c0-2.824,1.139-5.438,3.207-7.354l0.162-0.157
	c8.327-8.328,17.21-19.716,17.21-49.606v-22.23c0-27.165,21.71-49.339,48.688-50.123c0.483,0.057,2.461,0.057,2.944,0
	c26.979,0.784,48.687,22.958,48.687,50.123v22.081l0.003,0.149c0,29.894,8.884,41.279,17.21,49.605l0.162,0.157
	c2.068,1.916,3.205,4.53,3.205,7.355C966.738,956.079,962.24,960.577,956.712,960.577z"/>
</svg>
