<?xml version="1.0" encoding="utf-8"?>
<!-- Generator: Adobe Illustrator 16.0.0, SVG Export Plug-In . SVG Version: 6.00 Build 0)  -->
<!DOCTYPE svg PUBLIC "-//W3C//DTD SVG 1.1//EN" "http://www.w3.org/Graphics/SVG/1.1/DTD/svg11.dtd">
<svg version="1.1" id="Layer_1" xmlns="http://www.w3.org/2000/svg" xmlns:xlink="http://www.w3.org/1999/xlink" x="0px" y="0px"
	 width="200px" height="200px" viewBox="1052 796 200 200" enable-background="new 1052 796 200 200" xml:space="preserve">
<path d="M1211.811,880.632c-4.043,0-7.943,0.611-11.617,1.747l-19.541-42.029c-2.215-4.767-7.045-7.847-12.301-7.847h-15.092
	c-2.957,0-5.354,2.396-5.354,5.354c0,2.956,2.397,5.354,5.354,5.354h15.092c1.107,0,2.123,0.648,2.592,1.653l6.498,13.976
	c0.16,0.349,0.133,0.755-0.072,1.078c-0.207,0.324-0.564,0.52-0.947,0.52h-46.961c-0.437,0-0.833-0.252-1.019-0.647l-0.685-1.467
	c-2.221-4.753-7.044-7.823-12.29-7.823h-10.922c-2.957,0-5.354,2.397-5.354,5.354c0,2.957,2.397,5.354,5.354,5.354h10.922
	c1.105,0,2.122,0.647,2.589,1.648l0.035,0.073c0.163,0.35,0.136,0.759-0.073,1.084l-12.243,19.032
	c-4.237-1.56-8.813-2.412-13.585-2.412c-21.743,0-39.432,17.689-39.432,39.433s17.689,39.433,39.432,39.433
	c19.928,0,36.451-14.858,39.071-34.079h16.838c2.644,0,5.079-1.325,6.511-3.544l29.229-45.191c0.221-0.344,0.613-0.539,1.021-0.511
	s0.768,0.276,0.939,0.647l4.691,10.087c-10.889,7.025-18.111,19.265-18.111,33.158c0,21.743,17.688,39.433,39.432,39.433
	c21.742,0,39.432-17.689,39.432-39.433S1233.553,880.632,1211.811,880.632z M1172.604,871.144c0.412,0,0.791,0.226,0.988,0.587
	c0.195,0.361,0.18,0.802-0.045,1.147l-21.534,33.297c-0.222,0.343-0.612,0.538-1.02,0.511c-0.408-0.028-0.769-0.275-0.941-0.646
	l-15.557-33.297c-0.163-0.349-0.136-0.755,0.07-1.079c0.206-0.324,0.563-0.521,0.948-0.521H1172.604z M1122.609,876.667
	c0.221-0.344,0.612-0.541,1.021-0.514c0.408,0.028,0.769,0.275,0.942,0.646l16.966,36.313c0.163,0.348,0.136,0.755-0.07,1.079
	c-0.206,0.324-0.563,0.52-0.948,0.52h-9.259c-1.489-10.921-7.466-20.433-16.005-26.612L1122.609,876.667z M1120.414,914.711h-22.279
	l11.317-17.592C1115.051,901.342,1119.06,907.563,1120.414,914.711z M1092.189,948.79c-15.839,0-28.725-12.886-28.725-28.726
	c0-15.839,12.886-28.726,28.725-28.726c2.628,0,5.174,0.356,7.593,1.021l-13.578,21.107c-1.537,2.387-1.646,5.419-0.288,7.907
	c1.359,2.494,3.969,4.044,6.81,4.044h27.687C1117.898,938.708,1106.2,948.79,1092.189,948.79z M1211.811,948.79
	c-15.84,0-28.727-12.886-28.727-28.726c0-9.595,4.729-18.104,11.979-23.323l11.893,25.581c0.908,1.95,2.84,3.098,4.859,3.098
	c0.754,0,1.521-0.16,2.254-0.5c2.68-1.248,3.842-4.432,2.596-7.112l-11.898-25.594c2.254-0.57,4.615-0.875,7.045-0.875
	c15.84,0,28.725,12.887,28.725,28.726C1240.535,935.904,1227.65,948.79,1211.811,948.79z"/>
</svg>
