<?xml version="1.0" encoding="utf-8"?>
<!-- Generator: Adobe Illustrator 16.0.0, SVG Export Plug-In . SVG Version: 6.00 Build 0)  -->
<!DOCTYPE svg PUBLIC "-//W3C//DTD SVG 1.1//EN" "http://www.w3.org/Graphics/SVG/1.1/DTD/svg11.dtd">
<svg version="1.1" id="Layer_1" xmlns="http://www.w3.org/2000/svg" xmlns:xlink="http://www.w3.org/1999/xlink" x="0px" y="0px"
	 width="200px" height="200px" viewBox="796 796 200 200" enable-background="new 796 796 200 200" xml:space="preserve">
<path d="M990.047,906.386c0.028,0.041,0.045,0.065,0.045,0.065l-21.113-43.591c-0.299-0.637-0.618-1.264-0.955-1.878l-0.024-0.047
	v0.002c-4.397-7.982-11.835-14.06-20.737-16.677l-7.659-15.578l-0.019,0.018c-3.283-6.246-9.828-10.521-17.362-10.521
	c-10.812,0-19.608,8.798-19.608,19.611v20.027c0,3.65-2.959,6.609-6.609,6.612c-0.002,0-0.003,0-0.004,0c-0.002,0-0.003,0-0.004,0
	c-3.651-0.003-6.608-2.962-6.608-6.612V837.79c0-10.813-8.798-19.611-19.611-19.611c-7.533,0-14.077,4.275-17.361,10.521
	l-0.019-0.018l-7.658,15.578c-8.903,2.617-16.341,8.693-20.737,16.676l-0.002-0.001l-0.023,0.046
	c-0.337,0.615-0.654,1.242-0.955,1.878l-21.113,43.592c0,0,0.017-0.024,0.045-0.065c-3.274,6.345-5.137,13.531-5.137,21.15
	c0,25.521,20.765,46.285,46.286,46.285c20.187,0,37.386-12.995,43.699-31.056c0.026-0.065,0.051-0.121,0.077-0.193
	c1.849-5.078,5.639-7.282,9.122-7.282s7.274,2.204,9.12,7.282c0.028,0.072,0.053,0.128,0.078,0.193
	c6.313,18.061,23.513,31.056,43.7,31.056c25.521,0,46.286-20.764,46.286-46.285C995.185,919.917,993.323,912.73,990.047,906.386z
	 M843.02,961.993c-18.808,0-34.054-15.247-34.054-34.054c0-18.806,15.246-34.053,34.054-34.053
	c18.807,0,34.053,15.247,34.053,34.053C877.072,946.746,861.826,961.993,843.02,961.993z M948.927,961.993
	c-18.806,0-34.053-15.247-34.053-34.054c0-18.806,15.247-34.053,34.053-34.053c18.808,0,34.054,15.247,34.054,34.053
	C982.98,946.746,967.734,961.993,948.927,961.993z"/>
</svg>
