<?xml version="1.0" encoding="utf-8"?>
<!-- Generator: Adobe Illustrator 16.0.0, SVG Export Plug-In . SVG Version: 6.00 Build 0)  -->
<!DOCTYPE svg PUBLIC "-//W3C//DTD SVG 1.1//EN" "http://www.w3.org/Graphics/SVG/1.1/DTD/svg11.dtd">
<svg version="1.1" id="Layer_1" xmlns="http://www.w3.org/2000/svg" xmlns:xlink="http://www.w3.org/1999/xlink" x="0px" y="0px"
	 width="1792px" height="1792px" viewBox="0 0 1792 1792" enable-background="new 0 0 1792 1792" xml:space="preserve">
<g>
	<path d="M1713.326,1586.836h-86.963v-551.501c0-134.498-96.604-246.847-224.07-271.33c-6.84-1.313-11.799-7.297-11.799-14.261
		V429.37c0-45.8-37.128-82.93-82.924-82.93c-45.806,0-82.947,37.13-82.947,82.93v315.132c0,8.029-6.509,14.539-14.539,14.539
		H991.279c-8.03,0-14.539-6.509-14.539-14.539V429.37c0-45.8-37.129-82.93-82.929-82.93c-45.808,0-82.937,37.13-82.937,82.93
		v315.132c0,8.029-6.509,14.539-14.539,14.539H577.525c-8.029,0-14.539-6.509-14.539-14.539V429.37c0-45.8-37.129-82.93-82.93-82.93
		s-82.931,37.13-82.931,82.93v321.255c0,6.894-4.829,12.813-11.579,14.218c-125.402,26.104-219.917,137.461-219.917,270.492v551.501
		H78.674c-43.043,0-77.937,34.892-77.937,77.937c0,43.041,34.894,77.936,77.937,77.936h1634.652
		c43.044,0,77.937-34.895,77.937-77.936C1791.263,1621.728,1756.37,1586.836,1713.326,1586.836z M441.926,866.953h908.151
		c92.84,0,168.374,75.54,168.374,168.382v148.254c0,8.03-6.509,14.539-14.539,14.539H288.081c-8.029,0-14.539-6.509-14.539-14.539
		v-148.254C273.542,942.492,349.078,866.953,441.926,866.953z M273.542,1320.577c0-8.03,6.509-14.539,14.539-14.539h1215.831
		c8.03,0,14.539,6.509,14.539,14.539v251.72c0,8.03-6.509,14.539-14.539,14.539H288.081c-8.029,0-14.539-6.509-14.539-14.539
		V1320.577z"/>
	<path d="M480.034,306.323c21.873,0,41.625-8.992,55.84-23.453l0.005,0.006c0.094-0.1,0.17-0.217,0.271-0.322
		c1.908-1.956,3.687-4.016,5.385-6.171c0.006-0.005,0.006-0.012,0.012-0.018c1.675-2.125,3.227-4.35,4.678-6.639
		c0.082-0.14,0.165-0.274,0.24-0.41c1.323-2.119,2.541-4.285,3.653-6.527c0.117-0.222,0.223-0.456,0.322-0.686
		c1.03-2.108,1.956-4.261,2.793-6.468c0.122-0.335,0.246-0.674,0.37-0.996c0.713-1.979,1.352-3.987,1.914-6.029
		c0.21-0.768,0.404-1.547,0.585-2.319c0.334-1.354,0.644-2.723,0.89-4.104c13.348-68.001-52.967-155.768-80.986-181.223
		c-28.746-26.122-57.345-4.456-41.655,26.218c17.623,34.448,14.057,57.791-8.793,84.633c-2.623,2.528-5.029,5.263-7.277,8.143
		c-0.123,0.128-0.216,0.258-0.346,0.392l0.036,0.036c-10.153,13.196-16.247,29.683-16.247,47.621
		C401.723,271.256,436.78,306.323,480.034,306.323z"/>
	<path d="M893.612,306.323c21.866,0,41.632-8.992,55.848-23.453v0.006c0.093-0.1,0.175-0.217,0.268-0.322
		c1.908-1.956,3.689-4.016,5.387-6.171c0.011-0.005,0.011-0.012,0.011-0.018c1.675-2.125,3.232-4.35,4.684-6.639
		c0.07-0.14,0.165-0.274,0.234-0.41c1.323-2.119,2.541-4.285,3.655-6.527c0.115-0.222,0.222-0.456,0.325-0.686
		c1.031-2.108,1.944-4.261,2.787-6.468c0.116-0.335,0.247-0.674,0.375-0.996c0.703-1.979,1.348-3.987,1.909-6.029
		c0.212-0.768,0.409-1.547,0.598-2.319c0.326-1.354,0.632-2.723,0.889-4.104c13.338-68.001-52.972-155.768-80.997-181.223
		c-28.747-26.122-57.346-4.456-41.656,26.218c17.624,34.448,14.057,57.791-8.793,84.633c-2.617,2.528-5.029,5.263-7.271,8.143
		c-0.128,0.128-0.222,0.258-0.351,0.392l0.036,0.036c-10.152,13.196-16.247,29.683-16.247,47.621
		C815.301,271.256,850.358,306.323,893.612,306.323z"/>
	<path d="M1307.359,306.323c21.873,0,41.639-8.992,55.854-23.453v0.006c0.093-0.1,0.176-0.217,0.269-0.322
		c1.908-1.956,3.689-4.016,5.386-6.171c0.013-0.005,0.013-0.012,0.013-0.018c1.674-2.125,3.231-4.35,4.684-6.639
		c0.07-0.14,0.164-0.274,0.232-0.41c1.324-2.119,2.543-4.285,3.654-6.527c0.118-0.222,0.223-0.456,0.33-0.686
		c1.03-2.108,1.941-4.261,2.786-6.468c0.116-0.335,0.245-0.674,0.373-0.996c0.703-1.979,1.348-3.987,1.909-6.029
		c0.212-0.768,0.41-1.547,0.586-2.319c0.339-1.354,0.644-2.723,0.902-4.104c13.337-68.001-52.974-155.768-81.006-181.223
		c-28.734-26.122-57.338-4.456-41.648,26.218c17.623,34.448,14.063,57.791-8.793,84.633c-2.623,2.528-5.035,5.263-7.285,8.143
		c-0.114,0.128-0.209,0.258-0.351,0.392l0.048,0.036c-10.15,13.196-16.254,29.683-16.254,47.621
		C1229.048,271.256,1264.105,306.323,1307.359,306.323z"/>
</g>
</svg>
