<?xml version="1.0" encoding="utf-8"?>
<!-- Generator: Adobe Illustrator 21.0.0, SVG Export Plug-In . SVG Version: 6.00 Build 0)  -->
<svg version="1.1" id="Layer_1" xmlns="http://www.w3.org/2000/svg" xmlns:xlink="http://www.w3.org/1999/xlink" x="0px" y="0px"
	 viewBox="0 0 449.6 449.5" style="enable-background:new 0 0 449.6 449.5;" xml:space="preserve">
<g>
	<path d="M303,284.5c0,25.3-6.2,48.6-18.7,70c-12.5,21.3-29.4,38.3-50.8,50.8c-21.4,12.5-44.7,18.7-70,18.7s-48.6-6.2-70-18.7
		c-21.3-12.5-38.3-29.4-50.8-50.8S24,309.8,24,284.5s6.2-48.6,18.7-70s29.4-38.3,50.8-50.8c21.3-12.5,44.7-18.7,70-18.7
		s48.6,6.2,70,18.7c21.4,12.5,38.3,29.4,50.8,50.8C296.8,235.9,303,259.2,303,284.5z"/>
</g>
<g>
	<path d="M250.7,219.3c-4.9,0-9.8-1.8-13.6-5.5c-7.7-7.5-7.9-19.8-0.4-27.6l57.6-59.4c7.5-7.7,19.8-7.9,27.6-0.4
		c7.7,7.5,7.9,19.8,0.4,27.6l-57.6,59.4C260.9,217.3,255.8,219.3,250.7,219.3z"/>
</g>
<g>
	<path d="M266.6,114.5c-2.6,0-5.2-1-7.1-3l-30-30.3c-3.9-3.9-3.8-10.3,0.1-14.1c3.9-3.9,10.3-3.8,14.1,0.1l30,30.3
		c3.9,3.9,3.8,10.3-0.1,14.1C271.7,113.6,269.1,114.5,266.6,114.5z"/>
</g>
<g>
	<path d="M343.9,114.4c-2.6,0-5.2-1-7.1-3c-3.9-3.9-3.8-10.3,0.1-14.1l30.3-30c3.9-3.9,10.3-3.8,14.1,0.1c3.9,3.9,3.8,10.3-0.1,14.1
		l-30.3,30C349,113.4,346.5,114.4,343.9,114.4z"/>
</g>
<g>
	<path d="M305.1,99.4C305.1,99.4,305.1,99.4,305.1,99.4c-5.6,0-10-4.5-10-10.1l0.3-42.6c0-5.5,4.5-9.9,10-9.9c0,0,0,0,0.1,0
		c5.5,0,10,4.5,9.9,10.1l-0.3,42.6C315.1,94.9,310.6,99.4,305.1,99.4z"/>
</g>
<g>
	<path d="M401.4,155.1C401.3,155.1,401.3,155.1,401.4,155.1l-42.7-0.3c-5.5,0-10-4.5-9.9-10.1c0-5.5,4.5-9.9,10-9.9c0,0,0,0,0.1,0
		l42.6,0.3c5.5,0,10,4.5,9.9,10.1C411.3,150.7,406.9,155.1,401.4,155.1z"/>
</g>
<g>
	<path d="M374.1,222c-2.6,0-5.2-1-7.1-3l-30-30.3c-3.9-3.9-3.8-10.3,0.1-14.1c3.9-3.9,10.3-3.8,14.1,0.1l30,30.3
		c3.9,3.9,3.8,10.3-0.1,14.1C379.2,221.1,376.6,222,374.1,222z"/>
</g>
</svg>
