<?xml version="1.0" encoding="utf-8"?>
<!-- Generator: Adobe Illustrator 16.0.0, SVG Export Plug-In . SVG Version: 6.00 Build 0)  -->
<!DOCTYPE svg PUBLIC "-//W3C//DTD SVG 1.1//EN" "http://www.w3.org/Graphics/SVG/1.1/DTD/svg11.dtd">
<svg version="1.1" id="Layer_1" xmlns="http://www.w3.org/2000/svg" xmlns:xlink="http://www.w3.org/1999/xlink" x="0px" y="0px"
	 width="1792px" height="1792px" viewBox="0 0 1792 1792" enable-background="new 0 0 1792 1792" xml:space="preserve">
<g>
	<path d="M836.841,733.736c-0.012,0,0,0-0.006,0c-114.405,0-221.968,44.552-302.857,125.447
		c-14.126,14.126-14.126,37.032,0.005,51.159c14.121,14.131,37.032,14.131,51.165,0c67.221-67.229,156.607-104.249,251.687-104.249
		c95.085,0,184.483,37.026,251.717,104.258c7.065,7.068,16.322,10.6,25.579,10.588c9.256,0,18.513-3.52,25.579-10.588
		c14.132-14.131,14.132-37.037,0-51.169C1058.816,778.288,951.246,733.736,836.841,733.736z"/>
	<path d="M1420.528,631.237c53.23-53.226,82.544-123.992,82.544-199.264c0-75.266-29.313-146.033-82.532-199.264
		c-21.198-21.198-55.552-21.192-76.749-0.006c-21.199,21.193-21.199,55.551-0.013,76.744
		c32.729,32.733,50.758,76.249,50.758,122.525s-18.019,89.786-50.745,122.514l-19.468,19.466c-0.004,0.004-0.008,0.008-0.012,0.013
		l-27.447-27.448c-16.474-16.474-38.816-25.729-62.114-25.729c-23.297,0-45.64,9.255-62.113,25.73l-46.122,46.125
		c-5.102,5.102-12.861,6.427-19.369,3.313c-83.321-39.859-175.186-60.892-270.288-60.892c-167.478,0-324.927,65.215-443.355,183.63
		c-244.451,244.463-244.451,642.225,0,886.676c118.428,118.428,275.872,183.646,443.344,183.646
		c167.465,0,324.922-65.219,443.349-183.646c192.611-192.629,233.44-480.436,122.509-713.42c-3.095-6.499-1.764-14.25,3.325-19.34
		l46.352-46.358c34.299-34.304,34.298-89.917-0.004-124.219l-51.324-51.325c0.003-0.002,0.006-0.004,0.008-0.007L1420.528,631.237z
		 M1203.446,1528.635c-97.925,97.924-228.117,151.85-366.6,151.85c-138.477,0-268.67-53.926-366.594-151.85
		c-202.137-202.137-202.137-531.051-0.006-733.188c97.93-97.918,228.123-151.844,366.612-151.844
		c138.483,0,268.677,53.926,366.599,151.851C1405.571,997.584,1405.571,1326.486,1203.446,1528.635z"/>
	<path d="M1248.903,189.66c7.055,7.066,16.323,10.599,25.58,10.599s18.513-3.532,25.58-10.593c14.131-14.126,14.131-37.032,0-51.164
		l-56.623-56.634c-14.108-14.133-37.026-14.126-51.159-0.006c-14.132,14.126-14.132,37.032,0,51.165L1248.903,189.66z"/>
	<path d="M1150.356,307.68h80.082c19.984,0,36.179-16.199,36.179-36.178c0-19.98-16.194-36.179-36.179-36.179h-80.082
		c-19.984,0-36.179,16.199-36.179,36.179C1114.178,291.481,1130.372,307.68,1150.356,307.68z"/>
	<path d="M1381.582,155.418c19.985,0,36.179-16.198,36.179-36.178V39.158c0-19.979-16.193-36.178-36.179-36.178
		c-19.984,0-36.179,16.199-36.179,36.178v80.083C1345.403,139.22,1361.598,155.418,1381.582,155.418z"/>
	<path d="M1571.235,81.06c-14.132-14.121-37.05-14.126-51.157,0.005l-56.624,56.629c-14.132,14.126-14.132,37.033,0,51.165
		c7.067,7.061,16.322,10.594,25.579,10.594c9.258,0,18.525-3.533,25.58-10.599l56.622-56.629
		C1585.368,118.098,1585.368,95.192,1571.235,81.06z"/>
</g>
</svg>
