<?xml version="1.0" encoding="utf-8"?>
<!-- Generator: Adobe Illustrator 16.0.0, SVG Export Plug-In . SVG Version: 6.00 Build 0)  -->
<!DOCTYPE svg PUBLIC "-//W3C//DTD SVG 1.1//EN" "http://www.w3.org/Graphics/SVG/1.1/DTD/svg11.dtd">
<svg version="1.1" id="Layer_1" xmlns="http://www.w3.org/2000/svg" xmlns:xlink="http://www.w3.org/1999/xlink" x="0px" y="0px"
	 width="200px" height="200px" viewBox="796 796 200 200" enable-background="new 796 796 200 200" xml:space="preserve">
<g>
	<path d="M962.205,796.372H845.526c-15.566,0-28.231,12.665-28.231,28.233v142.792c0,15.568,12.665,28.231,28.231,28.231h116.679
		c6.893,0,12.5-5.607,12.5-12.5V808.873C974.705,801.979,969.098,796.372,962.205,796.372z M962.414,979.749
		c0,0.946-0.376,1.854-1.046,2.525c-0.67,0.67-1.578,1.046-2.525,1.046H845.526c-8.781,0-15.924-7.144-15.924-15.924v-119.49
		c4.536,3.11,10.021,4.931,15.924,4.931h113.302c1.972,0,3.57,1.598,3.57,3.569L962.414,979.749z M962.398,840.53H845.526
		c-8.781,0-15.924-7.144-15.924-15.925s7.143-15.926,15.924-15.926h116.679c0.106,0,0.193,0.087,0.193,0.193V840.53L962.398,840.53z
		"/>
	<path d="M868.049,897.936h55.902c3.397,0,6.154-2.756,6.154-6.154c0-3.4-2.757-6.154-6.154-6.154h-55.902
		c-3.399,0-6.154,2.754-6.154,6.154C861.895,895.179,864.65,897.936,868.049,897.936z"/>
</g>
</svg>
