<?xml version="1.0" encoding="utf-8"?>
<!-- Generator: Adobe Illustrator 16.0.0, SVG Export Plug-In . SVG Version: 6.00 Build 0)  -->
<!DOCTYPE svg PUBLIC "-//W3C//DTD SVG 1.1//EN" "http://www.w3.org/Graphics/SVG/1.1/DTD/svg11.dtd">
<svg version="1.1" id="Layer_1" xmlns="http://www.w3.org/2000/svg" xmlns:xlink="http://www.w3.org/1999/xlink" x="0px" y="0px"
	 width="1792px" height="1792px" viewBox="0 0 1792 1792" enable-background="new 0 0 1792 1792" xml:space="preserve">
<g>
	<path d="M1489.466,2.939H443.55c-139.535,0-253.06,113.529-253.06,253.078V1536c0,139.543,113.524,253.061,253.06,253.061h1045.916
		c61.78,0,112.044-50.264,112.044-112.046V114.99C1601.51,53.204,1551.246,2.939,1489.466,2.939z M1491.329,1646.729
		c0.001,8.489-3.37,16.631-9.373,22.634c-6.002,6.004-14.144,9.376-22.633,9.376H443.55c-78.707,0-142.738-64.032-142.738-142.739
		V464.894c40.659,27.879,89.822,44.196,142.738,44.196h1015.638c17.674,0,32.003,14.327,32.005,32.001L1491.329,1646.729z
		 M1491.188,398.769H443.55c-78.707,0-142.738-64.038-142.738-142.751c0-78.712,64.031-142.756,142.738-142.756h1045.916
		c0.944,0,1.723,0.778,1.723,1.729V398.769z"/>
	<path d="M645.448,913.34h501.105c30.464,0,55.16-24.696,55.16-55.161c0-30.465-24.696-55.161-55.16-55.161H645.448
		c-30.466,0-55.161,24.695-55.161,55.161C590.287,888.644,614.982,913.34,645.448,913.34z"/>
</g>
</svg>
