<?xml version="1.0" encoding="utf-8"?>
<!-- Generator: Adobe Illustrator 16.0.0, SVG Export Plug-In . SVG Version: 6.00 Build 0)  -->
<!DOCTYPE svg PUBLIC "-//W3C//DTD SVG 1.1//EN" "http://www.w3.org/Graphics/SVG/1.1/DTD/svg11.dtd">
<svg version="1.1" id="Layer_1" xmlns="http://www.w3.org/2000/svg" xmlns:xlink="http://www.w3.org/1999/xlink" x="0px" y="0px"
	 width="200px" height="200px" viewBox="796 796 200 200" enable-background="new 796 796 200 200" xml:space="preserve">
<path d="M977.535,839.466h-40.811v-14.396c0-10.724-8.725-19.449-19.448-19.449h-42.55c-10.724,0-19.449,8.726-19.449,19.449v14.396
	h-40.812c-10.087,0-18.294,8.207-18.294,18.294v28.275c0,3.969,1.662,7.654,4.399,10.283v71.767
	c0,10.089,8.207,18.295,18.294,18.295h154.27c10.089,0,18.294-8.206,18.294-18.295v-71.766c2.736-2.629,4.399-6.314,4.399-10.284
	V857.76C995.828,847.673,987.621,839.466,977.535,839.466z M867.541,825.069c0-3.961,3.224-7.185,7.186-7.185h42.55
	c3.961,0,7.184,3.224,7.184,7.185v14.396h-56.919V825.069z M808.437,857.76c0-3.325,2.704-6.029,6.029-6.029h163.069
	c3.323,0,6.028,2.704,6.028,6.029v28.275c0,0.889-0.596,1.674-1.452,1.911l-79.98,22.171v-7.741c0-3.386-2.744-6.133-6.131-6.133
	s-6.132,2.747-6.132,6.133v7.741l-79.979-22.171c-0.855-0.237-1.453-1.022-1.453-1.911V857.76z M973.135,974.116h-154.27
	c-3.324,0-6.029-2.706-6.029-6.03v-62.142c0-1.059,0.494-2.056,1.337-2.696c0.842-0.642,1.935-0.851,2.955-0.568l72.74,20.165v8.949
	c0,3.388,2.745,6.133,6.132,6.133s6.131-2.745,6.131-6.133v-8.949l72.742-20.165c1.019-0.282,2.113-0.072,2.955,0.569
	c0.842,0.641,1.336,1.637,1.336,2.695v62.141C979.164,971.41,976.459,974.116,973.135,974.116z"/>
</svg>
