<?xml version="1.0" encoding="utf-8"?>
<!-- Generator: Adobe Illustrator 16.0.0, SVG Export Plug-In . SVG Version: 6.00 Build 0)  -->
<!DOCTYPE svg PUBLIC "-//W3C//DTD SVG 1.1//EN" "http://www.w3.org/Graphics/SVG/1.1/DTD/svg11.dtd">
<svg version="1.1" id="Layer_1" xmlns="http://www.w3.org/2000/svg" xmlns:xlink="http://www.w3.org/1999/xlink" x="0px" y="0px"
	 width="200px" height="200px" viewBox="796 796 200 200" enable-background="new 796 796 200 200" xml:space="preserve">
<path d="M988.999,904.522h-33.482c-0.86-10.872-3.977-21.008-8.811-29.808c17.541-4.05,30.664-19.787,30.664-38.543
	c0-3.402-2.759-6.16-6.161-6.16s-6.159,2.758-6.159,6.16c0,14.656-11.642,26.613-26.159,27.19c-2.253-2.646-4.684-5.093-7.286-7.296
	c0.515-2.332,0.801-4.708,0.801-7.113c0-9.379-3.964-17.891-10.379-24.122l13.67-13.671c2.404-2.405,2.404-6.306-0.001-8.711
	c-2.407-2.405-6.307-2.406-8.713,0l-14.468,14.47c-0.28,0.281-0.521,0.585-0.736,0.904c-4.776-2.189-10.131-3.417-15.779-3.417
	c-5.75,0-11.19,1.275-16.03,3.539c-0.294-0.625-0.677-1.218-1.192-1.735l-13.76-13.76c-2.406-2.405-6.306-2.406-8.712,0
	c-2.405,2.405-2.405,6.306,0,8.712l13.668,13.668c-6.416,6.23-10.38,14.745-10.38,24.124c0,2.405,0.285,4.782,0.801,7.112
	c-2.603,2.204-5.033,4.65-7.287,7.296c-14.516-0.578-26.155-12.534-26.155-27.189c0-3.402-2.758-6.16-6.16-6.16
	s-6.16,2.758-6.16,6.16c0,18.754,13.12,34.491,30.661,38.543c-4.835,8.8-7.95,18.937-8.812,29.808h-33.479
	c-3.402,0-6.16,2.758-6.16,6.16c0,3.401,2.758,6.16,6.16,6.16h33.479c0.861,10.871,3.977,21.01,8.812,29.811
	c-17.541,4.052-30.661,19.788-30.661,38.542c0,3.402,2.758,6.16,6.159,6.16c3.403,0,6.16-2.758,6.16-6.16
	c0-14.655,11.641-26.611,26.155-27.19c10.873,12.767,26.077,20.723,42.893,20.723c16.816,0,32.021-7.956,42.893-20.723
	c14.518,0.577,26.158,12.534,26.158,27.19c0,3.402,2.758,6.16,6.16,6.16c3.401,0,6.16-2.758,6.16-6.16
	c0-18.755-13.122-34.492-30.663-38.542c4.834-8.802,7.95-18.939,8.811-29.811h33.482c3.401,0,6.16-2.759,6.16-6.16
	C995.159,907.28,992.401,904.522,988.999,904.522z M895.999,826.725c13.084,0,23.742,9.682,24.057,21.689
	c-7.366-3.703-15.501-5.775-24.057-5.775c-8.557,0-16.691,2.072-24.058,5.775C872.256,836.407,882.915,826.725,895.999,826.725z
	 M848.544,910.683c0-26.537,15.883-48.785,37.069-54.361c1.01-0.266,2.086-0.048,2.914,0.59c0.827,0.638,1.311,1.624,1.311,2.669
	v102.207c0,1.044-0.483,2.029-1.311,2.667s-1.904,0.857-2.914,0.592C864.427,959.47,848.544,937.22,848.544,910.683z
	 M906.384,965.046c-1.011,0.266-2.087,0.048-2.914-0.591c-0.826-0.637-1.312-1.624-1.312-2.668V859.581
	c0-1.044,0.485-2.03,1.312-2.667c0.827-0.638,1.904-0.857,2.914-0.591c21.188,5.576,37.069,27.824,37.069,54.36
	C943.453,937.22,927.571,959.47,906.384,965.046z"/>
</svg>
