<?xml version="1.0" encoding="utf-8"?>
<!-- Generator: Adobe Illustrator 16.0.0, SVG Export Plug-In . SVG Version: 6.00 Build 0)  -->
<!DOCTYPE svg PUBLIC "-//W3C//DTD SVG 1.1//EN" "http://www.w3.org/Graphics/SVG/1.1/DTD/svg11.dtd">
<svg version="1.1" id="Layer_1" xmlns="http://www.w3.org/2000/svg" xmlns:xlink="http://www.w3.org/1999/xlink" x="0px" y="0px"
	 width="200px" height="200px" viewBox="796 796 200 200" enable-background="new 796 796 200 200" xml:space="preserve">
<g>
	<path d="M953.953,796.409H838.046c-10.415,0-18.887,8.472-18.887,18.887v161.408c0,10.412,8.472,18.889,18.887,18.889h115.907
		c10.416,0,18.888-8.477,18.888-18.889V815.295C972.841,804.881,964.369,796.409,953.953,796.409z M960.557,976.703
		c0,3.641-2.962,6.604-6.604,6.604h-13.082v-41.635c0-3.77-3.055-6.824-6.828-6.824h-17.848c-3.771,0-6.825,3.055-6.825,6.824
		v41.635h-71.324c-3.642,0-6.604-2.963-6.604-6.604V815.295c0-3.642,2.961-6.604,6.604-6.604h115.907
		c3.642,0,6.604,2.961,6.604,6.604V976.703z"/>
	<path d="M875.805,825.65h-17.85c-3.77,0-6.825,3.056-6.825,6.825v17.85c0,3.77,3.056,6.825,6.825,6.825h17.85
		c3.769,0,6.824-3.055,6.824-6.825v-17.85C882.629,828.706,879.574,825.65,875.805,825.65z"/>
	<path d="M934.045,825.65h-17.848c-3.771,0-6.827,3.055-6.827,6.824v17.851c0,3.77,3.057,6.825,6.827,6.825h17.848
		c3.77,0,6.826-3.055,6.826-6.825v-17.851C940.871,828.705,937.814,825.65,934.045,825.65z"/>
	<path d="M875.805,880.249h-17.85c-3.77,0-6.825,3.056-6.825,6.825v17.848c0,3.771,3.055,6.826,6.825,6.826h17.85
		c3.769,0,6.824-3.055,6.824-6.826v-17.848C882.629,883.305,879.574,880.249,875.805,880.249z"/>
	<path d="M934.045,880.249h-17.848c-3.771,0-6.827,3.056-6.827,6.825v17.849c0,3.771,3.057,6.826,6.827,6.826h17.848
		c3.77,0,6.826-3.055,6.826-6.826v-17.849C940.871,883.304,937.814,880.249,934.045,880.249z"/>
	<path d="M875.805,934.848h-17.85c-3.77,0-6.825,3.057-6.825,6.826v17.85c0,3.77,3.055,6.826,6.825,6.826h17.85
		c3.769,0,6.824-3.057,6.824-6.826v-17.85C882.629,937.904,879.574,934.848,875.805,934.848z"/>
</g>
</svg>
