<?xml version="1.0" encoding="utf-8"?>
<!-- Generator: Adobe Illustrator 16.0.0, SVG Export Plug-In . SVG Version: 6.00 Build 0)  -->
<!DOCTYPE svg PUBLIC "-//W3C//DTD SVG 1.1//EN" "http://www.w3.org/Graphics/SVG/1.1/DTD/svg11.dtd">
<svg version="1.1" id="Layer_1" xmlns="http://www.w3.org/2000/svg" xmlns:xlink="http://www.w3.org/1999/xlink" x="0px" y="0px"
	 width="200px" height="200px" viewBox="796 796 200 200" enable-background="new 796 796 200 200" xml:space="preserve">
<path d="M958.89,796.355H833.111c-6.902,0-12.498,5.596-12.498,12.497v174.294c0,6.903,5.596,12.498,12.498,12.498h76.675
	c1.867,0,3.381-1.514,3.381-3.381v-47.563c0-4.02,3.259-7.278,7.276-7.278h19.035c4.019,0,7.277,3.259,7.277,7.278v47.563
	c0,1.867,1.512,3.381,3.378,3.381h8.756c6.901,0,12.497-5.595,12.497-12.498V808.853C971.387,801.951,965.79,796.355,958.89,796.355
	z M878.833,963.736c0,4.019-3.258,7.277-7.277,7.277h-19.034c-4.02,0-7.277-3.259-7.277-7.277v-19.033
	c0-4.021,3.258-7.279,7.277-7.279h19.034c4.019,0,7.277,3.259,7.277,7.279V963.736z M878.833,905.517
	c0,4.021-3.258,7.278-7.277,7.278h-19.034c-4.02,0-7.277-3.258-7.277-7.278v-19.032c0-4.02,3.258-7.278,7.277-7.278h19.034
	c4.019,0,7.277,3.259,7.277,7.278V905.517z M878.833,847.297c0,4.02-3.258,7.276-7.277,7.276h-19.034
	c-4.02,0-7.277-3.257-7.277-7.276v-19.033c0-4.02,3.258-7.277,7.277-7.277h19.033c4.02,0,7.278,3.258,7.278,7.277V847.297
	L878.833,847.297z M946.756,905.517c0,4.021-3.259,7.278-7.277,7.278h-19.035c-4.018,0-7.276-3.258-7.276-7.278v-19.033
	c0-4.02,3.259-7.278,7.276-7.278h19.035c4.019,0,7.277,3.259,7.277,7.278V905.517z M946.756,847.297c0,4.02-3.259,7.276-7.277,7.276
	h-19.035c-4.018,0-7.276-3.257-7.276-7.276v-19.034c0-4.019,3.259-7.276,7.276-7.276h19.035c4.019,0,7.277,3.258,7.277,7.276
	V847.297z"/>
</svg>
