<?xml version="1.0" encoding="utf-8"?>
<!-- Generator: Adobe Illustrator 16.0.0, SVG Export Plug-In . SVG Version: 6.00 Build 0)  -->
<!DOCTYPE svg PUBLIC "-//W3C//DTD SVG 1.1//EN" "http://www.w3.org/Graphics/SVG/1.1/DTD/svg11.dtd">
<svg version="1.1" id="Layer_1" xmlns="http://www.w3.org/2000/svg" xmlns:xlink="http://www.w3.org/1999/xlink" x="0px" y="0px"
	 width="200px" height="200px" viewBox="796 796 200 200" enable-background="new 796 796 200 200" xml:space="preserve">
<path d="M955.279,796.678c-5.758,0-11.15,2.532-15.979,7.153l-0.023-0.032c-3.209,2.294-6.477,4.808-9.939,7.47
	c-17.117,13.163-38.422,29.545-68.146,29.545h-38.044l0,0c0,0,0,0-0.001,0c-14.497,0-25.429,18.769-25.429,43.66
	c0,24.889,10.933,43.657,25.429,43.657c0,0,0,0,0.001,0l0,0h10.349l10.651,52.337c1.759,8.645,9.36,14.854,18.182,14.854h5.984
	c5.569,0,10.845-2.502,14.369-6.815c3.523-4.313,4.923-9.98,3.813-15.438l-8.791-43.2c21.387,4.553,37.865,17.22,51.635,27.807
	c3.461,2.662,6.73,5.176,9.939,7.472l0.021-0.029c4.83,4.622,10.221,7.154,15.98,7.154c22.236,0,39.004-37.744,39.004-87.798
	C994.283,834.422,977.516,796.678,955.279,796.678z M916.277,884.474c0,20.877,2.916,39.61,7.93,54.36
	c-14.828-10.571-32.638-20.627-55.68-22.424l0,0c-5.473,0-13.424-12.615-13.424-31.937c0-19.323,7.952-31.94,13.424-31.94l0,0
	c23.042-1.796,40.854-11.852,55.682-22.423C919.193,844.86,916.277,863.595,916.277,884.474z M955.279,960.266
	c-9.08,0-18.926-16.454-23.836-41.606l16.746-3.504c9.943-2.001,20.646-12.76,20.646-30.682c0-17.923-10.703-28.685-20.646-30.683
	l-16.746-3.504c4.91-25.15,14.756-41.604,23.836-41.604c12.744,0,26.998,32.412,26.998,75.79
	C982.277,927.854,968.023,960.266,955.279,960.266z"/>
</svg>
