<?xml version="1.0" encoding="utf-8"?>
<!-- Generator: Adobe Illustrator 16.0.0, SVG Export Plug-In . SVG Version: 6.00 Build 0)  -->
<!DOCTYPE svg PUBLIC "-//W3C//DTD SVG 1.1//EN" "http://www.w3.org/Graphics/SVG/1.1/DTD/svg11.dtd">
<svg version="1.1" id="Layer_1" xmlns="http://www.w3.org/2000/svg" xmlns:xlink="http://www.w3.org/1999/xlink" x="0px" y="0px"
	 width="1792px" height="1792px" viewBox="0 0 1792 1792" enable-background="new 0 0 1792 1792" xml:space="preserve">
<path d="M1650.439,472.484c-0.135,0-0.266,0.004-0.398,0.004c-9.345-263.812-181.203-470.994-462.955-470.994
	c-198.147,0-68.359,0-291.086,0c-222.702,0-92.932,0-291.08,0c-281.742,0-453.605,207.182-462.95,470.994
	c-0.138,0-0.272-0.004-0.409-0.004c-72.964,0-132.111,59.146-132.111,132.112v203.191c0,72.963,59.147,132.111,132.111,132.111
	v513.671c0,46.516,31.427,84.35,80.788,84.35v186.328c0,36.594,29.682,66.26,66.271,66.26h151.851
	c36.579,0,66.249-29.666,66.249-66.26v-186.328H896h389.276v186.328c0,36.594,29.661,66.26,66.268,66.26h151.835
	c36.607,0,66.262-29.666,66.262-66.26v-186.328h0.021c49.351,0,80.789-37.834,80.789-84.35V939.897
	c72.953-0.005,132.1-59.151,132.1-132.111V604.596C1782.551,531.63,1723.398,472.484,1650.439,472.484z M727.724,82.662h342.562
	c29.699,0,53.774,24.074,53.774,53.773c0,29.7-24.075,53.773-53.774,53.773H727.724c-29.698,0-53.773-24.074-53.773-53.773
	C673.95,106.736,698.025,82.662,727.724,82.662z M432.956,1349.757H296.124c-40.733,0-73.775-33.013-73.775-73.764
	c0-40.738,33.042-73.787,73.775-73.787h136.832c40.732,0,73.764,33.049,73.764,73.787
	C506.72,1316.744,473.688,1349.757,432.956,1349.757z M364.634,1087.12c-44.185,0-80.004-35.818-80.004-80.004V474.755
	c0-103.97,84.284-188.255,188.254-188.255h846.244c103.968,0,188.252,84.285,188.252,188.255v532.361
	c0,44.186-35.818,80.004-80.003,80.004H364.634z M1495.886,1349.757h-136.837c-40.727,0-73.772-33.013-73.772-73.764
	c0-40.738,33.046-73.787,73.772-73.787h136.837c40.728,0,73.755,33.049,73.755,73.787
	C1569.641,1316.744,1536.613,1349.757,1495.886,1349.757z"/>
</svg>
