<?xml version="1.0" encoding="utf-8"?>
<!-- Generator: Adobe Illustrator 16.0.0, SVG Export Plug-In . SVG Version: 6.00 Build 0)  -->
<!DOCTYPE svg PUBLIC "-//W3C//DTD SVG 1.1//EN" "http://www.w3.org/Graphics/SVG/1.1/DTD/svg11.dtd">
<svg version="1.1" id="Layer_1" xmlns="http://www.w3.org/2000/svg" xmlns:xlink="http://www.w3.org/1999/xlink" x="0px" y="0px"
	 width="200px" height="200px" viewBox="796 796 200 200" enable-background="new 796 796 200 200" xml:space="preserve">
<path d="M979.982,848.855c-0.014,0-0.029,0-0.043,0c-1.041-29.367-20.172-52.43-51.537-52.43c-22.057,0-7.607,0-32.402,0
	c-24.791,0-10.345,0-32.403,0c-31.362,0-50.494,23.063-51.534,52.43c-0.016,0-0.03,0-0.045,0c-8.123,0-14.707,6.584-14.707,14.707
	v22.619c0,8.122,6.584,14.707,14.707,14.707v57.18c0,5.18,3.499,9.391,8.993,9.391v20.742c0,4.072,3.305,7.375,7.377,7.375h16.904
	c4.072,0,7.375-3.303,7.375-7.375v-20.742H896h43.334v20.742c0,4.072,3.301,7.375,7.377,7.375h16.9c4.076,0,7.377-3.303,7.377-7.375
	v-20.742h0.002c5.494,0,8.994-4.211,8.994-9.391v-57.18c8.121,0,14.705-6.585,14.705-14.707v-22.619
	C994.689,855.439,988.105,848.855,979.982,848.855z M877.268,805.461H915.4c3.307,0,5.986,2.68,5.986,5.985
	c0,3.307-2.68,5.986-5.986,5.986h-38.133c-3.306,0-5.986-2.679-5.986-5.986C871.282,808.141,873.961,805.461,877.268,805.461z
	 M844.455,946.512h-15.232c-4.534,0-8.212-3.676-8.212-8.211s3.678-8.215,8.212-8.215h15.232c4.534,0,8.211,3.68,8.211,8.215
	S848.989,946.512,844.455,946.512z M836.849,917.275c-4.918,0-8.906-3.988-8.906-8.906v-59.261c0-11.574,9.382-20.956,20.956-20.956
	h94.202c11.574,0,20.957,9.382,20.957,20.956v59.261c0,4.918-3.988,8.906-8.908,8.906H836.849z M962.777,946.512h-15.232
	c-4.533,0-8.211-3.676-8.211-8.211s3.678-8.215,8.211-8.215h15.232c4.535,0,8.211,3.68,8.211,8.215S967.313,946.512,962.777,946.512
	z"/>
</svg>
