<?xml version="1.0" encoding="utf-8"?>
<!-- Generator: Adobe Illustrator 16.0.0, SVG Export Plug-In . SVG Version: 6.00 Build 0)  -->
<!DOCTYPE svg PUBLIC "-//W3C//DTD SVG 1.1//EN" "http://www.w3.org/Graphics/SVG/1.1/DTD/svg11.dtd">
<svg version="1.1" id="Layer_1" xmlns="http://www.w3.org/2000/svg" xmlns:xlink="http://www.w3.org/1999/xlink" x="0px" y="0px"
	 width="1792px" height="1792px" viewBox="0 0 1792 1792" enable-background="new 0 0 1792 1792" xml:space="preserve">
<g>
	<path d="M1610.572,256.268H181.428c-99.293,0-180.068,80.776-180.068,180.068v919.328c0,99.294,80.775,180.069,180.068,180.069
		h1429.145c99.293,0,180.068-80.775,180.068-180.069V436.335C1790.641,337.043,1709.865,256.268,1610.572,256.268z M181.428,366.227
		h1429.145c38.658,0,70.108,31.451,70.108,70.108v213.197h-346.729c-11.46,0-22.112,5.906-28.188,15.624
		c-6.076,9.719-6.729,21.89-1.698,32.188c29.309,60.001,45.806,127.395,45.806,198.669c0,250.648-203.215,453.84-453.871,453.84
		c-250.666,0-453.87-203.191-453.87-453.84c0-71.273,16.489-138.667,45.801-198.668c5.033-10.305,4.401-22.479-1.679-32.203
		c-6.078-9.726-16.738-15.609-28.207-15.609H111.319V436.335C111.319,397.678,142.771,366.227,181.428,366.227z"/>
	<path d="M896,1259.58c200.781,0,363.574-162.805,363.574-363.569c0-200.788-162.793-363.574-363.574-363.574
		c-200.782,0-363.574,162.786-363.574,363.574C532.426,1096.775,695.218,1259.58,896,1259.58z"/>
	<path d="M285.827,598.514h150.456c44.266,0,80.167-35.878,80.167-80.15c0-44.248-35.901-80.125-80.167-80.125H285.827
		c-44.277,0-80.131,35.877-80.131,80.125C205.696,562.636,241.55,598.514,285.827,598.514z"/>
</g>
</svg>
