<?xml version="1.0" encoding="utf-8"?>
<!-- Generator: Adobe Illustrator 16.0.0, SVG Export Plug-In . SVG Version: 6.00 Build 0)  -->
<!DOCTYPE svg PUBLIC "-//W3C//DTD SVG 1.1//EN" "http://www.w3.org/Graphics/SVG/1.1/DTD/svg11.dtd">
<svg version="1.1" id="Layer_1" xmlns="http://www.w3.org/2000/svg" xmlns:xlink="http://www.w3.org/1999/xlink" x="0px" y="0px"
	 width="200px" height="200px" viewBox="796 796 200 200" enable-background="new 796 796 200 200" xml:space="preserve">
<g>
	<path d="M975.873,824.493H816.127c-11.099,0-20.127,9.029-20.127,20.127V947.38c0,11.1,9.029,20.127,20.127,20.127h159.746
		c11.098,0,20.127-9.027,20.127-20.127V844.62C996,833.522,986.971,824.493,975.873,824.493z M816.127,836.784h159.746
		c4.32,0,7.836,3.516,7.836,7.836v23.831h-38.756c-1.281,0-2.473,0.66-3.15,1.747c-0.68,1.086-0.753,2.447-0.19,3.598
		c3.276,6.707,5.12,14.24,5.12,22.207c0,28.016-22.715,50.728-50.732,50.728c-28.019,0-50.732-22.712-50.732-50.728
		c0-7.966,1.843-15.5,5.119-22.207c0.563-1.152,0.492-2.512-0.188-3.599c-0.679-1.087-1.871-1.745-3.153-1.745h-38.756V844.62
		C808.291,840.299,811.807,836.784,816.127,836.784z"/>
	<path d="M896,936.64c22.443,0,40.639-18.198,40.639-40.638c0-22.443-18.195-40.639-40.639-40.639
		c-22.443,0-40.639,18.196-40.639,40.639C855.361,918.441,873.557,936.64,896,936.64z"/>
	<path d="M827.797,862.748h16.817c4.948,0,8.961-4.01,8.961-8.959c0-4.946-4.013-8.956-8.961-8.956h-16.817
		c-4.949,0-8.957,4.01-8.957,8.956C818.84,858.738,822.848,862.748,827.797,862.748z"/>
</g>
</svg>
