<?xml version="1.0" encoding="utf-8"?>
<!-- Generator: Adobe Illustrator 21.0.0, SVG Export Plug-In . SVG Version: 6.00 Build 0)  -->
<svg version="1.1" id="Layer_1" xmlns="http://www.w3.org/2000/svg" xmlns:xlink="http://www.w3.org/1999/xlink" x="0px" y="0px"
	 viewBox="0 0 1792 1792" style="enable-background:new 0 0 1792 1792;" xml:space="preserve">
<g>
	<g>
		<path d="M1476.1,270.1c25,0,45.7,20.7,45.7,45.7v1154.9c0,25-20.7,45.7-45.7,45.7H321.2c-25,0-45.7-20.7-45.7-45.7V315.8
			c0-25,20.7-45.7,45.7-45.7H1476.1 M1476.1,97.7H321.2C200.9,97.7,103,195.6,103,315.8v1154.9c0,120.3,97.9,218.1,218.1,218.1
			h1154.9c120.3,0,218.1-97.9,218.1-218.1V315.8C1694.3,195.6,1596.4,97.7,1476.1,97.7L1476.1,97.7z"/>
	</g>
	<path d="M887.2,1257.4c-24.6,0-43.5-9.9-57.8-29.7L474.7,731c-16.8-22.8-19-47.4-5.6-73.3c12.5-25.9,33.6-38.8,63.4-38.8h709.2
		c29.7,0,50.4,12.9,63.4,38.8c13.4,25.9,11.6,50.4-5.6,73.3l-354.8,496.6C930.8,1247.5,911.4,1257.4,887.2,1257.4z"/>
</g>
</svg>
