<?xml version="1.0" encoding="utf-8"?>
<!-- Generator: Adobe Illustrator 21.0.0, SVG Export Plug-In . SVG Version: 6.00 Build 0)  -->
<svg version="1.1" id="Layer_1" xmlns="http://www.w3.org/2000/svg" xmlns:xlink="http://www.w3.org/1999/xlink" x="0px" y="0px"
	 viewBox="0 0 1792 1792" style="enable-background:new 0 0 1792 1792;" xml:space="preserve">
<g>
	<g>
		<path d="M275.5,315.8c0-25,20.7-45.7,45.7-45.7h1154.9c25,0,45.7,20.7,45.7,45.7v1154.9c0,25-20.7,45.7-45.7,45.7H321.2
			c-25,0-45.7-20.7-45.7-45.7V315.8 M103,315.8v1154.9c0,120.3,97.9,218.1,218.1,218.1h1154.9c120.3,0,218.1-97.9,218.1-218.1V315.8
			c0-120.3-97.9-218.1-218.1-218.1H321.2C200.9,97.7,103,195.6,103,315.8L103,315.8z"/>
	</g>
	<path d="M1262.7,904.7c0,24.6-9.9,43.5-29.7,57.8l-496.6,354.8c-22.8,16.8-47.4,19-73.3,5.6c-25.9-12.5-38.8-33.6-38.8-63.4V550.4
		c0-29.7,12.9-50.4,38.8-63.4c25.9-13.4,50.4-11.6,73.3,5.6L1233,847.4C1252.8,861.2,1262.7,880.6,1262.7,904.7z"/>
</g>
</svg>
