<?xml version="1.0" encoding="utf-8"?>
<!-- Generator: Adobe Illustrator 21.0.0, SVG Export Plug-In . SVG Version: 6.00 Build 0)  -->
<svg version="1.1" id="Layer_1" xmlns="http://www.w3.org/2000/svg" xmlns:xlink="http://www.w3.org/1999/xlink" x="0px" y="0px"
	 viewBox="0 0 449.6 449.5" style="enable-background:new 0 0 449.6 449.5;" xml:space="preserve">
<path d="M153.3,354.9L153.3,354.9c-14.9-14.9-14.9-39.1,0-54.1l194.8-195c14.9-14.9,39.1-14.9,54.1,0l0,0
	c14.9,14.9,14.9,39.1,0,54.1l-194.8,195C192.6,369.9,168.3,369.9,153.3,354.9z"/>
<path d="M207.9,354.9L207.9,354.9c-14.9,14.9-39.1,14.9-54.1,0l-90.1-90c-14.9-14.9-14.9-39.1,0-54.1l0,0
	c14.9-14.9,39.1-14.9,54.1,0l90.1,90C222.8,315.6,222.8,340,207.9,354.9z"/>
</svg>
