<?xml version="1.0" encoding="utf-8"?>
<!-- Generator: Adobe Illustrator 21.0.0, SVG Export Plug-In . SVG Version: 6.00 Build 0)  -->
<svg version="1.1" id="Layer_1" xmlns="http://www.w3.org/2000/svg" xmlns:xlink="http://www.w3.org/1999/xlink" x="0px" y="0px"
	 viewBox="0 0 449.6 449.5" style="enable-background:new 0 0 449.6 449.5;" xml:space="preserve">
<g>
	<g>
		<path d="M361.4,77.5c5.8,0,10.6,4.8,10.6,10.6V356c0,5.8-4.8,10.6-10.6,10.6H93.5c-5.8,0-10.6-4.8-10.6-10.6V88.1
			c0-5.8,4.8-10.6,10.6-10.6H361.4 M361.4,37.5H93.5c-27.9,0-50.6,22.7-50.6,50.6V356c0,27.9,22.7,50.6,50.6,50.6h267.9
			c27.9,0,50.6-22.7,50.6-50.6V88.1C412,60.2,389.3,37.5,361.4,37.5L361.4,37.5z"/>
	</g>
</g>
<path d="M342.2,139.3c-10.4-10.4-27.2-10.4-37.5,0L188.5,255.7l-43.6-43.5c-10.4-10.4-27.2-10.4-37.5,0c-10.4,10.4-10.4,27.2,0,37.5
	l59.8,59.7c0.7,1,1.5,1.9,2.4,2.7c5.2,5.2,12.1,7.8,19,7.8c6.8,0,13.7-2.5,18.9-7.8c0.9-0.9,1.7-1.8,2.4-2.8l132.4-132.5
	C352.6,166.5,352.6,149.7,342.2,139.3z"/>
</svg>
