<?xml version="1.0" encoding="utf-8"?>
<!-- Generator: Adobe Illustrator 21.0.0, SVG Export Plug-In . SVG Version: 6.00 Build 0)  -->
<svg version="1.1" id="Layer_1" xmlns="http://www.w3.org/2000/svg" xmlns:xlink="http://www.w3.org/1999/xlink" x="0px" y="0px"
	 viewBox="0 0 449.6 449.5" style="enable-background:new 0 0 449.6 449.5;" xml:space="preserve">
<g>
	<path d="M166.1,312L166.1,312c-9.5-9.5-9.5-24.9,0-34.4l124-124.1c9.5-9.5,24.9-9.5,34.4,0l0,0c9.5,9.5,9.5,24.9,0,34.4L200.5,312
		C191.1,321.5,175.6,321.5,166.1,312z"/>
	<path d="M200.9,312L200.9,312c-9.5,9.5-24.9,9.5-34.4,0L109,254.8c-9.5-9.5-9.5-24.9,0-34.4l0,0c9.5-9.5,24.9-9.5,34.4,0l57.4,57.3
		C210.4,287,210.4,302.5,200.9,312z"/>
</g>
<g>
	<path d="M224.8,80.2c38.6,0,74.9,15,102.2,42.3c27.3,27.3,42.3,63.6,42.3,102.2s-15,74.9-42.3,102.2
		c-27.3,27.3-63.6,42.3-102.2,42.3s-74.9-15-102.2-42.3c-27.3-27.3-42.3-63.6-42.3-102.2s15-74.9,42.3-102.2S186.2,80.2,224.8,80.2
		 M224.8,40.2c-101.9,0-184.6,82.6-184.6,184.5s82.6,184.5,184.6,184.5s184.6-82.6,184.6-184.5S326.7,40.2,224.8,40.2L224.8,40.2z"
		/>
</g>
</svg>
