<?xml version="1.0" encoding="utf-8"?>
<!-- Generator: Adobe Illustrator 21.0.0, SVG Export Plug-In . SVG Version: 6.00 Build 0)  -->
<svg version="1.1" id="Layer_1" xmlns="http://www.w3.org/2000/svg" xmlns:xlink="http://www.w3.org/1999/xlink" x="0px" y="0px"
	 viewBox="0 0 449.6 449.5" style="enable-background:new 0 0 449.6 449.5;" xml:space="preserve">
<style type="text/css">
	.st0{fill:#FFFFFF;}
</style>
<circle cx="224.8" cy="224.8" r="184.6"/>
<path class="st0" d="M332.6,145.5c-9.5-9.5-24.9-9.5-34.4,0L191.5,252.2l-40-39.9c-9.5-9.5-24.9-9.5-34.4,0
	c-9.5,9.5-9.5,24.9,0,34.4l55,54.9c0.6,0.8,1.3,1.7,2.1,2.4c4.8,4.8,11.1,7.2,17.4,7.1c6.3,0,12.6-2.3,17.4-7.1
	c0.8-0.8,1.5-1.6,2.1-2.4l121.6-121.7C342.1,170.4,342.1,155,332.6,145.5z"/>
</svg>
