<?xml version="1.0" encoding="utf-8"?>
<!-- Generator: Adobe Illustrator 21.0.0, SVG Export Plug-In . SVG Version: 6.00 Build 0)  -->
<svg version="1.1" id="Layer_1" xmlns="http://www.w3.org/2000/svg" xmlns:xlink="http://www.w3.org/1999/xlink" x="0px" y="0px"
	 viewBox="0 0 1792 1792" style="enable-background:new 0 0 1792 1792;" xml:space="preserve">
<g>
	<path d="M645.4,1268.7L645.4,1268.7c-40.6-40.6-40.6-106.3,0-146.9l529.5-529.9c40.6-40.6,106.3-40.6,146.9,0l0,0
		c40.6,40.6,40.6,106.3,0,146.9l-529.5,529.9C752.1,1309.3,685.9,1309.3,645.4,1268.7z"/>
	<path d="M794,1268.7L794,1268.7c-40.6,40.6-106.3,40.6-146.9,0l-245.5-244.2c-40.6-40.6-40.6-106.3,0-146.9l0,0
		c40.6-40.6,106.3-40.6,146.9,0l245.1,244.7C834.5,1162,834.5,1228.1,794,1268.7z"/>
</g>
<g>
	<path d="M896,279c164.8,0,319.8,64,436.4,180.6C1448.9,576.1,1513,731.1,1513,895.9s-64,319.8-180.6,436.4
		c-116.6,116.6-271.6,180.6-436.4,180.6s-319.8-64-436.4-180.6S279,1060.8,279,895.9s64-319.8,180.6-436.4S731.2,279,896,279
		 M896,108.2c-435.1,0-788.2,352.7-788.2,787.8s352.7,787.8,788.2,787.8S1684.2,1331,1684.2,896S1331.1,108.2,896,108.2L896,108.2z"
		/>
</g>
</svg>
