<?xml version="1.0" encoding="utf-8"?>
<!-- Generator: Adobe Illustrator 21.0.0, SVG Export Plug-In . SVG Version: 6.00 Build 0)  -->
<svg version="1.1" id="Layer_1" xmlns="http://www.w3.org/2000/svg" xmlns:xlink="http://www.w3.org/1999/xlink" x="0px" y="0px"
	 viewBox="0 0 1792 1792" style="enable-background:new 0 0 1792 1792;" xml:space="preserve">
<style type="text/css">
	.st0{fill:#FFFFFF;}
</style>
<path d="M1473.1,101.9H324.2c-119.7,0-217,97.3-217,217v1148.9c0,119.7,97.3,217,217,217h1148.9c119.7,0,217-97.3,217-217V318.9
	C1690.1,199.2,1592.8,101.9,1473.1,101.9L1473.1,101.9z"/>
<path class="st0" d="M1390.8,534.1c-44.6-44.6-116.6-44.6-160.8,0l-498.3,499.2l-187-186.6c-44.6-44.6-116.6-44.6-160.8,0
	c-44.6,44.6-44.6,116.6,0,160.8l256.5,256c3,4.3,6.4,8.1,10.3,11.6c22.3,22.3,51.9,33.5,81.5,33.5c29.2,0,58.8-10.7,81.1-33.5
	c3.9-3.9,7.3-7.7,10.3-12L1391.2,695C1435.4,650.8,1435.4,578.7,1390.8,534.1z"/>
</svg>
