<?xml version="1.0" encoding="utf-8"?>
<!-- Generator: Adobe Illustrator 21.0.0, SVG Export Plug-In . SVG Version: 6.00 Build 0)  -->
<svg version="1.1" id="Layer_1" xmlns="http://www.w3.org/2000/svg" xmlns:xlink="http://www.w3.org/1999/xlink" x="0px" y="0px"
	 viewBox="0 0 1792 1792" style="enable-background:new 0 0 1792 1792;" xml:space="preserve">
<g>
	<g>
		<path d="M1474.6,271.8c24.9,0,45.6,20.6,45.6,45.6v1151.8c0,24.9-20.6,45.6-45.6,45.6H322.7c-24.9,0-45.6-20.6-45.6-45.6V317.4
			c0-24.9,20.6-45.6,45.6-45.6H1474.6 M1474.6,99.9H322.7c-120,0-217.5,97.6-217.5,217.5v1151.8c0,120,97.6,217.5,217.5,217.5
			h1151.8c120,0,217.5-97.6,217.5-217.5V317.4C1692.1,197.4,1594.5,99.9,1474.6,99.9L1474.6,99.9z"/>
	</g>
</g>
<path d="M1392,537.5c-44.7-44.7-116.9-44.7-161.2,0L731.2,1038L543.7,851c-44.7-44.7-116.9-44.7-161.2,0
	c-44.7,44.7-44.7,116.9,0,161.2l257.1,256.7c3,4.3,6.4,8.2,10.3,11.6c22.4,22.4,52,33.5,81.7,33.5c29.2,0,58.9-10.7,81.3-33.5
	c3.9-3.9,7.3-7.7,10.3-12l569.2-569.7C1436.7,654.5,1436.7,582.2,1392,537.5z"/>
</svg>
