<?xml version="1.0" encoding="utf-8"?>
<!-- Generator: Adobe Illustrator 21.0.0, SVG Export Plug-In . SVG Version: 6.00 Build 0)  -->
<svg version="1.1" id="Layer_1" xmlns="http://www.w3.org/2000/svg" xmlns:xlink="http://www.w3.org/1999/xlink" x="0px" y="0px"
	 viewBox="0 0 449.6 449.5" style="enable-background:new 0 0 449.6 449.5;" xml:space="preserve">
<path d="M397.2,123.6C379.3,93,355,68.7,324.4,50.8C306,40.1,286.5,32.6,266,28.3v60.2c10.1,3.1,19.8,7.4,29.1,12.8
	c21.7,12.7,38.9,29.9,51.6,51.6s19,45.4,19,71.1s-6.3,49.4-19,71.1s-29.9,38.9-51.6,51.6s-45.4,19-71.1,19s-49.4-6.3-71.1-19
	s-38.9-29.9-51.6-51.6s-19-45.4-19-71.1s6.3-49.4,19-71.1s29.9-38.9,51.6-51.6c9.3-5.4,19-9.7,29.1-12.8V28.3
	c-20.5,4.3-40,11.8-58.4,22.5C93,68.7,68.7,93,50.8,123.6C32.9,154.3,24,187.7,24,224s8.9,69.7,26.8,100.4
	c17.9,30.6,42.1,54.9,72.8,72.8C154.3,415.1,187.7,424,224,424s69.7-8.9,100.4-26.8c30.6-17.9,54.9-42.1,72.8-72.8
	C415.1,293.7,424,260.3,424,224S415.1,154.3,397.2,123.6z"/>
</svg>
