<?xml version="1.0" encoding="utf-8"?>
<!-- Generator: Adobe Illustrator 21.0.0, SVG Export Plug-In . SVG Version: 6.00 Build 0)  -->
<svg version="1.1" id="Layer_1" xmlns="http://www.w3.org/2000/svg" xmlns:xlink="http://www.w3.org/1999/xlink" x="0px" y="0px"
	 viewBox="0 0 449.6 449.5" style="enable-background:new 0 0 449.6 449.5;" xml:space="preserve">
<path d="M224,82.3c-25.7,0-49.4,6.3-71.1,19s-38.9,29.9-51.6,51.6s-19,45.4-19,71.1s6.3,49.4,19,71.1s29.9,38.9,51.6,51.6
	s45.4,19,71.1,19s49.4-6.3,71.1-19s38.9-29.9,51.6-51.6s19-45.4,19-71.1s-6.3-49.4-19-71.1s-29.9-38.9-51.6-51.6
	S249.7,82.3,224,82.3z M424,224c0,36.3-8.9,69.7-26.8,100.4c-17.9,30.6-42.1,54.9-72.8,72.8C293.7,415.1,260.3,424,224,424
	s-69.7-8.9-100.4-26.8C93,379.3,68.7,355,50.8,324.4S24,260.3,24,224s8.9-69.7,26.8-100.4S93,68.7,123.6,50.8S187.7,24,224,24
	s69.7,8.9,100.4,26.8s54.9,42.1,72.8,72.8C415.1,154.3,424,187.7,424,224z"/>
</svg>
