<?xml version="1.0" encoding="utf-8"?>
<!-- Generator: Adobe Illustrator 16.0.0, SVG Export Plug-In . SVG Version: 6.00 Build 0)  -->
<!DOCTYPE svg PUBLIC "-//W3C//DTD SVG 1.1//EN" "http://www.w3.org/Graphics/SVG/1.1/DTD/svg11.dtd">
<svg version="1.1" id="Layer_1" xmlns="http://www.w3.org/2000/svg" xmlns:xlink="http://www.w3.org/1999/xlink" x="0px" y="0px"
	 width="2048px" height="1792px" viewBox="0 0 2048 1792" enable-background="new 0 0 2048 1792" xml:space="preserve">
<path d="M1631.17,939.635l0.69-4.621h79.514c186.396,0,338.038-151.648,338.038-338.051s-151.642-338.051-338.038-338.051h-182.668
	h-76.422H432.524c-51.286,0-99.91,22.286-133.408,61.166c-33.483,38.865-48.327,90.253-40.723,140.992l71.682,478.564
	c22.123,147.724,108.192,273.779,227.193,351.462H-1.412c0,133.651,108.353,241.991,242.017,241.991h1447.982
	c133.666,0,242.031-108.34,242.031-241.991h-526.641C1522.979,1213.414,1609.047,1087.358,1631.17,939.635z M1707.497,449.293
	c2.325-14.639,16.062-24.623,30.704-22.32c82.179,12.921,145.238,84.229,145.238,169.989c0,94.887-77.192,172.079-172.065,172.079
	h-23.194c-7.861,0-15.327-3.443-20.432-9.422c-5.104-5.979-7.333-13.893-6.1-21.657L1707.497,449.293z M1126.836,1208.098H834.41
	c-168.917,0-315.17-125.98-340.198-293.046L422.53,436.494c-0.432-2.918,0.418-5.876,2.323-8.084
	c1.931-2.242,4.728-3.525,7.671-3.525h1019.76h76.422c2.946,0,5.741,1.283,7.646,3.505c1.931,2.229,2.783,5.187,2.351,8.098
	l-71.667,478.564C1442.006,1082.117,1295.753,1208.098,1126.836,1208.098z"/>
</svg>
