<?xml version="1.0" encoding="utf-8"?>
<!-- Generator: Adobe Illustrator 16.0.0, SVG Export Plug-In . SVG Version: 6.00 Build 0)  -->
<!DOCTYPE svg PUBLIC "-//W3C//DTD SVG 1.1//EN" "http://www.w3.org/Graphics/SVG/1.1/DTD/svg11.dtd">
<svg version="1.1" id="Layer_1" xmlns="http://www.w3.org/2000/svg" xmlns:xlink="http://www.w3.org/1999/xlink" x="0px" y="0px"
	 width="200px" height="200px" viewBox="924 796 200 200" enable-background="new 924 796 200 200" xml:space="preserve">
<path d="M1083.213,900.256l0.066-0.45h7.755c18.177,0,32.966-14.79,32.966-32.968c0-18.179-14.789-32.968-32.966-32.968h-17.814
	h-7.452h-99.449c-5.001,0-9.744,2.174-13.01,5.965c-3.266,3.791-4.713,8.802-3.971,13.75l6.99,46.671
	c2.158,14.406,10.551,26.699,22.156,34.275H924c0,13.033,10.567,23.599,23.602,23.599h141.209c13.036,0,23.604-10.565,23.604-23.599
	h-51.358C1072.661,926.955,1081.055,914.662,1083.213,900.256z M1090.656,852.437c0.227-1.428,1.566-2.401,2.994-2.177
	c8.014,1.26,14.164,8.215,14.164,16.578c0,9.253-7.528,16.781-16.78,16.781h-2.263c-0.766,0-1.494-0.336-1.992-0.919
	s-0.715-1.354-0.595-2.112L1090.656,852.437z M1034.029,926.437h-28.519c-16.473,0-30.736-12.285-33.177-28.578l-6.99-46.67
	c-0.042-0.284,0.041-0.573,0.227-0.788c0.188-0.219,0.461-0.344,0.748-0.344h99.449h7.452c0.288,0,0.56,0.125,0.745,0.342
	c0.189,0.217,0.271,0.506,0.23,0.789l-6.99,46.671C1064.765,914.151,1050.502,926.437,1034.029,926.437z"/>
</svg>
