<?xml version="1.0" encoding="utf-8"?>
<!-- Generator: Adobe Illustrator 16.0.0, SVG Export Plug-In . SVG Version: 6.00 Build 0)  -->
<!DOCTYPE svg PUBLIC "-//W3C//DTD SVG 1.1//EN" "http://www.w3.org/Graphics/SVG/1.1/DTD/svg11.dtd">
<svg version="1.1" id="Layer_1" xmlns="http://www.w3.org/2000/svg" xmlns:xlink="http://www.w3.org/1999/xlink" x="0px" y="0px"
	 width="200px" height="200px" viewBox="796 796 200 200" enable-background="new 796 796 200 200" xml:space="preserve">
<path d="M980.773,878.811h-5.092c-4.585,0-8.678-2.899-10.198-7.226c-0.928-2.647-2.004-5.227-3.215-7.726
	c-2.012-4.138-1.18-9.106,2.075-12.361l3.516-3.516c5.953-5.953,5.951-15.593,0.002-21.543l-2.535-2.537
	c-5.948-5.947-15.594-5.951-21.537,0l-3.599,3.596c-3.241,3.242-8.182,4.087-12.319,2.105c-2.5-1.203-5.082-2.264-7.733-3.183
	c-4.353-1.505-7.275-5.607-7.275-10.209v-4.979c0-8.412-6.822-15.231-15.235-15.231h-3.585c-8.415,0-15.233,6.819-15.233,15.231
	v5.089c0,4.587-2.899,8.679-7.229,10.199c-2.645,0.928-5.22,2.003-7.717,3.215c-4.14,2.012-9.105,1.178-12.361-2.079l-3.52-3.516
	c-5.95-5.951-15.592-5.949-21.541,0l-2.538,2.537c-5.946,5.949-5.949,15.591,0,21.542l3.594,3.591
	c3.243,3.245,4.088,8.186,2.103,12.319c-1.2,2.503-2.262,5.085-3.18,7.736c-1.504,4.35-5.608,7.277-10.212,7.277h-4.978
	c-8.41,0-15.23,6.819-15.23,15.233v3.586c0,8.41,6.821,15.234,15.23,15.23h5.087c4.586,0,8.683,2.9,10.199,7.229
	c0.932,2.645,2.008,5.223,3.219,7.723c2.01,4.137,1.178,9.105-2.079,12.361l-3.516,3.516c-5.95,5.947-5.95,15.592,0,21.543
	l2.538,2.537c5.946,5.945,15.591,5.945,21.537-0.004l3.594-3.594c3.243-3.24,8.186-4.086,12.319-2.102
	c2.503,1.201,5.087,2.264,7.738,3.184c4.352,1.502,7.276,5.607,7.276,10.211v4.973c0,8.416,6.819,15.232,15.23,15.232h3.589
	c8.411,0.002,15.234-6.816,15.23-15.23v-5.086c0-4.588,2.897-8.68,7.225-10.197c2.647-0.932,5.226-2.006,7.726-3.219
	c4.139-2.012,9.107-1.18,12.361,2.076l3.514,3.516c5.953,5.953,15.596,5.949,21.544,0.002l2.538-2.535
	c5.945-5.949,5.949-15.598,0-21.539l-3.595-3.596c-3.244-3.24-4.087-8.184-2.105-12.318c1.203-2.502,2.267-5.086,3.182-7.736
	c1.509-4.354,5.606-7.277,10.214-7.277h4.975c8.416,0,15.23-6.82,15.23-15.232v-3.588C996,885.629,989.18,878.805,980.773,878.811z
	 M896,933.051c-20.459,0-37.048-16.586-37.048-37.048c0-20.464,16.589-37.052,37.048-37.052c20.46,0,37.052,16.588,37.052,37.052
	C933.053,916.465,916.461,933.051,896,933.051z"/>
</svg>
