<?xml version="1.0" encoding="utf-8"?>
<!-- Generator: Adobe Illustrator 16.0.0, SVG Export Plug-In . SVG Version: 6.00 Build 0)  -->
<!DOCTYPE svg PUBLIC "-//W3C//DTD SVG 1.1//EN" "http://www.w3.org/Graphics/SVG/1.1/DTD/svg11.dtd">
<svg version="1.1" id="Layer_1" xmlns="http://www.w3.org/2000/svg" xmlns:xlink="http://www.w3.org/1999/xlink" x="0px" y="0px"
	 width="1792px" height="1792px" viewBox="0 0 1792 1792" enable-background="new 0 0 1792 1792" xml:space="preserve">
<path d="M896.012,151.163c-492.763,0-892.21,279.875-892.21,625.171c0,160.76,86.728,307.278,229.034,418.005
	c33.185,25.824,48.595,68.556,39.468,109.614l-61.313,275.921c-4.446,19.997,3.744,40.696,20.664,52.245s39.175,11.631,56.177,0.199
	l329.3-221.301c28.901-19.424,63.98-27.428,98.429-22.442c58.282,8.425,118.612,12.917,180.452,12.917
	c492.751,0,892.187-279.887,892.187-625.158C1788.198,431.038,1388.763,151.163,896.012,151.163z M463.31,909.245
	c-82.45,0-149.269-66.824-149.269-149.27c0-82.468,66.818-149.245,149.269-149.245c82.434,0,149.264,66.777,149.264,149.245
	C612.573,842.421,545.743,909.245,463.31,909.245z M896.006,909.245c-82.451,0-149.275-66.824-149.275-149.27
	c0-82.468,66.824-149.245,149.275-149.245c82.438,0,149.263,66.777,149.263,149.245
	C1045.269,842.421,978.444,909.245,896.006,909.245z M1328.689,909.245c-82.433,0-149.269-66.824-149.269-149.27
	c0-82.468,66.836-149.245,149.269-149.245c82.457,0,149.27,66.777,149.27,149.245
	C1477.959,842.421,1411.146,909.245,1328.689,909.245z"/>
</svg>
