<?xml version="1.0" encoding="utf-8"?>
<!-- Generator: Adobe Illustrator 16.0.0, SVG Export Plug-In . SVG Version: 6.00 Build 0)  -->
<!DOCTYPE svg PUBLIC "-//W3C//DTD SVG 1.1//EN" "http://www.w3.org/Graphics/SVG/1.1/DTD/svg11.dtd">
<svg version="1.1" id="Layer_1" xmlns="http://www.w3.org/2000/svg" xmlns:xlink="http://www.w3.org/1999/xlink" x="0px" y="0px"
	 width="1792px" height="1792px" viewBox="0 0 1792 1792" enable-background="new 0 0 1792 1792" xml:space="preserve">
<g>
	<path d="M1609.859,1241.743c110.049-85.622,177.101-198.92,177.101-323.23c0-172.509-128.962-323.84-322.961-409.395
		c-6.781-2.99-14.695-1.612-20.066,3.495c-5.371,5.107-7.146,12.942-4.5,19.865c19.085,49.935,28.941,102.276,28.941,155.958
		c0,157.133-84.388,302.809-237.632,410.18c-144.222,101.049-334.484,156.703-535.756,156.703c-10.338,0-20.682-0.167-31.021-0.49
		c-8.391-0.262-15.892,5.199-18.219,13.266c-2.328,8.065,1.113,16.681,8.35,20.935c119.828,70.443,274.25,112.909,442.915,112.909
		c47.818,0,94.471-3.47,139.553-9.99c26.639-3.854,53.767,2.341,76.098,17.359l254.654,171.129
		c13.157,8.836,30.365,8.778,43.452-0.152c13.086-8.93,19.42-24.938,15.974-40.4l-47.41-213.368
		C1572.275,1294.765,1584.187,1261.723,1609.859,1241.743z"/>
	<path d="M694.993,204.977c-381.061,0-689.953,216.43-689.953,483.46c0,124.311,67.054,237.612,177.103,323.237
		c25.668,19.973,37.577,53.021,30.522,84.77l-47.413,213.362c-3.437,15.468,2.892,31.47,15.979,40.402
		c13.088,8.932,30.295,8.993,43.447,0.155l254.65-171.132c22.343-15.015,49.469-21.21,76.112-17.357
		c45.074,6.517,91.731,9.989,139.553,9.989c381.036,0,689.935-216.432,689.935-483.427
		C1384.928,421.406,1076.029,204.977,694.993,204.977z"/>
</g>
</svg>
