<?xml version="1.0" encoding="utf-8"?>
<!-- Generator: Adobe Illustrator 16.0.0, SVG Export Plug-In . SVG Version: 6.00 Build 0)  -->
<!DOCTYPE svg PUBLIC "-//W3C//DTD SVG 1.1//EN" "http://www.w3.org/Graphics/SVG/1.1/DTD/svg11.dtd">
<svg version="1.1" id="Layer_1" xmlns="http://www.w3.org/2000/svg" xmlns:xlink="http://www.w3.org/1999/xlink" x="0px" y="0px"
	 width="200px" height="200px" viewBox="796 796 200 200" enable-background="new 796 796 200 200" xml:space="preserve">
<path d="M896.001,812.517c-55.23,0-100.001,31.369-100.001,70.071c0,18.018,9.72,34.439,25.67,46.851
	c3.721,2.895,5.446,7.685,4.424,12.286l-6.872,30.926c-0.498,2.242,0.419,4.561,2.316,5.855c1.896,1.295,4.391,1.304,6.297,0.022
	l36.909-24.804c3.238-2.176,7.17-3.074,11.032-2.516c6.532,0.945,13.294,1.448,20.226,1.448c55.227,0,99.999-31.37,99.999-70.069
	C996,843.886,951.229,812.517,896.001,812.517z"/>
</svg>
