<?xml version="1.0" encoding="utf-8"?>
<!-- Generator: Adobe Illustrator 16.0.0, SVG Export Plug-In . SVG Version: 6.00 Build 0)  -->
<!DOCTYPE svg PUBLIC "-//W3C//DTD SVG 1.1//EN" "http://www.w3.org/Graphics/SVG/1.1/DTD/svg11.dtd">
<svg version="1.1" id="Layer_1" xmlns="http://www.w3.org/2000/svg" xmlns:xlink="http://www.w3.org/1999/xlink" x="0px" y="0px"
	 width="200px" height="200px" viewBox="796 796 200 200" enable-background="new 796 796 200 200" xml:space="preserve">
<path d="M975.771,935.469c12.24-9.523,19.702-22.13,19.702-35.958c0-22.787-20.226-42.25-48.777-50.084
	c-13.191-18.566-39.921-31.304-70.701-31.304c-43.818,0-79.467,25.793-79.467,57.498c0,14.631,7.523,28.544,21.183,39.173
	c0.88,0.685,1.292,1.829,1.05,2.915l-5.043,22.702c-0.909,4.092,0.741,8.264,4.203,10.624c1.7,1.16,3.686,1.773,5.744,1.773
	c2.032,0,3.996-0.6,5.684-1.733l27.088-18.205c0.434-0.292,0.912-0.496,1.404-0.654c14.028,12.803,36.061,21.074,60.878,21.074
	c5.319,0,10.511-0.386,15.524-1.111c2.963-0.428,5.982,0.259,8.469,1.932l28.327,19.037c1.463,0.98,3.376,0.975,4.833-0.017
	c1.454-0.995,2.161-2.774,1.777-4.495l-5.275-23.735C971.589,941.366,972.913,937.69,975.771,935.469z M826.62,938.285l3.987-17.945
	c1.253-5.638-0.884-11.572-5.443-15.123c-10.642-8.28-16.501-18.791-16.501-29.597c0-25.013,30.204-45.362,67.331-45.362
	c37.124,0,67.326,20.349,67.326,45.362c0,25.013-30.202,45.363-67.326,45.363c-4.675,0-9.378-0.337-13.978-1.002
	c-4.312-0.619-8.735,0.389-12.351,2.816L826.62,938.285z"/>
</svg>
