<?xml version="1.0" encoding="utf-8"?>
<!-- Generator: Adobe Illustrator 16.0.0, SVG Export Plug-In . SVG Version: 6.00 Build 0)  -->
<!DOCTYPE svg PUBLIC "-//W3C//DTD SVG 1.1//EN" "http://www.w3.org/Graphics/SVG/1.1/DTD/svg11.dtd">
<svg version="1.1" id="Layer_1" xmlns="http://www.w3.org/2000/svg" xmlns:xlink="http://www.w3.org/1999/xlink" x="0px" y="0px"
	 width="200px" height="200px" viewBox="796 796 200 200" enable-background="new 796 796 200 200" xml:space="preserve">
<g>
	<path d="M975.75,934.625c12.294-9.564,19.785-22.222,19.785-36.109c0-19.273-14.406-36.179-36.08-45.737
		c-0.758-0.334-1.642-0.181-2.241,0.391c-0.601,0.57-0.799,1.445-0.503,2.219c2.132,5.579,3.233,11.426,3.233,17.423
		c0,17.555-9.428,33.831-26.548,45.825c-16.112,11.289-37.368,17.507-59.853,17.507c-1.155,0-2.311-0.019-3.466-0.055
		c-0.937-0.029-1.775,0.581-2.036,1.482c-0.26,0.9,0.125,1.863,0.934,2.338c13.386,7.87,30.638,12.614,49.48,12.614
		c5.342,0,10.555-0.388,15.591-1.117c2.976-0.429,6.007,0.262,8.502,1.939l28.448,19.119c1.47,0.987,3.393,0.98,4.855-0.018
		c1.461-0.998,2.169-2.785,1.783-4.514l-5.296-23.836C971.552,940.549,972.882,936.857,975.75,934.625z"/>
	<path d="M873.544,818.801c-42.571,0-77.079,24.179-77.079,54.01c0,13.888,7.491,26.546,19.785,36.112
		c2.868,2.232,4.198,5.924,3.41,9.471l-5.297,23.836c-0.384,1.728,0.323,3.516,1.786,4.514c1.462,0.998,3.384,1.005,4.854,0.018
		l28.449-19.119c2.497-1.677,5.527-2.369,8.503-1.938c5.036,0.729,10.248,1.115,15.59,1.115c42.568,0,77.077-24.179,77.077-54.007
		C950.621,842.979,916.112,818.801,873.544,818.801z"/>
</g>
</svg>
