<?xml version="1.0" encoding="utf-8"?>
<!-- Generator: Adobe Illustrator 16.0.0, SVG Export Plug-In . SVG Version: 6.00 Build 0)  -->
<!DOCTYPE svg PUBLIC "-//W3C//DTD SVG 1.1//EN" "http://www.w3.org/Graphics/SVG/1.1/DTD/svg11.dtd">
<svg version="1.1" id="Layer_1" xmlns="http://www.w3.org/2000/svg" xmlns:xlink="http://www.w3.org/1999/xlink" x="0px" y="0px"
	 width="200px" height="200px" viewBox="796 796 200 200" enable-background="new 796 796 200 200" xml:space="preserve">
<g>
	<g>
		<path d="M829.047,980.49c-2.296,0-4.511-0.684-6.407-1.979c-3.861-2.633-5.702-7.286-4.687-11.853l6.453-29.041
			c0.448-2.016-0.317-4.139-1.948-5.408C805.396,918.935,796,901.603,796,883.404c0-39.643,44.86-71.894,100.002-71.894
			c55.14,0,99.998,32.251,99.998,71.894c0,39.642-44.858,71.895-99.998,71.895c-6.651,0-13.335-0.479-19.865-1.423
			c-2.129-0.31-4.308,0.191-6.091,1.39l-34.66,23.293C833.505,979.822,831.313,980.49,829.047,980.49z M896.002,823.693
			c-48.423,0-87.818,26.787-87.818,59.711c0,14.357,7.726,28.275,21.755,39.19c5.328,4.146,7.824,11.081,6.361,17.668l-6.009,27.041
			l32.959-22.15c4.283-2.877,9.523-4.076,14.632-3.334c5.954,0.86,12.05,1.297,18.12,1.297c48.422,0,87.814-26.786,87.814-59.711
			C983.816,850.479,944.424,823.693,896.002,823.693z"/>
	</g>
	<g>
		<g>
			<path d="M866.168,881.683c0,8.677-7.034,15.711-15.711,15.711c-8.678,0-15.711-7.034-15.711-15.711
				c0-8.68,7.033-15.71,15.711-15.71C859.134,865.972,866.168,873.003,866.168,881.683z"/>
		</g>
		<g>
			<path d="M957.256,881.683c0,8.677-7.033,15.711-15.712,15.711c-8.677,0-15.712-7.034-15.712-15.711
				c0-8.68,7.035-15.71,15.712-15.71C950.223,865.972,957.256,873.003,957.256,881.683z"/>
		</g>
		<g>
			<path d="M911.713,881.683c0,8.677-7.035,15.711-15.711,15.711c-8.678,0-15.712-7.034-15.712-15.711
				c0-8.68,7.034-15.71,15.712-15.71C904.678,865.972,911.713,873.003,911.713,881.683z"/>
		</g>
	</g>
</g>
</svg>
