<?xml version="1.0" encoding="utf-8"?>
<!-- Generator: Adobe Illustrator 16.0.0, SVG Export Plug-In . SVG Version: 6.00 Build 0)  -->
<!DOCTYPE svg PUBLIC "-//W3C//DTD SVG 1.1//EN" "http://www.w3.org/Graphics/SVG/1.1/DTD/svg11.dtd">
<svg version="1.1" id="Layer_1" xmlns="http://www.w3.org/2000/svg" xmlns:xlink="http://www.w3.org/1999/xlink" x="0px" y="0px"
	 width="200px" height="200px" viewBox="796 796 200 200" enable-background="new 796 796 200 200" xml:space="preserve">
<g>
	<path d="M829.656,979.904c-2.31,0-4.54-0.688-6.448-1.989c-3.892-2.656-5.744-7.342-4.723-11.936l6.395-28.779
		c0.429-1.93-0.303-3.962-1.865-5.178c-16.952-13.189-26.288-30.414-26.288-48.504c0-39.383,44.534-71.423,99.274-71.423
		c54.739,0,99.272,32.04,99.272,71.423c0,39.382-44.533,71.421-99.272,71.421c-6.605,0-13.236-0.476-19.71-1.413
		c-2.056-0.292-4.178,0.187-5.91,1.349l-34.343,23.082C834.146,979.231,831.938,979.904,829.656,979.904z M896.001,824.531
		c-47.882,0-86.838,26.462-86.838,58.987c0,14.168,7.631,27.909,21.488,38.689c5.334,4.15,7.834,11.093,6.369,17.688l-5.857,26.355
		l32.283-21.697c4.283-2.878,9.523-4.071,14.625-3.336c5.887,0.854,11.919,1.284,17.93,1.284c47.882,0,86.837-26.46,86.837-58.984
		C982.838,850.993,943.883,824.531,896.001,824.531z"/>
</g>
</svg>
