<?xml version="1.0" encoding="utf-8"?>
<!-- Generator: Adobe Illustrator 16.0.0, SVG Export Plug-In . SVG Version: 6.00 Build 0)  -->
<!DOCTYPE svg PUBLIC "-//W3C//DTD SVG 1.1//EN" "http://www.w3.org/Graphics/SVG/1.1/DTD/svg11.dtd">
<svg version="1.1" id="Layer_1" xmlns="http://www.w3.org/2000/svg" xmlns:xlink="http://www.w3.org/1999/xlink" x="0px" y="0px"
	 width="200px" height="200px" viewBox="796 796 200 200" enable-background="new 796 796 200 200" xml:space="preserve">
<path d="M896.001,812.517c-55.23,0-100.001,31.369-100.001,70.071c0,18.018,9.721,34.441,25.671,46.851
	c3.719,2.895,5.446,7.684,4.423,12.286l-6.872,30.926c-0.498,2.241,0.42,4.562,2.316,5.855c1.896,1.295,4.391,1.304,6.296,0.022
	l36.909-24.804c3.239-2.178,7.171-3.074,11.032-2.516c6.532,0.944,13.294,1.448,20.226,1.448c55.229,0,99.999-31.371,99.999-70.07
	C996,843.886,951.23,812.517,896.001,812.517z M847.503,897.484c-9.241,0-16.73-7.49-16.73-16.73c0-9.243,7.489-16.728,16.73-16.728
	c9.239,0,16.73,7.484,16.73,16.728C864.233,889.995,856.742,897.484,847.503,897.484z M896,897.484
	c-9.241,0-16.731-7.49-16.731-16.73c0-9.243,7.49-16.728,16.731-16.728c9.24,0,16.73,7.484,16.73,16.728
	C912.73,889.995,905.24,897.484,896,897.484z M944.497,897.484c-9.239,0-16.731-7.49-16.731-16.73
	c0-9.243,7.492-16.728,16.731-16.728c9.241,0,16.73,7.484,16.73,16.728C961.228,889.995,953.738,897.484,944.497,897.484z"/>
</svg>
