<?xml version="1.0" encoding="utf-8"?>
<!-- Generator: Adobe Illustrator 16.0.0, SVG Export Plug-In . SVG Version: 6.00 Build 0)  -->
<!DOCTYPE svg PUBLIC "-//W3C//DTD SVG 1.1//EN" "http://www.w3.org/Graphics/SVG/1.1/DTD/svg11.dtd">
<svg version="1.1" id="Layer_1" xmlns="http://www.w3.org/2000/svg" xmlns:xlink="http://www.w3.org/1999/xlink" x="0px" y="0px"
	 width="200px" height="200px" viewBox="796 796 200 200" enable-background="new 796 796 200 200" xml:space="preserve">
<path d="M977.911,841.988l-76.104-43.939c-3.526-2.037-8.089-2.037-11.615,0l-76.104,43.939c-3.583,2.068-5.807,5.921-5.807,10.058
	v87.879c0,4.135,2.224,7.989,5.807,10.059l76.103,43.938c1.764,1.019,3.772,1.558,5.809,1.558c2.037,0,4.045-0.539,5.807-1.557
	l76.105-43.939c3.581-2.068,5.807-5.922,5.807-10.058v-87.879C983.719,847.909,981.493,844.055,977.911,841.988z M896,808.815
	l69.376,40.055l-69.375,40.056l-69.378-40.056L896,808.815z M820.51,859.46l69.377,40.055v80.11l-69.377-40.055V859.46z
	 M902.115,979.624v-80.108l69.375-40.055v80.11L902.115,979.624z"/>
</svg>
