<?xml version="1.0" encoding="utf-8"?>
<!-- Generator: Adobe Illustrator 16.0.0, SVG Export Plug-In . SVG Version: 6.00 Build 0)  -->
<!DOCTYPE svg PUBLIC "-//W3C//DTD SVG 1.1//EN" "http://www.w3.org/Graphics/SVG/1.1/DTD/svg11.dtd">
<svg version="1.1" id="Layer_1" xmlns="http://www.w3.org/2000/svg" xmlns:xlink="http://www.w3.org/1999/xlink" x="0px" y="0px"
	 width="1792px" height="1792px" viewBox="0 0 1792 1792" enable-background="new 0 0 1792 1792" xml:space="preserve">
<g>
	<path d="M810.65,3.767c-44.13,0-79.882,35.776-79.882,79.895v63.465v358.201c0,31.983-25.939,57.899-57.899,57.899
		c-31.984,0-57.911-25.917-57.911-57.899V97.523V83.661c0-44.118-35.764-79.895-79.871-79.895
		c-44.142,0-79.906,35.776-79.906,79.895v13.862v407.803c0,31.983-25.927,57.899-57.887,57.899
		c-31.983,0-57.911-25.917-57.911-57.899V147.126V83.661c0-44.118-35.764-79.895-79.882-79.895
		c-44.131,0-79.895,35.776-79.895,79.895v401.875v96.778c0,126.501,66.124,237.508,165.667,300.499
		c15.498,9.807,24.88,26.886,24.88,45.226v695.272c0,91.083,73.827,164.922,164.935,164.922
		c91.073,0,164.899-73.839,164.899-164.922V928.045c0-18.313,9.405-35.433,24.88-45.225
		c99.539-62.987,165.667-173.999,165.667-300.505v-96.778V83.661C890.533,39.543,854.769,3.767,810.65,3.767z"/>
	<path d="M1447.471,5.937V5.925c-279.053,0-408.734,268.656-408.734,531.315c0,58.5,0,452.901,0,624.195
		c0,43.711,35.424,79.147,79.135,79.147h164.666v382.729c0,91.083,73.838,164.922,164.934,164.922
		c91.086,0,164.924-73.839,164.924-164.922V170.86C1612.395,79.775,1538.557,5.937,1447.471,5.937z"/>
</g>
</svg>
