<?xml version="1.0" encoding="utf-8"?>
<!-- Generator: Adobe Illustrator 16.0.0, SVG Export Plug-In . SVG Version: 6.00 Build 0)  -->
<!DOCTYPE svg PUBLIC "-//W3C//DTD SVG 1.1//EN" "http://www.w3.org/Graphics/SVG/1.1/DTD/svg11.dtd">
<svg version="1.1" id="Layer_1" xmlns="http://www.w3.org/2000/svg" xmlns:xlink="http://www.w3.org/1999/xlink" x="0px" y="0px"
	 width="200px" height="200px" viewBox="796 796 200 200" enable-background="new 796 796 200 200" xml:space="preserve">
<g>
	<path d="M886.471,796.396c-4.926,0-8.917,3.993-8.917,8.919v7.085v39.987c0,3.571-2.896,6.465-6.464,6.465
		c-3.57,0-6.465-2.894-6.465-6.465v-45.525v-1.547c0-4.926-3.993-8.919-8.917-8.919c-4.928,0-8.92,3.993-8.92,8.919v1.547v45.525
		c0,3.57-2.895,6.464-6.463,6.464c-3.57,0-6.465-2.894-6.465-6.464v-39.987v-7.085c0-4.926-3.992-8.919-8.917-8.919
		c-4.927,0-8.919,3.993-8.919,8.919v44.863v10.804c0,14.122,7.382,26.515,18.495,33.546c1.73,1.096,2.777,3.002,2.777,5.049v77.617
		c0,10.168,8.242,18.411,18.413,18.411c10.167,0,18.409-8.243,18.409-18.411v-77.617c0-2.044,1.05-3.954,2.778-5.048
		c11.112-7.031,18.494-19.424,18.494-33.547v-10.804v-44.863C895.389,800.389,891.397,796.396,886.471,796.396z"/>
	<path d="M957.564,796.638v-0.002c-31.153,0-45.631,29.991-45.631,59.313c0,6.531,0,50.561,0,69.684
		c0,4.879,3.954,8.834,8.835,8.834h18.383v42.727c0,10.168,8.241,18.411,18.413,18.411c10.167,0,18.411-8.243,18.411-18.411V815.049
		C975.976,804.881,967.731,796.638,957.564,796.638z"/>
</g>
</svg>
