<?xml version="1.0" encoding="utf-8"?>
<!-- Generator: Adobe Illustrator 16.0.0, SVG Export Plug-In . SVG Version: 6.00 Build 0)  -->
<!DOCTYPE svg PUBLIC "-//W3C//DTD SVG 1.1//EN" "http://www.w3.org/Graphics/SVG/1.1/DTD/svg11.dtd">
<svg version="1.1" id="Layer_1" xmlns="http://www.w3.org/2000/svg" xmlns:xlink="http://www.w3.org/1999/xlink" x="0px" y="0px"
	 width="1792px" height="1792px" viewBox="0 0 1792 1792" enable-background="new 0 0 1792 1792" xml:space="preserve">
<path d="M1483.075,73.886C1325.525,28.245,1117.037,3.107,896,3.107S466.469,28.245,308.931,73.886
	c-182.926,52.997-275.68,126.09-275.68,217.245v1209.773c0,91.152,92.754,164.236,275.68,217.221
	c157.538,45.637,366.032,70.768,587.069,70.768s429.525-25.131,587.063-70.768c182.937-52.984,275.686-126.068,275.686-217.221
	V291.131C1758.749,199.976,1666,126.883,1483.075,73.886z M896,110.288c488.884,0,755.568,119.468,755.568,180.844
	c0,61.37-266.685,180.821-755.568,180.821c-488.878,0-755.568-119.451-755.568-180.821C140.432,229.755,407.122,110.288,896,110.288
	z M140.432,439.813c43.223,25.639,99.406,48.532,168.499,68.547C466.469,554,674.963,579.133,896,579.133
	c158.108,0,309.69-12.921,440.911-36.949v256.321c0,26.123-18.82,48.308-44.58,52.651c-108.86,18.354-241.368,30.387-396.331,30.387
	c-488.878,0-755.568-119.445-755.568-180.81V439.813z M140.432,849.411c43.223,25.644,99.406,48.531,168.499,68.546
	C466.469,963.592,674.963,988.725,896,988.725c158.12,0,309.69-12.922,440.911-36.949v246.818c0,26.122-18.818,48.306-44.576,52.65
	c-108.861,18.362-241.37,30.391-396.335,30.391c-488.878,0-755.568-119.451-755.568-180.822V849.411z M140.432,1500.904V1249.5
	c43.223,25.645,99.406,48.531,168.499,68.547c157.538,45.635,366.032,70.768,587.069,70.768c158.108,0,309.69-12.922,440.911-36.947
	v246.813c0,26.123-18.82,48.309-44.58,52.651c-108.86,18.354-241.368,30.382-396.331,30.382
	C407.122,1681.713,140.432,1562.273,140.432,1500.904z"/>
</svg>
