<?xml version="1.0" encoding="utf-8"?>
<!-- Generator: Adobe Illustrator 16.0.0, SVG Export Plug-In . SVG Version: 6.00 Build 0)  -->
<!DOCTYPE svg PUBLIC "-//W3C//DTD SVG 1.1//EN" "http://www.w3.org/Graphics/SVG/1.1/DTD/svg11.dtd">
<svg version="1.1" id="Layer_1" xmlns="http://www.w3.org/2000/svg" xmlns:xlink="http://www.w3.org/1999/xlink" x="0px" y="0px"
	 width="200px" height="200px" viewBox="796 796 200 200" enable-background="new 796 796 200 200" xml:space="preserve">
<path d="M961.75,803.927C944.105,798.815,920.756,796,896,796c-24.755,0-48.105,2.815-65.749,7.927
	c-20.487,5.936-30.875,14.122-30.875,24.331v135.489c0,10.209,10.388,18.394,30.875,24.328C847.895,993.186,871.245,996,896,996
	c24.756,0,48.105-2.814,65.748-7.926c20.488-5.935,30.876-14.119,30.876-24.328V828.257
	C992.624,818.048,982.236,809.862,961.75,803.927z M896,808.003c54.753,0,84.62,13.38,84.62,20.254
	c0,6.873-29.867,20.251-84.62,20.251c-54.752,0-84.62-13.378-84.62-20.251C811.38,821.383,841.248,808.003,896,808.003z
	 M811.38,844.909c4.841,2.872,11.133,5.436,18.871,7.677c17.644,5.111,40.994,7.926,65.749,7.926c17.707,0,34.684-1.447,49.38-4.138
	v28.707c0,2.926-2.107,5.411-4.993,5.897c-12.191,2.056-27.031,3.403-44.387,3.403c-54.752,0-84.62-13.377-84.62-20.25V844.909
	L811.38,844.909z M811.38,890.782c4.841,2.872,11.133,5.435,18.871,7.677c17.644,5.11,40.994,7.926,65.749,7.926
	c17.709,0,34.684-1.447,49.38-4.139v27.643c0,2.926-2.107,5.41-4.992,5.896c-12.192,2.057-27.032,3.404-44.388,3.404
	c-54.752,0-84.62-13.378-84.62-20.252V890.782z M811.38,963.746V935.59c4.841,2.872,11.133,5.436,18.871,7.678
	c17.644,5.11,40.994,7.925,65.749,7.925c17.707,0,34.684-1.446,49.38-4.138v27.643c0,2.925-2.107,5.41-4.993,5.896
	c-12.191,2.056-27.031,3.402-44.387,3.402C841.248,983.996,811.38,970.619,811.38,963.746z"/>
</svg>
