<?xml version="1.0" encoding="utf-8"?>
<!-- Generator: Adobe Illustrator 16.0.0, SVG Export Plug-In . SVG Version: 6.00 Build 0)  -->
<!DOCTYPE svg PUBLIC "-//W3C//DTD SVG 1.1//EN" "http://www.w3.org/Graphics/SVG/1.1/DTD/svg11.dtd">
<svg version="1.1" id="Layer_1" xmlns="http://www.w3.org/2000/svg" xmlns:xlink="http://www.w3.org/1999/xlink" x="0px" y="0px"
	 width="2304px" height="1792px" viewBox="0 0 2304 1792" enable-background="new 0 0 2304 1792" xml:space="preserve">
<path d="M1845.612,717.775c-46.874,0-92.119,7.095-134.727,20.257l-226.607-487.403c-25.691-55.287-81.683-91.004-142.646-91.004
	h-175.028c-34.286,0-62.083,27.798-62.083,62.083c0,34.286,27.797,62.084,62.083,62.084h175.028c12.84,0,24.63,7.518,30.041,19.174
	l75.357,162.082c1.876,4.035,1.563,8.749-0.83,12.501c-2.394,3.752-6.536,6.023-10.986,6.023h-544.6
	c-5.061,0-9.664-2.93-11.806-7.515l-7.947-17.009c-25.753-55.113-81.697-90.718-142.523-90.718h-126.67
	c-34.285,0-62.083,27.798-62.083,62.085c0,34.285,27.798,62.083,62.083,62.083h126.67c12.815,0,24.6,7.503,30.026,19.113
	l0.398,0.853c1.895,4.056,1.575,8.8-0.847,12.565L615.935,745.747c-49.138-18.088-102.21-27.972-157.547-27.972
	c-252.156,0-457.295,205.146-457.295,457.303c0,252.157,205.139,457.297,457.295,457.297c231.103,0,422.711-172.314,453.098-395.212
	h195.271c30.664,0,58.902-15.369,75.513-41.106l338.947-524.083c2.576-3.983,7.113-6.252,11.846-5.923s8.912,3.204,10.912,7.505
	l54.389,116.982c-126.274,81.477-210.044,223.408-210.044,384.54c0,252.157,205.138,457.297,457.294,457.297
	c252.157,0,457.296-205.14,457.296-457.297C2302.908,922.922,2097.77,717.775,1845.612,717.775z M1390.946,607.742
	c4.773,0,9.165,2.61,11.446,6.802c2.281,4.193,2.088,9.297-0.504,13.305l-249.733,386.144c-2.574,3.979-7.105,6.248-11.834,5.924
	s-8.908-3.19-10.914-7.484L948.999,626.289c-1.885-4.036-1.579-8.755,0.813-12.514c2.392-3.758,6.538-6.033,10.993-6.033H1390.946z
	 M811.154,671.793c2.567-3.991,7.101-6.271,11.835-5.951c4.734,0.319,8.921,3.187,10.93,7.485l196.751,421.12
	c1.885,4.036,1.579,8.756-0.813,12.514s-6.538,6.033-10.993,6.033H911.485c-17.266-126.648-86.581-236.965-185.618-308.625
	L811.154,671.793z M785.696,1112.994H527.331l131.244-204.019C723.503,957.943,770.003,1030.084,785.696,1112.994z
	 M458.387,1508.206c-183.683,0-333.127-149.437-333.127-333.128c0-183.69,149.444-333.133,333.127-333.133
	c30.473,0,59.993,4.136,88.053,11.834l-157.465,244.786c-17.818,27.678-19.084,62.842-3.335,91.7
	c15.763,28.921,46.025,46.897,78.978,46.897h321.078C756.523,1391.284,620.865,1508.206,458.387,1508.206z M1845.612,1508.206
	c-183.691,0-333.126-149.437-333.126-333.128c0-111.268,54.841-209.957,138.903-270.489l137.93,296.668
	c10.52,22.614,32.922,35.922,56.34,35.922c8.76,0,17.657-1.865,26.131-5.805c31.087-14.46,44.578-51.383,30.118-82.472
	l-137.993-296.809c26.149-6.617,53.519-10.148,81.697-10.148c183.692,0,333.128,149.442,333.128,333.133
	C2178.74,1358.77,2029.305,1508.206,1845.612,1508.206z"/>
</svg>
