<?xml version="1.0" encoding="utf-8"?>
<!-- Generator: Adobe Illustrator 16.0.0, SVG Export Plug-In . SVG Version: 6.00 Build 0)  -->
<!DOCTYPE svg PUBLIC "-//W3C//DTD SVG 1.1//EN" "http://www.w3.org/Graphics/SVG/1.1/DTD/svg11.dtd">
<svg version="1.1" id="Layer_1" xmlns="http://www.w3.org/2000/svg" xmlns:xlink="http://www.w3.org/1999/xlink" x="0px" y="0px"
	 width="1792px" height="1792px" viewBox="0 0 1792 1792" enable-background="new 0 0 1792 1792" xml:space="preserve">
<g>
	<path d="M1733.53,824.415h-75.645H243.167V259.326c0-50.272,30.006-95.188,76.449-114.443
		c46.432-19.266,99.425-8.733,134.987,26.792l1.745,1.674c1.006,0.924,2.155,1.586,3.213,2.421
		c-46.68,76.3-47.804,172.613-3.106,249.766c7.811,13.485,21.444,22.568,36.894,24.586c15.449,2.018,30.964-3.261,41.981-14.278
		l265.436-265.441c11.012-11.012,16.277-26.515,14.26-41.958c-2.018-15.45-11.088-29.101-24.568-36.911
		c-79.134-45.852-178.394-43.432-255.576,6.864c-1.047-1.254-1.918-2.61-3.095-3.787l-1.177-1.159
		C463.744,27.488,364.686,8.109,277.846,44.139C190.523,80.333,134.103,164.8,134.103,259.326v565.088H58.47
		c-30.117,0-54.532,24.414-54.532,54.532c0,30.116,24.415,54.525,54.532,54.525h75.633v230.886
		c0,181.867,120.927,335.984,286.583,386.291l-121.987,122.011c-21.296,21.301-21.29,55.822,0.006,77.122
		c10.651,10.64,24.597,15.967,38.556,15.967c13.958,0,27.916-5.327,38.562-15.978l181.72-181.751h686.845l181.737,181.751
		c10.639,10.65,24.604,15.978,38.557,15.978c13.951,0,27.916-5.327,38.556-15.978c21.302-21.289,21.302-55.822,0-77.111
		l-124.401-124.413c161.763-52.639,279.051-204.79,279.051-383.889V933.472h75.645c30.117,0,54.531-24.409,54.531-54.525
		C1788.062,848.828,1763.647,824.415,1733.53,824.415z M1548.821,1164.357c0,162.447-132.152,294.601-294.6,294.601h-716.46
		c-162.442,0-294.595-132.153-294.595-294.601V958.285c0-13.697,11.104-24.801,24.801-24.801h1256.053
		c13.697,0,24.801,11.104,24.801,24.801V1164.357z"/>
	<path d="M711.073,384.975c9.573,0,19.029-3.876,25.692-10.663c6.786-6.663,10.662-16.118,10.662-25.691
		c0-9.574-3.875-18.906-10.662-25.692c-13.574-13.568-37.811-13.568-51.385,0c-6.781,6.786-10.663,16.118-10.663,25.692
		c0,9.574,3.882,19.029,10.663,25.691C692.167,381.099,701.499,384.975,711.073,384.975z"/>
	<path d="M835.77,524.82c7.148,7.029,16.479,10.544,25.811,10.544c9.213,0,18.544-3.515,25.692-10.544
		c14.177-14.301,14.177-37.201,0-51.502c-14.177-14.177-37.201-14.177-51.502,0C821.593,487.619,821.593,510.519,835.77,524.82z"/>
	<path d="M812.019,449.566c14.178-14.178,14.178-37.2,0-51.384c-14.177-14.295-37.201-14.295-51.384,0
		c-14.178,14.184-14.178,37.207,0,51.384c7.153,7.029,16.361,10.663,25.692,10.663C795.658,460.229,804.989,456.595,812.019,449.566
		z"/>
	<path d="M900.36,574.263c0,9.574,3.877,18.905,10.662,25.692c6.788,6.786,16.113,10.662,25.687,10.662s19.03-3.875,25.693-10.662
		c6.793-6.788,10.662-16.119,10.662-25.692c0-9.574-3.869-18.905-10.662-25.692c-13.444-13.575-37.806-13.575-51.38,0
		C904.237,555.358,900.36,564.689,900.36,574.263z"/>
	<path d="M618.37,401.579c-6.663,6.787-10.545,16.118-10.545,25.692c0,9.573,3.882,18.905,10.545,25.686
		c6.905,6.788,16.237,10.669,25.81,10.669c9.456,0,18.905-3.881,25.692-10.669c6.786-6.781,10.662-16.112,10.662-25.686
		c0-9.575-3.875-18.906-10.662-25.692C656.423,388.004,631.943,388.004,618.37,401.579z"/>
	<path d="M671.085,558.026c3.391,0,6.663-0.485,10.059-1.456c19.266-5.455,30.414-25.567,24.958-44.958
		c-5.574-19.271-25.687-30.42-44.958-24.846c-19.266,5.456-30.539,25.573-24.959,44.839
		C640.79,547.6,655.328,558.026,671.085,558.026z"/>
	<path d="M698.108,652.428c3.272,0,6.663-0.485,10.06-1.456c19.266-5.574,30.414-25.692,24.964-44.958
		c-5.58-19.272-25.692-30.538-44.964-24.965c-19.384,5.574-30.538,25.692-24.958,44.958
		C667.813,642.001,682.352,652.428,698.108,652.428z"/>
	<path d="M725.132,746.705c9.574,0,18.905-3.875,25.692-10.662c6.78-6.668,10.663-16.118,10.663-25.692
		c0-9.573-3.883-18.905-10.663-25.691c-13.574-13.575-37.811-13.451-51.384,0c-6.787,6.786-10.663,16.118-10.663,25.691
		c0,9.575,3.875,19.024,10.663,25.692C706.227,742.829,715.558,746.705,725.132,746.705z"/>
	<path d="M767.061,259.675c-6.787,6.663-10.663,16.118-10.663,25.692c0,9.573,3.876,18.899,10.663,25.685
		c6.787,6.788,16.118,10.669,25.691,10.669c9.574,0,18.906-3.881,25.687-10.669c6.787-6.786,10.668-16.112,10.668-25.685
		c0-9.575-3.881-19.03-10.668-25.692C804.87,246.1,780.634,246.1,767.061,259.675z"/>
	<path d="M967.254,382.43c3.751,1.213,7.633,1.817,11.515,1.817c15.146,0,29.324-9.574,34.53-24.722
		c6.427-19.023-3.88-39.626-22.897-46.046c-19.03-6.42-39.633,3.875-46.047,22.905C937.929,355.407,948.225,376.011,967.254,382.43z
		"/>
	<path d="M874.183,351.046c3.881,1.332,7.757,1.936,11.633,1.936c15.147,0,29.325-9.568,34.42-24.716
		c6.427-19.03-3.882-39.751-22.905-46.052c-19.023-6.421-39.627,3.757-46.046,22.78C844.859,324.023,855.16,344.745,874.183,351.046
		z"/>
	<path d="M1071.833,415.638c9.572,0,18.898-3.882,25.692-10.668c6.779-6.788,10.661-16.112,10.661-25.811
		c0-9.449-3.882-18.905-10.661-25.692c-13.575-13.449-37.813-13.449-51.385,0c-6.781,6.787-10.663,16.243-10.663,25.692
		c0,9.574,3.882,19.023,10.663,25.811C1052.933,411.756,1062.259,415.638,1071.833,415.638z"/>
</g>
</svg>
