<?xml version="1.0" encoding="utf-8"?>
<!-- Generator: Adobe Illustrator 16.0.0, SVG Export Plug-In . SVG Version: 6.00 Build 0)  -->
<!DOCTYPE svg PUBLIC "-//W3C//DTD SVG 1.1//EN" "http://www.w3.org/Graphics/SVG/1.1/DTD/svg11.dtd">
<svg version="1.1" id="Layer_1" xmlns="http://www.w3.org/2000/svg" xmlns:xlink="http://www.w3.org/1999/xlink" x="0px" y="0px"
	 width="1792px" height="1792px" viewBox="0 0 1792 1792" enable-background="new 0 0 1792 1792" xml:space="preserve">
<path d="M1627.674,388.672h-366.22V259.48c0-96.235-78.293-174.534-174.534-174.534H705.092
	c-96.235,0-174.535,78.299-174.535,174.534v129.191H164.326c-90.521,0-164.169,73.646-164.169,164.169V806.57
	c0,35.624,14.922,68.692,39.481,92.281v644.032c0,90.522,73.647,164.17,164.169,164.17h1384.386
	c90.521,0,164.169-73.647,164.169-164.17V898.855c24.56-23.59,39.48-56.659,39.48-92.285V552.841
	C1791.843,462.318,1718.195,388.672,1627.674,388.672z M640.616,259.48c0-35.551,28.924-64.475,64.476-64.475h381.828
	c35.552,0,64.476,28.924,64.476,64.475v129.191H640.616V259.48z M110.216,552.841c0-29.837,24.273-54.11,54.11-54.11h1463.348
	c29.831,0,54.109,24.273,54.109,54.11V806.57c0,7.972-5.361,15.022-13.039,17.155l-717.715,198.953v-69.465
	c0-30.392-24.636-55.029-55.029-55.029c-30.392,0-55.029,24.638-55.029,55.029v69.465L123.263,823.726
	c-7.685-2.133-13.047-9.184-13.047-17.155V552.841z M1588.193,1596.995H203.808c-29.837,0-54.11-24.279-54.11-54.11V985.23
	c0-9.495,4.438-18.445,11.996-24.193c7.559-5.749,17.369-7.634,26.52-5.098l652.757,180.952v80.318
	c0,30.393,24.637,55.029,55.029,55.029c30.393,0,55.029-24.637,55.029-55.029v-80.316l652.759-180.952
	c9.15-2.536,18.961-0.651,26.52,5.098c7.559,5.748,11.996,14.698,11.996,24.193v557.652
	C1642.304,1572.716,1618.025,1596.995,1588.193,1596.995z"/>
</svg>
