<?xml version="1.0" encoding="utf-8"?>
<!-- Generator: Adobe Illustrator 21.0.0, SVG Export Plug-In . SVG Version: 6.00 Build 0)  -->
<svg version="1.1" id="Layer_1" xmlns="http://www.w3.org/2000/svg" xmlns:xlink="http://www.w3.org/1999/xlink" x="0px" y="0px"
	 viewBox="0 0 1792 1792" style="enable-background:new 0 0 1792 1792;" xml:space="preserve">
<g>
	<g>
		<path d="M321.2,1516.5c-25,0-45.7-20.7-45.7-45.7V315.8c0-25,20.7-45.7,45.7-45.7h1154.9c25,0,45.7,20.7,45.7,45.7v1154.9
			c0,25-20.7,45.7-45.7,45.7H321.2 M321.2,1688.9h1154.9c120.3,0,218.1-97.9,218.1-218.1V315.8c0-120.3-97.9-218.1-218.1-218.1
			H321.2C200.9,97.7,103,195.6,103,315.8v1154.9C103,1591,200.9,1688.9,321.2,1688.9L321.2,1688.9z"/>
	</g>
	<path d="M910.1,529.2c24.6,0,43.5,9.9,57.8,29.7l354.8,496.6c16.8,22.8,19,47.4,5.6,73.3c-12.5,25.9-33.6,38.8-63.4,38.8H555.7
		c-29.7,0-50.4-12.9-63.4-38.8c-13.4-25.9-11.6-50.4,5.6-73.3L852.7,559C866.5,539.1,885.9,529.2,910.1,529.2z"/>
</g>
</svg>
