<?xml version="1.0" encoding="utf-8"?>
<!-- Generator: Adobe Illustrator 16.0.0, SVG Export Plug-In . SVG Version: 6.00 Build 0)  -->
<!DOCTYPE svg PUBLIC "-//W3C//DTD SVG 1.1//EN" "http://www.w3.org/Graphics/SVG/1.1/DTD/svg11.dtd">
<svg version="1.1" id="Layer_1" xmlns="http://www.w3.org/2000/svg" xmlns:xlink="http://www.w3.org/1999/xlink" x="0px" y="0px"
	 width="1792px" height="1792px" viewBox="0 0 1792 1792" enable-background="new 0 0 1792 1792" xml:space="preserve">
<path d="M1606.199,248.253H185.806c-101.325,0-183.76,82.435-183.76,183.759v927.98c0,101.326,82.435,183.755,183.76,183.755
	h1420.394c101.325,0,183.755-82.429,183.755-183.755v-927.98C1789.954,330.688,1707.524,248.253,1606.199,248.253z
	 M1683.244,432.012v927.98c0,0.591-0.08,1.158-0.092,1.749L1151.03,895.994l532.122-465.725
	C1683.176,430.854,1683.244,431.428,1683.244,432.012z M1606.199,354.962c0.313,0,0.614,0.04,0.916,0.046L946.747,932.971
	c-28.912,25.345-72.553,25.345-101.488,0L184.88,355.008c0.313,0,0.613-0.046,0.926-0.046H1606.199z M108.842,1361.718
	c-0.011-0.578-0.087-1.146-0.087-1.726v-927.98c0-0.584,0.076-1.157,0.087-1.742l532.141,465.725L108.842,1361.718z
	 M185.806,1437.037c-0.313,0-0.607-0.047-0.92-0.047l537.112-470.082l52.978,46.361c34.5,30.196,77.758,45.295,121.027,45.295
	c43.252,0,86.533-15.099,121.026-45.295l52.984-46.373l537.102,470.094c-0.313,0-0.604,0.047-0.916,0.047H185.806z"/>
</svg>
