<?xml version="1.0" encoding="utf-8"?>
<!-- Generator: Adobe Illustrator 16.0.0, SVG Export Plug-In . SVG Version: 6.00 Build 0)  -->
<!DOCTYPE svg PUBLIC "-//W3C//DTD SVG 1.1//EN" "http://www.w3.org/Graphics/SVG/1.1/DTD/svg11.dtd">
<svg version="1.1" id="Layer_1" xmlns="http://www.w3.org/2000/svg" xmlns:xlink="http://www.w3.org/1999/xlink" x="0px" y="0px"
	 width="1792px" height="1792px" viewBox="0 0 1792 1792" enable-background="new 0 0 1792 1792" xml:space="preserve">
<g>
	<path d="M1565.326,1262.365l0.141-0.164c-63.681-63.681-144.505-156.528-144.505-424.199c0-0.497-0.023-0.906-0.023-1.393V630.167
		c0-250.325-175.249-459.589-409.734-512.118c0.024-1.013,0.152-2.003,0.152-3.021c0-63.711-51.645-115.362-115.351-115.362
		c-63.705,0-115.362,51.651-115.362,115.362c0,1.018,0.128,2.008,0.151,3.025C546.306,170.584,371.05,379.848,371.05,630.167
		v207.835c0,267.671-80.835,360.519-144.506,424.199l0.141,0.153c-29.481,27.351-48.039,66.292-48.039,109.672
		c0,82.707,67.042,149.739,149.727,149.739h1135.256c82.685,0,149.727-67.032,149.727-149.739
		C1613.354,1328.659,1594.795,1289.705,1565.326,1262.365z"/>
	<path d="M1064.372,1565.741H727.65c-16.063,0-31.179,7.598-40.763,20.491c-9.583,12.889-12.504,29.551-7.873,44.936
		c28.077,93.244,114.613,161.166,217.003,161.166s188.913-67.922,216.992-161.166c4.636-15.385,1.696-32.047-7.881-44.936
		C1095.54,1573.339,1080.437,1565.741,1064.372,1565.741z"/>
</g>
</svg>
