<?xml version="1.0" encoding="utf-8"?>
<!-- Generator: Adobe Illustrator 16.0.0, SVG Export Plug-In . SVG Version: 6.00 Build 0)  -->
<!DOCTYPE svg PUBLIC "-//W3C//DTD SVG 1.1//EN" "http://www.w3.org/Graphics/SVG/1.1/DTD/svg11.dtd">
<svg version="1.1" id="Layer_1" xmlns="http://www.w3.org/2000/svg" xmlns:xlink="http://www.w3.org/1999/xlink" x="0px" y="0px"
	 width="2048px" height="1792px" viewBox="0 0 2048 1792" enable-background="new 0 0 2048 1792" xml:space="preserve">
<g>
	<path d="M1280.084,971.883h-35.193c-31.689,0-59.994-20.047-70.508-49.951c-6.393-18.301-13.83-36.107-22.209-53.368
		c-13.912-28.647-8.164-62.969,14.34-85.46l24.305-24.324c41.141-41.129,41.141-107.783,0.014-148.912l-17.523-17.536
		c-41.102-41.095-107.797-41.129-148.885,0l-24.868,24.848c-22.397,22.424-56.557,28.266-85.131,14.542
		c-17.321-8.278-35.153-15.643-53.469-22.001c-30.104-10.38-50.326-38.752-50.326-70.568v-34.415
		c0-58.142-47.158-105.279-105.272-105.279h-24.814c-58.155,0-105.299,47.138-105.299,105.279v35.174
		c0,31.729-20.034,60.008-49.951,70.521c-18.302,6.405-36.093,13.83-53.348,22.216c-28.628,13.904-62.962,8.13-85.48-14.354
		l-24.276-24.323c-41.156-41.136-107.811-41.136-148.926,0l-17.55,17.529c-41.115,41.136-41.129,107.783,0,148.919l24.854,24.827
		c22.397,22.438,28.238,56.577,14.516,85.171c-8.285,17.275-15.644,35.134-21.954,53.449c-10.42,30.078-38.779,50.301-70.616,50.301
		h-34.375c-58.154,0-105.299,47.156-105.299,105.313v24.801c0,58.141,47.145,105.271,105.299,105.271h35.141
		c31.716,0,60.008,20.047,70.495,49.965c6.432,18.287,13.87,36.119,22.263,53.375c13.897,28.627,8.123,62.947-14.381,85.439
		l-24.291,24.33c-41.142,41.129-41.129,107.783,0,148.912l17.537,17.537c41.102,41.088,107.77,41.115,148.885-0.027l24.827-24.828
		c22.411-22.41,56.57-28.266,85.172-14.541c17.294,8.297,35.14,15.656,53.469,22.008c30.091,10.393,50.313,38.752,50.313,70.588
		v34.361c-0.04,58.195,47.118,105.313,105.286,105.313h24.787c58.169,0,105.326-47.117,105.286-105.271v-35.182
		c0-31.701,20.034-59.994,49.95-70.508c18.302-6.418,36.12-13.83,53.401-22.209c28.602-13.91,62.949-8.15,85.453,14.34
		l24.292,24.305c41.129,41.143,107.783,41.102,148.912,0.014l17.535-17.537c41.129-41.115,41.156-107.797,0-148.898l-24.826-24.84
		c-22.438-22.398-28.266-56.57-14.557-85.131c8.313-17.322,15.656-35.182,21.994-53.51c10.42-30.105,38.752-50.301,70.604-50.301
		h34.387c58.156,0.014,105.273-47.143,105.273-105.299v-24.801C1385.344,1019.041,1338.227,971.842,1280.084,971.883z
		 M694.104,1346.82c-141.446,0-256.117-114.645-256.117-256.09c0-141.459,114.671-256.112,256.117-256.112
		c141.434,0,256.092,114.653,256.092,256.112C950.196,1232.176,835.538,1346.82,694.104,1346.82z"/>
	<path d="M1976.814,380.182h-17.629c-26.104,0-49.494-16.16-58.732-40.571c-2.35-6.224-4.902-12.38-7.627-18.423
		c-10.742-23.78-5.654-51.77,12.822-70.213l12.447-12.468c26.682-26.667,26.682-69.978,0-96.658l-4.82-4.827
		c-26.693-26.681-69.971-26.681-96.65,0l-12.449,12.468c-18.463,18.463-46.432,23.565-70.225,12.837
		c-6.057-2.727-12.18-5.264-18.438-7.627c-24.385-9.219-40.578-32.636-40.578-58.699V78.357c0-37.759-30.602-68.34-68.318-68.34
		h-6.822c-37.758,0-68.373,30.581-68.373,68.34V95.96c0,26.104-16.141,49.521-40.564,58.739c-6.217,2.363-12.395,4.9-18.422,7.627
		c-23.781,10.729-51.764,5.626-70.213-12.817l-12.461-12.467c-26.668-26.701-69.986-26.688-96.666,0.013l-4.82,4.814
		c-26.682,26.681-26.682,69.971,0,96.651l12.447,12.454c18.436,18.443,23.578,46.433,12.836,70.213
		c-2.738,6.043-5.275,12.199-7.639,18.423c-9.227,24.411-32.604,40.605-58.693,40.605h-17.631
		c-37.744-0.021-68.332,30.601-68.332,68.319v6.828c0,37.751,30.588,68.359,68.332,68.359h17.578
		c26.104-0.02,49.52,16.153,58.746,40.564c2.363,6.244,4.9,12.4,7.627,18.463c10.74,23.761,5.639,51.73-12.811,70.173
		l-12.447,12.488c-26.682,26.646-26.682,69.957,0,96.638l4.848,4.827c26.666,26.688,69.957,26.688,96.637,0l12.422-12.454
		c18.449-18.436,46.445-23.559,70.227-12.81c6.041,2.739,12.219,5.277,18.463,7.641c24.396,9.204,40.578,32.602,40.578,58.685
		v17.604c-0.041,37.719,30.588,68.34,68.332,68.34h6.836c37.717,0,68.346-30.581,68.346-68.34v-17.569
		c0-26.104,16.152-49.515,40.537-58.739c6.258-2.356,12.422-4.901,18.477-7.62c23.754-10.749,51.75-5.626,70.186,12.776
		l12.475,12.468c26.654,26.707,69.945,26.707,96.652,0l4.834-4.841c26.668-26.667,26.668-69.958,0-96.639l-12.461-12.454
		c-18.436-18.442-23.553-46.433-12.836-70.213c2.738-6.022,5.289-12.192,7.652-18.423c9.213-24.411,32.59-40.604,58.693-40.604
		h17.604c37.73,0.04,68.332-30.581,68.373-68.319v-6.828C2045.121,410.784,2014.533,380.182,1976.814,380.182z M1603.18,602.315
		c-83.037,0-150.35-67.306-150.35-150.349s67.313-150.349,150.35-150.349c83.049,0,150.348,67.306,150.348,150.349
		S1686.229,602.315,1603.18,602.315z"/>
</g>
</svg>
