<?xml version="1.0" encoding="utf-8"?>
<!-- Generator: Adobe Illustrator 16.0.0, SVG Export Plug-In . SVG Version: 6.00 Build 0)  -->
<!DOCTYPE svg PUBLIC "-//W3C//DTD SVG 1.1//EN" "http://www.w3.org/Graphics/SVG/1.1/DTD/svg11.dtd">
<svg version="1.1" id="Layer_1" xmlns="http://www.w3.org/2000/svg" xmlns:xlink="http://www.w3.org/1999/xlink" x="0px" y="0px"
	 width="1792px" height="1792px" viewBox="0 0 1792 1792" enable-background="new 0 0 1792 1792" xml:space="preserve">
<path d="M1619.496,550.494L1109.822,40.819c-25.728-25.727-59.936-39.898-96.32-39.898H268.819
	c-75.11,0-136.219,61.108-136.219,136.219v1517.715c0,75.116,61.108,136.225,136.219,136.225h1254.367
	c75.105,0,136.213-61.108,136.213-136.225V646.819C1659.399,610.434,1645.234,576.226,1619.496,550.494z M1555.456,1654.854
	c0,17.799-14.471,32.279-32.268,32.279H268.819c-17.797,0-32.273-14.48-32.273-32.279V137.14c0-17.798,14.476-32.273,32.273-32.273
	h710.772c19.457,0,35.229,15.772,35.229,35.229v384.333c0,64.886,52.605,117.485,117.48,117.485h387.933
	c19.457,0,35.229,15.773,35.229,35.229L1555.456,1654.854z"/>
</svg>
