<?xml version="1.0" encoding="utf-8"?>
<!-- Generator: Adobe Illustrator 16.0.0, SVG Export Plug-In . SVG Version: 6.00 Build 0)  -->
<!DOCTYPE svg PUBLIC "-//W3C//DTD SVG 1.1//EN" "http://www.w3.org/Graphics/SVG/1.1/DTD/svg11.dtd">
<svg version="1.1" id="Layer_1" xmlns="http://www.w3.org/2000/svg" xmlns:xlink="http://www.w3.org/1999/xlink" x="0px" y="0px"
	 width="1792px" height="1792px" viewBox="0 0 1792 1792" enable-background="new 0 0 1792 1792" xml:space="preserve">
<g>
	<path d="M426.328,1194.51c-156.397-105.774-260.246-237.906-301.696-296.395c-12.687-17.917-12.687-40.188,0-58.082
		c40.789-57.576,142.004-186.389,294.206-291.247c-1.997,5.026-4.113,10.004-5.941,15.079
		c-19.841,55.412-29.907,113.613-29.907,172.969c0,138.384,55.184,264.059,144.578,356.435l78.319-78.319
		c-69.337-72.294-112.074-170.275-112.074-278.104c0-46.597,7.876-92.22,23.413-135.595c15.428-43.086,38.396-83.43,67.46-118.952
		c21.85-26.695,50.831-46.081,83.803-56.193c70.142-21.513,146.068-34.452,227.502-34.452s157.359,12.939,227.488,34.452
		c17.186,5.267,33.322,13.179,47.969,23.281l89.911-89.911c-107.034-47.319-229.209-78.657-365.368-78.657
		c-474.16,0-779.5,379.006-861.788,495.145C-5.84,832.506-5.852,905.569,34.191,962.16
		c43.783,61.784,150.722,197.955,312.591,311.894L426.328,1194.51z"/>
	<path d="M1757.802,775.988c-43.783-61.798-150.784-197.904-312.669-311.821l186.227-186.227c21.646-21.639,21.646-56.728,0-78.367
		c-21.621-21.633-56.735-21.633-78.355,0L238.515,1514.062c-21.64,21.634-21.64,56.722,0,78.354
		c10.823,10.824,25,16.235,39.183,16.235c14.184,0,28.362-5.411,39.184-16.235l213.744-213.742
		c107.018,47.33,229.205,78.63,365.365,78.63c474.245,0,779.524-379.005,861.774-495.144
		C1797.847,905.641,1797.858,832.555,1757.802,775.988z M1298.17,736.847c0,221.753-180.412,402.154-402.179,402.154
		c-38.234,0-75.214-5.399-110.257-15.435l108.851-108.851c1.079,0.012,2.152,0.042,3.234,0.042
		c151.828,0,274.905-123.064,274.905-274.893c0-1.085-0.03-2.163-0.044-3.245l110.164-110.164
		C1293.019,662.168,1298.17,699.189,1298.17,736.847z M1667.351,898.091c-74.509,105.195-350.302,448.391-771.359,448.391
		c-102.393,0-196.142-20.367-280.53-52.643l83.463-83.464c60.701,25.384,127.264,39.448,197.066,39.448
		c282.864,0,513-230.137,513-512.988c0-59.356-10.065-117.557-29.905-172.969c-1.828-5.075-3.946-10.053-5.94-15.079
		c152.213,104.858,253.439,233.695,294.216,291.247C1680.048,857.951,1680.048,880.174,1667.351,898.091z"/>
	<path d="M767.78,727.335c-61.713,0-112.207-47.595-117.041-108.034c-17.809,36.389-27.826,77.297-27.826,120.563
		c0,71.621,27.417,136.834,72.295,185.751l388.373-388.362c-48.919-44.889-114.131-72.306-185.764-72.306
		c-43.254,0-84.175,10.028-120.587,27.826c60.511,4.833,108.093,55.314,108.093,117.052
		C885.325,674.713,832.715,727.335,767.78,727.335z"/>
</g>
</svg>
