<?xml version="1.0" encoding="utf-8"?>
<!-- Generator: Adobe Illustrator 16.0.0, SVG Export Plug-In . SVG Version: 6.00 Build 0)  -->
<!DOCTYPE svg PUBLIC "-//W3C//DTD SVG 1.1//EN" "http://www.w3.org/Graphics/SVG/1.1/DTD/svg11.dtd">
<svg version="1.1" id="Layer_1" xmlns="http://www.w3.org/2000/svg" xmlns:xlink="http://www.w3.org/1999/xlink" x="0px" y="0px"
	 width="1792px" height="1792px" viewBox="0 0 1792 1792" enable-background="new 0 0 1792 1792" xml:space="preserve">
<path d="M1428.754,3.375c-51.753,0-100.208,22.757-143.606,64.286l-0.2-0.281c-28.848,20.619-58.223,43.208-89.33,67.128
	c-153.839,118.3-345.313,265.524-612.441,265.524H241.264l0,0c-0.004,0-0.008,0-0.012,0c-130.283,0-228.535,168.684-228.535,392.378
	c0,223.681,98.252,392.354,228.535,392.354c0.004,0,0.008,0,0.012,0l0,0h93.006l95.718,470.363
	c15.808,77.685,84.124,133.498,163.399,133.498h53.78c50.055,0,97.462-22.486,129.131-61.248
	c31.669-38.763,44.25-89.701,34.269-138.751l-79.004-388.25c192.207,40.918,340.297,154.76,464.043,249.907
	c31.107,23.919,60.493,46.515,89.341,67.144l0.188-0.261c43.398,41.54,91.859,64.302,143.619,64.302
	c199.837,0,350.528-339.218,350.528-789.058C1779.282,342.588,1628.591,3.375,1428.754,3.375z M1078.225,792.41
	c0,187.623,26.22,355.992,71.28,488.542c-133.262-95.002-293.329-185.374-500.403-201.517l0,0
	c-49.19,0-120.648-113.383-120.648-287.025c0-173.66,71.458-287.05,120.648-287.05l0,0
	c207.079-16.143,367.153-106.514,500.417-201.515C1104.449,436.396,1078.225,604.775,1078.225,792.41z M1428.754,1473.569
	c-81.606,0-170.095-147.882-214.23-373.927l150.504-31.486c89.364-17.983,185.557-114.678,185.557-275.746
	c0-161.081-96.192-257.792-185.557-275.752l-150.5-31.489c44.139-226.024,132.622-373.896,214.227-373.896
	c114.536,0,242.63,291.294,242.63,681.137C1671.384,1182.271,1543.29,1473.569,1428.754,1473.569z"/>
</svg>
