<?xml version="1.0" encoding="utf-8"?>
<!-- Generator: Adobe Illustrator 16.0.0, SVG Export Plug-In . SVG Version: 6.00 Build 0)  -->
<!DOCTYPE svg PUBLIC "-//W3C//DTD SVG 1.1//EN" "http://www.w3.org/Graphics/SVG/1.1/DTD/svg11.dtd">
<svg version="1.1" id="Layer_1" xmlns="http://www.w3.org/2000/svg" xmlns:xlink="http://www.w3.org/1999/xlink" x="0px" y="0px"
	 width="1792px" height="1792px" viewBox="0 0 1792 1792" enable-background="new 0 0 1792 1792" xml:space="preserve">
<g>
	<path d="M83.065,711.993v999.556l570.825-499.587L84.94,714.013C84.238,713.386,83.721,712.643,83.065,711.993z"/>
	<path d="M1064.293,1276.566l-53.202,46.584c-32.813,28.689-73.962,43.053-115.088,43.053c-41.138,0-82.281-14.363-115.076-43.053
		l-53.202-46.572L144.76,1786.8h1502.51L1064.293,1276.566z"/>
	<path d="M1613.077,660.792c7.658-6.862,12.002-16.678,11.947-26.96c-0.054-10.283-4.493-20.081-12.231-26.853L947.044,24.309
		c-29.103-25.475-72.98-25.475-102.078-0.012c0,0-534.289,467.256-670.082,585.764c-7.822,6.826-12.308,16.703-12.302,27.085
		c0.006,10.382,4.51,20.247,12.332,27.074c135.842,118.559,670.052,585.746,670.052,585.746
		c29.097,25.451,72.975,25.463,102.078-0.012C947.044,1249.953,1479.797,780.229,1613.077,660.792z"/>
	<path d="M1707.065,714.013l-568.95,497.949l570.819,499.598V711.993C1708.285,712.643,1707.774,713.386,1707.065,714.013z"/>
</g>
</svg>
