<?xml version="1.0" encoding="utf-8"?>
<!-- Generator: Adobe Illustrator 16.0.0, SVG Export Plug-In . SVG Version: 6.00 Build 0)  -->
<!DOCTYPE svg PUBLIC "-//W3C//DTD SVG 1.1//EN" "http://www.w3.org/Graphics/SVG/1.1/DTD/svg11.dtd">
<svg version="1.1" id="Layer_1" xmlns="http://www.w3.org/2000/svg" xmlns:xlink="http://www.w3.org/1999/xlink" x="0px" y="0px"
	 width="2048px" height="1792px" viewBox="0 0 2048 1792" enable-background="new 0 0 2048 1792" xml:space="preserve">
<g>
	<path d="M1821.926,668.997l-96.596-421.672l-0.662-2.598c-44.59-161.767-149.746-240.4-321.473-240.4H644.806
		c-171.721,0-276.876,78.634-321.479,240.4L226.099,668.99C82.408,718.842,3.11,837.913,3.11,960.892v343.641
		c0,62.947,42.529,114.14,109.327,114.14v279.343c0,49.52,40.152,89.658,89.672,89.658h205.473
		c49.508,0,89.658-40.139,89.658-89.658v-279.343H1024h526.76v279.343c0,49.52,40.135,89.658,89.656,89.658h205.475
		c49.52,0,89.658-40.139,89.658-89.658v-279.343h0.014c66.799,0,109.328-51.192,109.328-114.14V960.892
		C2044.891,837.913,1965.6,718.856,1821.926,668.997z M397.415,1150.442h-185.15c-55.117,0-99.827-44.682-99.827-99.814
		c0-55.129,44.71-99.837,99.827-99.837h185.15c55.129,0,99.826,44.708,99.826,99.837
		C497.24,1105.761,452.544,1150.442,397.415,1150.442z M379.619,644.476c-5.401,0-10.508-2.46-13.874-6.685
		s-4.624-9.751-3.418-15.016l79.432-346.748c30.31-108.751,85.466-149.214,203.047-149.214h758.389
		c117.58,0,172.738,40.463,203.055,149.214l79.421,346.733c1.206,5.264-0.054,10.79-3.417,15.015c-3.364,4.225-8.472,6.7-13.873,6.7
		c-268.123,0-343.018,0-644.381,0S647.743,644.476,379.619,644.476z M1835.736,1150.442H1650.57
		c-55.113,0-99.811-44.682-99.811-99.814c0-55.129,44.697-99.837,99.811-99.837h185.166c55.117,0,99.813,44.708,99.813,99.837
		C1935.549,1105.761,1890.854,1150.442,1835.736,1150.442z"/>
</g>
</svg>
