<?xml version="1.0" encoding="utf-8"?>
<!-- Generator: Adobe Illustrator 16.0.0, SVG Export Plug-In . SVG Version: 6.00 Build 0)  -->
<!DOCTYPE svg PUBLIC "-//W3C//DTD SVG 1.1//EN" "http://www.w3.org/Graphics/SVG/1.1/DTD/svg11.dtd">
<svg version="1.1" id="Layer_1" xmlns="http://www.w3.org/2000/svg" xmlns:xlink="http://www.w3.org/1999/xlink" x="0px" y="0px"
	 width="1792px" height="1792px" viewBox="0 0 1792 1792" enable-background="new 0 0 1792 1792" xml:space="preserve">
<g>
	<path d="M1416.326,1.843H375.667c-93.5,0-169.57,76.07-169.57,169.569v1449.169c0,93.505,76.07,169.576,169.57,169.576h1040.659
		c93.506,0,169.576-76.071,169.576-169.576V171.412C1585.902,77.913,1509.832,1.843,1416.326,1.843z M1475.619,1620.581
		c0,32.692-26.6,59.293-59.293,59.293h-117.463v-373.807c0-33.841-27.426-61.28-61.291-61.28h-160.254
		c-33.842,0-61.27,27.439-61.27,61.28v373.807H375.667c-32.692,0-59.287-26.601-59.287-59.293V171.412
		c0-32.692,26.595-59.287,59.287-59.287h1040.659c32.693,0,59.293,26.595,59.293,59.287V1620.581z"/>
	<path d="M714.682,264.385H554.427c-33.841,0-61.273,27.433-61.273,61.275v160.26c0,33.841,27.433,61.273,61.273,61.273h160.255
		c33.84,0,61.273-27.432,61.273-61.273V325.66C775.955,291.818,748.522,264.385,714.682,264.385z"/>
	<path d="M1237.584,264.38H1077.33c-33.84,0-61.281,27.432-61.281,61.273v160.266c0,33.841,27.441,61.273,61.281,61.273h160.254
		c33.84,0,61.279-27.432,61.279-61.273V325.653C1298.863,291.812,1271.424,264.38,1237.584,264.38z"/>
	<path d="M714.682,754.595H554.421c-33.84,0-61.273,27.433-61.273,61.273V976.13c0,33.841,27.433,61.28,61.273,61.28h160.261
		c33.84,0,61.273-27.439,61.273-61.28V815.869C775.955,782.028,748.522,754.595,714.682,754.595z"/>
	<path d="M1237.584,754.589H1077.33c-33.84,0-61.281,27.433-61.281,61.274V976.13c0,33.841,27.441,61.28,61.281,61.28h160.254
		c33.84,0,61.279-27.439,61.279-61.28V815.863C1298.863,782.022,1271.424,754.589,1237.584,754.589z"/>
	<path d="M714.682,1244.8H554.421c-33.84,0-61.273,27.438-61.273,61.28v160.266c0,33.842,27.433,61.28,61.273,61.28h160.261
		c33.84,0,61.273-27.438,61.273-61.28V1306.08C775.955,1272.238,748.522,1244.8,714.682,1244.8z"/>
</g>
</svg>
