<?xml version="1.0" encoding="utf-8"?>
<!-- Generator: Adobe Illustrator 16.0.0, SVG Export Plug-In . SVG Version: 6.00 Build 0)  -->
<!DOCTYPE svg PUBLIC "-//W3C//DTD SVG 1.1//EN" "http://www.w3.org/Graphics/SVG/1.1/DTD/svg11.dtd">
<svg version="1.1" id="Layer_1" xmlns="http://www.w3.org/2000/svg" xmlns:xlink="http://www.w3.org/1999/xlink" x="0px" y="0px"
	 width="1792px" height="1792px" viewBox="0 0 1792 1792" enable-background="new 0 0 1792 1792" xml:space="preserve">
<path d="M1609.274,1248.915c109.454-85.152,176.167-197.879,176.167-321.521c0-203.747-180.841-377.777-436.144-447.834
	c-117.954-166.012-356.961-279.911-632.186-279.911c-391.801,0-710.555,230.636-710.555,514.125
	c0,130.83,67.267,255.231,189.407,350.272c7.865,6.123,11.551,16.344,9.39,26.057l-45.096,202.99
	c-8.13,36.594,6.629,73.895,37.578,94.994c15.201,10.373,32.962,15.86,51.366,15.86c18.167,0,35.735-5.357,50.818-15.495
	l242.209-162.779c3.879-2.614,8.16-4.439,12.563-5.852c125.426,114.48,322.434,188.436,544.338,188.436
	c47.568,0,93.982-3.45,138.819-9.938c26.491-3.826,53.49,2.319,75.72,17.272l253.289,170.222
	c13.081,8.771,30.189,8.713,43.212-0.153c13.011-8.89,19.321-24.809,15.896-40.187l-47.168-212.23
	C1571.88,1301.652,1583.725,1268.778,1609.274,1248.915z M275.635,1274.101l35.652-160.461
	c11.198-50.418-7.906-103.484-48.675-135.227c-95.148-74.037-147.543-168.02-147.543-264.64
	c0-223.658,270.073-405.612,602.043-405.612c331.953,0,602.009,181.954,602.009,405.612c0,223.653-270.056,405.612-602.009,405.612
	c-41.799,0-83.851-3.014-124.978-8.961c-38.555-5.533-78.111,3.475-110.431,25.186L275.635,1274.101z"/>
</svg>
