<?xml version="1.0" encoding="utf-8"?>
<!-- Generator: Adobe Illustrator 16.0.0, SVG Export Plug-In . SVG Version: 6.00 Build 0)  -->
<!DOCTYPE svg PUBLIC "-//W3C//DTD SVG 1.1//EN" "http://www.w3.org/Graphics/SVG/1.1/DTD/svg11.dtd">
<svg version="1.1" id="Layer_1" xmlns="http://www.w3.org/2000/svg" xmlns:xlink="http://www.w3.org/1999/xlink" x="0px" y="0px"
	 width="200px" height="200px" viewBox="796 796 200 200" enable-background="new 796 796 200 200" xml:space="preserve">
<g>
	<path d="M796,834.5v122.955L866.218,896l-69.987-61.253C796.144,834.671,796.081,834.579,796,834.5z"/>
	<path d="M916.703,903.947l-6.547,5.729c-4.035,3.53-9.097,5.297-14.156,5.297c-5.061,0-10.121-1.767-14.155-5.297l-6.544-5.728
		l-71.712,62.763h184.826L916.703,903.947z"/>
	<path d="M988.53,825.289H803.47c0.216,0.144,0.438,0.278,0.639,0.454l85.614,74.932c3.578,3.131,8.977,3.132,12.555-0.002
		l85.613-74.93C988.093,825.567,988.313,825.433,988.53,825.289z"/>
	<path d="M995.77,834.746L925.783,896L996,957.455V834.5C995.92,834.579,995.855,834.671,995.77,834.746z"/>
</g>
</svg>
