<?xml version="1.0" encoding="utf-8"?>
<!-- Generator: Adobe Illustrator 16.0.0, SVG Export Plug-In . SVG Version: 6.00 Build 0)  -->
<!DOCTYPE svg PUBLIC "-//W3C//DTD SVG 1.1//EN" "http://www.w3.org/Graphics/SVG/1.1/DTD/svg11.dtd">
<svg version="1.1" id="Layer_1" xmlns="http://www.w3.org/2000/svg" xmlns:xlink="http://www.w3.org/1999/xlink" x="0px" y="0px"
	 width="200px" height="200px" viewBox="796 796 200 200" enable-background="new 796 796 200 200" xml:space="preserve">
<path d="M979.178,863.479l-70.572-62.688C905.131,797.702,900.652,796,896,796c-4.651,0-9.128,1.702-12.607,4.791l-70.57,62.687
	c-4.052,3.6-6.376,8.772-6.376,14.192v99.348c0,10.467,8.515,18.982,18.982,18.982h141.142c10.465,0,18.981-8.516,18.981-18.982
	v-99.348C985.553,872.251,983.23,867.079,979.178,863.479z M869.729,930.767l-51.233,44.84v-90.349L869.729,930.767z
	 M878.808,938.833l4.586,4.073c3.593,3.192,8.1,4.787,12.606,4.787c4.507,0,9.013-1.595,12.605-4.787l4.588-4.075l51.552,45.121
	h-137.49L878.808,938.833z M922.271,930.769l51.233-45.512v90.353L922.271,930.769z M891.395,809.798
	c1.271-1.129,2.906-1.75,4.606-1.75s3.333,0.621,4.605,1.749l69.854,62.05l-69.854,62.052c-2.625,2.332-6.584,2.332-9.21,0
	l-69.853-62.052L891.395,809.798z"/>
</svg>
