<?xml version="1.0" encoding="utf-8"?>
<!-- Generator: Adobe Illustrator 16.0.0, SVG Export Plug-In . SVG Version: 6.00 Build 0)  -->
<!DOCTYPE svg PUBLIC "-//W3C//DTD SVG 1.1//EN" "http://www.w3.org/Graphics/SVG/1.1/DTD/svg11.dtd">
<svg version="1.1" id="Layer_1" xmlns="http://www.w3.org/2000/svg" xmlns:xlink="http://www.w3.org/1999/xlink" x="0px" y="0px"
	 width="200px" height="200px" viewBox="796 796 200 200" enable-background="new 796 796 200 200" xml:space="preserve">
<path d="M975.445,823.541h-158.89c-11.334,0-20.556,9.222-20.556,20.556v103.807c0,11.335,9.222,20.556,20.556,20.556h158.89
	c11.334,0,20.555-9.221,20.555-20.556V844.097C996,832.763,986.779,823.541,975.445,823.541z M984.063,844.097v103.807
	c0,0.066-0.008,0.13-0.01,0.195l-59.524-52.1l59.524-52.097C984.056,843.968,984.063,844.031,984.063,844.097z M975.445,835.478
	c0.034,0,0.068,0.005,0.102,0.006l-73.87,64.652c-3.234,2.835-8.116,2.835-11.353,0l-73.872-64.652c0.035,0,0.069-0.006,0.104-0.006
	H975.445z M807.946,948.097c-0.001-0.065-0.01-0.129-0.01-0.193V844.097c0-0.065,0.009-0.129,0.01-0.194l59.527,52.097
	L807.946,948.097z M816.556,956.521c-0.035,0-0.067-0.005-0.103-0.005l60.083-52.585l5.926,5.187
	c3.859,3.378,8.698,5.066,13.539,5.066c4.837,0,9.679-1.688,13.539-5.066l5.926-5.188l60.082,52.586
	c-0.035,0-0.067,0.005-0.102,0.005H816.556z"/>
</svg>
