<?xml version="1.0" encoding="utf-8"?>
<!-- Generator: Adobe Illustrator 16.0.0, SVG Export Plug-In . SVG Version: 6.00 Build 0)  -->
<!DOCTYPE svg PUBLIC "-//W3C//DTD SVG 1.1//EN" "http://www.w3.org/Graphics/SVG/1.1/DTD/svg11.dtd">
<svg version="1.1" id="Layer_1" xmlns="http://www.w3.org/2000/svg" xmlns:xlink="http://www.w3.org/1999/xlink" x="0px" y="0px"
	 width="200px" height="200px" viewBox="796 796 200 200" enable-background="new 796 796 200 200" xml:space="preserve">
<path d="M973.048,796H818.952C806.276,796,796,806.276,796,818.952v154.096C796,985.724,806.276,996,818.952,996h154.096
	C985.725,996,996,985.724,996,973.048V818.952C996,806.276,985.725,796,973.048,796z M966.976,840.203l-66.864,58.521
	c-2.344,2.052-5.879,2.052-8.222,0l-66.865-58.521H966.976z M817.092,942.789v-93.581L870.556,896L817.092,942.789z
	 M825.023,951.797l54.644-47.823l4.32,3.781c3.423,2.995,7.719,4.495,12.013,4.495c4.295,0,8.589-1.5,12.014-4.498l4.32-3.781
	l54.645,47.826H825.023L825.023,951.797z M974.908,942.792l-53.465-46.795l53.465-46.792V942.792z"/>
</svg>
