<?xml version="1.0" encoding="utf-8"?>
<!-- Generator: Adobe Illustrator 16.0.0, SVG Export Plug-In . SVG Version: 6.00 Build 0)  -->
<!DOCTYPE svg PUBLIC "-//W3C//DTD SVG 1.1//EN" "http://www.w3.org/Graphics/SVG/1.1/DTD/svg11.dtd">
<svg version="1.1" id="Layer_1" xmlns="http://www.w3.org/2000/svg" xmlns:xlink="http://www.w3.org/1999/xlink" x="0px" y="0px"
	 width="200px" height="200px" viewBox="796 796 200 200" enable-background="new 796 796 200 200" xml:space="preserve">
<g>
	<path d="M804.741,875.343v112.208l64.08-56.083l-63.87-55.899C804.873,875.5,804.814,875.416,804.741,875.343z"/>
	<path d="M914.893,938.722l-5.973,5.229c-3.684,3.22-8.303,4.833-12.92,4.833c-4.618,0-9.236-1.612-12.918-4.833l-5.973-5.229
		L811.667,996h168.67L914.893,938.722z"/>
	<path d="M976.498,869.595c0.859-0.77,1.348-1.872,1.342-3.026c-0.007-1.154-0.505-2.254-1.374-3.015l-74.735-65.41
		c-3.268-2.86-8.193-2.86-11.46-0.001c0,0-59.979,52.454-75.222,65.757c-0.879,0.766-1.382,1.875-1.382,3.041
		c0.001,1.166,0.507,2.273,1.385,3.039c15.249,13.31,75.219,65.755,75.219,65.755c3.267,2.857,8.192,2.858,11.46-0.001
		C901.73,935.733,961.536,883.003,976.498,869.595z"/>
	<path d="M987.049,875.57l-63.869,55.899l64.079,56.085v-112.21C987.187,875.416,987.129,875.5,987.049,875.57z"/>
</g>
</svg>
