<?xml version="1.0" encoding="utf-8"?>
<!-- Generator: Adobe Illustrator 16.0.0, SVG Export Plug-In . SVG Version: 6.00 Build 0)  -->
<!DOCTYPE svg PUBLIC "-//W3C//DTD SVG 1.1//EN" "http://www.w3.org/Graphics/SVG/1.1/DTD/svg11.dtd">
<svg version="1.1" id="Layer_1" xmlns="http://www.w3.org/2000/svg" xmlns:xlink="http://www.w3.org/1999/xlink" x="0px" y="0px"
	 width="1792px" height="1792px" viewBox="0 0 1792 1792" enable-background="new 0 0 1792 1792" xml:space="preserve">
<g>
	<path d="M1625.682,1172.388H639.003V974.64c0-46.06-27.749-87.583-70.305-105.205c-42.555-17.631-91.535-7.889-124.102,24.678
		L13.554,1325.154l431.065,431.008c32.567,32.565,81.547,42.308,124.102,24.677c42.556-17.632,70.293-59.155,70.293-105.217
		v-197.701h986.667c84.371,0,152.765-68.393,152.765-152.767C1778.446,1240.782,1710.053,1172.388,1625.682,1172.388z"/>
	<path d="M166.625,619.296l980.688,0.222v197.819c0,46.06,27.75,87.584,70.305,105.215c42.555,17.62,91.534,7.879,124.104-24.688
		l431.016-431.018L1341.722,35.841c-32.57-32.568-81.55-42.311-124.104-24.679c-42.555,17.62-70.305,59.145-70.305,105.205v197.631
		l-980.688-0.222c-84.372,0-152.766,68.393-152.766,152.754C13.859,550.902,82.252,619.296,166.625,619.296z"/>
</g>
</svg>
