<?xml version="1.0" encoding="utf-8"?>
<!-- Generator: Adobe Illustrator 16.0.0, SVG Export Plug-In . SVG Version: 6.00 Build 0)  -->
<!DOCTYPE svg PUBLIC "-//W3C//DTD SVG 1.1//EN" "http://www.w3.org/Graphics/SVG/1.1/DTD/svg11.dtd">
<svg version="1.1" id="Layer_1" xmlns="http://www.w3.org/2000/svg" xmlns:xlink="http://www.w3.org/1999/xlink" x="0px" y="0px"
	 width="200px" height="200px" viewBox="796 796 200 200" enable-background="new 796 796 200 200" xml:space="preserve">
<g>
	<path d="M977.664,926.933H867.237v-22.131c0-5.155-3.105-9.803-7.868-11.775c-4.763-1.973-10.245-0.883-13.89,2.762l-48.241,48.242
		l48.244,48.236c3.645,3.646,9.126,4.736,13.889,2.763s7.867-6.621,7.867-11.776v-22.126h110.426
		c9.443,0,17.098-7.654,17.098-17.097C994.762,934.587,987.107,926.933,977.664,926.933z"/>
	<path d="M814.37,865.032l109.755,0.025v22.139c0,5.155,3.105,9.802,7.869,11.776c4.764,1.972,10.244,0.882,13.891-2.763
		l48.238-48.239l-48.238-48.237c-3.646-3.645-9.127-4.735-13.891-2.762c-4.764,1.972-7.869,6.62-7.869,11.774v22.118l-109.755-0.025
		c-9.443,0-17.098,7.654-17.098,17.096C797.272,857.377,804.927,865.032,814.37,865.032z"/>
</g>
</svg>
