<?xml version="1.0" encoding="utf-8"?>
<!-- Generator: Adobe Illustrator 16.0.0, SVG Export Plug-In . SVG Version: 6.00 Build 0)  -->
<!DOCTYPE svg PUBLIC "-//W3C//DTD SVG 1.1//EN" "http://www.w3.org/Graphics/SVG/1.1/DTD/svg11.dtd">
<svg version="1.1" id="Layer_1" xmlns="http://www.w3.org/2000/svg" xmlns:xlink="http://www.w3.org/1999/xlink" x="0px" y="0px"
	 width="1792px" height="1792px" viewBox="0 0 1792 1792" enable-background="new 0 0 1792 1792" xml:space="preserve">
<path d="M1760.805,801.285c-33.514-50.524-152.945-217.646-343.193-349.468l166.623-166.618c21.391-21.385,21.391-56.062,0-77.446
	c-21.367-21.379-56.068-21.379-77.436,0L1322.006,392.54c-113.859-62.634-247.434-108.012-398.49-113.009
	c-9.113-0.481-18.289-0.755-27.522-0.755c-9.234,0-18.408,0.273-27.523,0.755c-477.314,15.8-780.482,436.131-837.263,521.742
	c-38.153,57.523-38.159,131.875-0.012,189.44c33.513,50.518,152.945,217.641,343.188,349.455l-166.635,166.637
	c-21.385,21.379-21.385,56.055,0,77.434c10.695,10.695,24.707,16.043,38.724,16.043s28.028-5.348,38.723-16.043l184.788-184.793
	c120.77,66.443,263.583,113.775,426.012,113.775c493.334,0,806.936-435.244,864.786-522.484
	C1798.939,933.207,1798.963,858.856,1760.805,801.285z M1301.043,793.323c0,223.332-181.705,405.025-405.049,405.025
	c-65.313,0-127.009-15.639-181.698-43.211l543.525-543.524C1285.402,666.302,1301.043,728.002,1301.043,793.323z M490.969,793.323
	c0-223.333,181.692-405.025,405.025-405.025c118.077,0,224.485,50.804,298.592,131.673l-571.939,571.934
	C541.778,1017.809,490.969,911.395,490.969,793.323z M122.475,930.188c-13.768-20.771-13.768-47.618,0-68.378
	c75.409-113.687,190.058-237.231,330.43-329.646c-45.325,76.614-71.458,165.874-71.458,261.159
	c0,148.275,63.115,282.003,163.795,375.992l-91.244,91.232C313.133,1168.055,198.08,1044.166,122.475,930.188z M1669.512,930.188
	c-144.84,218.438-434.33,473.512-773.518,473.512c-122.63,0-238.711-33.465-343.877-86.383l81.571-81.57
	c76.864,45.752,166.546,72.123,262.306,72.123c283.739,0,514.571-230.82,514.571-514.546c0-95.285-26.133-184.539-71.459-261.147
	c140.373,92.408,255.016,215.947,330.418,329.628C1683.297,882.582,1683.285,909.422,1669.512,930.188z"/>
</svg>
