<?xml version="1.0" encoding="utf-8"?>
<!-- Generator: Adobe Illustrator 16.0.0, SVG Export Plug-In . SVG Version: 6.00 Build 0)  -->
<!DOCTYPE svg PUBLIC "-//W3C//DTD SVG 1.1//EN" "http://www.w3.org/Graphics/SVG/1.1/DTD/svg11.dtd">
<svg version="1.1" id="Layer_1" xmlns="http://www.w3.org/2000/svg" xmlns:xlink="http://www.w3.org/1999/xlink" x="0px" y="0px"
	 width="200px" height="200px" viewBox="796 796 200 200" enable-background="new 796 796 200 200" xml:space="preserve">
<path d="M992.798,885.398c-3.751-5.655-17.119-24.361-38.414-39.116l18.65-18.65c2.395-2.394,2.395-6.275,0-8.668
	c-2.392-2.393-6.275-2.393-8.667,0l-20.685,20.684c-12.744-7.011-27.695-12.09-44.603-12.649c-1.021-0.054-2.048-0.084-3.081-0.084
	s-2.061,0.031-3.08,0.084c-53.427,1.769-87.36,48.816-93.716,58.399c-4.271,6.438-4.271,14.761-0.001,21.205
	c3.751,5.654,17.119,24.36,38.413,39.114l-18.651,18.652c-2.394,2.393-2.394,6.274,0,8.667c1.196,1.197,2.766,1.796,4.334,1.796
	c1.569,0,3.138-0.599,4.334-1.796l20.684-20.684c13.518,7.437,29.503,12.734,47.684,12.734c55.22,0,90.321-48.717,96.796-58.481
	C997.066,900.165,997.069,891.842,992.798,885.398z M941.337,884.507c0,24.998-20.339,45.334-45.338,45.334
	c-7.311,0-14.216-1.75-20.338-4.836l60.838-60.837C939.586,870.29,941.337,877.196,941.337,884.507z M850.664,884.507
	c0-24.998,20.337-45.335,45.335-45.335c13.217,0,25.127,5.687,33.422,14.738l-64.018,64.017
	C856.352,909.635,850.664,897.724,850.664,884.507z M809.419,899.827c-1.541-2.325-1.541-5.331,0-7.654
	c8.44-12.725,21.273-26.553,36.985-36.897c-5.073,8.576-7.999,18.566-7.999,29.232c0,16.597,7.064,31.565,18.334,42.085
	l-10.213,10.212C830.759,926.451,817.881,912.585,809.419,899.827z M982.579,899.827c-16.212,24.45-48.614,53-86.58,53
	c-13.726,0-26.719-3.745-38.49-9.669l9.13-9.13c8.604,5.121,18.642,8.073,29.36,8.073c31.759,0,57.597-25.836,57.597-57.594
	c0-10.666-2.926-20.656-7.999-29.23c15.712,10.343,28.544,24.171,36.984,36.896C984.122,894.498,984.121,897.503,982.579,899.827z"
	/>
</svg>
