<?xml version="1.0" encoding="utf-8"?>
<!-- Generator: Adobe Illustrator 16.0.0, SVG Export Plug-In . SVG Version: 6.00 Build 0)  -->
<!DOCTYPE svg PUBLIC "-//W3C//DTD SVG 1.1//EN" "http://www.w3.org/Graphics/SVG/1.1/DTD/svg11.dtd">
<svg version="1.1" id="Layer_1" xmlns="http://www.w3.org/2000/svg" xmlns:xlink="http://www.w3.org/1999/xlink" x="0px" y="0px"
	 width="200px" height="200px" viewBox="796 796 200 200" enable-background="new 796 796 200 200" xml:space="preserve">
<g>
	<path d="M843.336,929.472c-17.536-11.86-29.181-26.677-33.829-33.235c-1.422-2.009-1.422-4.506,0-6.512
		c4.574-6.456,15.923-20.9,32.989-32.657c-0.224,0.563-0.461,1.122-0.666,1.691c-2.225,6.213-3.354,12.739-3.354,19.395
		c0,15.517,6.188,29.609,16.211,39.966l8.782-8.781c-7.774-8.106-12.566-19.093-12.566-31.184c0-5.225,0.883-10.341,2.625-15.204
		c1.73-4.831,4.305-9.355,7.564-13.338c2.45-2.993,5.699-5.167,9.396-6.301c7.865-2.413,16.378-3.863,25.509-3.863
		s17.645,1.451,25.508,3.863c1.927,0.59,3.736,1.478,5.379,2.61l10.081-10.082c-12.001-5.306-25.7-8.82-40.968-8.82
		c-53.167,0-87.404,42.498-96.631,55.52c-4.49,6.34-4.491,14.533-0.001,20.877c4.91,6.928,16.9,22.196,35.051,34.973
		L843.336,929.472z"/>
	<path d="M992.632,882.543c-4.909-6.929-16.906-22.19-35.059-34.964l20.882-20.881c2.427-2.426,2.427-6.361,0-8.787
		c-2.425-2.426-6.362-2.426-8.786,0L822.277,965.302c-2.426,2.426-2.426,6.36,0,8.786c1.214,1.214,2.803,1.82,4.394,1.82
		s3.18-0.606,4.394-1.82l23.967-23.967c12,5.308,25.701,8.816,40.968,8.816c53.176,0,87.406-42.497,96.629-55.52
		C997.122,897.081,997.124,888.886,992.632,882.543z M941.095,878.154c0,24.864-20.229,45.093-45.096,45.093
		c-4.287,0-8.434-0.605-12.363-1.73l12.205-12.205c0.121,0.001,0.242,0.004,0.363,0.004c17.024,0,30.824-13.798,30.824-30.823
		c0-0.122-0.003-0.243-0.005-0.364l12.353-12.353C940.517,869.781,941.095,873.932,941.095,878.154z M982.49,896.234
		c-8.354,11.795-39.279,50.277-86.491,50.277c-11.481,0-21.993-2.284-31.456-5.903l9.358-9.358
		c6.807,2.847,14.27,4.424,22.097,4.424c31.717,0,57.521-25.806,57.521-57.521c0-6.655-1.128-13.181-3.353-19.395
		c-0.205-0.569-0.443-1.127-0.666-1.691c17.067,11.757,28.417,26.204,32.989,32.657C983.914,891.733,983.914,894.225,982.49,896.234
		z"/>
	<path d="M881.623,877.088c-6.919,0-12.582-5.337-13.124-12.114c-1.997,4.08-3.12,8.667-3.12,13.519
		c0,8.031,3.074,15.343,8.106,20.828l43.547-43.546c-5.485-5.033-12.798-8.107-20.829-8.107c-4.85,0-9.438,1.125-13.521,3.12
		c6.785,0.542,12.121,6.202,12.121,13.125C894.803,871.188,888.904,877.088,881.623,877.088z"/>
</g>
</svg>
