<?xml version="1.0" encoding="utf-8"?>
<!-- Generator: Adobe Illustrator 16.0.0, SVG Export Plug-In . SVG Version: 6.00 Build 0)  -->
<!DOCTYPE svg PUBLIC "-//W3C//DTD SVG 1.1//EN" "http://www.w3.org/Graphics/SVG/1.1/DTD/svg11.dtd">
<svg version="1.1" id="Layer_1" xmlns="http://www.w3.org/2000/svg" xmlns:xlink="http://www.w3.org/1999/xlink" x="0px" y="0px"
	 width="200px" height="200px" viewBox="796 796 200 200" enable-background="new 796 796 200 200" xml:space="preserve">
<g>
	<path d="M992.633,885.563c-9.229-13.025-43.469-55.521-96.634-55.521c-53.167,0-87.404,42.496-96.631,55.52
		c-4.49,6.339-4.491,14.533-0.001,20.877c9.228,13.024,43.471,55.52,96.632,55.52c53.176,0,87.406-42.495,96.63-55.518
		C997.123,900.102,997.123,891.907,992.633,885.563z M853.528,865.971c1.73-4.832,4.306-9.355,7.564-13.338
		c2.45-2.994,5.699-5.167,9.397-6.301c7.865-2.413,16.378-3.863,25.509-3.863s17.645,1.45,25.508,3.863
		c3.683,1.129,6.959,3.32,9.397,6.3c3.26,3.983,5.835,8.507,7.564,13.339c1.742,4.863,2.626,9.979,2.626,15.204
		c0,24.864-20.229,45.093-45.096,45.093s-45.096-20.229-45.096-45.093C850.903,875.949,851.787,870.834,853.528,865.971z
		 M982.49,899.256c-8.354,11.794-39.279,50.276-86.491,50.276c-47.2,0-78.136-38.483-86.491-50.274c-1.423-2.01-1.423-4.506,0-6.512
		c4.573-6.456,15.922-20.899,32.989-32.658c-0.224,0.563-0.461,1.122-0.667,1.692c-2.225,6.211-3.353,12.737-3.353,19.395
		c0,31.716,25.805,57.519,57.522,57.519c31.718,0,57.522-25.803,57.522-57.519c0-6.657-1.129-13.184-3.354-19.396
		c-0.205-0.569-0.443-1.128-0.666-1.691c17.066,11.759,28.417,26.204,32.99,32.658C983.914,894.754,983.914,897.247,982.49,899.256z
		"/>
	<path d="M896.204,912.338c17.025,0,30.825-13.801,30.825-30.825c0-17.022-13.8-30.825-30.825-30.825
		c-4.85,0-9.438,1.124-13.521,3.121c6.785,0.541,12.12,6.201,12.12,13.123c0,7.276-5.899,13.178-13.18,13.178
		c-6.919,0-12.581-5.338-13.123-12.115c-1.997,4.082-3.12,8.669-3.12,13.519C865.379,898.537,879.182,912.338,896.204,912.338z"/>
</g>
</svg>
