<?xml version="1.0" encoding="utf-8"?>
<!-- Generator: Adobe Illustrator 16.0.0, SVG Export Plug-In . SVG Version: 6.00 Build 0)  -->
<!DOCTYPE svg PUBLIC "-//W3C//DTD SVG 1.1//EN" "http://www.w3.org/Graphics/SVG/1.1/DTD/svg11.dtd">
<svg version="1.1" id="Layer_1" xmlns="http://www.w3.org/2000/svg" xmlns:xlink="http://www.w3.org/1999/xlink" x="0px" y="0px"
	 width="1792px" height="1792px" viewBox="0 0 1792 1792" enable-background="new 0 0 1792 1792" xml:space="preserve">
<g>
	<path d="M1754.025,803.328c-81.938-115.653-385.965-492.985-858.034-492.985c-472.082,0-776.084,377.332-858.011,492.973
		c-39.868,56.282-39.88,129.037-0.012,185.367c81.939,115.643,385.989,492.975,858.023,492.975
		c472.165,0,776.108-377.332,857.999-492.963C1793.895,932.413,1793.906,859.658,1754.025,803.328z M518.886,629.357
		c15.36-42.902,38.228-83.07,67.165-118.431c21.754-26.578,50.602-45.872,83.436-55.946
		c69.834-21.419,145.428-34.301,226.505-34.301s156.671,12.882,226.493,34.301c32.697,10.026,61.789,29.481,83.436,55.94
		c28.949,35.366,51.816,75.534,67.176,118.437c15.469,43.185,23.311,88.607,23.311,135c0,220.782-179.621,400.392-400.415,400.392
		S495.576,985.14,495.576,764.357C495.576,717.965,503.417,672.542,518.886,629.357z M1663.971,924.907
		c-74.182,104.721-348.768,446.412-767.979,446.412c-419.104,0-693.786-341.703-767.979-446.4c-12.631-17.84-12.631-40,0-57.814
		c40.61-57.323,141.381-185.571,292.916-289.982c-1.988,5.005-4.095,9.961-5.915,15.025
		c-19.754,55.156-29.775,113.103-29.775,172.21c0,281.614,229.127,510.728,510.753,510.728s510.753-229.113,510.753-510.728
		c0-59.107-10.021-117.054-29.775-172.21c-1.82-5.064-3.928-10.021-5.914-15.025c151.545,104.411,252.328,232.671,292.928,289.982
		C1676.613,884.932,1676.613,907.067,1663.971,924.907z"/>
	<path d="M897.811,1041.062c151.164,0,273.701-122.537,273.701-273.698c0-151.151-122.537-273.712-273.701-273.712
		c-43.064,0-83.807,9.984-120.059,27.716c60.245,4.801,107.619,55.061,107.619,116.526c0,64.604-52.379,117.006-117.029,117.006
		c-61.442,0-111.714-47.398-116.527-107.571c-17.73,36.24-27.704,76.971-27.704,120.035
		C624.11,918.524,746.672,1041.062,897.811,1041.062z"/>
</g>
</svg>
