<?xml version="1.0" encoding="utf-8"?>
<!-- Generator: Adobe Illustrator 16.0.0, SVG Export Plug-In . SVG Version: 6.00 Build 0)  -->
<!DOCTYPE svg PUBLIC "-//W3C//DTD SVG 1.1//EN" "http://www.w3.org/Graphics/SVG/1.1/DTD/svg11.dtd">
<svg version="1.1" id="Layer_1" xmlns="http://www.w3.org/2000/svg" xmlns:xlink="http://www.w3.org/1999/xlink" x="0px" y="0px"
	 width="200px" height="200px" viewBox="796 796 200 200" enable-background="new 796 796 200 200" xml:space="preserve">
<path d="M992.798,885.398c-6.355-9.583-40.29-56.632-93.718-58.4c-1.021-0.054-2.047-0.084-3.081-0.084
	c-1.034,0-2.06,0.03-3.081,0.084c-53.426,1.769-87.36,48.816-93.715,58.398c-4.271,6.439-4.271,14.761-0.001,21.204
	c6.478,9.767,41.591,58.485,96.797,58.485c55.22,0,90.321-48.718,96.796-58.482C997.066,900.164,997.068,891.843,992.798,885.398z
	 M941.336,884.507c0,24.998-20.338,45.335-45.337,45.335c-24.998,0-45.334-20.337-45.334-45.335s20.337-45.334,45.334-45.334
	C920.998,839.173,941.336,859.509,941.336,884.507z M982.58,899.826c-16.213,24.45-48.615,53-86.581,53
	c-37.956,0-70.363-28.552-86.58-53c-1.541-2.325-1.541-5.33,0-7.653c8.44-12.725,21.273-26.554,36.985-36.897
	c-5.073,8.575-7.998,18.566-7.998,29.231c0,31.758,25.836,57.594,57.593,57.594c31.759,0,57.597-25.836,57.597-57.594
	c0-10.665-2.926-20.655-7.999-29.23c15.712,10.344,28.544,24.172,36.984,36.896C984.123,894.498,984.121,897.502,982.58,899.826z"/>
</svg>
