<?xml version="1.0" encoding="utf-8"?>
<!-- Generator: Adobe Illustrator 16.0.0, SVG Export Plug-In . SVG Version: 6.00 Build 0)  -->
<!DOCTYPE svg PUBLIC "-//W3C//DTD SVG 1.1//EN" "http://www.w3.org/Graphics/SVG/1.1/DTD/svg11.dtd">
<svg version="1.1" id="Layer_1" xmlns="http://www.w3.org/2000/svg" xmlns:xlink="http://www.w3.org/1999/xlink" x="0px" y="0px"
	 width="200px" height="200px" viewBox="796 796 200 200" enable-background="new 796 796 200 200" xml:space="preserve">
<path d="M996,834.79c0-10.362-4.036-20.104-11.363-27.431c-7.327-7.328-17.069-11.364-27.433-11.364s-20.105,4.036-27.433,11.363
	l-24.531,24.532c-2.965,2.965-7.772,2.965-10.737,0c-4.769-4.77-12.5-4.769-17.271,0c-4.77,4.77-4.769,12.502,0,17.271l5.368,5.368
	l-57.19,57.19c-7.336,7.33-11.721,19.991-10.913,31.504c0.231,3.294-0.975,6.522-3.307,8.854l-9.253,9.251
	c-7.917,7.922-7.917,20.808,0.001,28.728c3.836,3.835,8.938,5.947,14.363,5.947s10.526-2.112,14.365-5.948l9.251-9.253
	c2.308-2.307,5.563-3.547,8.855-3.306c0.892,0.063,1.808,0.094,2.721,0.094c0.001,0,0.001,0,0.001,0
	c10.798,0,22.095-4.321,28.775-11.008l57.192-57.191l5.369,5.369c2.386,2.384,5.511,3.577,8.637,3.577s6.25-1.193,8.636-3.577
	c4.769-4.769,4.769-12.502,0-17.271c-1.424-1.424-2.225-3.355-2.225-5.369s0.8-3.945,2.225-5.369l24.53-24.53
	C991.964,854.895,996,845.152,996,834.79z M871.634,957.951c-4.736,4.739-14,7.935-22.006,7.363
	c-6.877-0.475-13.498,2.008-18.346,6.855l-9.249,9.249c-1.531,1.53-3.567,2.373-5.731,2.373s-4.199-0.843-5.728-2.37
	c-3.157-3.158-3.157-8.298,0-11.456l9.252-9.251c4.835-4.835,7.333-11.521,6.854-18.347c-0.631-8.988,3.227-17.876,7.365-22.012
	l57.191-57.191l37.592,37.593L871.634,957.951z"/>
</svg>
