<?xml version="1.0" encoding="utf-8"?>
<!-- Generator: Adobe Illustrator 16.0.0, SVG Export Plug-In . SVG Version: 6.00 Build 0)  -->
<!DOCTYPE svg PUBLIC "-//W3C//DTD SVG 1.1//EN" "http://www.w3.org/Graphics/SVG/1.1/DTD/svg11.dtd">
<svg version="1.1" id="Layer_1" xmlns="http://www.w3.org/2000/svg" xmlns:xlink="http://www.w3.org/1999/xlink" x="0px" y="0px"
	 width="1792px" height="1792px" viewBox="0 0 1792 1792" enable-background="new 0 0 1792 1792" xml:space="preserve">
<path d="M1784.141,352.371c0-92.034-35.848-178.555-100.92-243.627C1618.149,43.662,1531.623,7.819,1439.577,7.819
	c-92.034,0-178.561,35.843-243.633,100.919L978.068,326.615c-26.334,26.334-69.029,26.334-95.364,0
	c-42.357-42.357-111.024-42.351-153.393,0.006c-42.357,42.357-42.351,111.03,0.006,153.393l47.676,47.677L269.069,1035.62
	c-65.154,65.106-104.104,177.549-96.925,279.8c2.054,29.257-8.656,57.926-29.375,78.641l-82.178,82.159
	c-70.314,70.356-70.309,184.799,0.012,255.143c34.072,34.061,79.377,52.819,127.565,52.819c48.183,0,93.482-18.759,127.583-52.83
	l82.16-82.174c20.496-20.489,49.413-31.505,78.647-29.363c7.92,0.554,16.053,0.836,24.168,0.836c0.005,0,0.005,0,0.012,0
	c95.906,0,196.232-38.379,255.565-97.766l507.949-507.942l47.688,47.688c21.185,21.173,48.936,31.766,76.699,31.766
	s55.515-10.593,76.699-31.766c42.356-42.356,42.356-111.041,0-153.398c-12.647-12.646-19.753-29.798-19.754-47.683
	c0-17.885,7.104-35.038,19.752-47.684l217.871-217.862C1748.293,530.926,1784.141,444.405,1784.141,352.371z M679.593,1446.208
	c-42.063,42.099-124.334,70.474-195.443,65.401c-61.082-4.214-119.88,17.83-162.937,60.882l-82.143,82.148
	c-13.6,13.592-31.677,21.079-50.902,21.079s-37.29-7.487-50.872-21.056c-28.04-28.047-28.04-73.698-0.006-101.744l82.171-82.159
	c42.94-42.946,65.131-102.333,60.876-162.944c-5.602-79.83,28.658-158.766,65.413-195.496l507.937-507.938l333.878,333.872
	L679.593,1446.208z"/>
</svg>
