<?xml version="1.0" encoding="utf-8"?>
<!-- Generator: Adobe Illustrator 21.0.0, SVG Export Plug-In . SVG Version: 6.00 Build 0)  -->
<svg version="1.1" id="Layer_1" xmlns="http://www.w3.org/2000/svg" xmlns:xlink="http://www.w3.org/1999/xlink" x="0px" y="0px"
	 viewBox="0 0 1792 1792" style="enable-background:new 0 0 1792 1792;" xml:space="preserve">
<title>fiction</title>
<path d="M1485.3,1708.2H781.8c-45.4,0.2-88.9-17.9-120.9-50.1l-536-536c-55.1-55.1-55.1-144.5,0-199.6
	c26.5-26.4,62.3-41.3,99.7-41.3h656.7V224.5c0-57,34.3-108.4,87-130.1c52.8-21.5,113.2-9.5,153.8,30.5l536.2,536
	c32.1,32,50.1,75.5,50,120.9v703.2C1708.3,1608.1,1608.5,1708,1485.3,1708.2z M811.1,1466.6h655.7V811L1123,467.1v655.7H467.3
	L811.1,1466.6z"/>
</svg>
