<?xml version="1.0" encoding="utf-8"?>
<!-- Generator: Adobe Illustrator 16.0.0, SVG Export Plug-In . SVG Version: 6.00 Build 0)  -->
<!DOCTYPE svg PUBLIC "-//W3C//DTD SVG 1.1//EN" "http://www.w3.org/Graphics/SVG/1.1/DTD/svg11.dtd">
<svg version="1.1" id="Layer_1" xmlns="http://www.w3.org/2000/svg" xmlns:xlink="http://www.w3.org/1999/xlink" x="0px" y="0px"
	 width="200px" height="200px" viewBox="796 796 200 200" enable-background="new 796 796 200 200" xml:space="preserve">
<g>
	<g>
		<path d="M976.83,857.4l-56.943-56.941c-2.873-2.875-6.694-4.458-10.76-4.458H825.93c-8.393,0-15.218,6.828-15.218,15.222v169.56
			c0,8.393,6.825,15.219,15.218,15.219H966.07c8.39,0,15.218-6.826,15.218-15.219V868.162
			C981.288,864.099,979.706,860.275,976.83,857.4z M969.676,980.781c0,1.989-1.616,3.609-3.605,3.609h-140.14
			c-1.988,0-3.604-1.62-3.604-3.609V811.22c0-1.988,1.616-3.605,3.604-3.605h79.41c2.174,0,3.936,1.762,3.936,3.936v42.937
			c0,7.25,5.877,13.126,13.123,13.126h43.343c1.044,0,2.045,0.415,2.783,1.153c0.738,0.738,1.153,1.739,1.153,2.783L969.676,980.781
			z"/>
	</g>
	<g>
		<path d="M909.442,946.483l-10.948-41.951c-2.142-8.205-9.554-13.931-18.034-13.931h-4.952h-4.952
			c-8.48,0-15.893,5.726-18.034,13.931l-10.947,41.951c-1.458,5.586-0.244,11.532,3.284,16.101c3.53,4.568,8.977,7.244,14.75,7.244
			h15.899h15.9c5.772,0,11.219-2.676,14.749-7.244C909.686,958.016,910.899,952.069,909.442,946.483z M887.747,958.91H863.27
			c-5.004,0-9.062-4.057-9.062-9.062s4.058-9.062,9.062-9.062h24.478c5.005,0,9.062,4.057,9.062,9.062
			S892.752,958.91,887.747,958.91z"/>
	</g>
	<g>
		<path d="M888.548,884.37h-26.08c-3.296,0-5.967-2.671-5.967-5.967s2.671-5.967,5.967-5.967h26.08c3.296,0,5.968,2.671,5.968,5.967
			S891.844,884.37,888.548,884.37z"/>
	</g>
	<g>
		<path d="M888.548,864.501h-26.08c-3.296,0-5.967-2.671-5.967-5.967c0-3.295,2.671-5.967,5.967-5.967h26.08
			c3.296,0,5.968,2.671,5.968,5.967C894.516,861.83,891.844,864.501,888.548,864.501z"/>
	</g>
	<g>
		<path d="M888.548,844.632h-26.08c-3.296,0-5.967-2.671-5.967-5.967s2.671-5.967,5.967-5.967h26.08
			c3.296,0,5.968,2.671,5.968,5.967S891.844,844.632,888.548,844.632z"/>
	</g>
	<g>
		<path d="M888.548,825.226h-26.08c-3.296,0-5.967-2.671-5.967-5.967c0-3.295,2.671-5.967,5.967-5.967h26.08
			c3.296,0,5.968,2.671,5.968,5.967C894.516,822.555,891.844,825.226,888.548,825.226z"/>
	</g>
</g>
</svg>
