<?xml version="1.0" encoding="utf-8"?>
<!-- Generator: Adobe Illustrator 16.0.0, SVG Export Plug-In . SVG Version: 6.00 Build 0)  -->
<!DOCTYPE svg PUBLIC "-//W3C//DTD SVG 1.1//EN" "http://www.w3.org/Graphics/SVG/1.1/DTD/svg11.dtd">
<svg version="1.1" id="Layer_1" xmlns="http://www.w3.org/2000/svg" xmlns:xlink="http://www.w3.org/1999/xlink" x="0px" y="0px"
	 width="1792px" height="1792px" viewBox="0 0 1792 1792" enable-background="new 0 0 1792 1792" xml:space="preserve">
<g>
	<path d="M1617.424,551.485L1109.207,43.269c-25.656-25.657-59.75-39.792-96.041-39.792H270.61
		c-74.908,0-135.826,60.941-135.826,135.854v1513.361c0,74.902,60.918,135.831,135.826,135.831h1250.785
		c74.881,0,135.822-60.929,135.822-135.831V647.537C1657.217,611.271,1643.094,577.143,1617.424,551.485z M1553.57,1652.692
		c0,17.751-14.412,32.209-32.164,32.209H270.616c-17.752,0-32.175-14.458-32.175-32.209V139.32c0-17.74,14.423-32.175,32.175-32.175
		h708.736c19.402,0,35.133,15.729,35.133,35.128v383.22c0,64.709,52.445,117.155,117.133,117.155h386.83
		c9.328,0,18.262,3.698,24.85,10.286c6.586,6.593,10.285,15.526,10.285,24.842L1553.57,1652.692z"/>
	<path d="M897.033,710.258c-12.96-5.53-26.673-8.332-40.75-8.332c-26.974,0-52.545,10.286-72.001,28.969L597.373,910.36H468.14
		c-57.313,0-103.94,46.634-103.94,103.945v207.222c0,57.312,46.627,103.945,103.94,103.945h129.232l186.915,179.472
		c19.457,18.665,45.027,28.95,71.996,28.95c14.077,0,27.778-2.797,40.746-8.32c38.381-16.365,63.182-53.893,63.182-95.625V805.871
		C960.211,764.144,935.41,726.611,897.033,710.258z M853.7,1423.928l-183.314-176.016c-19.457-18.665-45.021-28.951-71.979-28.951
		H470.711v-202.09h127.696c26.957,0,52.521-10.285,71.99-28.962L853.7,811.904V1423.928z"/>
	<path d="M1074.166,867.522c-25.645,14.401-34.764,46.866-20.363,72.506c30.314,53.983,46.344,115.49,46.344,177.876
		c0,62.387-16.029,123.894-46.344,177.878c-14.4,25.634-5.281,58.11,20.363,72.51c8.24,4.623,17.197,6.83,26.027,6.83
		c18.629,0,36.705-9.789,46.482-27.194c39.236-69.863,59.982-149.411,59.982-230.023c0-80.61-20.746-160.159-59.982-230.028
		C1132.264,862.235,1099.799,853.111,1074.166,867.522z"/>
	<path d="M1256.607,750.991c-25.391,14.846-33.932,47.466-19.092,72.852c51.949,88.83,79.408,190.521,79.408,294.062
		c0,103.542-27.459,205.233-79.408,294.063c-14.84,25.391-6.299,58.005,19.092,72.856c8.449,4.936,17.705,7.293,26.838,7.293
		c18.293,0,36.115-9.443,46.02-26.386c61.473-105.124,93.971-225.4,93.971-347.826c0-122.425-32.498-242.701-93.971-347.826
		C1314.613,744.671,1281.977,736.117,1256.607,750.991z"/>
</g>
</svg>
