<?xml version="1.0" encoding="utf-8"?>
<!-- Generator: Adobe Illustrator 16.0.0, SVG Export Plug-In . SVG Version: 6.00 Build 0)  -->
<!DOCTYPE svg PUBLIC "-//W3C//DTD SVG 1.1//EN" "http://www.w3.org/Graphics/SVG/1.1/DTD/svg11.dtd">
<svg version="1.1" id="Layer_1" xmlns="http://www.w3.org/2000/svg" xmlns:xlink="http://www.w3.org/1999/xlink" x="0px" y="0px"
	 width="1792px" height="1792px" viewBox="0 0 1792 1792" enable-background="new 0 0 1792 1792" xml:space="preserve">
<g>
	<path d="M1618.082,551.171L1109.4,42.489c-25.678-25.68-59.805-39.827-96.127-39.827H270.046
		c-74.982,0-135.956,60.997-135.956,135.979v1514.739c0,74.971,60.974,135.957,135.956,135.957h1251.92
		c74.945,0,135.943-60.986,135.943-135.957V647.31C1657.91,611.011,1643.773,576.851,1618.082,551.171z M1554.172,1653.381
		c0,17.769-14.425,32.239-32.192,32.239H270.046c-17.768,0-32.205-14.471-32.205-32.239V138.629
		c0-17.758,14.437-32.205,32.205-32.205h709.386c19.418,0,35.16,15.742,35.16,35.161v383.569
		c0,64.768,52.495,117.262,117.24,117.262h387.188c9.325,0,18.269,3.705,24.862,10.298c6.595,6.594,10.299,15.538,10.299,24.863
		L1554.172,1653.381z"/>
	<path d="M466.744,321.216c0,18.716-15.165,33.881-33.882,33.881H359.43c-18.718,0-33.883-15.165-33.883-33.881v-73.433
		c0-18.717,15.166-33.882,33.883-33.882h73.432c18.717,0,33.882,15.165,33.882,33.882V321.216z"/>
	<path d="M466.744,569.956c0,18.718-15.165,33.894-33.882,33.894H359.43c-18.718,0-33.883-15.176-33.883-33.894v-73.421
		c0-18.716,15.166-33.881,33.883-33.881h73.432c18.717,0,33.882,15.165,33.882,33.881V569.956z"/>
	<path d="M466.744,818.71c0,18.716-15.165,33.882-33.882,33.882H359.43c-18.718,0-33.883-15.166-33.883-33.882v-73.433
		c0-18.717,15.166-33.882,33.883-33.882h73.432c18.717,0,33.882,15.165,33.882,33.882V818.71z"/>
	<path d="M466.744,1067.451c0,18.716-15.165,33.893-33.882,33.893H359.43c-18.718,0-33.883-15.177-33.883-33.893v-73.422
		c0-18.715,15.166-33.882,33.883-33.882h73.432c18.717,0,33.882,15.167,33.882,33.882V1067.451z"/>
	<path d="M466.744,1316.203c0,18.717-15.165,33.883-33.882,33.883H359.43c-18.718,0-33.883-15.166-33.883-33.883v-73.42
		c0-18.729,15.166-33.893,33.883-33.893h73.432c18.717,0,33.882,15.164,33.882,33.893V1316.203z"/>
	<path d="M466.744,1564.943c0,18.719-15.165,33.896-33.882,33.896H359.43c-18.718,0-33.883-15.177-33.883-33.896v-73.417
		c0-18.719,15.166-33.884,33.883-33.884h73.432c18.717,0,33.882,15.165,33.882,33.884V1564.943z"/>
	<path d="M1466.197,818.71c0,18.716-15.164,33.882-33.881,33.882h-73.434c-18.717,0-33.883-15.166-33.883-33.882v-73.433
		c0-18.717,15.166-33.882,33.883-33.882h73.434c18.717,0,33.881,15.165,33.881,33.882V818.71z"/>
	<path d="M1466.197,1067.451c0,18.716-15.164,33.893-33.881,33.893h-73.434c-18.717,0-33.883-15.177-33.883-33.893v-73.422
		c0-18.715,15.166-33.882,33.883-33.882h73.434c18.717,0,33.881,15.167,33.881,33.882V1067.451z"/>
	<path d="M1466.197,1316.203c0,18.717-15.164,33.883-33.881,33.883h-73.434c-18.717,0-33.883-15.166-33.883-33.883v-73.42
		c0-18.729,15.166-33.893,33.883-33.893h73.434c18.717,0,33.881,15.164,33.881,33.893V1316.203z"/>
	<path d="M1466.197,1564.943c0,18.719-15.164,33.896-33.881,33.896h-73.434c-18.717,0-33.883-15.177-33.883-33.896v-73.417
		c0-18.719,15.166-33.884,33.883-33.884h73.434c18.717,0,33.881,15.165,33.881,33.884V1564.943z"/>
	<path d="M633.956,1400.066c0,23.623,12.603,45.451,33.061,57.263c20.458,11.813,45.664,11.813,66.122,0.001l425.738-245.799
		c20.458-11.812,33.061-33.641,33.061-57.264s-12.603-45.452-33.061-57.264L733.139,851.206c-20.458-11.812-45.664-11.812-66.122,0
		c-20.458,11.812-33.061,33.64-33.061,57.264V1400.066z"/>
</g>
</svg>
