<?xml version="1.0" encoding="utf-8"?>
<!-- Generator: Adobe Illustrator 16.0.0, SVG Export Plug-In . SVG Version: 6.00 Build 0)  -->
<!DOCTYPE svg PUBLIC "-//W3C//DTD SVG 1.1//EN" "http://www.w3.org/Graphics/SVG/1.1/DTD/svg11.dtd">
<svg version="1.1" id="Layer_1" xmlns="http://www.w3.org/2000/svg" xmlns:xlink="http://www.w3.org/1999/xlink" x="0px" y="0px"
	 width="200px" height="200px" viewBox="796 796 200 200" enable-background="new 796 796 200 200" xml:space="preserve">
<g>
	<g>
		<path d="M976.83,857.4l-56.941-56.942c-2.875-2.875-6.695-4.458-10.762-4.458H825.93c-8.393,0-15.218,6.828-15.218,15.222v169.56
			c0,8.393,6.825,15.219,15.218,15.219h140.14c8.39,0,15.218-6.826,15.218-15.219V868.162
			C981.288,864.099,979.705,860.275,976.83,857.4z M969.676,980.781c0,1.989-1.615,3.609-3.604,3.609H825.931
			c-1.989,0-3.605-1.62-3.605-3.609V811.221c0-1.988,1.616-3.605,3.605-3.605h79.409c2.174,0,3.936,1.762,3.936,3.936v42.937
			c0,7.25,5.877,13.126,13.123,13.126h43.342c1.045,0,2.046,0.415,2.783,1.153c0.738,0.738,1.153,1.739,1.153,2.783L969.676,980.781
			z"/>
	</g>
	<g>
		<g>
			<path d="M891.55,967.472c-3.022,0-5.887-1.153-8.066-3.244l-20.942-20.108h-14.479c-6.421,0-11.646-5.225-11.646-11.646v-23.218
				c0-6.421,5.225-11.646,11.646-11.646h14.479l20.941-20.108c2.18-2.093,5.045-3.246,8.067-3.246c1.577,0,3.113,0.314,4.565,0.934
				c4.3,1.832,7.079,6.038,7.079,10.713v69.923c0,4.676-2.778,8.88-7.079,10.714C894.663,967.158,893.127,967.472,891.55,967.472z
				 M848.35,932.186h14.307c3.021,0,5.885,1.152,8.064,3.243l20.539,19.722v-68.572l-20.538,19.72
				c-2.181,2.093-5.045,3.245-8.066,3.245H848.35V932.186z"/>
		</g>
		<g>
			<path d="M918.878,949.682c-0.989,0-1.993-0.247-2.916-0.765c-2.873-1.614-3.896-5.253-2.281-8.124
				c3.396-6.049,5.192-12.94,5.192-19.93c0-6.99-1.796-13.882-5.192-19.93c-1.614-2.873-0.592-6.511,2.281-8.124
				c2.872-1.614,6.509-0.592,8.124,2.28c4.396,7.828,6.721,16.741,6.721,25.773s-2.324,17.944-6.721,25.772
				C922.99,948.585,920.965,949.682,918.878,949.682z"/>
		</g>
		<g>
			<path d="M939.41,962.79c-1.023,0-2.061-0.264-3.007-0.817c-2.845-1.663-3.802-5.317-2.14-8.163
				c5.82-9.952,8.897-21.346,8.897-32.946c0-11.602-3.077-22.995-8.897-32.948c-1.662-2.844-0.705-6.499,2.14-8.163
				c2.843-1.667,6.499-0.708,8.163,2.139c6.887,11.778,10.529,25.255,10.529,38.972c0,13.716-3.643,27.192-10.529,38.971
				C943.457,961.732,941.459,962.79,939.41,962.79z"/>
		</g>
	</g>
</g>
</svg>
