<?xml version="1.0" encoding="utf-8"?>
<!-- Generator: Adobe Illustrator 16.0.0, SVG Export Plug-In . SVG Version: 6.00 Build 0)  -->
<!DOCTYPE svg PUBLIC "-//W3C//DTD SVG 1.1//EN" "http://www.w3.org/Graphics/SVG/1.1/DTD/svg11.dtd">
<svg version="1.1" id="Layer_1" xmlns="http://www.w3.org/2000/svg" xmlns:xlink="http://www.w3.org/1999/xlink" x="0px" y="0px"
	 width="1792px" height="1792px" viewBox="0 0 1792 1792" enable-background="new 0 0 1792 1792" xml:space="preserve">
<g>
	<g>
		<path d="M1617.925,551.24L1109.347,42.664c-25.675-25.676-59.793-39.82-96.107-39.82H270.161
			c-74.967,0-135.917,60.984-135.917,135.951v1514.433c0,74.956,60.95,135.929,135.917,135.929h1251.678
			c74.921,0,135.917-60.973,135.917-135.929V647.361C1657.756,611.068,1643.623,576.916,1617.925,551.24z M1554.037,1653.228
			c0,17.765-14.422,32.232-32.187,32.232H270.172c-17.764,0-32.198-14.468-32.198-32.232V138.783
			c0-17.752,14.434-32.198,32.198-32.198h709.243c19.415,0,35.153,15.739,35.153,35.153V525.23
			c0,64.754,52.484,117.239,117.216,117.239h387.11c9.323,0,18.265,3.704,24.857,10.296c6.592,6.592,10.296,15.534,10.296,24.857
			L1554.037,1653.228z"/>
	</g>
	<g>
		<path d="M432.302,1562.289c-0.005,0-0.011,0-0.017,0c-39.837-0.012-74.342-20.725-90.042-54.08
			c-17.637-37.448-8.553-83.536,24.293-123.298c44.932-54.393,128.254-103.373,261.581-153.612
			c27.786-51.293,51.368-101.209,68.531-145.089c30.423-77.776,51.495-134.853,68.878-186.671
			c-32.846-67.224-56.133-139.398-71.035-220.038c-11.259-60.95-1.348-113.885,27.919-149.055
			c20.731-24.912,50.24-39.195,80.952-39.195c29.81,0,58.503,13.532,78.731,37.131c27.114,31.643,37.483,78.541,29.196,132.066
			c-11.397,73.567-29.329,147.655-56.173,231.857c30.232,55.12,67.611,105.432,113.908,153.347
			c23.721,24.553,48.39,47.14,73.498,67.322c106.413-17.44,195.837-17.083,267.427,1.063c75.024,19.003,103.418,74.055,98.04,117.17
			c-5.193,41.624-41.785,83.63-111.838,83.63c-15.705,0-32.476-2.197-49.858-6.547c-78.146-19.521-153.762-55.583-225.039-107.28
			c-53.802,10.501-113.034,25.698-176.361,45.256c-48.517,14.988-104.239,32.452-159.192,52.194
			c-35.934,63.609-76.69,126.641-118.447,183.138C515.371,1551.8,460.435,1562.289,432.302,1562.289z M556.561,1351.521
			c-60.649,29.237-102.891,58.082-126.109,86.186c-13.104,15.855-16.076,29.098-13.208,35.182c1.914,4.071,7.541,6.499,15.053,6.499
			c0,0,0,0,0.005,0c7.865,0,36.015-3.399,68.289-47.059C519.592,1406.619,538.38,1379.475,556.561,1351.521z M1151.018,1184.008
			c37.657,19.406,76.228,34.072,115.377,43.856c10.813,2.705,20.817,4.07,29.757,4.07c19.233,0,29.019-6.557,29.573-10.987
			c0.66-5.285-7.529-19.303-36.131-26.554C1250.838,1184.574,1204.438,1181.093,1151.018,1184.008z M747.194,1187.466l-1.77,3.191
			c26.126-8.442,51.409-16.308,74.996-23.593c39.629-12.248,77.813-22.865,114.255-31.793l-3.227-2.476l6.581-1.18
			c-9.669-9.171-19.222-18.632-28.631-28.37c-33.279-34.442-62.453-70.074-88.053-107.604l-2.469,7.54l-1.139-2.198
			c-12.363,33.817-26.664,71.394-43.879,115.412c-9.004,23.015-19.609,47.499-31.539,72.862L747.194,1187.466z M803.361,574.152
			c-6.107,0-12.225,3.308-17.227,9.321c-6.17,7.419-19.51,30.151-10.12,80.969c7.049,38.16,16.134,74.157,27.404,108.443
			c11.132-43.248,19.626-84.341,25.941-125.126c4.464-28.797,0.74-52.646-10.212-65.431
			C814.556,576.98,809.104,574.152,803.361,574.152z"/>
	</g>
</g>
</svg>
