<?xml version="1.0" encoding="utf-8"?>
<!-- Generator: Adobe Illustrator 16.0.0, SVG Export Plug-In . SVG Version: 6.00 Build 0)  -->
<!DOCTYPE svg PUBLIC "-//W3C//DTD SVG 1.1//EN" "http://www.w3.org/Graphics/SVG/1.1/DTD/svg11.dtd">
<svg version="1.1" id="Layer_1" xmlns="http://www.w3.org/2000/svg" xmlns:xlink="http://www.w3.org/1999/xlink" x="0px" y="0px"
	 width="200px" height="200px" viewBox="796 796 200 200" enable-background="new 796 796 200 200" xml:space="preserve">
<g>
	<path d="M976.83,857.4l-56.941-56.941c-2.875-2.875-6.695-4.458-10.762-4.458H825.93c-8.393,0-15.218,6.828-15.218,15.222v169.56
		c0,8.393,6.825,15.219,15.218,15.219h140.14c8.391,0,15.218-6.826,15.218-15.219V868.162
		C981.288,864.099,979.705,860.275,976.83,857.4z M969.676,980.781c0,1.989-1.615,3.609-3.604,3.609H825.931
		c-1.989,0-3.605-1.62-3.605-3.609V811.22c0-1.987,1.616-3.605,3.605-3.605h79.408c2.174,0,3.937,1.763,3.937,3.936v42.937
		c0,7.25,5.876,13.126,13.123,13.126h43.342c1.045,0,2.046,0.414,2.784,1.152c0.737,0.739,1.152,1.74,1.152,2.783L969.676,980.781z"
		/>
	<path d="M896.116,875.189c-1.452-0.62-2.988-0.934-4.566-0.934c-3.022,0-5.887,1.152-8.067,3.246l-20.942,20.108h-14.479
		c-6.421,0-11.646,5.225-11.646,11.646v23.218c0,6.422,5.224,11.646,11.646,11.646h14.479l20.942,20.108
		c2.18,2.091,5.045,3.243,8.066,3.243c1.578,0,3.112-0.313,4.565-0.932c4.301-1.834,7.079-6.038,7.079-10.714v-69.923
		C903.194,881.227,900.416,877.021,896.116,875.189z M891.261,955.15l-20.539-19.722c-2.18-2.091-5.044-3.243-8.064-3.243H848.35
		v-22.643h14.308c3.02,0,5.884-1.152,8.065-3.245l20.538-19.72V955.15z"/>
	<path d="M915.962,892.81c-2.873,1.613-3.896,5.251-2.281,8.124c3.396,6.048,5.192,12.939,5.192,19.93
		c0,6.989-1.796,13.881-5.192,19.93c-1.613,2.872-0.592,6.511,2.281,8.124c0.923,0.518,1.927,0.765,2.916,0.765
		c2.087,0,4.112-1.097,5.208-3.047c4.396-7.827,6.721-16.74,6.721-25.771c0-9.032-2.324-17.945-6.721-25.773
		C922.471,892.217,918.834,891.195,915.962,892.81z"/>
	<path d="M936.403,879.753c-2.845,1.664-3.802,5.318-2.14,8.163c5.82,9.953,8.897,21.346,8.897,32.948
		c0,11.601-3.077,22.994-8.897,32.947c-1.662,2.845-0.705,6.499,2.14,8.163c0.946,0.553,1.983,0.816,3.007,0.816
		c2.049,0,4.047-1.058,5.156-2.956c6.887-11.778,10.528-25.254,10.528-38.971s-3.642-27.193-10.528-38.972
		C942.902,879.045,939.246,878.086,936.403,879.753z"/>
</g>
</svg>
