<?xml version="1.0" encoding="utf-8"?>
<!-- Generator: Adobe Illustrator 16.0.0, SVG Export Plug-In . SVG Version: 6.00 Build 0)  -->
<!DOCTYPE svg PUBLIC "-//W3C//DTD SVG 1.1//EN" "http://www.w3.org/Graphics/SVG/1.1/DTD/svg11.dtd">
<svg version="1.1" id="Layer_1" xmlns="http://www.w3.org/2000/svg" xmlns:xlink="http://www.w3.org/1999/xlink" x="0px" y="0px"
	 width="200px" height="200px" viewBox="796 796 200 200" enable-background="new 796 796 200 200" xml:space="preserve">
<g>
	<path d="M976.831,857.4l-56.942-56.942c-2.874-2.875-6.696-4.458-10.762-4.458H825.93c-8.393,0-15.218,6.828-15.218,15.221v169.56
		c0,8.392,6.826,15.219,15.218,15.219h140.14c8.391,0,15.218-6.827,15.218-15.219v-112.62
		C981.288,864.098,979.705,860.274,976.831,857.4z M969.676,980.781c0,1.988-1.616,3.608-3.605,3.608h-140.14
		c-1.989,0-3.605-1.62-3.605-3.608V811.22c0-1.988,1.616-3.605,3.605-3.605h79.41c2.173,0,3.937,1.762,3.937,3.936v42.937
		c0,7.25,5.875,13.126,13.121,13.126h43.344c1.044,0,2.045,0.415,2.783,1.153c0.738,0.738,1.152,1.739,1.152,2.783L969.676,980.781z
		"/>
	<g>
		<path d="M912.305,966.854l-16.189-57.295l-16.535,57.295h-18.716l-26.523-80.374h19.519l16.879,60.624l16.764-60.624H905.3
			l16.994,60.624l16.764-60.624h18.601l-26.638,80.374H912.305z"/>
	</g>
</g>
</svg>
