<?xml version="1.0" encoding="utf-8"?>
<!-- Generator: Adobe Illustrator 16.0.0, SVG Export Plug-In . SVG Version: 6.00 Build 0)  -->
<!DOCTYPE svg PUBLIC "-//W3C//DTD SVG 1.1//EN" "http://www.w3.org/Graphics/SVG/1.1/DTD/svg11.dtd">
<svg version="1.1" id="Layer_1" xmlns="http://www.w3.org/2000/svg" xmlns:xlink="http://www.w3.org/1999/xlink" x="0px" y="0px"
	 width="1792px" height="1792px" viewBox="0 0 1792 1792" enable-background="new 0 0 1792 1792" xml:space="preserve">
<g>
	<path d="M1618.943,550.767L1109.658,41.483c-25.713-25.727-59.891-39.874-96.25-39.874H269.302
		c-75.067,0-136.108,61.067-136.108,136.135v1516.523c0,75.066,61.041,136.123,136.108,136.123h1253.403
		c75.044,0,136.101-61.057,136.101-136.123V647.016C1658.806,610.669,1644.658,576.48,1618.943,550.767z M269.319,105.498h710.226
		c19.442,0,35.202,15.76,35.202,35.202v384.009c0,64.848,52.549,117.41,117.374,117.41h387.651c9.337,0,18.291,3.709,24.892,10.31
		c6.603,6.602,10.311,15.556,10.311,24.892l-0.013,552.263l-382.406-382.417l-357.127,357.104
		c-11.311,11.326-26.646,17.676-42.649,17.676c-15.998,0-31.333-6.35-42.649-17.676l-168.908-168.91l-324.143,324.143V137.744
		C237.079,119.966,251.529,105.498,269.319,105.498z"/>
	<path d="M665.001,847.121c90.141,0,163.21-73.07,163.21-163.198c0-90.118-73.069-163.2-163.21-163.2
		c-90.134,0-163.205,73.082-163.205,163.2C501.796,774.051,574.867,847.121,665.001,847.121z"/>
</g>
</svg>
