<?xml version="1.0" encoding="utf-8"?>
<!-- Generator: Adobe Illustrator 16.0.0, SVG Export Plug-In . SVG Version: 6.00 Build 0)  -->
<!DOCTYPE svg PUBLIC "-//W3C//DTD SVG 1.1//EN" "http://www.w3.org/Graphics/SVG/1.1/DTD/svg11.dtd">
<svg version="1.1" id="Layer_1" xmlns="http://www.w3.org/2000/svg" xmlns:xlink="http://www.w3.org/1999/xlink" x="0px" y="0px"
	 width="200px" height="200px" viewBox="796 796 200 200" enable-background="new 796 796 200 200" xml:space="preserve">
<path d="M976.83,857.399l-56.941-56.941c-2.874-2.875-6.696-4.458-10.761-4.458h-83.197c-8.392,0-15.219,6.827-15.219,15.219
	v169.563c0,8.392,6.827,15.219,15.219,15.219h140.14c8.392,0,15.218-6.826,15.218-15.219v-112.62
	C981.289,864.096,979.706,860.274,976.83,857.399z M969.676,980.781c0,1.988-1.616,3.606-3.604,3.606H825.931
	c-1.988,0-3.606-1.618-3.606-3.606V811.219c0-1.988,1.618-3.605,3.606-3.605h79.408c2.174,0,3.937,1.762,3.937,3.936v42.938
	c0,7.249,5.877,13.126,13.125,13.126h43.34c2.174,0,3.937,1.762,3.937,3.936L969.676,980.781z"/>
</svg>
