<?xml version="1.0" encoding="utf-8"?>
<!-- Generator: Adobe Illustrator 16.0.0, SVG Export Plug-In . SVG Version: 6.00 Build 0)  -->
<!DOCTYPE svg PUBLIC "-//W3C//DTD SVG 1.1//EN" "http://www.w3.org/Graphics/SVG/1.1/DTD/svg11.dtd">
<svg version="1.1" id="Layer_1" xmlns="http://www.w3.org/2000/svg" xmlns:xlink="http://www.w3.org/1999/xlink" x="0px" y="0px"
	 width="200px" height="200px" viewBox="796 796 200 200" enable-background="new 796 796 200 200" xml:space="preserve">
<g>
	<g>
		<path d="M976.828,857.4l-56.941-56.941c-2.875-2.875-6.695-4.458-10.76-4.458h-83.198c-8.393,0-15.217,6.828-15.217,15.222v169.56
			c0,8.393,6.824,15.219,15.217,15.219H966.07c8.389,0,15.218-6.826,15.218-15.219v-112.62
			C981.288,864.098,979.705,860.274,976.828,857.4z M969.676,980.781c0,1.989-1.615,3.608-3.604,3.608H825.931
			c-1.989,0-3.605-1.619-3.605-3.608V811.22c0-1.988,1.616-3.605,3.605-3.605h79.409c2.174,0,3.936,1.762,3.936,3.936v42.937
			c0,7.25,5.876,13.126,13.123,13.126h43.342c1.045,0,2.046,0.415,2.783,1.153c0.738,0.738,1.153,1.739,1.153,2.783L969.676,980.781
			z"/>
	</g>
	<g>
		<g>
			<path d="M935.281,904.37h-78.563c-3.296,0-5.967-2.672-5.967-5.968c0-3.295,2.671-5.966,5.967-5.966h78.563
				c3.297,0,5.968,2.671,5.968,5.966C941.249,901.698,938.578,904.37,935.281,904.37z"/>
		</g>
		<g>
			<path d="M935.281,934.038h-78.563c-3.296,0-5.967-2.671-5.967-5.967s2.671-5.967,5.967-5.967h78.563
				c3.297,0,5.968,2.671,5.968,5.967S938.578,934.038,935.281,934.038z"/>
		</g>
		<g>
			<path d="M935.281,963.707h-78.563c-3.296,0-5.967-2.672-5.967-5.967c0-3.296,2.671-5.967,5.967-5.967h78.563
				c3.297,0,5.968,2.671,5.968,5.967C941.249,961.035,938.578,963.707,935.281,963.707z"/>
		</g>
	</g>
</g>
</svg>
