<?xml version="1.0" encoding="utf-8"?>
<!-- Generator: Adobe Illustrator 16.0.0, SVG Export Plug-In . SVG Version: 6.00 Build 0)  -->
<!DOCTYPE svg PUBLIC "-//W3C//DTD SVG 1.1//EN" "http://www.w3.org/Graphics/SVG/1.1/DTD/svg11.dtd">
<svg version="1.1" id="Layer_1" xmlns="http://www.w3.org/2000/svg" xmlns:xlink="http://www.w3.org/1999/xlink" x="0px" y="0px"
	 width="1792px" height="1792px" viewBox="0 0 1792 1792" enable-background="new 0 0 1792 1792" xml:space="preserve">
<g>
	<path d="M1616.643,551.858L1108.977,44.191c-25.629-25.629-59.686-39.748-95.938-39.748H271.293
		c-74.833,0-135.685,60.875-135.685,135.708v1511.72c0,74.821,60.852,135.686,135.685,135.686h1249.425
		c74.797,0,135.672-60.864,135.672-135.686V647.807C1656.391,611.579,1642.283,577.488,1616.643,551.858z M1552.859,1651.871
		c0,17.732-14.396,32.175-32.13,32.175H271.295c-17.733,0-32.141-14.442-32.141-32.175V140.14c0-17.721,14.408-32.14,32.141-32.14
		h707.971c19.38,0,35.091,15.71,35.091,35.09v382.804c0,64.639,52.391,117.029,117.006,117.029h386.417
		c9.307,0,18.232,3.697,24.813,10.278c6.581,6.581,10.278,15.506,10.278,24.813L1552.859,1651.871z"/>
	<path d="M467.599,322.361c0,18.68-15.135,33.815-33.814,33.815H360.5c-18.679,0-33.814-15.136-33.814-33.815v-73.285
		c0-18.68,15.135-33.814,33.814-33.814h73.286c18.679,0,33.814,15.135,33.814,33.814V322.361z"/>
	<path d="M467.599,570.606c0,18.68-15.135,33.827-33.814,33.827H360.5c-18.679,0-33.814-15.147-33.814-33.827v-73.273
		c0-18.68,15.135-33.814,33.814-33.814h73.286c18.679,0,33.814,15.135,33.814,33.814V570.606z"/>
	<path d="M467.599,818.863c0,18.68-15.135,33.815-33.814,33.815H360.5c-18.679,0-33.814-15.136-33.814-33.815v-73.285
		c0-18.68,15.135-33.814,33.814-33.814h73.286c18.679,0,33.814,15.135,33.814,33.814V818.863z"/>
	<path d="M467.599,1067.11c0,18.679-15.135,33.825-33.814,33.825H360.5c-18.679,0-33.814-15.146-33.814-33.825v-73.275
		c0-18.679,15.135-33.813,33.814-33.813h73.286c18.679,0,33.814,15.135,33.814,33.813V1067.11z"/>
	<path d="M467.599,1315.366c0,18.68-15.135,33.814-33.814,33.814H360.5c-18.679,0-33.814-15.135-33.814-33.814v-73.273
		c0-18.69,15.135-33.825,33.814-33.825h73.286c18.679,0,33.814,15.135,33.814,33.825V1315.366z"/>
	<path d="M467.599,1563.612c0,18.679-15.135,33.826-33.814,33.826H360.5c-18.679,0-33.814-15.147-33.814-33.826v-73.273
		c0-18.681,15.135-33.815,33.814-33.815h73.286c18.679,0,33.814,15.135,33.814,33.815V1563.612z"/>
	<path d="M1465.061,818.863c0,18.68-15.135,33.815-33.814,33.815h-73.285c-18.68,0-33.814-15.136-33.814-33.815v-73.285
		c0-18.68,15.135-33.814,33.814-33.814h73.285c18.68,0,33.814,15.135,33.814,33.814V818.863z"/>
	<path d="M1465.061,1067.11c0,18.679-15.135,33.825-33.814,33.825h-73.285c-18.68,0-33.814-15.146-33.814-33.825v-73.275
		c0-18.679,15.135-33.813,33.814-33.813h73.285c18.68,0,33.814,15.135,33.814,33.813V1067.11z"/>
	<path d="M1465.061,1315.366c0,18.68-15.135,33.814-33.814,33.814h-73.285c-18.68,0-33.814-15.135-33.814-33.814v-73.273
		c0-18.69,15.135-33.825,33.814-33.825h73.285c18.68,0,33.814,15.135,33.814,33.825V1315.366z"/>
	<path d="M1465.061,1563.612c0,18.679-15.135,33.826-33.814,33.826h-73.285c-18.68,0-33.814-15.147-33.814-33.826v-73.273
		c0-18.681,15.135-33.815,33.814-33.815h73.285c18.68,0,33.814,15.135,33.814,33.815V1563.612z"/>
	<path d="M634.478,1399.062c0,23.576,12.578,45.361,32.995,57.149s45.573,11.788,65.99,0l424.889-245.308
		c20.418-11.788,32.995-33.573,32.995-57.149c0.001-23.576-12.577-45.361-32.995-57.149L733.463,851.296
		c-20.417-11.788-45.573-11.788-65.99,0s-32.995,33.573-32.995,57.149V1399.062z"/>
</g>
</svg>
