<?xml version="1.0" encoding="utf-8"?>
<!-- Generator: Adobe Illustrator 16.0.0, SVG Export Plug-In . SVG Version: 6.00 Build 0)  -->
<!DOCTYPE svg PUBLIC "-//W3C//DTD SVG 1.1//EN" "http://www.w3.org/Graphics/SVG/1.1/DTD/svg11.dtd">
<svg version="1.1" id="Layer_1" xmlns="http://www.w3.org/2000/svg" xmlns:xlink="http://www.w3.org/1999/xlink" x="0px" y="0px"
	 width="200px" height="200px" viewBox="796 796 200 200" enable-background="new 796 796 200 200" xml:space="preserve">
<path d="M971.176,836.653H943.83v-27.346c0-7.338-5.971-13.307-13.309-13.307h-65.127c-3.553,0-6.896,1.384-9.408,3.898
	l-44.574,44.572c-2.513,2.512-3.897,5.854-3.897,9.412v88.157c0,7.337,5.969,13.308,13.307,13.308h27.346v27.345
	c0,7.339,5.972,13.309,13.31,13.309h109.697c7.339,0,13.309-5.97,13.309-13.309v-132.73
	C984.484,842.624,978.516,836.653,971.176,836.653z M820.823,943.467c-0.787,0-1.426-0.642-1.426-1.428v-85.611
	c0-1.643,1.332-2.975,2.975-2.975h32.637c5.675,0,10.275-4.601,10.275-10.274v-32.324c0-1.643,1.332-2.975,2.975-2.975h62.264
	c0.787,0,1.43,0.641,1.43,1.428v27.347h-25.9c-3.553,0-6.893,1.383-9.409,3.898l-44.579,44.577
	c-2.511,2.515-3.893,5.854-3.893,9.405v48.932H820.823L820.823,943.467z M972.605,982.691c0,0.788-0.641,1.428-1.428,1.428H861.479
	c-0.788,0-1.43-0.64-1.43-1.428v-85.61c0-1.643,1.332-2.975,2.975-2.975h32.639c5.674,0,10.275-4.601,10.275-10.273v-32.325
	c0-1.643,1.331-2.975,2.975-2.975h62.265c0.787,0,1.428,0.642,1.428,1.429V982.691L972.605,982.691z"/>
</svg>
