<?xml version="1.0" encoding="utf-8"?>
<!-- Generator: Adobe Illustrator 16.0.0, SVG Export Plug-In . SVG Version: 6.00 Build 0)  -->
<!DOCTYPE svg PUBLIC "-//W3C//DTD SVG 1.1//EN" "http://www.w3.org/Graphics/SVG/1.1/DTD/svg11.dtd">
<svg version="1.1" id="Layer_1" xmlns="http://www.w3.org/2000/svg" xmlns:xlink="http://www.w3.org/1999/xlink" x="0px" y="0px"
	 width="200px" height="200px" viewBox="796 796 200 200" enable-background="new 796 796 200 200" xml:space="preserve">
<g>
	<path d="M976.83,857.399l-56.941-56.941c-2.875-2.875-6.695-4.458-10.762-4.458H825.93c-8.393,0-15.218,6.828-15.218,15.222V980.78
		c0,8.393,6.826,15.22,15.218,15.22h140.14c8.39,0,15.218-6.827,15.218-15.22V868.161
		C981.288,864.099,979.706,860.274,976.83,857.399z M969.676,980.781c0,1.988-1.615,3.608-3.604,3.608H825.931
		c-1.989,0-3.605-1.62-3.605-3.608V811.22c0-1.987,1.616-3.605,3.605-3.605h79.409c2.174,0,3.936,1.763,3.936,3.937v42.937
		c0,7.25,5.876,13.126,13.123,13.126h43.342c1.045,0,2.046,0.415,2.783,1.153c0.738,0.738,1.153,1.739,1.153,2.783L969.676,980.781z
		"/>
	<g>
		<path d="M936.245,967.999h-21.702l-18.945-26.754l-18.602,26.754h-21.241l28.82-41.106l-26.868-39.268h21.127l16.764,24.57
			l16.878-24.57h21.471l-26.752,38.465L936.245,967.999z"/>
	</g>
</g>
</svg>
