<?xml version="1.0" encoding="utf-8"?>
<!-- Generator: Adobe Illustrator 16.0.0, SVG Export Plug-In . SVG Version: 6.00 Build 0)  -->
<!DOCTYPE svg PUBLIC "-//W3C//DTD SVG 1.1//EN" "http://www.w3.org/Graphics/SVG/1.1/DTD/svg11.dtd">
<svg version="1.1" id="Layer_1" xmlns="http://www.w3.org/2000/svg" xmlns:xlink="http://www.w3.org/1999/xlink" x="0px" y="0px"
	 width="1792px" height="1792px" viewBox="0 0 1792 1792" enable-background="new 0 0 1792 1792" xml:space="preserve">
<g>
	<g>
		<path d="M1618.936,550.764L1109.654,41.482c-25.711-25.711-59.876-39.875-96.241-39.875H269.301
			c-75.064,0-136.111,61.07-136.111,136.14v1516.528c0,75.06,61.046,136.117,136.111,136.117h1253.403
			c75.037,0,136.105-61.058,136.105-136.117V647.017C1658.81,610.675,1644.657,576.475,1618.936,550.764z M1554.948,1654.275
			c0,17.789-14.441,32.278-32.23,32.278H269.308c-17.789,0-32.243-14.489-32.243-32.278V137.736
			c0-17.777,14.454-32.243,32.243-32.243h710.224c19.441,0,35.202,15.761,35.202,35.202v384.021
			c0,64.844,52.558,117.401,117.378,117.401h387.646c9.336,0,18.29,3.709,24.892,10.311s10.311,15.556,10.311,24.892
			L1554.948,1654.275z"/>
	</g>
	<g>
		<g>
			<path d="M856.201,1535.231c-27.025,0-52.649-10.309-72.146-29.013l-187.306-179.848H467.245
				c-57.432,0-104.158-46.731-104.158-104.163v-207.655c0-57.431,46.726-104.163,104.158-104.163h129.503l187.3-179.842
				c19.498-18.721,45.122-29.028,72.152-29.028c14.106,0,27.847,2.809,40.836,8.351c38.456,16.387,63.31,53.997,63.31,95.813
				v625.384c0,41.821-24.854,79.426-63.315,95.825C884.037,1532.428,870.307,1535.231,856.201,1535.231z M469.821,1219.638h127.964
				c27.014,0,52.631,10.307,72.129,29.01l183.699,176.387V811.729L669.925,988.102c-19.509,18.716-45.126,29.022-72.14,29.022
				H469.821V1219.638z"/>
		</g>
		<g>
			<path d="M1100.62,1376.125c-8.848,0-17.823-2.212-26.081-6.845c-25.699-14.431-34.837-46.975-20.406-72.661
				c30.379-54.098,46.441-115.733,46.441-178.25s-16.063-124.153-46.441-178.248c-14.431-25.694-5.293-58.228,20.406-72.658
				c25.688-14.441,58.22-5.298,72.661,20.395c39.319,70.016,60.108,149.73,60.108,230.512s-20.789,160.495-60.108,230.505
				C1137.403,1366.316,1119.289,1376.125,1100.62,1376.125z"/>
		</g>
		<g>
			<path d="M1284.255,1493.363c-9.148,0-18.425-2.362-26.892-7.308c-25.445-14.881-34.003-47.565-19.132-73.009
				c52.059-89.016,79.576-190.92,79.576-294.678s-27.518-205.662-79.576-294.679c-14.871-25.438-6.313-58.126,19.132-73.003
				c25.421-14.905,58.128-6.334,73.01,19.128c61.602,105.344,94.168,225.872,94.168,348.554s-32.566,243.21-94.168,348.555
				C1320.446,1483.9,1302.588,1493.363,1284.255,1493.363z"/>
		</g>
	</g>
</g>
</svg>
