<?xml version="1.0" encoding="utf-8"?>
<!-- Generator: Adobe Illustrator 16.0.0, SVG Export Plug-In . SVG Version: 6.00 Build 0)  -->
<!DOCTYPE svg PUBLIC "-//W3C//DTD SVG 1.1//EN" "http://www.w3.org/Graphics/SVG/1.1/DTD/svg11.dtd">
<svg version="1.1" id="Layer_1" xmlns="http://www.w3.org/2000/svg" xmlns:xlink="http://www.w3.org/1999/xlink" x="0px" y="0px"
	 width="1792px" height="1792px" viewBox="0 0 1792 1792" enable-background="new 0 0 1792 1792" xml:space="preserve">
<g>
	<path d="M1616.654,551.859L1108.977,44.193c-25.618-25.629-59.696-39.749-95.948-39.749h-741.74
		c-74.827,0-135.679,60.876-135.679,135.709v1511.718c0,74.822,60.853,135.685,135.679,135.685h1249.428
		c74.811,0,135.674-60.862,135.674-135.685V647.807C1656.391,611.58,1642.283,577.488,1616.654,551.859z M1552.858,1651.871
		c0,17.732-14.407,32.175-32.141,32.175H271.294c-17.732,0-32.14-14.442-32.14-32.175V140.141c0-17.721,14.408-32.141,32.14-32.141
		h707.984c19.38,0,35.091,15.71,35.091,35.09v382.805c0,64.639,52.39,117.029,116.993,117.029h386.429
		c9.307,0,18.231,3.697,24.813,10.278c6.581,6.581,10.277,15.507,10.277,24.813L1552.858,1651.871z"/>
	<g>
		<path d="M1041.36,1527.709l-144.333-510.818l-147.414,510.818H582.747L346.277,811.13h174.024l150.485,540.5l149.458-540.5
			h158.671l151.512,540.5l149.457-540.5h165.84l-237.497,716.579H1041.36z"/>
	</g>
</g>
</svg>
