<?xml version="1.0" encoding="utf-8"?>
<!-- Generator: Adobe Illustrator 16.0.0, SVG Export Plug-In . SVG Version: 6.00 Build 0)  -->
<!DOCTYPE svg PUBLIC "-//W3C//DTD SVG 1.1//EN" "http://www.w3.org/Graphics/SVG/1.1/DTD/svg11.dtd">
<svg version="1.1" id="Layer_1" xmlns="http://www.w3.org/2000/svg" xmlns:xlink="http://www.w3.org/1999/xlink" x="0px" y="0px"
	 width="1792px" height="1792px" viewBox="0 0 1792 1792" enable-background="new 0 0 1792 1792" xml:space="preserve">
<g>
	<path d="M1616.1,552.125L1108.818,44.843c-25.612-25.625-59.655-39.717-95.872-39.717H271.767
		c-74.772,0-135.573,60.827-135.573,135.6v1510.559c0,74.771,60.8,135.588,135.573,135.588H1520.24
		c74.749,0,135.565-60.816,135.565-135.588V647.995C1655.806,611.791,1641.714,577.737,1616.1,552.125z M271.784,108.606h707.433
		c19.365,0,35.063,15.698,35.063,35.063v382.499c0,64.592,52.342,116.948,116.912,116.948h386.127c9.3,0,18.219,3.694,24.794,10.27
		c6.576,6.576,10.27,15.495,10.27,24.794l-0.013,550.091l-380.902-380.913l-355.723,355.7
		c-11.266,11.281-26.541,17.605-42.481,17.605c-15.935,0-31.21-6.324-42.481-17.605l-168.244-168.246L239.67,1357.68V140.727
		C239.67,123.018,254.064,108.606,271.784,108.606z"/>
	<path d="M665.91,847.313c89.787,0,162.568-72.783,162.568-162.557c0-89.764-72.781-162.558-162.568-162.558
		c-89.779,0-162.563,72.794-162.563,162.558C503.347,774.53,576.13,847.313,665.91,847.313z"/>
</g>
</svg>
