<?xml version="1.0" encoding="utf-8"?>
<!-- Generator: Adobe Illustrator 16.0.0, SVG Export Plug-In . SVG Version: 6.00 Build 0)  -->
<!DOCTYPE svg PUBLIC "-//W3C//DTD SVG 1.1//EN" "http://www.w3.org/Graphics/SVG/1.1/DTD/svg11.dtd">
<svg version="1.1" id="Layer_1" xmlns="http://www.w3.org/2000/svg" xmlns:xlink="http://www.w3.org/1999/xlink" x="0px" y="0px"
	 width="200px" height="200px" viewBox="796 796 200 200" enable-background="new 796 796 200 200" xml:space="preserve">
<g>
	<path d="M976.828,857.4l-56.941-56.942c-2.875-2.874-6.694-4.458-10.76-4.458H825.93c-8.394,0-15.218,6.828-15.218,15.222v169.56
		c0,8.393,6.824,15.219,15.218,15.219H966.07c8.389,0,15.218-6.826,15.218-15.219V868.162
		C981.288,864.099,979.706,860.274,976.828,857.4z M969.676,980.781c0,1.989-1.615,3.609-3.604,3.609H825.931
		c-1.989,0-3.604-1.62-3.604-3.609V811.221c0-1.988,1.616-3.605,3.604-3.605h79.409c2.174,0,3.936,1.763,3.936,3.936v42.937
		c0,7.251,5.876,13.127,13.123,13.127h43.343c1.044,0,2.045,0.414,2.782,1.152c0.738,0.738,1.153,1.739,1.153,2.783L969.676,980.781
		z"/>
	<g>
		<path d="M896.978,887.625c20.438,0,32.149,10.104,32.149,27.901c0,18.716-11.711,29.51-32.149,29.51h-15.96V968h-18.142v-80.375
			H896.978L896.978,887.625z M881.017,929.879h15.042c10.105,0,15.846-4.593,15.846-13.778c0-8.956-5.74-13.434-15.846-13.434
			h-15.042V929.879z"/>
	</g>
</g>
</svg>
