<?xml version="1.0" encoding="utf-8"?>
<!-- Generator: Adobe Illustrator 16.0.0, SVG Export Plug-In . SVG Version: 6.00 Build 0)  -->
<!DOCTYPE svg PUBLIC "-//W3C//DTD SVG 1.1//EN" "http://www.w3.org/Graphics/SVG/1.1/DTD/svg11.dtd">
<svg version="1.1" id="Layer_1" xmlns="http://www.w3.org/2000/svg" xmlns:xlink="http://www.w3.org/1999/xlink" x="0px" y="0px"
	 width="1792px" height="1792px" viewBox="0 0 1792 1792" enable-background="new 0 0 1792 1792" xml:space="preserve">
<g>
	<path d="M1617.643,551.381l-508.371-508.37c-25.665-25.665-59.769-39.804-96.069-39.804H270.421
		c-74.931,0-135.867,60.96-135.867,135.896v1513.817c0,74.925,60.937,135.872,135.867,135.872h1251.163
		c74.902,0,135.862-60.947,135.862-135.872V647.462C1657.446,611.185,1643.319,577.046,1617.643,551.381z M1553.77,1652.921
		c0,17.758-14.416,32.221-32.174,32.221H270.425c-17.757,0-32.185-14.463-32.185-32.221V139.091
		c0-17.746,14.428-32.186,32.185-32.186h708.957c19.406,0,35.139,15.732,35.139,35.139v383.336
		c0,64.728,52.462,117.19,117.167,117.19h386.954c9.319,0,18.258,3.702,24.848,10.292c6.59,6.59,10.292,15.528,10.292,24.848
		L1553.77,1652.921z"/>
	<g>
		<path d="M1255.307,1538.805H1061.55l-169.14-238.856l-166.069,238.856H536.698L794,1171.811L554.126,821.231h188.619
			l149.665,219.364l150.688-219.364h191.699l-238.844,343.41L1255.307,1538.805z"/>
	</g>
</g>
</svg>
