<?xml version="1.0" encoding="utf-8"?>
<!-- Generator: Adobe Illustrator 16.0.0, SVG Export Plug-In . SVG Version: 6.00 Build 0)  -->
<!DOCTYPE svg PUBLIC "-//W3C//DTD SVG 1.1//EN" "http://www.w3.org/Graphics/SVG/1.1/DTD/svg11.dtd">
<svg version="1.1" id="Layer_1" xmlns="http://www.w3.org/2000/svg" xmlns:xlink="http://www.w3.org/1999/xlink" x="0px" y="0px"
	 width="1792px" height="1792px" viewBox="0 0 1792 1792" enable-background="new 0 0 1792 1792" xml:space="preserve">
<g>
	<g>
		<path d="M1618.609,550.922L1109.548,41.873c-25.688-25.7-59.849-39.857-96.197-39.857H269.583
			c-75.03,0-136.047,61.041-136.047,136.078v1515.837c0,75.023,61.018,136.054,136.047,136.054h1252.837
			c75.002,0,136.043-61.03,136.043-136.054V647.13C1658.464,610.805,1644.318,576.621,1618.609,550.922z M1554.649,1653.931
			c0,17.78-14.445,32.263-32.229,32.263H269.596c-17.781,0-32.228-14.482-32.228-32.263V138.082
			c0-17.77,14.447-32.228,32.228-32.228h709.912c19.432,0,35.186,15.754,35.186,35.186v383.847
			c0,64.815,52.534,117.348,117.313,117.348h387.48c9.332,0,18.282,3.707,24.881,10.306c6.599,6.6,10.305,15.549,10.305,24.882
			L1554.649,1653.931z"/>
	</g>
	<g>
		<path d="M1016.175,1347.313l-97.877-375.032c-19.146-73.359-85.407-124.548-161.22-124.548h-44.272h-44.273
			c-75.812,0-142.074,51.188-161.221,124.548l-97.871,375.032c-13.029,49.939-2.182,103.098,29.364,143.938
			c31.556,40.841,80.251,64.757,131.857,64.757h142.144h142.143c51.606,0,100.301-23.916,131.858-64.757
			C1018.352,1450.411,1029.198,1397.253,1016.175,1347.313z M822.222,1458.409H603.399c-44.742,0-81.01-36.268-81.01-81.011
			c0-44.74,36.268-81.008,81.01-81.008h218.823c44.742,0,81.01,36.268,81.01,81.008
			C903.232,1422.142,866.964,1458.409,822.222,1458.409z"/>
	</g>
	<g>
		<path d="M829.382,792.028H596.228c-29.46,0-53.342-23.881-53.342-53.342s23.882-53.343,53.342-53.343h233.155
			c29.461,0,53.343,23.882,53.343,53.343S858.844,792.028,829.382,792.028z"/>
	</g>
	<g>
		<path d="M829.382,614.405H596.228c-29.46,0-53.342-23.882-53.342-53.344c0-29.461,23.882-53.343,53.342-53.343h233.155
			c29.461,0,53.343,23.882,53.343,53.343C882.726,590.523,858.844,614.405,829.382,614.405z"/>
	</g>
	<g>
		<path d="M829.382,436.78H596.228c-29.46,0-53.342-23.881-53.342-53.343c0-29.46,23.882-53.342,53.342-53.342h233.155
			c29.461,0,53.343,23.882,53.343,53.342C882.726,412.899,858.844,436.78,829.382,436.78z"/>
	</g>
	<g>
		<path d="M829.382,263.289H596.228c-29.46,0-53.342-23.881-53.342-53.343s23.882-53.343,53.342-53.343h233.155
			c29.461,0,53.343,23.881,53.343,53.343S858.844,263.289,829.382,263.289z"/>
	</g>
</g>
</svg>
