<?xml version="1.0" encoding="utf-8"?>
<!-- Generator: Adobe Illustrator 16.0.0, SVG Export Plug-In . SVG Version: 6.00 Build 0)  -->
<!DOCTYPE svg PUBLIC "-//W3C//DTD SVG 1.1//EN" "http://www.w3.org/Graphics/SVG/1.1/DTD/svg11.dtd">
<svg version="1.1" id="Layer_1" xmlns="http://www.w3.org/2000/svg" xmlns:xlink="http://www.w3.org/1999/xlink" x="0px" y="0px"
	 width="200px" height="200px" viewBox="796 796 200 200" enable-background="new 796 796 200 200" xml:space="preserve">
<g>
	<g>
		<path d="M976.83,857.4l-56.941-56.941c-2.874-2.875-6.696-4.458-10.762-4.458H825.93c-8.393,0-15.218,6.828-15.218,15.222v169.56
			c0,8.393,6.825,15.219,15.218,15.219h140.139c8.392,0,15.219-6.826,15.219-15.219V868.162
			C981.288,864.099,979.705,860.275,976.83,857.4z M969.675,980.781c0,1.989-1.616,3.608-3.605,3.608H825.93
			c-1.989,0-3.605-1.619-3.605-3.608V811.22c0-1.988,1.616-3.605,3.605-3.605h79.41c2.174,0,3.936,1.762,3.936,3.936v42.937
			c0,7.25,5.876,13.126,13.123,13.126h43.343c1.044,0,2.045,0.415,2.783,1.152c0.738,0.738,1.152,1.739,1.152,2.783L969.675,980.781
			z"/>
	</g>
	<g>
		<g>
			<path d="M872.593,962.403c-1.527,0-3.054-0.583-4.219-1.749l-34.132-34.131l34.132-34.131c2.331-2.33,6.108-2.329,8.438,0
				c2.331,2.33,2.331,6.108,0,8.438l-25.693,25.693l25.693,25.693c2.331,2.329,2.331,6.107,0,8.437
				C875.647,961.82,874.12,962.403,872.593,962.403z"/>
		</g>
		<g>
			<path d="M919.407,962.403c-1.527,0-3.055-0.583-4.219-1.749c-2.331-2.329-2.331-6.107,0-8.437l25.691-25.693l-25.691-25.693
				c-2.331-2.33-2.331-6.108,0-8.438c2.328-2.33,6.109-2.33,8.438,0l34.132,34.131l-34.132,34.131
				C922.462,961.82,920.934,962.403,919.407,962.403z"/>
		</g>
		<g>
			<path d="M888.169,962.404c-0.49,0-0.987-0.061-1.483-0.188c-3.193-0.816-5.12-4.066-4.303-7.26l15.297-59.823
				c0.815-3.192,4.067-5.119,7.261-4.303c3.191,0.816,5.117,4.066,4.301,7.259l-15.296,59.825
				C893.256,960.611,890.83,962.404,888.169,962.404z"/>
		</g>
	</g>
</g>
</svg>
