<?xml version="1.0" encoding="utf-8"?>
<!-- Generator: Adobe Illustrator 16.0.0, SVG Export Plug-In . SVG Version: 6.00 Build 0)  -->
<!DOCTYPE svg PUBLIC "-//W3C//DTD SVG 1.1//EN" "http://www.w3.org/Graphics/SVG/1.1/DTD/svg11.dtd">
<svg version="1.1" id="Layer_1" xmlns="http://www.w3.org/2000/svg" xmlns:xlink="http://www.w3.org/1999/xlink" x="0px" y="0px"
	 width="1792px" height="1792px" viewBox="0 0 1792 1792" enable-background="new 0 0 1792 1792" xml:space="preserve">
<path d="M1567.316,366.036h-244.2V121.838c0-65.524-53.318-118.83-118.843-118.83H622.697c-31.731,0-61.577,12.36-84.012,34.807
	L140.648,435.839c-22.445,22.435-34.806,52.28-34.806,84.048v787.234c0,65.524,53.306,118.841,118.83,118.841h244.199v244.189
	c0,65.535,53.329,118.841,118.854,118.841h979.591c65.536,0,118.841-53.306,118.841-118.841V484.879
	C1686.157,419.354,1632.853,366.036,1567.316,366.036z M224.673,1319.871c-7.022,0-12.737-5.726-12.737-12.749V542.623
	c0-14.672,11.894-26.566,26.566-26.566h291.441c50.679,0,91.753-41.087,91.753-91.753V135.654c0-14.672,11.894-26.566,26.566-26.566
	h556.013c7.035,0,12.762,5.727,12.762,12.75v244.21H985.752c-31.721,0-61.555,12.349-84.023,34.807L503.644,798.928
	c-22.423,22.458-34.76,52.28-34.76,83.988v436.956H224.673z M1580.077,1670.151c0,7.033-5.715,12.75-12.75,12.75h-979.59
	c-7.035,0-12.773-5.717-12.773-12.75V905.653c0-14.673,11.895-26.567,26.566-26.567h291.465c50.667,0,91.753-41.087,91.753-91.742
	v-288.66c0-14.672,11.895-26.566,26.566-26.566h556.013c7.035,0,12.75,5.726,12.75,12.761V1670.151z"/>
</svg>
