<?xml version="1.0" encoding="utf-8"?>
<!-- Generator: Adobe Illustrator 16.0.0, SVG Export Plug-In . SVG Version: 6.00 Build 0)  -->
<!DOCTYPE svg PUBLIC "-//W3C//DTD SVG 1.1//EN" "http://www.w3.org/Graphics/SVG/1.1/DTD/svg11.dtd">
<svg version="1.1" id="Layer_1" xmlns="http://www.w3.org/2000/svg" xmlns:xlink="http://www.w3.org/1999/xlink" x="0px" y="0px"
	 width="200px" height="200px" viewBox="796 796 200 200" enable-background="new 796 796 200 200" xml:space="preserve">
<g>
	<path d="M976.831,857.4l-56.942-56.942c-2.875-2.876-6.696-4.458-10.762-4.458H825.93c-8.393,0-15.218,6.828-15.218,15.221V980.78
		c0,8.394,6.825,15.22,15.218,15.22H966.07c8.391,0,15.218-6.826,15.218-15.22V868.162
		C981.288,864.098,979.706,860.275,976.831,857.4z M825.932,807.616h79.409c2.174,0,3.937,1.762,3.937,3.936v42.935
		c0,7.25,5.875,13.127,13.123,13.127h43.343c1.044,0,2.045,0.415,2.782,1.153c0.739,0.738,1.153,1.739,1.153,2.783l-0.001,61.748
		l-42.757-42.757l-39.93,39.927c-1.265,1.266-2.979,1.977-4.769,1.977c-1.788,0-3.503-0.711-4.769-1.977l-18.885-18.886
		l-36.242,36.242V811.221C822.327,809.233,823.943,807.616,825.932,807.616z"/>
	<path d="M870.173,890.535c10.078,0,18.248-8.17,18.248-18.247c0-10.076-8.17-18.247-18.248-18.247s-18.248,8.171-18.248,18.247
		C851.925,882.365,860.095,890.535,870.173,890.535z"/>
</g>
</svg>
