<?xml version="1.0" encoding="utf-8"?>
<!-- Generator: Adobe Illustrator 16.0.0, SVG Export Plug-In . SVG Version: 6.00 Build 0)  -->
<!DOCTYPE svg PUBLIC "-//W3C//DTD SVG 1.1//EN" "http://www.w3.org/Graphics/SVG/1.1/DTD/svg11.dtd">
<svg version="1.1" id="Layer_1" xmlns="http://www.w3.org/2000/svg" xmlns:xlink="http://www.w3.org/1999/xlink" x="0px" y="0px"
	 width="1792px" height="1792px" viewBox="0 0 1792 1792" enable-background="new 0 0 1792 1792" xml:space="preserve">
<g>
	<g>
		<path d="M1618.546,550.951L1109.53,41.947c-25.687-25.697-59.845-39.854-96.19-39.854h-743.7
			c-75.025,0-136.037,61.036-136.037,136.065v1515.705c0,75.019,61.012,136.042,136.037,136.042h1252.728
			c74.995,0,136.03-61.023,136.03-136.042V647.152C1658.397,610.83,1644.255,576.648,1618.546,550.951z M1554.594,1653.864
			c0,17.779-14.447,32.261-32.226,32.261H269.651c-17.778,0-32.225-14.481-32.225-32.261V138.149
			c0-17.769,14.446-32.226,32.225-32.226h709.85c19.431,0,35.183,15.752,35.183,35.183v383.813
			c0,64.81,52.529,117.337,117.303,117.337h387.447c9.331,0,18.28,3.707,24.878,10.305c6.599,6.598,10.305,15.547,10.305,24.878
			L1554.594,1653.864z"/>
	</g>
	<g>
		<path d="M1016.163,1347.273l-97.866-375c-19.145-73.351-85.401-124.536-161.207-124.536h-44.269h-44.269
			c-75.806,0-142.063,51.186-161.207,124.536l-97.863,375c-13.027,49.936-2.181,103.088,29.362,143.925
			c31.555,40.837,80.244,64.752,131.846,64.752h142.131h142.131c51.601,0,100.291-23.915,131.846-64.752
			C1018.341,1450.361,1029.188,1397.209,1016.163,1347.273z M822.23,1458.359H603.426c-44.738,0-81.003-36.265-81.003-81.003
			s36.265-81.003,81.003-81.003H822.23c44.738,0,81.002,36.265,81.002,81.003S866.969,1458.359,822.23,1458.359z"/>
	</g>
	<g>
		<path d="M829.389,792.038H596.254c-29.458,0-53.339-23.879-53.339-53.339c0-29.458,23.881-53.337,53.339-53.337h233.135
			c29.458,0,53.339,23.879,53.339,53.337C882.728,768.159,858.847,792.038,829.389,792.038z"/>
	</g>
	<g>
		<path d="M829.389,614.43H596.254c-29.458,0-53.339-23.88-53.339-53.339s23.881-53.337,53.339-53.337h233.135
			c29.458,0,53.339,23.878,53.339,53.337S858.847,614.43,829.389,614.43z"/>
	</g>
	<g>
		<path d="M829.389,436.821H596.254c-29.458,0-53.339-23.88-53.339-53.339c0-29.458,23.881-53.337,53.339-53.337h233.135
			c29.458,0,53.339,23.879,53.339,53.337C882.728,412.941,858.847,436.821,829.389,436.821z"/>
	</g>
	<g>
		<path d="M829.389,263.345H596.254c-29.458,0-53.339-23.879-53.339-53.339c0-29.458,23.881-53.337,53.339-53.337h233.135
			c29.458,0,53.339,23.879,53.339,53.337C882.728,239.466,858.847,263.345,829.389,263.345z"/>
	</g>
</g>
</svg>
