<?xml version="1.0" encoding="utf-8"?>
<!-- Generator: Adobe Illustrator 16.0.0, SVG Export Plug-In . SVG Version: 6.00 Build 0)  -->
<!DOCTYPE svg PUBLIC "-//W3C//DTD SVG 1.1//EN" "http://www.w3.org/Graphics/SVG/1.1/DTD/svg11.dtd">
<svg version="1.1" id="Layer_1" xmlns="http://www.w3.org/2000/svg" xmlns:xlink="http://www.w3.org/1999/xlink" x="0px" y="0px"
	 width="200px" height="200px" viewBox="796 796 200 200" enable-background="new 796 796 200 200" xml:space="preserve">
<g>
	<g>
		<path d="M976.83,857.4l-56.943-56.942c-2.873-2.875-6.693-4.458-10.76-4.458H825.93c-8.393,0-15.218,6.828-15.218,15.221v169.56
			c0,8.392,6.825,15.219,15.218,15.219H966.07c8.391,0,15.218-6.827,15.218-15.219v-112.62
			C981.289,864.098,979.706,860.274,976.83,857.4z M969.676,980.781c0,1.988-1.615,3.608-3.605,3.608H825.932
			c-1.989,0-3.605-1.62-3.605-3.608V811.22c0-1.987,1.616-3.605,3.605-3.605h79.41c2.174,0,3.936,1.762,3.936,3.936v42.937
			c0,7.25,5.876,13.126,13.122,13.126h43.343c1.045,0,2.045,0.415,2.783,1.153s1.153,1.739,1.153,2.783L969.676,980.781z"/>
	</g>
	<g>
		<path d="M909.443,946.483l-10.949-41.951c-2.142-8.206-9.553-13.932-18.034-13.932h-4.952h-4.952
			c-8.48,0-15.893,5.726-18.034,13.932l-10.948,41.951c-1.458,5.586-0.244,11.532,3.285,16.101c3.53,4.568,8.977,7.243,14.75,7.243
			h15.9h15.9c5.772,0,11.22-2.675,14.75-7.243C909.686,958.016,910.899,952.069,909.443,946.483z M887.748,958.91H863.27
			c-5.004,0-9.062-4.057-9.062-9.062s4.057-9.062,9.062-9.062h24.478c5.004,0,9.061,4.057,9.061,9.062
			S892.752,958.91,887.748,958.91z"/>
	</g>
	<g>
		<path d="M888.548,884.37h-26.08c-3.295,0-5.967-2.671-5.967-5.967s2.672-5.967,5.967-5.967h26.08c3.295,0,5.967,2.671,5.967,5.967
			S891.844,884.37,888.548,884.37z"/>
	</g>
	<g>
		<path d="M888.548,864.501h-26.08c-3.295,0-5.967-2.671-5.967-5.967c0-3.295,2.672-5.967,5.967-5.967h26.08
			c3.295,0,5.967,2.671,5.967,5.967C894.515,861.83,891.844,864.501,888.548,864.501z"/>
	</g>
	<g>
		<path d="M888.548,844.632h-26.08c-3.295,0-5.967-2.671-5.967-5.967s2.672-5.967,5.967-5.967h26.08
			c3.295,0,5.967,2.671,5.967,5.967C894.515,841.96,891.844,844.632,888.548,844.632z"/>
	</g>
	<g>
		<path d="M888.548,825.226h-26.08c-3.295,0-5.967-2.671-5.967-5.967c0-3.295,2.672-5.967,5.967-5.967h26.08
			c3.295,0,5.967,2.671,5.967,5.967C894.516,822.554,891.844,825.226,888.548,825.226z"/>
	</g>
</g>
</svg>
