<?xml version="1.0" encoding="utf-8"?>
<!-- Generator: Adobe Illustrator 16.0.0, SVG Export Plug-In . SVG Version: 6.00 Build 0)  -->
<!DOCTYPE svg PUBLIC "-//W3C//DTD SVG 1.1//EN" "http://www.w3.org/Graphics/SVG/1.1/DTD/svg11.dtd">
<svg version="1.1" id="Layer_1" xmlns="http://www.w3.org/2000/svg" xmlns:xlink="http://www.w3.org/1999/xlink" x="0px" y="0px"
	 width="200px" height="200px" viewBox="796 796 200 200" enable-background="new 796 796 200 200" xml:space="preserve">
<g>
	<path d="M976.83,857.399l-56.941-56.941c-2.875-2.875-6.695-4.458-10.762-4.458h-83.196c-8.394,0-15.219,6.828-15.219,15.222
		V980.78c0,8.393,6.825,15.22,15.219,15.22h140.14c8.39,0,15.218-6.827,15.218-15.22V868.161
		C981.288,864.099,979.705,860.274,976.83,857.399z M969.676,980.78c0,1.989-1.615,3.609-3.604,3.609H825.931
		c-1.989,0-3.605-1.62-3.605-3.609V811.22c0-1.987,1.616-3.604,3.605-3.604h79.409c2.174,0,3.936,1.762,3.936,3.936v42.937
		c0,7.25,5.876,13.126,13.123,13.126h43.342c1.045,0,2.045,0.415,2.783,1.153s1.153,1.739,1.153,2.783L969.676,980.78z"/>
	<path d="M847.949,831.658c0,2.096-1.698,3.793-3.793,3.793h-8.22c-2.095,0-3.793-1.697-3.793-3.793v-8.22
		c0-2.095,1.698-3.793,3.793-3.793h8.22c2.095,0,3.793,1.698,3.793,3.793V831.658z"/>
	<path d="M847.949,859.503c0,2.095-1.698,3.794-3.793,3.794h-8.22c-2.095,0-3.793-1.699-3.793-3.794v-8.219
		c0-2.096,1.698-3.793,3.793-3.793h8.22c2.095,0,3.793,1.697,3.793,3.793V859.503z"/>
	<path d="M847.949,887.348c0,2.096-1.698,3.793-3.793,3.793h-8.22c-2.095,0-3.793-1.697-3.793-3.793v-8.22
		c0-2.095,1.698-3.793,3.793-3.793h8.22c2.095,0,3.793,1.697,3.793,3.793V887.348z"/>
	<path d="M847.949,915.191c0,2.096-1.698,3.794-3.793,3.794h-8.22c-2.095,0-3.793-1.698-3.793-3.794v-8.219
		c0-2.095,1.698-3.792,3.793-3.792h8.22c2.095,0,3.793,1.697,3.793,3.792V915.191z"/>
	<path d="M847.949,943.037c0,2.095-1.698,3.793-3.793,3.793h-8.22c-2.095,0-3.793-1.698-3.793-3.793v-8.219
		c0-2.097,1.698-3.794,3.793-3.794h8.22c2.095,0,3.793,1.697,3.793,3.794V943.037z"/>
	<path d="M847.949,970.881c0,2.096-1.698,3.794-3.793,3.794h-8.22c-2.095,0-3.793-1.698-3.793-3.794v-8.218
		c0-2.096,1.698-3.794,3.793-3.794h8.22c2.095,0,3.793,1.698,3.793,3.794V970.881z"/>
	<path d="M959.828,887.348c0,2.096-1.697,3.793-3.793,3.793h-8.221c-2.095,0-3.793-1.697-3.793-3.793v-8.22
		c0-2.095,1.698-3.793,3.793-3.793h8.221c2.096,0,3.793,1.697,3.793,3.793V887.348z"/>
	<path d="M959.828,915.191c0,2.096-1.697,3.794-3.793,3.794h-8.221c-2.095,0-3.793-1.698-3.793-3.794v-8.219
		c0-2.095,1.698-3.792,3.793-3.792h8.221c2.096,0,3.793,1.697,3.793,3.792V915.191z"/>
	<path d="M959.828,943.037c0,2.095-1.697,3.793-3.793,3.793h-8.221c-2.095,0-3.793-1.698-3.793-3.793v-8.219
		c0-2.097,1.698-3.794,3.793-3.794h8.221c2.096,0,3.793,1.697,3.793,3.794V943.037z"/>
	<path d="M959.828,970.881c0,2.096-1.697,3.794-3.793,3.794h-8.221c-2.095,0-3.793-1.698-3.793-3.794v-8.218
		c0-2.096,1.698-3.794,3.793-3.794h8.221c2.096,0,3.793,1.698,3.793,3.794V970.881z"/>
	<path d="M866.667,952.425c0,2.645,1.411,5.088,3.701,6.41s5.112,1.322,7.402,0l47.656-27.515c2.291-1.322,3.701-3.766,3.701-6.41
		s-1.41-5.088-3.701-6.41l-47.656-27.515c-2.29-1.322-5.112-1.322-7.402,0s-3.701,3.766-3.701,6.41V952.425z"/>
</g>
</svg>
