<?xml version="1.0" encoding="utf-8"?>
<!-- Generator: Adobe Illustrator 16.0.0, SVG Export Plug-In . SVG Version: 6.00 Build 0)  -->
<!DOCTYPE svg PUBLIC "-//W3C//DTD SVG 1.1//EN" "http://www.w3.org/Graphics/SVG/1.1/DTD/svg11.dtd">
<svg version="1.1" id="Layer_1" xmlns="http://www.w3.org/2000/svg" xmlns:xlink="http://www.w3.org/1999/xlink" x="0px" y="0px"
	 width="1792px" height="1792px" viewBox="0 0 1792 1792" enable-background="new 0 0 1792 1792" xml:space="preserve">
<path d="M1787.851,271.469C1787.851,64.05,1227.244,8.707,896,8.707C564.75,8.707,4.149,64.05,4.149,271.469
	c0,37.76,18.594,70.474,50.985,98.737l563.282,562.527c32.679,32.635,51.041,76.923,51.041,123.106v424.444
	c0,66.513,37.922,127.206,97.7,156.368l291.363,142.134c13.793,6.73,30.082,5.877,43.098-2.256
	c13.017-8.132,20.924-22.396,20.924-37.744V1055.84c0-46.184,18.361-90.472,51.039-123.106l563.28-562.524
	C1769.255,341.946,1787.851,309.23,1787.851,271.469z M338.27,176.766C489.386,141.881,687.455,122.67,896,122.67
	c208.55,0,406.613,19.211,557.736,54.096c164.504,37.976,214.264,81.039,219.902,94.704c-5.639,13.665-55.411,56.728-219.914,94.704
	c-151.123,34.884-349.187,54.095-557.725,54.095c-208.532,0-406.596-19.211-557.719-54.095
	c-164.503-37.976-214.276-81.039-219.927-94.704C123.999,257.805,173.761,214.741,338.27,176.766z"/>
</svg>
