<?xml version="1.0" encoding="utf-8"?>
<!-- Generator: Adobe Illustrator 16.0.0, SVG Export Plug-In . SVG Version: 6.00 Build 0)  -->
<!DOCTYPE svg PUBLIC "-//W3C//DTD SVG 1.1//EN" "http://www.w3.org/Graphics/SVG/1.1/DTD/svg11.dtd">
<svg version="1.1" id="Layer_1" xmlns="http://www.w3.org/2000/svg" xmlns:xlink="http://www.w3.org/1999/xlink" x="0px" y="0px"
	 width="200px" height="200px" viewBox="796 796 200 200" enable-background="new 796 796 200 200" xml:space="preserve">
<path d="M996,825.974c0-23.257-62.859-29.462-100-29.462c-37.142,0-100,6.206-100,29.462c0,4.234,2.085,7.902,5.717,11.071
	l63.159,63.074c3.664,3.659,5.723,8.625,5.723,13.804v47.591c0,7.458,4.252,14.264,10.955,17.533l32.669,15.937
	c1.547,0.755,3.373,0.659,4.832-0.253c1.46-0.911,2.347-2.511,2.347-4.231v-76.576c0-5.179,2.06-10.145,5.723-13.804l63.159-63.074
	C993.915,833.876,996,830.208,996,825.974z M833.464,815.355c16.944-3.911,39.153-6.065,62.536-6.065
	c23.384,0,45.592,2.154,62.537,6.065c18.445,4.258,24.024,9.087,24.656,10.619c-0.632,1.532-6.213,6.361-24.658,10.619
	c-16.944,3.912-39.152,6.065-62.535,6.065c-23.382,0-45.59-2.154-62.535-6.065c-18.445-4.258-24.026-9.086-24.66-10.619
	C809.438,824.442,815.018,819.613,833.464,815.355z"/>
</svg>
