<?xml version="1.0" encoding="utf-8"?>
<!-- Generator: Adobe Illustrator 16.0.0, SVG Export Plug-In . SVG Version: 6.00 Build 0)  -->
<!DOCTYPE svg PUBLIC "-//W3C//DTD SVG 1.1//EN" "http://www.w3.org/Graphics/SVG/1.1/DTD/svg11.dtd">
<svg version="1.1" id="Layer_1" xmlns="http://www.w3.org/2000/svg" xmlns:xlink="http://www.w3.org/1999/xlink" x="0px" y="0px"
	 width="1792px" height="1792px" viewBox="0 0 1792 1792" enable-background="new 0 0 1792 1792" xml:space="preserve">
<path d="M1606.681,1075.899c-0.166-2.499-0.355-4.975-0.557-7.485c-1.102-14.64-2.619-29.151-4.572-43.566
	c-0.166-1.196-0.297-2.381-0.451-3.565c-2.06-14.439-4.418-28.796-7.332-42.962C1505.062,520.657,1046.415,88.206,558.535,3.654
	c-15.355-2.661-30.769,4.376-38.818,17.721c-8.049,13.345-7.089,30.268,2.431,42.606
	c130.286,168.858,19.725,410.844-137.831,562.802c0.023,0.023,0.166,0.046,0.166,0.046
	c-124.23,128.224-200.845,302.89-200.845,495.539c0,302.75,188.902,561.298,455.244,664.412c12.915,5,27.58,0.943,36.092-9.981
	c8.512-10.926,8.878-26.155,0.861-37.449c-46.141-64.998-81.138-150.258-81.138-259.368C594.698,1111.091,896,877.045,896,877.045
	s301.315,234.046,301.315,602.937c0,109.109-35.002,194.368-81.146,259.366c-8.022,11.301-7.684,26.525,0.834,37.459
	c8.518,10.933,23.194,14.976,36.119,9.972c266.339-103.115,455.239-361.662,455.239-664.41
	C1608.362,1106.72,1607.675,1091.274,1606.681,1075.899z"/>
</svg>
