<?xml version="1.0" encoding="utf-8"?>
<!-- Generator: Adobe Illustrator 16.0.0, SVG Export Plug-In . SVG Version: 6.00 Build 0)  -->
<!DOCTYPE svg PUBLIC "-//W3C//DTD SVG 1.1//EN" "http://www.w3.org/Graphics/SVG/1.1/DTD/svg11.dtd">
<svg version="1.1" id="Layer_1" xmlns="http://www.w3.org/2000/svg" xmlns:xlink="http://www.w3.org/1999/xlink" x="0px" y="0px"
	 width="200px" height="200px" viewBox="796 796 200 200" enable-background="new 796 796 200 200" xml:space="preserve">
<path d="M985.549,819.174c-2.82-1.94-6.414-2.367-9.617-1.142c-20.898,8.01-47.93,7.048-74.158-2.64
	c-29.058-10.735-52.707-14.939-82.593-4.327v-6.447c0-4.76-3.858-8.619-8.619-8.619c-4.76,0-8.619,3.858-8.619,8.619v182.762
	c0,4.76,3.859,8.619,8.619,8.619c4.76,0,8.619-3.859,8.619-8.619v-54.176c28.616-11.311,50.098-7.703,78.458,2.775
	c15.853,5.855,31.893,8.788,47.029,8.788c14.381,0,27.949-2.649,39.76-7.956c3.42-1.537,5.629-4.951,5.629-8.698v-100.37
	C990.057,824.316,988.369,821.111,985.549,819.174z M978.123,926.545c-21.236,8.979-48.955,8.359-76.35-1.759
	c-29.058-10.736-52.707-14.938-82.593-4.327v-96.647c28.616-11.311,50.098-7.702,78.458,2.775
	c28.063,10.366,57.245,11.559,80.484,3.354V926.545L978.123,926.545z"/>
</svg>
