<?xml version="1.0" encoding="utf-8"?>
<!-- Generator: Adobe Illustrator 16.0.0, SVG Export Plug-In . SVG Version: 6.00 Build 0)  -->
<!DOCTYPE svg PUBLIC "-//W3C//DTD SVG 1.1//EN" "http://www.w3.org/Graphics/SVG/1.1/DTD/svg11.dtd">
<svg version="1.1" id="Layer_1" xmlns="http://www.w3.org/2000/svg" xmlns:xlink="http://www.w3.org/1999/xlink" x="0px" y="0px"
	 width="1792px" height="1792px" viewBox="0 0 1792 1792" enable-background="new 0 0 1792 1792" xml:space="preserve">
<g>
	<path d="M1694.792,210.701c-25.146-17.309-57.211-21.115-85.776-10.183c-186.452,71.459-427.563,62.854-661.511-23.552
		C688.298,81.203,477.346,43.705,210.753,138.37V80.859c0-42.461-34.422-76.882-76.882-76.882
		c-42.461,0-76.882,34.421-76.882,76.882v1630.281c0,42.461,34.421,76.882,76.882,76.882c42.46,0,76.882-34.421,76.882-76.882
		v-483.274c255.264-100.894,446.889-68.702,699.865,24.769c141.41,52.232,284.488,78.395,419.505,78.395
		c128.294,0,249.323-23.632,354.677-70.968c30.506-13.71,50.211-44.17,50.211-77.597V287.149
		C1735.011,256.568,1719.961,227.98,1694.792,210.701z M649.854,1070.075V798.634c-136.961-22.057-276.184-13.719-439.101,46.988
		V520.365c162.917-60.708,302.14-69.05,439.101-47.023v-271.26c82.763,14.216,167.604,40.325,260.765,74.741
		c84.74,31.299,170.622,53.209,255.207,65.678V613.81c164.8,25.528,325.977,13.929,462.733-38.558v325.261
		c-136.757,52.492-297.934,64.083-462.733,38.565v271.901c-71.949-11.814-145.263-31.218-218.32-58.2
		C842.687,1114.052,745.76,1084.857,649.854,1070.075z"/>
	<path d="M1165.825,939.078V613.81c-78.868-12.209-158.533-32.745-236.767-61.669c-96.368-35.576-187.284-63.991-279.205-78.799
		v325.292c91.921,14.796,182.837,43.188,279.205,78.765C1007.292,906.32,1086.957,926.846,1165.825,939.078z"/>
</g>
</svg>
