<?xml version="1.0" encoding="utf-8"?>
<!-- Generator: Adobe Illustrator 16.0.0, SVG Export Plug-In . SVG Version: 6.00 Build 0)  -->
<!DOCTYPE svg PUBLIC "-//W3C//DTD SVG 1.1//EN" "http://www.w3.org/Graphics/SVG/1.1/DTD/svg11.dtd">
<svg version="1.1" id="Layer_1" xmlns="http://www.w3.org/2000/svg" xmlns:xlink="http://www.w3.org/1999/xlink" x="0px" y="0px"
	 width="200px" height="200px" viewBox="796 796 200 200" enable-background="new 796 796 200 200" xml:space="preserve">
<g>
	<path d="M985.549,819.175c-2.819-1.94-6.414-2.367-9.616-1.142c-20.902,8.011-47.932,7.046-74.159-2.64
		c-29.058-10.735-52.707-14.939-82.593-4.327v-6.447c0-4.76-3.859-8.619-8.619-8.619c-4.76,0-8.619,3.859-8.619,8.619v182.763
		c0,4.76,3.859,8.618,8.619,8.618c4.76,0,8.619-3.858,8.619-8.618v-54.178c28.616-11.311,50.098-7.702,78.458,2.776
		c15.854,5.855,31.893,8.789,47.029,8.789c14.382,0,27.949-2.649,39.76-7.956c3.42-1.537,5.629-4.952,5.629-8.699V827.745
		C990.057,824.317,988.37,821.112,985.549,819.175z M868.406,915.515v-30.43c-15.354-2.473-30.961-1.538-49.225,5.268V853.89
		c18.264-6.806,33.871-7.741,49.225-5.271v-30.409c9.278,1.593,18.79,4.521,29.233,8.378c9.5,3.509,19.128,5.965,28.61,7.363v30.415
		c18.475,2.862,36.544,1.562,51.874-4.322v36.463c-15.33,5.885-33.399,7.185-51.874,4.323v30.481
		c-8.065-1.324-16.284-3.499-24.475-6.524C890.023,920.445,879.157,917.172,868.406,915.515z"/>
	<path d="M926.249,900.829v-36.464c-8.842-1.369-17.772-3.67-26.543-6.913c-10.803-3.988-20.996-7.174-31.3-8.834v36.467
		c10.305,1.659,20.497,4.842,31.3,8.83C908.477,897.157,917.407,899.458,926.249,900.829z"/>
</g>
</svg>
