<?xml version="1.0" encoding="utf-8"?>
<!-- Generator: Adobe Illustrator 16.0.0, SVG Export Plug-In . SVG Version: 6.00 Build 0)  -->
<!DOCTYPE svg PUBLIC "-//W3C//DTD SVG 1.1//EN" "http://www.w3.org/Graphics/SVG/1.1/DTD/svg11.dtd">
<svg version="1.1" id="Layer_1" xmlns="http://www.w3.org/2000/svg" xmlns:xlink="http://www.w3.org/1999/xlink" x="0px" y="0px"
	 width="200px" height="200px" viewBox="796 796 200 200" enable-background="new 796 796 200 200" xml:space="preserve">
<path d="M976.321,960.11l-48.128-71.254c-2.678-3.963-4.092-8.587-4.092-13.369v-67.27h4.619c3.374,0,6.109-2.735,6.109-6.109
	c0-3.374-2.735-6.108-6.109-6.108h-4.619h-56.203h-4.617c-3.374,0-6.108,2.735-6.108,6.109c0,3.374,2.735,6.108,6.108,6.108h4.617
	v67.27c0,4.783-1.415,9.406-4.091,13.37l-48.128,71.254c-4.775,7.07-5.255,16.143-1.252,23.675
	c4.002,7.534,11.788,12.215,20.32,12.215h122.505c8.532,0,16.318-4.681,20.319-12.213
	C981.576,976.253,981.096,967.181,976.321,960.11z M873.932,895.694c4.046-5.992,6.184-12.979,6.184-20.207v-67.27h31.769v67.27
	c0,7.228,2.138,14.216,6.184,20.207l21.466,31.781h-87.068L873.932,895.694z"/>
</svg>
