<?xml version="1.0" encoding="utf-8"?>
<!-- Generator: Adobe Illustrator 16.0.0, SVG Export Plug-In . SVG Version: 6.00 Build 0)  -->
<!DOCTYPE svg PUBLIC "-//W3C//DTD SVG 1.1//EN" "http://www.w3.org/Graphics/SVG/1.1/DTD/svg11.dtd">
<svg version="1.1" id="Layer_1" xmlns="http://www.w3.org/2000/svg" xmlns:xlink="http://www.w3.org/1999/xlink" x="0px" y="0px"
	 width="200px" height="200px" viewBox="796 796 200 200" enable-background="new 796 796 200 200" xml:space="preserve">
<g>
	<path d="M969.67,987.652H822.331c-14.519,0-26.331-11.813-26.331-26.33V830.678c0-14.519,11.812-26.33,26.331-26.33h38.186
		c9.882,0,18.843,5.452,23.385,14.23l8.892,17.183h76.877c14.519,0,26.33,11.812,26.33,26.331v99.23
		C996,975.84,984.188,987.652,969.67,987.652z M822.331,816.197c-7.985,0-14.481,6.497-14.481,14.481v130.644
		c0,7.984,6.497,14.48,14.481,14.48H969.67c7.984,0,14.481-6.496,14.481-14.48v-99.23c0-7.985-6.497-14.481-14.481-14.481h-84.087
		l-12.205-23.587c-2.498-4.827-7.426-7.826-12.861-7.826H822.331L822.331,816.197z"/>
</g>
</svg>
