<?xml version="1.0" encoding="utf-8"?>
<!-- Generator: Adobe Illustrator 16.0.0, SVG Export Plug-In . SVG Version: 6.00 Build 0)  -->
<!DOCTYPE svg PUBLIC "-//W3C//DTD SVG 1.1//EN" "http://www.w3.org/Graphics/SVG/1.1/DTD/svg11.dtd">
<svg version="1.1" id="Layer_1" xmlns="http://www.w3.org/2000/svg" xmlns:xlink="http://www.w3.org/1999/xlink" x="0px" y="0px"
	 width="2048px" height="1792px" viewBox="0 0 2048 1792" enable-background="new 0 0 2048 1792" xml:space="preserve">
<path d="M2023.029,690.491c-25.297-36.71-66.999-58.629-111.559-58.629h-150.322v-30.916c0-131.809-107.231-239.04-239.054-239.04
	H859.28l-74.588-144.122c-41.241-79.686-122.59-129.184-212.31-129.184H240.126c-131.814,0-239.054,107.237-239.054,239.053
	v1136.692c0,131.809,107.239,239.054,239.047,239.054l0,0c0,0,0,0,0.007,0l0,0h1281.968v-0.268
	c116.416-2.775,202.57-73.605,255.993-210.994c64.876-166.889,203.372-528.659,259.904-676.46
	C2053.919,774.043,2048.325,727.248,2023.029,690.491z M124.098,1464.346V327.652c0-63.981,52.048-116.029,116.029-116.029h332.256
	c43.545,0,83.031,24.028,103.048,62.707l108.987,210.601h737.677c63.981,0,116.029,52.049,116.029,116.017v30.916H866.227
	c-98.414,0-188.166,61.746-223.328,153.646c-69.142,180.691-194.127,506.968-254.397,662.057
	c-45.487,117.029-100.531,132.81-148.374,132.81C176.146,1580.375,124.098,1528.327,124.098,1464.346z M1923.085,771.733
	c-56.492,147.692-194.896,509.224-259.664,675.818c-45.493,117.043-100.544,132.822-148.387,132.822H458.422
	c16.8-25.523,31.771-54.864,44.746-88.25c60.377-155.343,185.45-481.846,254.625-662.65c17.073-44.611,60.645-74.588,108.434-74.588
	h1045.245c4.085,0,7.916,2.017,10.226,5.373C1924.02,763.637,1924.54,767.929,1923.085,771.733z"/>
</svg>
