<?xml version="1.0" encoding="utf-8"?>
<!-- Generator: Adobe Illustrator 16.0.0, SVG Export Plug-In . SVG Version: 6.00 Build 0)  -->
<!DOCTYPE svg PUBLIC "-//W3C//DTD SVG 1.1//EN" "http://www.w3.org/Graphics/SVG/1.1/DTD/svg11.dtd">
<svg version="1.1" id="Layer_1" xmlns="http://www.w3.org/2000/svg" xmlns:xlink="http://www.w3.org/1999/xlink" x="0px" y="0px"
	 width="200px" height="200px" viewBox="924 796 200 200" enable-background="new 924 796 200 200" xml:space="preserve">
<g>
	<path d="M958.787,950.188c7.493-18.661,19.423-50.612,26.914-70.192c2.946-7.701,10.342-12.787,18.587-12.787h89.79v-1.861
		c0-10.187-8.259-18.445-18.445-18.445h-72.751l-9.535-18.427c-3.169-6.123-9.488-9.969-16.382-9.969h-34.519
		c-10.188,0-18.446,8.259-18.446,18.446v118.094c0,10.04,6.396,18.425,16.73,18.425
		C949.971,973.008,954.928,959.797,958.787,950.188z"/>
	<g>
		<path d="M1122.661,879.5c-1.415-2.055-3.749-3.282-6.245-3.282h-106.145c-7.547,0-14.315,4.654-17.012,11.703
			c-6.856,17.92-26.709,69.417-32.99,85.573h115.49c8.798,0,16.038-4.631,21.099-17.645c6.45-16.592,19.95-51.847,26.643-69.342
			C1124.392,884.177,1124.076,881.555,1122.661,879.5z"/>
	</g>
</g>
</svg>
