<?xml version="1.0" encoding="utf-8"?>
<!-- Generator: Adobe Illustrator 16.0.0, SVG Export Plug-In . SVG Version: 6.00 Build 0)  -->
<!DOCTYPE svg PUBLIC "-//W3C//DTD SVG 1.1//EN" "http://www.w3.org/Graphics/SVG/1.1/DTD/svg11.dtd">
<svg version="1.1" id="Layer_1" xmlns="http://www.w3.org/2000/svg" xmlns:xlink="http://www.w3.org/1999/xlink" x="0px" y="0px"
	 width="200px" height="200px" viewBox="924 796 200 200" enable-background="new 924 796 200 200" xml:space="preserve">
<path d="M1121.664,875.91c-2.473-3.589-6.55-5.731-10.906-5.731h-14.694v-3.022c0-12.886-10.483-23.368-23.37-23.368h-64.796
	l-7.292-14.09c-4.032-7.79-11.984-12.629-20.755-12.629H947.37c-12.886,0-23.37,10.483-23.37,23.37v111.121
	c0,12.886,10.483,23.37,23.369,23.37l0,0c0,0,0,0,0,0l0,0h125.324v-0.026c11.381-0.271,19.803-7.195,25.025-20.626
	c6.343-16.315,19.882-51.682,25.408-66.131C1124.684,884.078,1124.137,879.503,1121.664,875.91z M936.027,951.561V840.439
	c0-6.255,5.088-11.343,11.343-11.343h32.481c4.257,0,8.117,2.349,10.074,6.13l10.655,20.588h72.114
	c6.255,0,11.343,5.088,11.343,11.342v3.022h-75.459c-9.621,0-18.395,6.036-21.833,15.02c-6.759,17.665-18.978,49.562-24.87,64.723
	c-4.447,11.44-9.828,12.983-14.505,12.983C941.115,962.904,936.027,957.815,936.027,951.561z M1111.894,883.852
	c-5.522,14.438-19.053,49.781-25.384,66.067c-4.448,11.442-9.829,12.984-14.507,12.984H968.71c1.642-2.495,3.106-5.363,4.375-8.627
	c5.902-15.186,18.129-47.104,24.892-64.78c1.669-4.36,5.929-7.291,10.601-7.291h102.182c0.399,0,0.773,0.197,0.999,0.525
	C1111.985,883.061,1112.036,883.48,1111.894,883.852z"/>
</svg>
