<?xml version="1.0" encoding="utf-8"?>
<!-- Generator: Adobe Illustrator 16.0.0, SVG Export Plug-In . SVG Version: 6.00 Build 0)  -->
<!DOCTYPE svg PUBLIC "-//W3C//DTD SVG 1.1//EN" "http://www.w3.org/Graphics/SVG/1.1/DTD/svg11.dtd">
<svg version="1.1" id="Layer_1" xmlns="http://www.w3.org/2000/svg" xmlns:xlink="http://www.w3.org/1999/xlink" x="0px" y="0px"
	 width="2048px" height="1792px" viewBox="0 0 2048 1792" enable-background="new 0 0 2048 1792" xml:space="preserve">
<g>
	<path d="M357.476,1449.832c76.588-190.736,198.52-517.291,275.079-717.409c30.11-78.706,105.704-130.688,189.976-130.688h917.713
		v-19.02c0-104.112-84.411-188.523-188.521-188.523H808.155l-97.453-188.335c-32.389-62.578-96.974-101.886-167.436-101.886h-352.8
		c-104.125,0-188.529,84.412-188.529,188.523v1207.001c0,102.619,65.378,188.309,170.995,188.309
		C267.38,1683.07,318.036,1548.037,357.476,1449.832z"/>
	<g>
		<path d="M2032.384,727.358c-14.462-21.006-38.32-33.549-63.832-33.549H883.683c-77.141,0-146.316,47.57-173.874,119.612
			c-70.069,183.151-272.979,709.491-337.178,874.608h1180.383c89.917,0,163.918-47.33,215.633-180.338
			c65.926-169.582,203.904-529.912,272.308-708.718C2050.071,775.154,2046.846,748.364,2032.384,727.358z"/>
	</g>
</g>
</svg>
