<?xml version="1.0" encoding="utf-8"?>
<!-- Generator: Adobe Illustrator 16.0.0, SVG Export Plug-In . SVG Version: 6.00 Build 0)  -->
<!DOCTYPE svg PUBLIC "-//W3C//DTD SVG 1.1//EN" "http://www.w3.org/Graphics/SVG/1.1/DTD/svg11.dtd">
<svg version="1.1" id="Layer_1" xmlns="http://www.w3.org/2000/svg" xmlns:xlink="http://www.w3.org/1999/xlink" x="0px" y="0px"
	 width="1792px" height="1792px" viewBox="0 0 1792 1792" enable-background="new 0 0 1792 1792" xml:space="preserve">
<g>
	<path d="M1555.077,1715.943H236.93c-129.888,0-235.559-105.67-235.559-235.553V311.616c0-129.889,105.67-235.559,235.559-235.559
		h341.625c88.411,0,168.576,48.78,209.207,127.306l79.549,153.727h687.766c129.882,0,235.552,105.67,235.552,235.559v887.743
		C1790.629,1610.273,1684.959,1715.943,1555.077,1715.943z M236.93,182.061c-71.434,0-129.555,58.12-129.555,129.555v1168.775
		c0,71.428,58.121,129.549,129.555,129.549h1318.147c71.428,0,129.549-58.121,129.549-129.549V592.648
		c0-71.435-58.121-129.555-129.549-129.555h-752.27l-109.19-211.019c-22.349-43.185-66.436-70.014-115.062-70.014H236.93z"/>
</g>
</svg>
