<?xml version="1.0" encoding="utf-8"?>
<!-- Generator: Adobe Illustrator 16.0.0, SVG Export Plug-In . SVG Version: 6.00 Build 0)  -->
<!DOCTYPE svg PUBLIC "-//W3C//DTD SVG 1.1//EN" "http://www.w3.org/Graphics/SVG/1.1/DTD/svg11.dtd">
<svg version="1.1" id="Layer_1" xmlns="http://www.w3.org/2000/svg" xmlns:xlink="http://www.w3.org/1999/xlink" x="0px" y="0px"
	 width="1792px" height="1792px" viewBox="0 0 1792 1792" enable-background="new 0 0 1792 1792" xml:space="preserve">
<g>
	<g>
		<path d="M896,1778.035c-486.357,0-882.035-395.689-882.035-882.047C13.965,409.643,409.643,13.965,896,13.965
			s882.035,395.678,882.035,882.023C1778.035,1382.346,1382.357,1778.035,896,1778.035z M896,124.29
			c-425.521,0-771.71,346.177-771.71,771.698c0,425.533,346.189,771.723,771.71,771.723c425.521,0,771.711-346.189,771.711-771.723
			C1667.711,470.467,1321.521,124.29,896,124.29z"/>
	</g>
	<g>
		<path d="M1317.499,1324.431c-15.922,0-31.711-6.859-42.617-20.111c-93.637-113.749-231.734-178.99-378.882-178.99
			s-285.245,65.241-378.876,178.99c-19.375,23.534-54.133,26.898-77.65,7.542c-23.523-19.369-26.893-54.133-7.536-77.645
			c114.67-139.318,283.814-219.213,464.062-219.213s349.386,79.895,464.067,219.213c19.346,23.512,15.981,58.275-7.541,77.645
			C1342.255,1320.313,1329.841,1324.431,1317.499,1324.431z"/>
	</g>
	<g>
		<g>
			<path d="M683.981,682.605c0,67.385-54.636,122.021-122.021,122.021c-67.384,0-122.02-54.636-122.02-122.021
				s54.636-122.021,122.02-122.021C629.346,560.585,683.981,615.221,683.981,682.605z"/>
		</g>
		<g>
			<path d="M1352.06,682.605c0,67.385-54.636,122.021-122.021,122.021s-122.021-54.636-122.021-122.021
				s54.636-122.021,122.021-122.021S1352.06,615.221,1352.06,682.605z"/>
		</g>
	</g>
</g>
</svg>
