<?xml version="1.0" encoding="utf-8"?>
<!-- Generator: Adobe Illustrator 16.0.0, SVG Export Plug-In . SVG Version: 6.00 Build 0)  -->
<!DOCTYPE svg PUBLIC "-//W3C//DTD SVG 1.1//EN" "http://www.w3.org/Graphics/SVG/1.1/DTD/svg11.dtd">
<svg version="1.1" id="Layer_1" xmlns="http://www.w3.org/2000/svg" xmlns:xlink="http://www.w3.org/1999/xlink" x="0px" y="0px"
	 width="200px" height="200px" viewBox="796 796 200 200" enable-background="new 796 796 200 200" xml:space="preserve">
<g>
	<g>
		<path d="M896,996c-55.141,0-100-44.861-100-100.001C796,840.86,840.859,796,896,796s100,44.86,100,99.999
			C996,951.139,951.141,996,896,996z M896,808.508c-48.243,0-87.492,39.248-87.492,87.491c0,48.245,39.249,87.494,87.492,87.494
			s87.492-39.249,87.492-87.494C983.492,847.755,944.243,808.508,896,808.508z"/>
	</g>
	<g>
		<path d="M943.787,944.573c-1.805,0-3.596-0.778-4.832-2.28C928.34,929.396,912.683,922,896,922s-32.339,7.396-42.955,20.293
			c-2.197,2.668-6.137,3.05-8.804,0.855c-2.667-2.196-3.049-6.138-0.854-8.804c13-15.795,32.177-24.853,52.612-24.853
			s39.611,9.058,52.613,24.853c2.193,2.666,1.812,6.607-0.855,8.804C946.594,944.106,945.187,944.573,943.787,944.573z"/>
	</g>
	<g>
		<g>
			<path d="M871.962,871.807c0,7.64-6.194,13.834-13.834,13.834s-13.834-6.194-13.834-13.834s6.194-13.834,13.834-13.834
				C865.769,857.973,871.962,864.167,871.962,871.807z"/>
		</g>
		<g>
			<path d="M947.705,871.807c0,7.64-6.193,13.834-13.834,13.834c-7.639,0-13.834-6.194-13.834-13.834s6.195-13.834,13.834-13.834
				C941.512,857.973,947.705,864.167,947.705,871.807z"/>
		</g>
	</g>
</g>
</svg>
