<?xml version="1.0" encoding="utf-8"?>
<!-- Generator: Adobe Illustrator 16.0.0, SVG Export Plug-In . SVG Version: 6.00 Build 0)  -->
<!DOCTYPE svg PUBLIC "-//W3C//DTD SVG 1.1//EN" "http://www.w3.org/Graphics/SVG/1.1/DTD/svg11.dtd">
<svg version="1.1" id="Layer_1" xmlns="http://www.w3.org/2000/svg" xmlns:xlink="http://www.w3.org/1999/xlink" x="0px" y="0px"
	 width="200px" height="200px" viewBox="796 796 200 200" enable-background="new 796 796 200 200" xml:space="preserve">
<g>
	<path d="M936.46,868.211c4.939,4.94,12.946,4.938,17.884,0c4.94-4.938,4.941-12.946,0-17.885l-50.619-50.622
		c-4.94-4.94-12.947-4.938-17.887,0c-4.939,4.938-4.939,12.946,0,17.885L936.46,868.211z"/>
	<path d="M817.588,885.841c-4.938-4.94-12.946-4.94-17.884,0c-4.939,4.938-4.941,12.945,0,17.885l50.619,50.619
		c4.94,4.94,12.946,4.94,17.887,0c4.94-4.938,4.94-12.946,0-17.886L817.588,885.841z"/>
	<path d="M989.605,963.929l-75.06-63.993c3.388-3.902,6.598-7.964,9.563-12.216l1.549-2.22c3.202-4.592,2.651-10.82-1.308-14.779
		L883.328,829.7c-3.959-3.959-10.187-4.509-14.779-1.307l-3.618,2.523c-13.254,9.244-24.769,20.759-34.014,34.012l-2.524,3.619
		c-3.203,4.593-2.653,10.822,1.306,14.78l41.023,41.021c3.959,3.959,10.186,4.51,14.778,1.307l2.22-1.549
		c4.25-2.964,8.312-6.172,12.213-9.558l63.994,75.058c3.297,3.867,8.06,6.181,13.136,6.38c5.079,0.202,10.01-1.725,13.603-5.317
		c3.595-3.593,5.522-8.523,5.32-13.602C995.785,971.988,993.471,967.227,989.605,963.929z"/>
</g>
</svg>
