<?xml version="1.0" encoding="utf-8"?>
<!-- Generator: Adobe Illustrator 16.0.0, SVG Export Plug-In . SVG Version: 6.00 Build 0)  -->
<!DOCTYPE svg PUBLIC "-//W3C//DTD SVG 1.1//EN" "http://www.w3.org/Graphics/SVG/1.1/DTD/svg11.dtd">
<svg version="1.1" id="Layer_1" xmlns="http://www.w3.org/2000/svg" xmlns:xlink="http://www.w3.org/1999/xlink" x="0px" y="0px"
	 width="1792px" height="1792px" viewBox="0 0 1792 1792" enable-background="new 0 0 1792 1792" xml:space="preserve">
<g>
	<path d="M1253.251,650.632c43.619,43.62,114.313,43.597,157.91,0c43.621-43.608,43.633-114.314,0-157.923L964.206,45.729
		c-43.621-43.62-114.315-43.597-157.935,0c-43.608,43.609-43.608,114.314,0,157.923L1253.251,650.632z"/>
	<path d="M203.64,806.296c-43.597-43.621-114.314-43.621-157.911,0c-43.608,43.597-43.632,114.302,0,157.923l446.956,446.955
		c43.62,43.62,114.314,43.62,157.934,0c43.621-43.608,43.621-114.314,0-157.923L203.64,806.296z"/>
	<path d="M1722.513,1495.788l-662.752-565.042c29.912-34.454,58.252-70.321,84.438-107.868l13.674-19.599
		c28.279-40.545,23.418-95.538-11.545-130.494L784.106,310.587c-34.957-34.957-89.949-39.818-130.494-11.538l-31.941,22.277
		c-117.029,81.623-218.705,183.293-300.334,300.316l-22.289,31.952c-28.286,40.551-23.425,95.55,11.532,130.506l362.222,362.204
		c34.956,34.951,89.938,39.813,130.488,11.532l19.604-13.673c37.535-26.174,73.391-54.502,107.838-84.39l565.055,662.738
		c29.107,34.146,71.166,54.573,115.982,56.336c44.85,1.785,88.387-15.234,120.109-46.956
		c31.746-31.722,48.766-75.259,46.979-120.099C1777.085,1566.956,1756.647,1524.909,1722.513,1495.788z"/>
</g>
</svg>
