<?xml version="1.0" encoding="utf-8"?>
<!-- Generator: Adobe Illustrator 16.0.0, SVG Export Plug-In . SVG Version: 6.00 Build 0)  -->
<!DOCTYPE svg PUBLIC "-//W3C//DTD SVG 1.1//EN" "http://www.w3.org/Graphics/SVG/1.1/DTD/svg11.dtd">
<svg version="1.1" id="Layer_1" xmlns="http://www.w3.org/2000/svg" xmlns:xlink="http://www.w3.org/1999/xlink" x="0px" y="0px"
	 width="200px" height="200px" viewBox="796 796 200 200" enable-background="new 796 796 200 200" xml:space="preserve">
<path d="M979.476,839.264H962.02c5.251-3.266,9.465-7.06,12.189-11.206c4.105-6.246,4.836-13.22,2.061-19.638
	c-3.717-8.596-12.723-13.094-24.765-12.337c-18.979,1.193-43.398,15.084-55.508,34.752c-12.109-19.668-36.529-33.56-55.508-34.752
	c-12.024-0.75-21.047,3.742-24.764,12.337c-2.776,6.418-2.045,13.393,2.06,19.638c2.724,4.146,6.938,7.94,12.189,11.206h-17.45
	c-8.063,0-14.623,6.56-14.623,14.623v30.005c0,6.92,4.838,12.721,11.307,14.229v83.258c0,8.063,6.56,14.622,14.622,14.622h144.336
	c8.063,0,14.622-6.56,14.622-14.622v-83.257c6.47-1.507,11.311-7.308,11.311-14.229v-30.005
	C994.099,845.824,987.539,839.264,979.476,839.264z M982.123,853.887v30.005c0,1.459-1.188,2.647-2.647,2.647h-62.04V851.24h62.04
	C980.936,851.24,982.123,852.427,982.123,853.887z M952.256,808.035c4.797-0.306,10.949,0.345,13.022,5.138
	c0.746,1.727,1.448,4.468-1.077,8.309c-5.743,8.741-25.297,17.782-48.078,17.782h-8.26c-0.617,0-1.187-0.335-1.486-0.876
	c-0.299-0.541-0.28-1.2,0.047-1.724C916.34,820.797,936.619,809.017,952.256,808.035z M827.794,821.482
	c-2.524-3.841-1.824-6.582-1.077-8.309c2.073-4.793,8.229-5.438,13.021-5.138c15.637,0.982,35.916,12.762,45.833,28.63
	c0.327,0.523,0.345,1.183,0.045,1.723c-0.299,0.54-0.867,0.876-1.484,0.876h-8.26C853.091,839.264,833.536,830.223,827.794,821.482z
	 M809.877,853.887c0-1.459,1.188-2.647,2.647-2.647h61.733v35.298h-61.733c-1.46,0-2.647-1.188-2.647-2.646V853.887L809.877,853.887
	z M821.184,981.378v-81.162c0-0.938,0.761-1.699,1.698-1.699h51.376v85.508H823.83C822.371,984.024,821.184,982.837,821.184,981.378
	z M970.813,981.378c0,1.459-1.188,2.646-2.646,2.646h-50.73v-85.508h51.679c0.938,0,1.698,0.761,1.698,1.699V981.378z"/>
</svg>
