<?xml version="1.0" encoding="utf-8"?>
<!-- Generator: Adobe Illustrator 16.0.0, SVG Export Plug-In . SVG Version: 6.00 Build 0)  -->
<!DOCTYPE svg PUBLIC "-//W3C//DTD SVG 1.1//EN" "http://www.w3.org/Graphics/SVG/1.1/DTD/svg11.dtd">
<svg version="1.1" id="Layer_1" xmlns="http://www.w3.org/2000/svg" xmlns:xlink="http://www.w3.org/1999/xlink" x="0px" y="0px"
	 width="2048px" height="1331.903px" viewBox="0 220.5 2048 1331.903" enable-background="new 0 220.5 2048 1331.903"
	 xml:space="preserve">
<g>
	<g>
		<path d="M622.278,488.368c0,142.683-97.939,258.346-218.737,258.346c-120.797,0-218.717-115.663-218.717-258.346
			c0-142.67,97.92-258.319,218.717-258.319C524.339,230.049,622.278,345.698,622.278,488.368z"/>
		<path d="M652.861,943.934c15.797-9.637,33.277-15.896,51.376-18.906c-36.756-51.855-62.789-107.485-77.837-174.054
			c-4.122-24.323-37.433-27.177-62.19-6.994c-46.327,37.773-100.378,63.044-160.669,63.044c-61.46,0-117.99-24.455-163.324-65.372
			c-14.463-13.068-35.77-15.041-52.408-4.877C101.748,789.34,36.612,872.777,8.199,971.859
			c-7.625,26.572-2.268,55.248,14.378,77.352c16.678,22.074,42.725,35.092,70.388,35.092h394.112
			C534.246,1029.869,589.915,982.365,652.861,943.934z"/>
	</g>
	<g>
		<path d="M1425.709,488.368c0,142.683,97.953,258.346,218.744,258.346s218.718-115.663,218.718-258.346
			c0-142.67-97.927-258.319-218.718-258.319S1425.709,345.698,1425.709,488.368z"/>
		<path d="M1395.127,943.934c-15.791-9.637-33.265-15.896-51.369-18.906c36.748-51.855,62.781-107.485,77.836-174.054
			c4.115-24.323,37.433-27.177,62.19-6.994c46.32,37.773,100.385,63.044,160.669,63.044c61.467,0,117.99-24.455,163.325-65.372
			c14.463-13.068,35.775-15.041,52.408-4.877c86.054,52.565,151.188,136.003,179.615,235.085
			c7.626,26.572,2.261,55.248-14.385,77.352c-16.671,22.074-42.73,35.092-70.395,35.092h-394.099
			C1513.748,1029.869,1458.08,982.365,1395.127,943.934z"/>
	</g>
	<g>
		<path d="M1619.972,1370.063c-42.798-149.357-139.839-275.625-268.331-356.623c-25.353-15.981-58.244-13.383-80.733,6.426
			c-68.944,60.723-154.259,96.888-246.91,96.888c-94.463,0-181.327-37.568-250.991-100.46
			c-22.237-20.074-54.966-23.099-80.534-7.486c-132.265,80.763-232.373,208.988-276.02,361.256
			c-11.734,40.852-3.504,84.897,22.075,118.872c25.639,33.935,65.668,53.92,108.183,53.92h942.991
			c42.533,0,82.583-19.919,108.222-53.92C1623.521,1454.96,1631.7,1410.953,1619.972,1370.063z"/>
		<path d="M1360.14,627.04c0,219.257-150.505,397.019-336.143,397.019c-185.637,0-336.123-177.762-336.123-397.019
			c0-219.282,150.486-396.991,336.123-396.991C1209.635,230.049,1360.14,407.758,1360.14,627.04z"/>
	</g>
</g>
</svg>
