<?xml version="1.0" encoding="utf-8"?>
<!-- Generator: Adobe Illustrator 16.0.0, SVG Export Plug-In . SVG Version: 6.00 Build 0)  -->
<!DOCTYPE svg PUBLIC "-//W3C//DTD SVG 1.1//EN" "http://www.w3.org/Graphics/SVG/1.1/DTD/svg11.dtd">
<svg version="1.1" id="Layer_1" xmlns="http://www.w3.org/2000/svg" xmlns:xlink="http://www.w3.org/1999/xlink" x="0px" y="0px"
	 width="200px" height="200px" viewBox="924 796 200 200" enable-background="new 924 796 200 200" xml:space="preserve">
<g>
	<path d="M970.049,877.115c12.065,0,21.847-9.78,21.847-21.848c0-12.067-9.782-21.847-21.847-21.847
		c-12.064,0-21.847,9.779-21.847,21.847C948.202,867.334,957.984,877.115,970.049,877.115z"/>
	<path d="M1124,885.157c0-8.533-5.435-16.094-13.525-18.813l-83.799-28.165c-6.042-2.031-12.735-1.023-17.909,2.697
		c-5.174,3.719-8.263,9.743-8.263,16.116v22.342c0,2.826-2.299,5.125-5.125,5.125H953.22c-4.065,0-7.361,3.296-7.361,7.361
		s3.295,7.361,7.361,7.361h42.159c10.943,0,19.847-8.904,19.847-19.848v-22.342c0-1.646,0.797-3.2,2.133-4.161
		c1.336-0.96,3.063-1.221,4.625-0.697l83.8,28.165c2.089,0.703,3.492,2.655,3.492,4.858v16.8c0,1.697-1.375,3.073-3.072,3.073
		c-21.038,0-143.391,0-164.41,0c-1.697,0-3.073-1.376-3.073-3.072v-61.39c0-4.066-3.295-7.361-7.361-7.361
		c-4.066,0-7.361,3.295-7.361,7.361v110.863c0,4.064,3.295,7.361,7.361,7.361c4.065,0,7.361-3.297,7.361-7.361v-28.607
		c0-1.696,1.375-3.072,3.073-3.072c21.019-0.001,143.374-0.006,164.407-0.007c1.697,0,3.073,1.375,3.073,3.072v28.614
		c0,4.065,3.296,7.361,7.361,7.361c4.064,0,7.361-3.296,7.361-7.361v-23.179c0-0.018,0.002-0.035,0.002-0.052V885.157L1124,885.157z
		"/>
</g>
</svg>
