<?xml version="1.0" encoding="utf-8"?>
<!-- Generator: Adobe Illustrator 16.0.0, SVG Export Plug-In . SVG Version: 6.00 Build 0)  -->
<!DOCTYPE svg PUBLIC "-//W3C//DTD SVG 1.1//EN" "http://www.w3.org/Graphics/SVG/1.1/DTD/svg11.dtd">
<svg version="1.1" id="Layer_1" xmlns="http://www.w3.org/2000/svg" xmlns:xlink="http://www.w3.org/1999/xlink" x="0px" y="0px"
	 width="200px" height="200px" viewBox="796 796 200 200" enable-background="new 796 796 200 200" xml:space="preserve">
<path d="M962.065,980.083h-6.636v-11.441c0-24.158-14.59-46.992-33.519-62.003l-7.792-6.177c-1.361-1.079-2.154-2.723-2.154-4.46
	c0-1.737,0.793-3.38,2.154-4.459l7.792-6.178c18.929-15.011,33.519-37.847,33.519-62.005v-11.442h6.636
	c4.396,0,7.958-3.563,7.958-7.958c0-4.396-3.563-7.959-7.958-7.959H829.935c-4.395,0-7.958,3.563-7.958,7.959
	c0,4.396,3.563,7.958,7.958,7.958h6.636v9.246c0,25.396,12.19,49.249,32.772,64.127l8.434,6.099c1.48,1.07,2.357,2.785,2.357,4.612
	c0,1.827-0.876,3.542-2.357,4.613l-8.433,6.096c-20.583,14.88-32.773,38.732-32.773,64.127v9.246h-6.635
	c-4.395,0-7.958,3.563-7.958,7.959c0,4.395,3.563,7.958,7.958,7.958h132.131c4.396,0,7.958-3.563,7.958-7.958
	C970.023,983.646,966.461,980.083,962.065,980.083z"/>
</svg>
