<?xml version="1.0" encoding="utf-8"?>
<!-- Generator: Adobe Illustrator 16.0.0, SVG Export Plug-In . SVG Version: 6.00 Build 0)  -->
<!DOCTYPE svg PUBLIC "-//W3C//DTD SVG 1.1//EN" "http://www.w3.org/Graphics/SVG/1.1/DTD/svg11.dtd">
<svg version="1.1" id="Layer_1" xmlns="http://www.w3.org/2000/svg" xmlns:xlink="http://www.w3.org/1999/xlink" x="0px" y="0px"
	 width="1792px" height="1792px" viewBox="0 0 1792 1792" enable-background="new 0 0 1792 1792" xml:space="preserve">
<path d="M1522.525,1642.813h-45.129v-81.799c0-242.045-117.117-471.215-313.305-613.055l-71.863-51.941l71.863-51.978
	c196.176-141.805,313.305-370.986,313.305-613.043v-81.812h45.129c39.252,0,71.076-31.824,71.076-71.076
	c0-39.251-31.824-71.076-71.076-71.076H269.475c-39.252,0-71.076,31.825-71.076,71.076c0,39.252,31.824,71.076,71.076,71.076h45.116
	v101.316c0,213.239,118.889,434.832,318.026,592.752l66.542,52.764l-66.542,52.75c-199.138,157.897-318.026,379.479-318.026,592.741
	v101.304h-45.116c-39.252,0-71.076,31.825-71.076,71.076c0,39.252,31.824,71.076,71.076,71.076h1253.051
	c39.252,0,71.076-31.824,71.076-71.076C1593.602,1674.639,1561.777,1642.813,1522.525,1642.813z M421.205,1541.51
	c0-180.999,103.798-371.356,277.647-509.193l69.266-54.915c24.987-19.84,39.314-49.502,39.314-81.383
	c0-31.918-14.345-61.591-39.338-81.407l-69.236-54.903C525.003,621.847,421.205,431.49,421.205,250.502v-49.285
	c0-28.736,23.296-52.032,52.032-52.032h845.515c28.736,0,52.031,23.295,52.031,52.032v29.78
	c0,207.941-100.609,404.813-269.162,526.639l-74.928,54.198c-26.932,19.47-43.012,50.936-43.012,84.184
	c0,33.235,16.08,64.713,43.023,84.194l74.928,54.152c168.541,121.85,269.15,318.72,269.15,526.65v29.768
	c0,28.736-23.295,52.031-52.031,52.031H473.237c-28.736,0-52.032-23.295-52.032-52.031V1541.51z"/>
</svg>
