<?xml version="1.0" encoding="utf-8"?>
<!-- Generator: Adobe Illustrator 16.0.0, SVG Export Plug-In . SVG Version: 6.00 Build 0)  -->
<!DOCTYPE svg PUBLIC "-//W3C//DTD SVG 1.1//EN" "http://www.w3.org/Graphics/SVG/1.1/DTD/svg11.dtd">
<svg version="1.1" id="Layer_1" xmlns="http://www.w3.org/2000/svg" xmlns:xlink="http://www.w3.org/1999/xlink" x="0px" y="0px"
	 width="200px" height="200px" viewBox="796 796 200 200" enable-background="new 796 796 200 200" xml:space="preserve">
<g>
	<path d="M939.738,967.044c-2.867-16.875-12.071-32.797-25.945-42.713c-7.738-5.529-13.828-8.004-17.794-8.004
		c-3.965,0-10.055,2.475-17.793,8.004c-13.875,9.916-23.08,25.838-25.946,42.713c-0.204,1.199,0.132,2.426,0.917,3.354
		c0.784,0.929,1.938,1.462,3.153,1.462h79.338c1.214,0,2.365-0.536,3.148-1.463C939.602,969.469,939.941,968.241,939.738,967.044z"
		/>
	<path d="M966.479,980.01h-5.077v-9.202c0-27.228-13.175-53.007-35.243-68.963l-8.084-5.843l8.084-5.847
		c22.067-15.952,35.243-41.732,35.243-68.961v-9.203h5.077c4.415,0,7.994-3.58,7.994-7.995c0-4.416-3.579-7.996-7.994-7.996H825.522
		c-4.416,0-7.996,3.58-7.996,7.996c0,4.415,3.58,7.995,7.996,7.995h5.075v11.397c0,23.988,13.374,48.915,35.775,66.679l7.485,5.935
		l-7.485,5.935c-22.401,17.762-35.775,42.687-35.775,66.677v11.396h-5.075c-4.416,0-7.996,3.58-7.996,7.995s3.58,7.995,7.996,7.995
		h140.957c4.415,0,7.995-3.58,7.995-7.995S970.894,980.01,966.479,980.01z M842.59,968.614c0-20.361,11.676-41.774,31.233-57.279
		l7.792-6.178c2.811-2.231,4.423-5.568,4.423-9.155c0-3.59-1.614-6.928-4.425-9.157l-7.789-6.176
		c-19.557-15.508-31.233-36.921-31.233-57.281v-5.544c0-3.232,2.621-5.853,5.854-5.853h95.112c3.232,0,5.853,2.621,5.853,5.853v3.35
		c0,23.391-11.317,45.537-30.277,59.242l-8.43,6.097c-3.029,2.19-4.838,5.73-4.838,9.47c0,3.739,1.809,7.279,4.84,9.472l8.429,6.091
		c18.959,13.707,30.276,35.854,30.276,59.243v3.349c0,3.232-2.62,5.854-5.853,5.854h-95.112c-3.233,0-5.854-2.62-5.854-5.854
		V968.614L842.59,968.614z"/>
</g>
</svg>
