<?xml version="1.0" encoding="utf-8"?>
<!-- Generator: Adobe Illustrator 16.0.0, SVG Export Plug-In . SVG Version: 6.00 Build 0)  -->
<!DOCTYPE svg PUBLIC "-//W3C//DTD SVG 1.1//EN" "http://www.w3.org/Graphics/SVG/1.1/DTD/svg11.dtd">
<svg version="1.1" id="Layer_1" xmlns="http://www.w3.org/2000/svg" xmlns:xlink="http://www.w3.org/1999/xlink" x="0px" y="0px"
	 width="200px" height="200px" viewBox="796 796 200 200" enable-background="new 796 796 200 200" xml:space="preserve">
<g>
	<path d="M939.741,830.286c0.203-1.198-0.133-2.425-0.918-3.354c-0.784-0.928-1.938-1.461-3.153-1.461h-79.338
		c-1.214,0-2.365,0.536-3.149,1.462c-0.784,0.928-1.124,2.155-0.92,3.352c2.866,16.876,12.069,32.798,25.945,42.714
		c7.737,5.529,13.828,8.003,17.793,8.003s10.056-2.474,17.793-8.003C927.67,863.083,936.874,847.162,939.741,830.286z"/>
	<path d="M966.478,980.009h-5.074v-11.396c0-23.987-13.374-48.915-35.775-66.679l-7.485-5.936l7.485-5.934
		c22.401-17.762,35.775-42.688,35.775-66.678v-11.396h5.074c4.416,0,7.996-3.58,7.996-7.996s-3.58-7.995-7.996-7.995H825.522
		c-4.416,0-7.996,3.58-7.996,7.995s3.58,7.996,7.996,7.996h5.076v9.201c0,27.228,13.175,53.007,35.243,68.963l8.085,5.843
		l-8.085,5.847c-22.068,15.951-35.243,41.732-35.243,68.961v9.203h-5.076c-4.416,0-7.996,3.58-7.996,7.996
		c0,4.415,3.58,7.995,7.996,7.995h140.956c4.415,0,7.995-3.58,7.995-7.995C974.474,983.589,970.894,980.009,966.478,980.009z
		 M842.592,970.806c0-23.391,11.318-45.537,30.277-59.241l8.429-6.097c3.03-2.19,4.839-5.729,4.839-9.47
		c0-3.739-1.809-7.28-4.84-9.471l-8.429-6.091c-18.958-13.707-30.276-35.853-30.276-59.243v-3.349c0-3.233,2.62-5.853,5.853-5.853
		h95.112c3.233,0,5.854,2.62,5.854,5.853v5.542c0,20.36-11.676,41.774-31.232,57.279l-7.792,6.177
		c-2.811,2.232-4.422,5.568-4.422,9.155c0,3.588,1.611,6.926,4.425,9.157l7.788,6.176c19.558,15.508,31.233,36.922,31.233,57.281
		v5.544c0,3.232-2.62,5.853-5.853,5.853h-95.113c-3.232,0-5.853-2.62-5.853-5.853V970.806z"/>
</g>
</svg>
