<?xml version="1.0" encoding="utf-8"?>
<!-- Generator: Adobe Illustrator 16.0.0, SVG Export Plug-In . SVG Version: 6.00 Build 0)  -->
<!DOCTYPE svg PUBLIC "-//W3C//DTD SVG 1.1//EN" "http://www.w3.org/Graphics/SVG/1.1/DTD/svg11.dtd">
<svg version="1.1" id="Layer_1" xmlns="http://www.w3.org/2000/svg" xmlns:xlink="http://www.w3.org/1999/xlink" x="0px" y="0px"
	 width="200px" height="200px" viewBox="796 796 200 200" enable-background="new 796 796 200 200" xml:space="preserve">
<path d="M966.479,980.01h-5.077v-9.201c0-27.229-13.175-53.008-35.244-68.963l-8.083-5.844l8.083-5.847
	c22.068-15.951,35.244-41.732,35.244-68.961v-9.203h5.077c4.415,0,7.995-3.58,7.995-7.996c0-4.415-3.58-7.995-7.995-7.995H825.522
	c-4.416,0-7.996,3.58-7.996,7.995c0,4.416,3.58,7.996,7.996,7.996h5.074v11.396c0,23.987,13.374,48.915,35.775,66.679l7.485,5.936
	l-7.485,5.935c-22.401,17.762-35.775,42.688-35.775,66.678v11.396h-5.074c-4.416,0-7.996,3.58-7.996,7.995
	c0,4.416,3.58,7.995,7.996,7.995h140.956c4.415,0,7.995-3.579,7.995-7.995C974.474,983.59,970.894,980.01,966.479,980.01z
	 M842.59,968.614c0-20.36,11.677-41.773,31.232-57.279l7.792-6.178c2.812-2.231,4.423-5.568,4.423-9.154
	c0-3.591-1.614-6.929-4.425-9.158l-7.789-6.176c-19.557-15.508-31.233-36.922-31.233-57.281v-5.544c0-3.232,2.621-5.853,5.854-5.853
	h95.112c3.232,0,5.853,2.62,5.853,5.853v3.351c0,23.391-11.317,45.537-30.277,59.241l-8.429,6.097c-3.03,2.19-4.839,5.73-4.839,9.47
	s1.809,7.28,4.84,9.472l8.429,6.092c18.959,13.707,30.276,35.853,30.276,59.243v3.349c0,3.232-2.62,5.853-5.853,5.853h-95.112
	c-3.232,0-5.854-2.62-5.854-5.853V968.614z"/>
</svg>
