<?xml version="1.0" encoding="utf-8"?>
<!-- Generator: Adobe Illustrator 16.0.0, SVG Export Plug-In . SVG Version: 6.00 Build 0)  -->
<!DOCTYPE svg PUBLIC "-//W3C//DTD SVG 1.1//EN" "http://www.w3.org/Graphics/SVG/1.1/DTD/svg11.dtd">
<svg version="1.1" id="Layer_1" xmlns="http://www.w3.org/2000/svg" xmlns:xlink="http://www.w3.org/1999/xlink" x="0px" y="0px"
	 width="1792px" height="1792px" viewBox="0 0 1792 1792" enable-background="new 0 0 1792 1792" xml:space="preserve">
<g>
	<path d="M1284.756,1527.458c-25.48-149.995-107.291-291.512-230.613-379.648c-68.773-49.146-122.906-71.135-158.148-71.135
		c-35.243,0-89.375,21.988-158.149,71.135c-123.328,88.137-205.144,229.653-230.62,379.648c-1.81,10.652,1.174,21.56,8.149,29.807
		c6.969,8.246,17.228,12.989,28.025,12.989h705.176c10.791,0,21.027-4.766,27.99-13.001
		C1283.541,1549.006,1286.561,1538.099,1284.756,1527.458z"/>
	<path d="M1522.426,1642.694h-45.121v-81.787c0-242.006-117.1-471.139-313.256-612.955l-71.852-51.936l71.852-51.968
		c196.145-141.783,313.256-370.928,313.256-612.945v-81.799h45.121c39.244,0,71.064-31.819,71.064-71.064
		s-31.82-71.064-71.064-71.064H269.574c-39.246,0-71.065,31.819-71.065,71.064s31.819,71.064,71.065,71.064h45.109v101.3
		c0,213.206,118.869,434.763,317.976,592.657l66.531,52.755l-66.531,52.744c-199.106,157.871-317.976,379.417-317.976,592.646
		v101.287h-45.109c-39.246,0-71.065,31.82-71.065,71.065s31.819,71.064,71.065,71.064h1252.852
		c39.244,0,71.064-31.819,71.064-71.064S1561.67,1642.694,1522.426,1642.694z M421.281,1541.407
		c0-180.971,103.781-371.297,277.603-509.113l69.255-54.906c24.984-19.836,39.309-49.493,39.309-81.37
		c0-31.912-14.343-61.58-39.332-81.394l-69.226-54.895C525.062,621.891,421.281,431.563,421.281,250.604v-49.276
		c0-28.732,23.292-52.023,52.023-52.023h845.379c28.731,0,52.023,23.292,52.023,52.023v29.775
		c0,207.908-100.594,404.748-269.117,526.555l-74.916,54.189c-26.928,19.467-43.006,50.928-43.006,84.17
		c0,33.23,16.078,64.703,43.016,84.182l74.918,54.143c168.512,121.83,269.105,318.669,269.105,526.566v29.764
		c0,28.731-23.292,52.023-52.023,52.023H473.304c-28.732,0-52.023-23.292-52.023-52.023V1541.407z"/>
</g>
</svg>
