<?xml version="1.0" encoding="utf-8"?>
<!-- Generator: Adobe Illustrator 16.0.0, SVG Export Plug-In . SVG Version: 6.00 Build 0)  -->
<!DOCTYPE svg PUBLIC "-//W3C//DTD SVG 1.1//EN" "http://www.w3.org/Graphics/SVG/1.1/DTD/svg11.dtd">
<svg version="1.1" id="Layer_1" xmlns="http://www.w3.org/2000/svg" xmlns:xlink="http://www.w3.org/1999/xlink" x="0px" y="0px"
	 width="1792px" height="1792px" viewBox="0 0 1792 1792" enable-background="new 0 0 1792 1792" xml:space="preserve">
<g>
	<path d="M1287.505,307.825c1.817-10.727-1.188-21.711-8.213-30.016c-7.023-8.305-17.342-13.079-28.222-13.079H540.952
		c-10.866,0-21.175,4.798-28.191,13.091c-7.019,8.306-10.059,19.289-8.236,30.004c25.654,151.046,108.032,293.555,232.224,382.309
		c69.258,49.491,123.769,71.634,159.258,71.634c35.491,0,90.001-22.143,159.258-71.634
		C1179.461,601.38,1261.845,458.871,1287.505,307.825z"/>
	<path d="M1526.815,1647.926h-45.425v-102.01c0-214.699-119.702-437.809-320.204-596.811l-66.997-53.124l66.997-53.112
		c200.502-158.978,320.204-382.076,320.204-596.799V144.073h45.425c39.521,0,71.563-32.043,71.563-71.563
		c0-39.521-32.042-71.563-71.563-71.563H265.185c-39.521,0-71.563,32.042-71.563,71.563c0,39.52,32.042,71.563,71.563,71.563h45.438
		v82.358c0,243.703,117.92,474.441,315.445,617.253l72.367,52.297l-72.367,52.332c-197.52,142.776-315.445,373.526-315.445,617.241
		v82.371h-45.438c-39.521,0-71.563,32.042-71.563,71.563s32.042,71.563,71.563,71.563h1261.631
		c39.521,0,71.563-32.043,71.563-71.563S1566.336,1647.926,1526.815,1647.926z M417.966,1565.555
		c0-209.365,101.305-407.584,270.999-530.244l75.447-54.57c27.115-19.602,43.306-51.283,43.306-84.758
		c0-33.463-16.19-65.156-43.317-84.771l-75.441-54.522C519.271,634.004,417.966,435.786,417.966,226.433v-29.972
		c0-28.934,23.455-52.388,52.388-52.388h851.306c28.933,0,52.388,23.455,52.388,52.388v49.609
		c0,182.238-104.504,373.899-279.543,512.68l-69.744,55.291c-25.162,19.975-39.58,49.839-39.58,81.94
		c0,32.113,14.418,61.989,39.602,81.963l69.711,55.28c175.051,138.805,279.555,330.466,279.555,512.692v49.62
		c0,28.933-23.455,52.388-52.388,52.388H470.354c-28.933,0-52.388-23.455-52.388-52.388V1565.555z"/>
</g>
</svg>
