<?xml version="1.0" encoding="utf-8"?>
<!-- Generator: Adobe Illustrator 16.0.0, SVG Export Plug-In . SVG Version: 6.00 Build 0)  -->
<!DOCTYPE svg PUBLIC "-//W3C//DTD SVG 1.1//EN" "http://www.w3.org/Graphics/SVG/1.1/DTD/svg11.dtd">
<svg version="1.1" id="Layer_1" xmlns="http://www.w3.org/2000/svg" xmlns:xlink="http://www.w3.org/1999/xlink" x="0px" y="0px"
	 width="1792px" height="1792px" viewBox="0 0 1792 1792" enable-background="new 0 0 1792 1792" xml:space="preserve">
<path d="M1486.439,1647.465h-59.307v-102.256c0-215.905-130.389-419.979-299.559-554.129l-69.633-55.21
	c-12.168-9.643-19.264-24.328-19.264-39.858c0-15.53,7.096-30.209,19.264-39.858l69.633-55.209
	c169.17-134.162,299.559-338.249,299.559-554.153V144.535h59.307c39.281,0,71.127-31.842,71.127-71.128
	c0-39.285-31.846-71.127-71.127-71.127H305.56c-39.28,0-71.127,31.842-71.127,71.127c0,39.286,31.847,71.128,71.127,71.128h59.302
	v82.634c0,226.972,108.948,440.145,292.896,573.115l75.375,54.503c13.227,9.562,21.064,24.896,21.064,41.224
	c-0.006,16.323-7.837,31.65-21.07,41.225l-75.37,54.48c-183.947,132.98-292.896,346.154-292.896,573.115v82.633H305.56
	c-39.28,0-71.127,31.849-71.127,71.128c0,39.28,31.847,71.127,71.127,71.127h1180.879c39.281,0,71.127-31.847,71.127-71.127
	C1557.566,1679.313,1525.721,1647.465,1486.439,1647.465z"/>
</svg>
