<?xml version="1.0" encoding="utf-8"?>
<!-- Generator: Adobe Illustrator 16.0.0, SVG Export Plug-In . SVG Version: 6.00 Build 0)  -->
<!DOCTYPE svg PUBLIC "-//W3C//DTD SVG 1.1//EN" "http://www.w3.org/Graphics/SVG/1.1/DTD/svg11.dtd">
<svg version="1.1" id="Layer_1" xmlns="http://www.w3.org/2000/svg" xmlns:xlink="http://www.w3.org/1999/xlink" x="0px" y="0px"
	 width="200px" height="200px" viewBox="796 796 200 200" enable-background="new 796 796 200 200" xml:space="preserve">
<g>
	<path d="M913.794,873c7.49-5.354,13.613-12.46,18.117-20.521c0.713-1.278,0.696-2.838-0.045-4.099
		c-0.74-1.262-2.095-2.033-3.558-2.033h-64.614c-1.463,0-2.815,0.774-3.556,2.035c-0.74,1.26-0.76,2.82-0.047,4.097
		c4.503,8.061,10.625,15.167,18.116,20.521c7.737,5.529,13.827,8.003,17.793,8.003C899.966,881.003,906.056,878.529,913.794,873z"/>
	<path d="M966.479,980.009h-5.075v-11.396c0-23.987-13.374-48.914-35.775-66.679l-7.485-5.936l7.485-5.934
		c22.401-17.762,35.775-42.688,35.775-66.678v-11.396h5.075c4.415,0,7.995-3.58,7.995-7.996c0-4.415-3.58-7.995-7.995-7.995H825.522
		c-4.416,0-7.996,3.58-7.996,7.995c0,4.416,3.58,7.996,7.996,7.996h5.076v9.202c0,27.228,13.175,53.007,35.243,68.963l8.085,5.843
		l-8.085,5.847c-22.068,15.952-35.243,41.732-35.243,68.962v9.203h-5.076c-4.416,0-7.996,3.579-7.996,7.995
		c0,4.415,3.58,7.995,7.996,7.995h140.956c4.415,0,7.995-3.58,7.995-7.995C974.474,983.589,970.894,980.009,966.479,980.009z
		 M842.592,970.807c0-23.392,11.318-45.538,30.277-59.242l8.43-6.097c3.029-2.19,4.838-5.729,4.838-9.47
		c0-3.739-1.809-7.28-4.84-9.471l-8.429-6.091c-18.958-13.707-30.276-35.853-30.276-59.243v-3.349c0-3.232,2.62-5.853,5.853-5.853
		h95.112c3.232,0,5.854,2.621,5.854,5.853v5.543c0,20.36-11.676,41.774-31.232,57.279l-7.792,6.178
		c-2.811,2.231-4.422,5.568-4.422,9.155c0,3.588,1.611,6.926,4.425,9.157l7.788,6.177c19.558,15.508,31.233,36.921,31.233,57.28
		v5.544c0,3.232-2.621,5.853-5.854,5.853h-95.112c-3.232,0-5.853-2.62-5.853-5.853V970.807L842.592,970.807z"/>
	<path d="M937.634,965.696c-8.816-15.463-31.049-30.512-41.633-30.512s-32.817,15.049-41.634,30.512
		c-0.728,1.276-0.722,2.845,0.018,4.114c0.738,1.271,2.098,2.049,3.567,2.049h76.097c1.47,0,2.827-0.781,3.565-2.052
		C938.353,968.539,938.361,966.973,937.634,965.696z"/>
</g>
</svg>
