<?xml version="1.0" encoding="utf-8"?>
<!-- Generator: Adobe Illustrator 16.0.0, SVG Export Plug-In . SVG Version: 6.00 Build 0)  -->
<!DOCTYPE svg PUBLIC "-//W3C//DTD SVG 1.1//EN" "http://www.w3.org/Graphics/SVG/1.1/DTD/svg11.dtd">
<svg version="1.1" id="Layer_1" xmlns="http://www.w3.org/2000/svg" xmlns:xlink="http://www.w3.org/1999/xlink" x="0px" y="0px"
	 width="200px" height="200px" viewBox="796 796 200 200" enable-background="new 796 796 200 200" xml:space="preserve">
<g>
	<path d="M913.794,873c7.49-5.354,13.613-12.46,18.116-20.521c0.714-1.278,0.697-2.838-0.043-4.1
		c-0.741-1.262-2.096-2.033-3.559-2.033h-64.615c-1.462,0-2.815,0.774-3.555,2.036c-0.741,1.259-0.76,2.82-0.047,4.096
		c4.503,8.061,10.625,15.167,18.116,20.521c7.738,5.529,13.828,8.003,17.793,8.003C899.966,881.002,906.056,878.529,913.794,873z"/>
	<path d="M966.479,980.009h-5.076v-11.396c0-23.987-13.373-48.915-35.774-66.679l-7.485-5.936l7.485-5.934
		c22.401-17.762,35.774-42.688,35.774-66.678V811.99h5.076c4.415,0,7.995-3.58,7.995-7.995s-3.58-7.995-7.995-7.995H825.522
		c-4.416,0-7.996,3.58-7.996,7.995s3.58,7.995,7.996,7.995h5.076v9.202c0,27.228,13.175,53.007,35.244,68.962l8.085,5.843
		l-8.085,5.847c-22.068,15.952-35.244,41.732-35.244,68.961v9.203h-5.076c-4.416,0-7.996,3.58-7.996,7.996
		c0,4.415,3.58,7.995,7.996,7.995h140.957c4.415,0,7.995-3.58,7.995-7.995C974.474,983.589,970.894,980.009,966.479,980.009z
		 M842.591,970.806c0-23.391,11.318-45.537,30.278-59.241l8.429-6.097c3.029-2.19,4.838-5.729,4.838-9.47
		c0-3.739-1.809-7.28-4.84-9.471l-8.429-6.091c-18.958-13.707-30.277-35.854-30.277-59.243v-3.349c0-3.233,2.621-5.854,5.853-5.854
		h95.112c3.232,0,5.854,2.621,5.854,5.854v5.542c0,20.361-11.676,41.774-31.232,57.279l-7.792,6.177
		c-2.812,2.232-4.423,5.568-4.423,9.155c0,3.588,1.611,6.926,4.426,9.157l7.788,6.177c19.558,15.508,31.233,36.921,31.233,57.28
		v5.544c0,3.232-2.621,5.853-5.854,5.853h-95.112c-3.232,0-5.853-2.62-5.853-5.853V970.806z"/>
	<path d="M937.635,965.695c-8.817-15.462-31.051-30.511-41.634-30.511s-32.817,15.049-41.633,30.511
		c-0.728,1.277-0.722,2.846,0.018,4.115c0.738,1.271,2.097,2.049,3.567,2.049h76.097c1.469,0,2.826-0.781,3.565-2.052
		C938.353,968.539,938.361,966.973,937.635,965.695z"/>
</g>
</svg>
