<?xml version="1.0" encoding="utf-8"?>
<!-- Generator: Adobe Illustrator 16.0.0, SVG Export Plug-In . SVG Version: 6.00 Build 0)  -->
<!DOCTYPE svg PUBLIC "-//W3C//DTD SVG 1.1//EN" "http://www.w3.org/Graphics/SVG/1.1/DTD/svg11.dtd">
<svg version="1.1" id="Layer_1" xmlns="http://www.w3.org/2000/svg" xmlns:xlink="http://www.w3.org/1999/xlink" x="0px" y="0px"
	 width="2048px" height="1792px" viewBox="0 0 2048 1792" enable-background="new 0 0 2048 1792" xml:space="preserve">
<g>
	<path d="M821.572,759.706c111.803,0,202.428-90.631,202.428-202.421c0-111.771-90.625-202.415-202.428-202.415
		c-111.797,0-202.428,90.645-202.428,202.415C619.145,669.075,709.775,759.706,821.572,759.706z"/>
	<path d="M1896.056,87.047H151.944c-77.018,0-139.673,62.655-139.673,139.666V1565.28c0,77.011,62.655,139.673,139.673,139.673
		h1744.111c77.011,0,139.673-62.662,139.673-139.673V226.713C2035.729,149.702,1973.066,87.047,1896.056,87.047z M151.944,209.036
		h1744.111c9.755,0,17.684,7.929,17.684,17.677v689.629l-435.815-435.836l-586.197,586.151
		c-18.564,18.61-43.734,29.015-70.009,29.015c-26.255,0-51.431-10.404-70.002-29.015L474.468,789.416L134.26,1129.597V226.713
		C134.26,216.965,142.195,209.036,151.944,209.036z"/>
</g>
</svg>
