<?xml version="1.0" encoding="utf-8"?>
<!-- Generator: Adobe Illustrator 16.0.0, SVG Export Plug-In . SVG Version: 6.00 Build 0)  -->
<!DOCTYPE svg PUBLIC "-//W3C//DTD SVG 1.1//EN" "http://www.w3.org/Graphics/SVG/1.1/DTD/svg11.dtd">
<svg version="1.1" id="Layer_1" xmlns="http://www.w3.org/2000/svg" xmlns:xlink="http://www.w3.org/1999/xlink" x="0px" y="0px"
	 width="200px" height="200px" viewBox="796 517.876 200 200" enable-background="new 796 517.876 200 200" xml:space="preserve">
<path d="M993.286,603.953l-32.115-46.063c-2.821-4.05-7.454-6.466-12.39-6.466H843.218c-4.935,0-9.566,2.416-12.389,6.465
	l-32.116,46.065c-1.775,2.547-2.713,5.533-2.713,8.637v56.635c0,8.328,6.775,15.104,15.103,15.104h169.793
	c8.328,0,15.104-6.775,15.104-15.104V612.59C996,609.486,995.061,606.499,993.286,603.953z M840.675,564.751
	c0.579-0.831,1.53-1.327,2.543-1.327h105.563c1.014,0,1.965,0.496,2.545,1.328l25.077,35.97c0.407,0.585,0.456,1.348,0.127,1.979
	c-0.33,0.632-0.983,1.028-1.696,1.028h-33.47c-5.654,0-10.789,3.117-13.4,8.136l-8.869,17.059c-0.538,1.031-1.593,1.672-2.754,1.672
	H875.66c-1.162,0-2.216-0.641-2.751-1.67l-8.872-17.062c-2.61-5.018-7.744-8.135-13.4-8.135h-33.47
	c-0.713,0-1.367-0.396-1.697-1.028c-0.33-0.633-0.281-1.396,0.127-1.98L840.675,564.751z M980.896,672.327H811.103
	c-1.71,0-3.102-1.391-3.102-3.102v-51.38c0-1.168,0.947-2.114,2.114-2.114h40.521c1.162,0,2.215,0.641,2.751,1.671l8.873,17.062
	c2.609,5.018,7.744,8.135,13.399,8.135h40.68c5.654,0,10.788-3.117,13.4-8.135l8.871-17.059c0.536-1.032,1.591-1.673,2.752-1.673
	h40.521c1.168,0,2.113,0.946,2.113,2.114v51.379C983.999,670.937,982.606,672.327,980.896,672.327z"/>
</svg>
