<?xml version="1.0" encoding="utf-8"?>
<!-- Generator: Adobe Illustrator 16.0.0, SVG Export Plug-In . SVG Version: 6.00 Build 0)  -->
<!DOCTYPE svg PUBLIC "-//W3C//DTD SVG 1.1//EN" "http://www.w3.org/Graphics/SVG/1.1/DTD/svg11.dtd">
<svg version="1.1" id="Layer_1" xmlns="http://www.w3.org/2000/svg" xmlns:xlink="http://www.w3.org/1999/xlink" x="0px" y="0px"
	 width="200px" height="200px" viewBox="796 796 200 200" enable-background="new 796 796 200 200" xml:space="preserve">
<path d="M975.253,834.755l-26.093-26.092C940.994,800.497,930.138,796,918.591,796c-11.549,0-22.405,4.498-30.571,12.664
	c-16.855,16.855-16.856,44.282,0,61.14l1.594,1.594c1.717,1.718,1.717,4.502,0,6.22l-82.075,82.074
	c-4.608,4.609-4.608,12.078,0,16.688c2.304,2.303,5.323,3.455,8.343,3.455c3.02,0,6.04-1.152,8.343-3.455l3.724-3.725l20.121,20.119
	c4.301,4.303,11.272,4.303,15.573,0c4.301-4.299,4.301-11.271,0-15.572l-4.451-4.451c-1.528-1.527-2.387-3.6-2.387-5.762
	s0.858-4.234,2.387-5.762l0.446-0.445c3.182-3.184,8.341-3.184,11.522,0l4.452,4.449c4.301,4.303,11.273,4.303,15.574,0
	c4.301-4.299,4.3-11.273,0-15.572l-20.121-20.119l35.234-35.236c1.718-1.718,4.503-1.718,6.221,0l1.592,1.593
	c8.166,8.165,19.022,12.663,30.569,12.663s22.404-4.498,30.569-12.663c8.167-8.167,12.666-19.024,12.666-30.572
	C987.915,853.777,983.418,842.92,975.253,834.755z M958.567,879.209c-3.711,3.709-8.641,5.751-13.886,5.751
	s-10.175-2.042-13.884-5.751l-26.092-26.092c-7.656-7.656-7.656-20.112,0-27.768c3.708-3.709,8.64-5.752,13.885-5.752
	s10.175,2.042,13.884,5.751l26.093,26.092c3.708,3.709,5.752,8.64,5.752,13.884S962.275,875.5,958.567,879.209z"/>
</svg>
