<?xml version="1.0" encoding="utf-8"?>
<!-- Generator: Adobe Illustrator 16.0.0, SVG Export Plug-In . SVG Version: 6.00 Build 0)  -->
<!DOCTYPE svg PUBLIC "-//W3C//DTD SVG 1.1//EN" "http://www.w3.org/Graphics/SVG/1.1/DTD/svg11.dtd">
<svg version="1.1" id="Layer_1" xmlns="http://www.w3.org/2000/svg" xmlns:xlink="http://www.w3.org/1999/xlink" x="0px" y="0px"
	 width="1792px" height="1792px" viewBox="0 0 1792 1792" enable-background="new 0 0 1792 1792" xml:space="preserve">
<g>
	<path d="M1578.125,210.928H213.875c-111.296,0-201.839,90.543-201.839,201.839v966.467c0,111.289,90.543,201.838,201.839,201.838
		h1364.25c111.29,0,201.839-90.549,201.839-201.838V412.767C1779.964,301.471,1689.415,210.928,1578.125,210.928z M896,1474.996
		H213.875c-52.802,0-95.763-42.955-95.763-95.762V412.767c0-52.803,42.961-95.763,95.763-95.763H896V1474.996z M1625.983,684.994
		c-4.837,80.838-50.11,240.975-184.482,352.217c40.8,9.037,85.122,13.908,131.894,13.908v106.076
		c-93.274,0-178.909-16.963-251.665-47.072c-67.971,29.17-149.993,47.072-248.603,47.072v-106.076
		c45.355,0,87.712-4.43,126.986-13.246c-74.361-62.018-118.297-144.181-118.297-236.721h106.076
		c0,78.293,50.033,146.008,131.567,191.137c41.021-23.516,76.923-54.037,107.528-91.496
		c49.746-60.875,75.148-128.358,86.221-177.166h-440.082V617.551h197.096V511.602h106.076v105.949h186.115
		c17.553,0,34.495,7.344,46.478,20.154C1620.724,650.251,1627.008,667.544,1625.983,684.994z"/>
	<g>
		<g>
			<path d="M392.448,1057.43l-39.336,99.514H211.934l232.974-540.015h141.178l227.581,540.015H667.084l-38.566-99.514H392.448z
				 M511.257,753.472l-78.693,199.809h155.839L511.257,753.472z"/>
		</g>
	</g>
</g>
</svg>
