<?xml version="1.0" encoding="utf-8"?>
<!-- Generator: Adobe Illustrator 16.0.0, SVG Export Plug-In . SVG Version: 6.00 Build 0)  -->
<!DOCTYPE svg PUBLIC "-//W3C//DTD SVG 1.1//EN" "http://www.w3.org/Graphics/SVG/1.1/DTD/svg11.dtd">
<svg version="1.1" id="Layer_1" xmlns="http://www.w3.org/2000/svg" xmlns:xlink="http://www.w3.org/1999/xlink" x="0px" y="0px"
	 width="2048px" height="1792px" viewBox="0 0 2048 1792" enable-background="new 0 0 2048 1792" xml:space="preserve">
<path d="M2018.184,1458.333l-213.416-207.604V275.62c0-43.006-34.992-77.991-77.99-77.991H321.223
	c-43.007,0-77.991,34.985-77.991,77.991v975.109l-213.408,207.59c-23.404,20.995-32.018,54.322-21.398,84.144
	c11.016,31.05,40.558,51.908,73.503,51.908H1966.07c32.986,0,62.535-20.887,73.49-51.854
	C2050.201,1512.642,2041.592,1479.328,2018.184,1458.333z M368.956,323.354h1310.087v891.061H368.956V323.354z M199.522,1468.646
	l132.103-128.508h1384.743l132.109,128.508H199.522z"/>
</svg>
