<?xml version="1.0" encoding="utf-8"?>
<!-- Generator: Adobe Illustrator 16.0.0, SVG Export Plug-In . SVG Version: 6.00 Build 0)  -->
<!DOCTYPE svg PUBLIC "-//W3C//DTD SVG 1.1//EN" "http://www.w3.org/Graphics/SVG/1.1/DTD/svg11.dtd">
<svg version="1.1" id="Layer_1" xmlns="http://www.w3.org/2000/svg" xmlns:xlink="http://www.w3.org/1999/xlink" x="0px" y="0px"
	 width="1792px" height="1792px" viewBox="0 0 1792 1792" enable-background="new 0 0 1792 1792" xml:space="preserve">
<path d="M1689.764,72.296l-4.715-45.173l-45.166-4.709c-3.16-0.328-78.68-8.062-195.564-8.062
	c-266.965,0-760.669,41.387-1067.79,318.565C54.694,623.336,5.815,1003.352,238.501,1382.172
	c-3.633,6.428-7.279,12.904-10.875,19.125c-5.237,9.224-10.377,18.24-15.383,27.074c-4.715,9.028-9.32,17.85-13.816,26.453
	c-8.895,17.268-17.692,33.404-25.299,49.043c-14.946,31.594-28.191,58.352-38.277,83.236c-5.067,12.019-9.587,22.748-13.525,32.092
	c-3.293,8.677-6.1,16.053-8.372,22.043c-4.532,11.969-6.963,18.349-6.963,18.349c-0.425,1.167-0.96,2.638-1.349,3.828
	c-14.958,45.737,10,94.95,55.738,109.897c45.738,14.945,94.938-10.002,109.885-55.739l0.109-0.304c0,0,2.114-6.488,6.088-18.652
	c1.993-6.088,4.447-13.585,7.327-22.406c2.941-7.887,6.319-16.964,10.11-27.123c6.878-19.818,18.167-45.628,30.318-74.828
	c6.258-14.594,13.743-29.916,21.18-46.211c3.767-8.129,7.631-16.478,11.581-25.008c1.731-3.402,3.542-6.963,5.304-10.414
	c144.838,82.266,294.319,125.536,436.818,125.549c0.012,0,0.024,0,0.036,0c215.791,0,410.978-95.049,580.125-282.496
	C1771.227,901.354,1693.275,105.944,1689.764,72.296z M1296.121,1260.658c-147.033,162.926-314.248,245.542-497.016,245.53
	c-148.332-0.013-283.036-54.511-384.633-112.644c5.31-9.539,10.693-19.199,16.155-29.006c10.778-20.025,23.707-39.588,35.907-60.148
	c12.382-20.488,24.947-41.473,39.055-61.996c13.779-20.754,27.778-41.873,41.946-63.236c15.056-20.803,30.281-41.85,45.641-63.064
	c7.728-10.572,15.274-21.363,23.246-31.887c8.189-10.352,16.404-20.742,24.631-31.143c16.501-20.816,33.063-41.717,49.626-62.605
	c17.462-20.182,34.911-40.354,52.3-60.453c8.7-10.072,17.376-20.121,26.04-30.135c8.798-9.891,18.094-19.253,27.073-28.853
	c18.105-19.102,36.065-38.046,53.807-56.771l13.269-14.011l13.792-13.293c9.199-8.816,18.324-17.571,27.366-26.247
	c18.105-17.383,35.918-34.474,53.344-51.206c17.57-16.587,35.895-31.557,53.127-46.837c34.813-30.148,67.172-59.421,99.422-83.517
	c31.703-24.844,60.756-47.621,86.506-67.811c26.77-18.847,50.123-35.27,69.348-48.8c38.482-27.104,60.477-42.591,60.477-42.591
	l2.104-1.482c20.037-14.163,25.613-41.71,12.309-62.635c-13.719-21.58-42.336-27.941-63.916-14.223c0,0-23.379,14.873-64.305,40.901
	c-20.477,13.038-45.35,28.871-73.881,47.032c-27.572,19.605-58.691,41.728-92.631,65.854
	c-34.533,23.435-69.443,52.081-106.992,81.67c-18.604,14.994-38.338,29.698-57.391,46.054
	c-18.919,16.525-38.252,33.404-57.901,50.574c-9.83,8.597-19.745,17.267-29.734,25.991l-15.007,13.185l-14.496,13.919
	c-19.394,18.641-39.03,37.506-58.825,56.522c-9.83,9.581-19.988,18.932-29.649,28.811c-9.526,10.025-19.09,20.08-28.652,30.154
	c-19.163,20.177-38.387,40.434-57.622,60.695c-18.373,21.047-36.746,42.117-55.046,63.09c-9.138,10.523-18.251,21.023-27.353,31.484
	c-8.871,10.658-17.328,21.594-25.979,32.311c-17.17,21.557-34.218,42.955-51.06,64.088c-15.991,21.822-31.8,43.379-47.342,64.572
	c-15.87,20.984-30.221,42.529-44.34,63.588c-11.44,17.363-23.246,34.012-34.036,50.877
	c-115.596-215.141-194.762-548.731,146.758-856.909c279.311-252.08,741.884-289.719,992.761-289.719
	c57.791,0,105.23,2.018,137.469,3.955C1591.824,303.622,1603.502,920.055,1296.121,1260.658z"/>
</svg>
