<?xml version="1.0" encoding="utf-8"?>
<!-- Generator: Adobe Illustrator 16.0.0, SVG Export Plug-In . SVG Version: 6.00 Build 0)  -->
<!DOCTYPE svg PUBLIC "-//W3C//DTD SVG 1.1//EN" "http://www.w3.org/Graphics/SVG/1.1/DTD/svg11.dtd">
<svg version="1.1" id="Layer_1" xmlns="http://www.w3.org/2000/svg" xmlns:xlink="http://www.w3.org/1999/xlink" x="0px" y="0px"
	 width="200px" height="200px" viewBox="796 796 200 200" enable-background="new 796 796 200 200" xml:space="preserve">
<path d="M946.267,935.721c43.215-47.885,33.728-138.837,33.728-138.837s-90.951-9.487-138.837,33.727
	c-35.353,31.904-35.187,68.077-21.473,98.299c0.593-0.849,1.188-1.699,1.793-2.566c1.542-2.283,3.33-4.48,5.043-6.799
	c1.736-2.306,3.495-4.666,5.427-6.953c1.893-2.31,3.821-4.656,5.771-7.033c2.039-2.291,4.104-4.612,6.186-6.951
	c1.042-1.161,2.09-2.328,3.141-3.5c1.095-1.129,2.195-2.259,3.296-3.394c2.203-2.259,4.414-4.527,6.624-6.793
	c2.302-2.17,4.609-4.336,6.901-6.497c1.148-1.076,2.291-2.151,3.432-3.221c1.147-1.062,2.364-2.048,3.534-3.066
	c4.723-4.037,9.291-8.074,14.033-11.599c2.327-1.804,4.616-3.578,6.857-5.314c2.247-1.719,4.575-3.239,6.768-4.802
	c4.428-3.075,8.536-6.063,12.582-8.459c0.663-0.412,1.532-0.233,1.979,0.408c0.445,0.641,0.311,1.518-0.306,1.997
	c-0.031,0.024-0.061,0.048-0.09,0.07c-3.774,2.819-7.564,6.225-11.648,9.751c-2.02,1.785-4.171,3.542-6.235,5.485
	c-2.05,1.959-4.145,3.961-6.272,5.996c-4.345,3.995-8.484,8.471-12.761,12.964c-1.058,1.13-2.157,2.238-3.198,3.402
	c-1.023,1.178-2.05,2.361-3.08,3.546c-2.06,2.375-4.124,4.757-6.193,7.141c-1.966,2.47-3.929,4.942-5.889,7.402
	c-0.978,1.233-1.956,2.463-2.928,3.692c-0.925,1.264-1.847,2.524-2.768,3.779c-1.83,2.521-3.643,5.021-5.438,7.496
	c-1.694,2.542-3.369,5.056-5.014,7.531c-1.687,2.449-3.196,4.956-4.687,7.405c-1.467,2.465-3.011,4.808-4.318,7.215
	c-1.337,2.392-2.636,4.716-3.892,6.964c-1.244,2.262-2.335,4.515-3.441,6.644c-0.545,1.07-1.08,2.116-1.603,3.14
	c-0.486,1.047-0.961,2.069-1.428,3.064c-0.917,2.001-1.829,3.873-2.612,5.682c-1.531,3.657-2.893,6.748-3.917,9.652
	c-0.516,1.399-0.975,2.649-1.377,3.735c-0.324,0.991-0.603,1.834-0.827,2.517c-0.45,1.37-0.691,2.099-0.691,2.099
	c-0.062,0.192-0.129,0.422-0.182,0.617c-1.667,6.199,2.009,12.578,8.211,14.243c6.201,1.664,12.574-2.013,14.243-8.211l0.011-0.041
	c0,0,0.2-0.742,0.571-2.133c0.188-0.694,0.417-1.552,0.688-2.562c0.276-0.887,0.597-1.905,0.953-3.048
	c0.632-2.211,1.737-5.162,2.913-8.48c0.609-1.664,1.351-3.416,2.079-5.277c0.373-0.928,0.756-1.882,1.144-2.857
	c0.428-0.964,0.865-1.952,1.313-2.961c0.545-1.209,1.097-2.467,1.662-3.742C876.646,970.883,913.682,971.83,946.267,935.721z"/>
</svg>
