<?xml version="1.0" encoding="utf-8"?>
<!-- Generator: Adobe Illustrator 16.0.0, SVG Export Plug-In . SVG Version: 6.00 Build 0)  -->
<!DOCTYPE svg PUBLIC "-//W3C//DTD SVG 1.1//EN" "http://www.w3.org/Graphics/SVG/1.1/DTD/svg11.dtd">
<svg version="1.1" id="Layer_1" xmlns="http://www.w3.org/2000/svg" xmlns:xlink="http://www.w3.org/1999/xlink" x="0px" y="0px"
	 width="200px" height="200px" viewBox="796 796 200 200" enable-background="new 796 796 200 200" xml:space="preserve">
<path d="M986.031,802.573l-0.534-5.124l-5.123-0.534c-0.358-0.037-8.924-0.914-22.182-0.914c-30.28,0-86.278,4.694-121.113,36.133
	c-36.504,32.94-42.048,76.042-15.656,119.01c-0.412,0.729-0.826,1.464-1.233,2.169c-0.594,1.047-1.177,2.069-1.745,3.071
	c-0.535,1.023-1.058,2.024-1.567,3c-1.009,1.959-2.007,3.789-2.87,5.563c-1.695,3.584-3.197,6.619-4.341,9.441
	c-0.575,1.363-1.087,2.58-1.534,3.64c-0.374,0.984-0.692,1.821-0.95,2.501c-0.514,1.357-0.79,2.081-0.79,2.081
	c-0.048,0.132-0.109,0.299-0.153,0.434c-1.696,5.188,1.135,10.77,6.322,12.465c5.188,1.695,10.768-1.134,12.464-6.321l0.012-0.035
	c0,0,0.24-0.735,0.69-2.115c0.226-0.69,0.504-1.541,0.831-2.541c0.333-0.895,0.717-1.925,1.147-3.077
	c0.78-2.248,2.061-5.175,3.438-8.487c0.71-1.655,1.559-3.393,2.402-5.241c0.427-0.922,0.866-1.869,1.313-2.837
	c0.196-0.386,0.402-0.789,0.602-1.181c16.428,9.331,33.383,14.239,49.546,14.24c0.001,0,0.003,0,0.004,0
	c24.476,0,46.615-10.781,65.8-32.042C995.271,896.607,986.43,806.389,986.031,802.573z M941.383,937.361
	c-16.677,18.479-35.643,27.85-56.373,27.849c-16.824-0.002-32.103-6.183-43.626-12.776c0.602-1.082,1.213-2.178,1.832-3.29
	c1.223-2.271,2.689-4.49,4.073-6.822c1.405-2.324,2.83-4.704,4.43-7.032c1.563-2.354,3.15-4.749,4.757-7.172
	c1.708-2.359,3.435-4.747,5.177-7.153c0.877-1.199,1.733-2.423,2.637-3.617c0.929-1.174,1.861-2.353,2.794-3.532
	c1.872-2.36,3.75-4.731,5.628-7.101c1.981-2.289,3.96-4.577,5.932-6.856c0.987-1.143,1.971-2.282,2.954-3.418
	c0.998-1.122,2.053-2.184,3.071-3.272c2.054-2.167,4.091-4.315,6.103-6.439l1.505-1.589l1.564-1.508
	c1.043-1,2.079-1.993,3.104-2.977c2.054-1.972,4.074-3.91,6.051-5.808c1.992-1.881,4.071-3.579,6.025-5.313
	c3.948-3.419,7.619-6.74,11.276-9.473c3.597-2.818,6.892-5.401,9.813-7.691c3.036-2.138,5.685-4,7.865-5.535
	c4.365-3.074,6.86-4.831,6.86-4.831l0.238-0.168c2.272-1.606,2.905-4.731,1.396-7.104c-1.557-2.447-4.803-3.169-7.25-1.613
	c0,0-2.651,1.687-7.294,4.639c-2.322,1.479-5.144,3.274-8.38,5.334c-3.127,2.224-6.657,4.733-10.507,7.469
	c-3.916,2.658-7.876,5.907-12.135,9.263c-2.11,1.701-4.349,3.369-6.51,5.224c-2.146,1.874-4.338,3.789-6.567,5.736
	c-1.115,0.975-2.24,1.958-3.373,2.948l-1.702,1.496l-1.644,1.579c-2.2,2.114-4.427,4.254-6.672,6.411
	c-1.115,1.086-2.267,2.147-3.363,3.268c-1.081,1.137-2.165,2.278-3.25,3.42c-2.174,2.289-4.354,4.586-6.536,6.884
	c-2.083,2.387-4.167,4.777-6.243,7.156c-1.037,1.193-2.07,2.384-3.103,3.57c-1.006,1.209-1.966,2.449-2.947,3.665
	c-1.947,2.445-3.881,4.872-5.792,7.27c-1.813,2.475-3.607,4.92-5.37,7.323c-1.8,2.381-3.428,4.824-5.029,7.213
	c-1.297,1.97-2.637,3.857-3.86,5.771c-13.111-24.402-22.091-62.239,16.646-97.193c31.681-28.592,84.147-32.861,112.603-32.861
	c6.555,0,11.936,0.229,15.592,0.449C974.923,828.811,976.248,898.729,941.383,937.361z"/>
</svg>
