<?xml version="1.0" encoding="utf-8"?>
<!-- Generator: Adobe Illustrator 16.0.0, SVG Export Plug-In . SVG Version: 6.00 Build 0)  -->
<!DOCTYPE svg PUBLIC "-//W3C//DTD SVG 1.1//EN" "http://www.w3.org/Graphics/SVG/1.1/DTD/svg11.dtd">
<svg version="1.1" id="Layer_1" xmlns="http://www.w3.org/2000/svg" xmlns:xlink="http://www.w3.org/1999/xlink" x="0px" y="0px"
	 width="200px" height="200px" viewBox="796 796 200 200" enable-background="new 796 796 200 200" xml:space="preserve">
<g>
	<path d="M972.377,831.491l-32.068,32.068c14.101,19.235,14.101,45.646-0.003,64.88l32.071,32.069
		C1003.776,923.383,1003.776,868.616,972.377,831.491z"/>
	<path d="M863.559,851.691c9.356-6.879,20.613-10.601,32.443-10.601c11.83,0,23.084,3.72,32.44,10.599l32.072-32.072
		C942.491,804.344,919.894,796,896,796c-23.893,0-46.491,8.344-64.514,23.617L863.559,851.691z"/>
	<path d="M928.44,940.309c-9.354,6.88-20.612,10.601-32.443,10.601c-11.828,0-23.084-3.72-32.439-10.6l-32.072,32.072
		C849.508,987.656,872.106,996,896,996c23.894,0,46.492-8.344,64.515-23.618L928.44,940.309z"/>
	<path d="M851.691,928.441C844.81,919.087,841.09,907.83,841.09,896c0-11.83,3.723-23.086,10.601-32.442l-32.068-32.067
		c-31.399,37.125-31.399,91.892,0,129.018L851.691,928.441z"/>
</g>
</svg>
