<?xml version="1.0" encoding="utf-8"?>
<!-- Generator: Adobe Illustrator 16.0.0, SVG Export Plug-In . SVG Version: 6.00 Build 0)  -->
<!DOCTYPE svg PUBLIC "-//W3C//DTD SVG 1.1//EN" "http://www.w3.org/Graphics/SVG/1.1/DTD/svg11.dtd">
<svg version="1.1" id="Layer_1" xmlns="http://www.w3.org/2000/svg" xmlns:xlink="http://www.w3.org/1999/xlink" x="0px" y="0px"
	 width="1792px" height="1792px" viewBox="0 0 1792 1792" enable-background="new 0 0 1792 1792" xml:space="preserve">
<g>
	<path d="M1575.121,322.403l-285.142,285.143c125.375,171.028,125.375,405.868-0.024,576.892l285.166,285.154
		C1854.313,1139.482,1854.313,652.512,1575.121,322.403z"/>
	<path d="M607.548,502.019c83.193-61.17,183.283-94.259,288.477-94.259c105.18,0,205.258,33.083,288.439,94.247l285.178-285.178
		C1309.386,81.021,1108.452,6.832,896,6.832S482.614,81.021,322.358,216.829L607.548,502.019z"/>
	<path d="M1184.452,1289.977c-83.182,61.17-183.283,94.258-288.476,94.258c-105.169,0-205.259-33.076-288.44-94.246
		l-285.178,285.178C482.614,1710.975,683.548,1785.168,896,1785.168s413.386-74.193,573.642-210.002L1184.452,1289.977z"/>
	<path d="M502.021,1184.461c-61.182-83.182-94.259-183.271-94.259-288.457c0-105.187,33.101-205.277,94.259-288.464L216.879,322.403
		c-279.191,330.108-279.191,817.079,0,1147.188L502.021,1184.461z"/>
</g>
</svg>
