<?xml version="1.0" encoding="utf-8"?>
<!-- Generator: Adobe Illustrator 16.0.0, SVG Export Plug-In . SVG Version: 6.00 Build 0)  -->
<!DOCTYPE svg PUBLIC "-//W3C//DTD SVG 1.1//EN" "http://www.w3.org/Graphics/SVG/1.1/DTD/svg11.dtd">
<svg version="1.1" id="Layer_1" xmlns="http://www.w3.org/2000/svg" xmlns:xlink="http://www.w3.org/1999/xlink" x="0px" y="0px"
	 width="1281.127px" height="1792px" viewBox="253.255 0 1281.127 1792" enable-background="new 253.255 0 1281.127 1792"
	 xml:space="preserve">
<path d="M893.813,10.498c-336.171,0-609.669,273.498-609.669,609.675c0,160.808,62.098,312.549,174.859,427.25
	c46.979,47.804,72.856,111.023,72.856,178.017c0,52.313,20.122,99.902,52.817,135.861c-30.031,9.02-51.927,36.85-51.927,69.818
	c0,31.995,20.65,59.125,49.328,68.939c-28.678,9.814-49.328,36.944-49.328,68.939c0,40.268,32.648,72.916,72.916,72.916h71.474
	c37.531,82.291,120.326,139.588,216.698,139.588c96.343,0,179.132-57.297,216.658-139.588h71.502
	c40.268,0,72.916-32.648,72.916-72.916c0-31.995-20.65-59.125-49.334-68.939c28.684-9.814,49.334-36.944,49.334-68.939
	c0-32.969-21.908-60.811-51.945-69.818c32.695-35.959,52.813-83.549,52.813-135.861c0-66.993,25.871-130.213,72.855-178.017
	c112.756-114.701,174.859-266.437,174.859-427.25C1503.494,283.996,1229.99,10.498,893.813,10.498z M1250.641,970.758
	c-67.219,68.382-104.234,158.826-104.234,254.682c0,51.292-41.727,93.031-93.02,93.031H734.263
	c-51.299,0-93.031-41.739-93.031-93.031c0-95.855-37.016-186.312-104.234-254.682c-92.527-94.129-143.481-218.634-143.481-350.585
	c0-275.865,224.431-500.302,500.296-500.302c275.865,0,500.308,224.437,500.308,500.302
	C1394.121,752.124,1343.16,876.635,1250.641,970.758z"/>
</svg>
