<?xml version="1.0" encoding="utf-8"?>
<!-- Generator: Adobe Illustrator 16.0.0, SVG Export Plug-In . SVG Version: 6.00 Build 0)  -->
<!DOCTYPE svg PUBLIC "-//W3C//DTD SVG 1.1//EN" "http://www.w3.org/Graphics/SVG/1.1/DTD/svg11.dtd">
<svg version="1.1" id="Layer_1" xmlns="http://www.w3.org/2000/svg" xmlns:xlink="http://www.w3.org/1999/xlink" x="0px" y="0px"
	 width="200px" height="200px" viewBox="540.563 796 200 200" enable-background="new 540.563 796 200 200" xml:space="preserve">
<path d="M640.563,796c-37.964,0-68.85,30.886-68.85,68.851c0,18.16,7.013,35.296,19.747,48.249
	c5.305,5.398,8.228,12.538,8.228,20.104c0,5.908,2.272,11.282,5.964,15.343c-3.391,1.019-5.863,4.162-5.863,7.885
	c0,3.613,2.332,6.677,5.57,7.785c-3.238,1.108-5.57,4.172-5.57,7.785c0,4.548,3.687,8.234,8.234,8.234h8.071
	c4.238,9.294,13.589,15.765,24.472,15.765c10.88,0,20.229-6.471,24.468-15.765h8.074c4.548,0,8.234-3.687,8.234-8.234
	c0-3.613-2.332-6.677-5.571-7.785c3.239-1.108,5.571-4.172,5.571-7.785c0-3.723-2.474-6.867-5.866-7.885
	c3.692-4.061,5.965-9.435,5.965-15.343c0-7.565,2.921-14.705,8.227-20.104c12.734-12.953,19.747-30.088,19.747-48.249
	C709.414,826.886,678.527,796,640.563,796z M680.859,904.442c-7.591,7.722-11.771,17.936-11.771,28.761
	c0,5.793-4.712,10.506-10.505,10.506h-36.038c-5.793,0-10.506-4.713-10.506-10.506c0-10.825-4.181-21.04-11.771-28.761
	c-10.449-10.63-16.203-24.69-16.203-39.592c0-31.153,25.345-56.499,56.498-56.499s56.5,25.346,56.5,56.499
	C697.063,879.752,691.308,893.813,680.859,904.442z"/>
</svg>
