<?xml version="1.0" encoding="utf-8"?>
<!-- Generator: Adobe Illustrator 16.0.0, SVG Export Plug-In . SVG Version: 6.00 Build 0)  -->
<!DOCTYPE svg PUBLIC "-//W3C//DTD SVG 1.1//EN" "http://www.w3.org/Graphics/SVG/1.1/DTD/svg11.dtd">
<svg version="1.1" id="Layer_1" xmlns="http://www.w3.org/2000/svg" xmlns:xlink="http://www.w3.org/1999/xlink" x="0px" y="0px"
	 width="1460px" height="1792px" viewBox="164.5 0 1460 1792" enable-background="new 164.5 0 1460 1792" xml:space="preserve">
<path d="M1399.195,686.184h-37.855V479.199c0-257.412-209.416-466.829-466.834-466.829c-257.407,0-466.823,209.417-466.823,466.829
	v206.984h-37.877c-98.38,0-178.134,79.753-178.134,178.134v553.058c0,200.067,162.187,362.254,362.253,362.254h641.149
	c200.067,0,362.254-162.187,362.254-362.254V864.318C1577.328,765.937,1497.575,686.184,1399.195,686.184z M960.82,1236.598v224.986
	c0,36.626-29.701,66.327-66.326,66.327c-36.626,0-66.328-29.701-66.328-66.327v-224.986
	c-50.522-24.637-85.417-76.337-85.417-136.327c0-83.805,67.941-151.746,151.745-151.746c83.815,0,151.755,67.941,151.755,151.746
	C1046.249,1160.261,1011.344,1211.975,960.82,1236.598z M1192.508,686.184H596.516V479.199
	c0-164.317,133.679-297.996,297.99-297.996c164.323,0,298.002,133.679,298.002,297.996V686.184z"/>
</svg>
