<?xml version="1.0" encoding="utf-8"?>
<!-- Generator: Adobe Illustrator 16.0.0, SVG Export Plug-In . SVG Version: 6.00 Build 0)  -->
<!DOCTYPE svg PUBLIC "-//W3C//DTD SVG 1.1//EN" "http://www.w3.org/Graphics/SVG/1.1/DTD/svg11.dtd">
<svg version="1.1" id="Layer_1" xmlns="http://www.w3.org/2000/svg" xmlns:xlink="http://www.w3.org/1999/xlink" x="0px" y="0px"
	 width="200px" height="200px" viewBox="796 796 200 200" enable-background="new 796 796 200 200" xml:space="preserve">
<path d="M969.685,898.676h-59.05v-21.211h47.628c2.776,0,5.493-1.125,7.452-3.087l26.014-26.011l-26.011-26.008
	c-1.962-1.962-4.679-3.088-7.455-3.088h-47.628v-8.636c0-8.084-6.552-14.634-14.635-14.634c-8.08,0-14.633,6.55-14.633,14.634v8.636
	h-59.05c-5.812,0-10.539,4.728-10.539,10.539v37.117c0,5.811,4.728,10.539,10.539,10.539h59.05v21.211h-47.629
	c-2.814,0-5.46,1.096-7.453,3.088l-26.013,26.011l26.015,26.013c1.991,1.989,4.637,3.085,7.45,3.085h47.63v34.22
	c0,2.711,2.197,4.908,4.908,4.908h19.452c2.71,0,4.908-2.197,4.908-4.908v-34.22h59.05c5.812,0,10.539-4.728,10.539-10.539v-37.118
	C980.224,903.403,975.496,898.676,969.685,898.676z M823.958,831.451h133.624l16.92,16.916l-16.92,16.918H823.958V831.451z
	 M968.043,944.691H834.417l-16.919-16.917l16.919-16.919h133.626V944.691L968.043,944.691z"/>
</svg>
