<?xml version="1.0" encoding="utf-8"?>
<!-- Generator: Adobe Illustrator 16.0.0, SVG Export Plug-In . SVG Version: 6.00 Build 0)  -->
<!DOCTYPE svg PUBLIC "-//W3C//DTD SVG 1.1//EN" "http://www.w3.org/Graphics/SVG/1.1/DTD/svg11.dtd">
<svg version="1.1" id="Layer_1" xmlns="http://www.w3.org/2000/svg" xmlns:xlink="http://www.w3.org/1999/xlink" x="0px" y="0px"
	 width="1792px" height="1792px" viewBox="0 0 1792 1792" enable-background="new 0 0 1792 1792" xml:space="preserve">
<path d="M1542.928,919.495H1024.48V733.269h418.17c24.367,0,48.225-9.887,65.422-27.101l228.393-228.37l-228.369-228.341
	c-17.221-17.231-41.078-27.118-65.445-27.118h-418.17v-75.823c0-70.973-57.52-128.486-128.486-128.486
	c-70.944,0-128.475,57.514-128.475,128.486v75.823H249.083c-51.021,0-92.527,41.507-92.527,92.527v325.875
	c0,51.021,41.506,92.527,92.527,92.527H767.52v186.227H349.355c-24.704,0-47.935,9.618-65.433,27.105l-228.388,228.37
	l228.405,228.382c17.481,17.464,40.711,27.082,65.41,27.082h418.17v300.443c0,23.8,19.293,43.093,43.093,43.093h170.776
	c23.799,0,43.092-19.293,43.092-43.093v-300.443h518.447c51.023,0,92.527-41.507,92.527-92.526v-325.887
	C1635.455,961,1593.951,919.495,1542.928,919.495z M263.495,329.278h1173.181l148.547,148.52L1436.676,626.33H263.495V329.278z
	 M1528.518,1323.497H355.319l-148.543-148.526l148.543-148.538h1173.198V1323.497z"/>
</svg>
