<?xml version="1.0" encoding="utf-8"?>
<!-- Generator: Adobe Illustrator 16.0.0, SVG Export Plug-In . SVG Version: 6.00 Build 0)  -->
<!DOCTYPE svg PUBLIC "-//W3C//DTD SVG 1.1//EN" "http://www.w3.org/Graphics/SVG/1.1/DTD/svg11.dtd">
<svg version="1.1" id="Layer_1" xmlns="http://www.w3.org/2000/svg" xmlns:xlink="http://www.w3.org/1999/xlink" x="0px" y="0px"
	 width="200px" height="200px" viewBox="595 796 200 200" enable-background="new 595 796 200 200" xml:space="preserve">
<g>
	<path d="M700.539,993.184c-1.29,1.77-3.349,2.816-5.539,2.816c-2.191,0-4.249-1.047-5.539-2.817l-55.964-76.807
		c-9.428-13.026-14.404-28.398-14.404-44.47C619.093,830.051,653.145,796,695,796s75.907,34.051,75.907,75.906
		c0,16.087-4.971,31.46-14.375,44.455L700.539,993.184z M695,808.734c-34.834,0-63.174,28.339-63.174,63.172
		c0,13.373,4.141,26.163,11.976,36.987l51.199,70.271l51.228-70.284c7.81-10.793,11.945-23.583,11.945-36.973
		C758.174,837.073,729.834,808.734,695,808.734z M695,906.293c-18.96,0-34.386-15.425-34.386-34.387
		c0-18.959,15.426-34.385,34.386-34.385c18.961,0,34.388,15.425,34.388,34.385C729.388,890.868,713.961,906.293,695,906.293z
		 M695,850.255c-11.939,0-21.652,9.712-21.652,21.651c0,11.94,9.713,21.654,21.652,21.654c11.94,0,21.654-9.714,21.654-21.654
		C716.654,859.967,706.94,850.255,695,850.255z"/>
</g>
</svg>
