<?xml version="1.0" encoding="utf-8"?>
<!-- Generator: Adobe Illustrator 16.0.0, SVG Export Plug-In . SVG Version: 6.00 Build 0)  -->
<!DOCTYPE svg PUBLIC "-//W3C//DTD SVG 1.1//EN" "http://www.w3.org/Graphics/SVG/1.1/DTD/svg11.dtd">
<svg version="1.1" id="Layer_1" xmlns="http://www.w3.org/2000/svg" xmlns:xlink="http://www.w3.org/1999/xlink" x="0px" y="0px"
	 width="1854.186px" height="1792px" viewBox="105.228 0 1854.186 1792" enable-background="new 105.228 0 1854.186 1792"
	 xml:space="preserve">
<path d="M1887.773,196.794L1349.827,13.892c-21.917-7.452-45.683-7.452-67.6,0L748.6,195.322L226.229,17.716
	c-23.243-7.896-49.396-4.028-69.343,10.261c-20.059,14.363-32.031,37.673-32.031,62.346v1432.285
	c0,32.83,20.883,61.994,51.998,72.605L714.8,1778.108c21.917,7.451,45.682,7.451,67.599,0l533.628-181.429l522.352,177.594
	c7.981,2.713,16.295,4.094,24.716,4.094c16.11,0,31.549-4.963,44.578-14.301c20.106-14.35,32.112-37.672,32.112-62.389V269.395
	C1939.785,236.527,1918.871,207.349,1887.773,196.794z M1827.134,906.533l-454.782-154.625V140.532l454.782,154.623V906.533z
	 M804.938,295.149l454.763-154.617v611.376L804.938,906.527V295.149z M804.938,1025.508l454.763-154.617v625.956l-454.763,154.617
	V1025.508z M692.288,295.157v611.374L237.505,751.91V140.535L692.288,295.157z M237.505,870.891l454.782,154.622v625.959
	l-454.782-154.621V870.891z M1372.352,1496.847V870.889l454.782,154.618v625.957L1372.352,1496.847z"/>
</svg>
