<?xml version="1.0" encoding="utf-8"?>
<!-- Generator: Adobe Illustrator 16.0.0, SVG Export Plug-In . SVG Version: 6.00 Build 0)  -->
<!DOCTYPE svg PUBLIC "-//W3C//DTD SVG 1.1//EN" "http://www.w3.org/Graphics/SVG/1.1/DTD/svg11.dtd">
<svg version="1.1" id="Layer_1" xmlns="http://www.w3.org/2000/svg" xmlns:xlink="http://www.w3.org/1999/xlink" x="0px" y="0px"
	 width="200px" height="200px" viewBox="827.093 796 200 200" enable-background="new 827.093 796 200 200" xml:space="preserve">
<path d="M1021.361,818.95l-59.28-20.155c-2.415-0.821-5.034-0.821-7.449,0l-58.804,19.993l-57.564-19.572
	c-2.561-0.87-5.443-0.444-7.641,1.131c-2.21,1.583-3.53,4.151-3.53,6.87v157.834c0,3.618,2.301,6.832,5.73,8.001l59.28,20.154
	c2.415,0.821,5.034,0.821,7.449,0l58.804-19.993l57.562,19.571c0.88,0.299,1.796,0.451,2.724,0.451c1.775,0,3.477-0.547,4.912-1.576
	c2.216-1.582,3.539-4.151,3.539-6.875V826.95C1027.093,823.328,1024.788,820.113,1021.361,818.95z M1014.679,897.161l-50.115-17.04
	V812.75l50.115,17.039V897.161z M902.036,829.788l50.114-17.038v67.372l-50.114,17.04V829.788z M902.036,910.272l50.114-17.04
	v68.979l-50.114,17.039V910.272L902.036,910.272z M889.622,829.789v67.372l-50.116-17.04V812.75L889.622,829.789z M839.506,893.233
	l50.116,17.04v68.979l-50.116-17.038V893.233L839.506,893.233z M964.563,962.212v-68.979l50.115,17.039v68.979L964.563,962.212z"/>
</svg>
