<?xml version="1.0" encoding="utf-8"?>
<!-- Generator: Adobe Illustrator 16.0.0, SVG Export Plug-In . SVG Version: 6.00 Build 0)  -->
<!DOCTYPE svg PUBLIC "-//W3C//DTD SVG 1.1//EN" "http://www.w3.org/Graphics/SVG/1.1/DTD/svg11.dtd">
<svg version="1.1" id="Layer_1" xmlns="http://www.w3.org/2000/svg" xmlns:xlink="http://www.w3.org/1999/xlink" x="0px" y="0px"
	 width="1390px" height="1792px" viewBox="198.5 0 1390 1792" enable-background="new 198.5 0 1390 1792" xml:space="preserve">
<g>
	<path d="M942.772,1760.512c-11.478,15.747-29.79,25.06-49.276,25.059c-19.486-0.002-37.797-9.317-49.272-25.066l-497.833-683.246
		C262.522,961.376,218.25,824.632,218.25,681.668c0-372.329,302.915-675.237,675.25-675.237
		c372.336,0,675.25,302.908,675.25,675.237c0,143.105-44.224,279.856-127.877,395.455L942.772,1760.512z M893.5,119.704
		c-309.872,0-561.976,252.097-561.976,561.962c0,118.96,36.837,232.732,106.528,329.023l455.453,625.102l455.713-625.227
		c69.47-96.006,106.256-209.792,106.256-328.898C1455.475,371.8,1203.372,119.704,893.5,119.704z M893.5,987.566
		c-168.665,0-305.889-137.223-305.889-305.9c0-168.659,137.224-305.877,305.889-305.877c168.671,0,305.902,137.218,305.902,305.877
		C1199.402,850.343,1062.171,987.566,893.5,987.566z M893.5,489.064c-106.207,0-192.614,86.401-192.614,192.602
		c0,106.214,86.407,192.626,192.614,192.626c106.22,0,192.627-86.413,192.627-192.626
		C1086.127,575.465,999.72,489.064,893.5,489.064z"/>
</g>
</svg>
