<?xml version="1.0" encoding="utf-8"?>
<!-- Generator: Adobe Illustrator 16.0.0, SVG Export Plug-In . SVG Version: 6.00 Build 0)  -->
<!DOCTYPE svg PUBLIC "-//W3C//DTD SVG 1.1//EN" "http://www.w3.org/Graphics/SVG/1.1/DTD/svg11.dtd">
<svg version="1.1" id="Layer_1" xmlns="http://www.w3.org/2000/svg" xmlns:xlink="http://www.w3.org/1999/xlink" x="0px" y="0px"
	 width="200px" height="200px" viewBox="796 796 200 200" enable-background="new 796 796 200 200" xml:space="preserve">
<g>
	<polygon points="924.666,891.183 867.333,910.676 867.333,992.413 924.666,972.92 	"/>
	<path d="M934,891.195v81.725l55.324,18.811c1.543,0.524,3.242,0.272,4.566-0.676s2.109-2.477,2.109-4.105V912.4L934,891.195z"/>
	<path d="M934,881.331l62,21.205v-75.19c0-3.993-2.543-7.543-6.323-8.829L934,799.587V881.331z"/>
	<polygon points="867.333,900.818 924.666,881.325 924.666,799.587 867.333,819.08 	"/>
	<path d="M858,910.676l-62-21.08v75.059c0,3.993,2.542,7.543,6.323,8.828L858,992.413V910.676z"/>
	<path d="M858,900.818V819.08l-55.325-18.81c-1.542-0.524-3.242-0.273-4.566,0.676c-1.324,0.948-2.109,2.477-2.109,4.105v74.688
		L858,900.818z"/>
</g>
</svg>
