<?xml version="1.0" encoding="utf-8"?>
<!-- Generator: Adobe Illustrator 16.0.0, SVG Export Plug-In . SVG Version: 6.00 Build 0)  -->
<!DOCTYPE svg PUBLIC "-//W3C//DTD SVG 1.1//EN" "http://www.w3.org/Graphics/SVG/1.1/DTD/svg11.dtd">
<svg version="1.1" id="Layer_1" xmlns="http://www.w3.org/2000/svg" xmlns:xlink="http://www.w3.org/1999/xlink" x="0px" y="0px"
	 width="1792px" height="1792px" viewBox="0 0 1792 1792" enable-background="new 0 0 1792 1792" xml:space="preserve">
<g>
	<g>
		<g>
			<path d="M895.988,1776.535c-486.352,0-882.023-395.689-882.023-882.048c0-486.352,395.671-882.022,882.023-882.022
				c486.357,0,882.047,395.671,882.047,882.022C1778.035,1380.846,1382.346,1776.535,895.988,1776.535z M895.988,122.789
				c-425.515,0-771.699,346.184-771.699,771.698c0,425.534,346.184,771.723,771.699,771.723
				c425.533,0,771.723-346.188,771.723-771.723C1667.711,468.973,1321.521,122.789,895.988,122.789z"/>
		</g>
		<g>
			<g>
				<path d="M683.981,681.104c0,67.385-54.636,122.021-122.032,122.021c-67.373,0-122.008-54.636-122.008-122.021
					s54.636-122.021,122.008-122.021C629.346,559.084,683.981,613.72,683.981,681.104z"/>
			</g>
			<g>
				<path d="M1352.06,681.104c0,67.385-54.636,122.021-122.032,122.021c-67.373,0-122.009-54.636-122.009-122.021
					s54.636-122.021,122.009-122.021C1297.424,559.084,1352.06,613.72,1352.06,681.104z"/>
			</g>
		</g>
	</g>
	<g>
		<path d="M1295.622,1176.44H496.378c-30.466,0-55.162-24.696-55.162-55.162s24.696-55.162,55.162-55.162h799.244
			c30.466,0,55.162,24.696,55.162,55.162S1326.088,1176.44,1295.622,1176.44z"/>
	</g>
</g>
</svg>
