<?xml version="1.0" encoding="utf-8"?>
<!-- Generator: Adobe Illustrator 16.0.0, SVG Export Plug-In . SVG Version: 6.00 Build 0)  -->
<!DOCTYPE svg PUBLIC "-//W3C//DTD SVG 1.1//EN" "http://www.w3.org/Graphics/SVG/1.1/DTD/svg11.dtd">
<svg version="1.1" id="Layer_1" xmlns="http://www.w3.org/2000/svg" xmlns:xlink="http://www.w3.org/1999/xlink" x="0px" y="0px"
	 width="200px" height="200px" viewBox="796 796 200 200" enable-background="new 796 796 200 200" xml:space="preserve">
<g>
	<g>
		<g>
			<path d="M895.999,996C840.859,996,796,951.139,796,895.999c0-55.14,44.859-99.999,99.999-99.999
				C951.139,796,996,840.859,996,895.999C996,951.139,951.139,996,895.999,996z M895.999,808.508
				c-48.242,0-87.491,39.249-87.491,87.491c0,48.245,39.249,87.494,87.491,87.494c48.245,0,87.494-39.249,87.494-87.494
				C983.492,847.756,944.243,808.508,895.999,808.508z"/>
		</g>
		<g>
			<g>
				<path d="M871.962,871.806c0,7.64-6.194,13.834-13.835,13.834c-7.639,0-13.833-6.194-13.833-13.834
					c0-7.64,6.194-13.834,13.833-13.834C865.769,857.973,871.962,864.167,871.962,871.806z"/>
			</g>
			<g>
				<path d="M947.705,871.806c0,7.64-6.193,13.834-13.835,13.834c-7.638,0-13.833-6.194-13.833-13.834
					c0-7.64,6.195-13.834,13.833-13.834C941.512,857.973,947.705,864.167,947.705,871.806z"/>
			</g>
		</g>
	</g>
	<g>
		<path d="M941.307,927.965h-90.613c-3.454,0-6.254-2.8-6.254-6.254s2.8-6.254,6.254-6.254h90.613c3.454,0,6.254,2.8,6.254,6.254
			S944.761,927.965,941.307,927.965z"/>
	</g>
</g>
</svg>
