<?xml version="1.0" encoding="utf-8"?>
<!-- Generator: Adobe Illustrator 16.0.0, SVG Export Plug-In . SVG Version: 6.00 Build 0)  -->
<!DOCTYPE svg PUBLIC "-//W3C//DTD SVG 1.1//EN" "http://www.w3.org/Graphics/SVG/1.1/DTD/svg11.dtd">
<svg version="1.1" id="Layer_1" xmlns="http://www.w3.org/2000/svg" xmlns:xlink="http://www.w3.org/1999/xlink" x="0px" y="0px"
	 width="200px" height="200px" viewBox="455.056 796 200 200" enable-background="new 455.056 796 200 200" xml:space="preserve">
<path d="M599.091,796h-88.068c-9.139,0-16.574,7.435-16.574,16.572v166.854c0,9.138,7.436,16.573,16.574,16.573h88.068
	c9.138,0,16.572-7.436,16.572-16.573V812.572C615.663,803.435,608.229,796,599.091,796z M603.339,979.427
	c0,2.343-1.906,4.25-4.248,4.25h-88.068c-2.344,0-4.25-1.907-4.25-4.25V812.572c0-2.343,1.907-4.249,4.25-4.249h15.164
	c0.515,4.248,4.132,7.541,8.519,7.541h40.697c4.392,0,8.005-3.293,8.52-7.541h15.169c2.342,0,4.248,1.906,4.248,4.249V979.427z"/>
</svg>
