<?xml version="1.0" encoding="utf-8"?>
<!-- Generator: Adobe Illustrator 16.0.0, SVG Export Plug-In . SVG Version: 6.00 Build 0)  -->
<!DOCTYPE svg PUBLIC "-//W3C//DTD SVG 1.1//EN" "http://www.w3.org/Graphics/SVG/1.1/DTD/svg11.dtd">
<svg version="1.1" id="Layer_1" xmlns="http://www.w3.org/2000/svg" xmlns:xlink="http://www.w3.org/1999/xlink" x="0px" y="0px"
	 width="200px" height="200px" viewBox="796 720.582 200 200" enable-background="new 796 720.582 200 200" xml:space="preserve">
<path d="M996,730.447l-196.455,82.151c-2.07,0.865-3.451,2.852-3.541,5.093c-0.09,2.242,1.126,4.333,3.12,5.362l49.678,25.639
	l6.244,54.77c0.383,3.348,2.73,6.082,5.98,6.969c0.702,0.189,1.426,0.287,2.153,0.287c2.555,0,4.998-1.219,6.537-3.258
	l26.032-34.537l61.196,31.582c1.627,0.838,3.556,0.857,5.198,0.047c1.642-0.809,2.803-2.348,3.129-4.15L996,730.447z
	 M853.815,837.557l-36.861-19.024l131.591-55.027L853.815,837.557z M866.023,892.102l-5.088-44.635l94.289-73.707L866.023,892.102z
	 M903.194,863.043l74.251-98.507l-22.628,125.152L903.194,863.043z"/>
</svg>
