<?xml version="1.0" encoding="utf-8"?>
<!-- Generator: Adobe Illustrator 16.0.0, SVG Export Plug-In . SVG Version: 6.00 Build 0)  -->
<!DOCTYPE svg PUBLIC "-//W3C//DTD SVG 1.1//EN" "http://www.w3.org/Graphics/SVG/1.1/DTD/svg11.dtd">
<svg version="1.1" id="Layer_1" xmlns="http://www.w3.org/2000/svg" xmlns:xlink="http://www.w3.org/1999/xlink" x="0px" y="0px"
	 width="1792px" height="1641.164px" viewBox="0 67.237 1792 1641.164" enable-background="new 0 67.237 1792 1641.164"
	 xml:space="preserve">
<path d="M1779.387,99.755L43.931,825.471c-18.283,7.645-30.48,25.191-31.276,44.992c-0.796,19.801,9.953,38.27,27.563,47.358
	l438.849,226.489l55.161,483.832c3.384,29.568,24.117,53.725,52.826,61.555c6.199,1.684,12.599,2.547,19.02,2.547
	c22.567,0,44.153-10.764,57.745-28.785l229.966-305.096l540.599,278.984c14.371,7.417,31.409,7.576,45.916,0.429
	c14.508-7.146,24.765-20.753,27.642-36.667L1779.387,99.755z M523.346,1045.953L197.72,877.9l1162.458-486.105L523.346,1045.953z
	 M631.187,1527.801l-44.954-394.313l832.943-651.108L631.187,1527.801z M959.557,1271.102l655.922-870.211l-199.891,1105.569
	L959.557,1271.102z"/>
</svg>
