<?xml version="1.0" encoding="utf-8"?>
<!-- Generator: Adobe Illustrator 16.0.0, SVG Export Plug-In . SVG Version: 6.00 Build 0)  -->
<!DOCTYPE svg PUBLIC "-//W3C//DTD SVG 1.1//EN" "http://www.w3.org/Graphics/SVG/1.1/DTD/svg11.dtd">
<svg version="1.1" id="Layer_1" xmlns="http://www.w3.org/2000/svg" xmlns:xlink="http://www.w3.org/1999/xlink" x="0px" y="0px"
	 width="1792px" height="1614.243px" viewBox="0 72.5 1792 1614.243" enable-background="new 0 72.5 1792 1614.243"
	 xml:space="preserve">
<path d="M32.273,821.157c-13.837,5.786-23.068,19.066-23.671,34.052c-0.603,14.986,7.532,28.964,20.86,35.843l438.369,226.242
	l95.012,521.398c2.762,15.154,14.272,27.217,29.282,30.682c15.01,3.467,30.643-2.326,39.771-14.736l241.318-328.127l581.479,300.104
	c10.877,5.613,23.772,5.734,34.752,0.325c10.98-5.409,18.743-15.707,20.921-27.752L1783.43,88.878L32.273,821.157z
	 M656.796,1214.821l-188.966-97.535l1001.745-722.485L656.796,1214.821z"/>
</svg>
