<?xml version="1.0" encoding="utf-8"?>
<!-- Generator: Adobe Illustrator 16.0.0, SVG Export Plug-In . SVG Version: 6.00 Build 0)  -->
<!DOCTYPE svg PUBLIC "-//W3C//DTD SVG 1.1//EN" "http://www.w3.org/Graphics/SVG/1.1/DTD/svg11.dtd">
<svg version="1.1" id="Layer_1" xmlns="http://www.w3.org/2000/svg" xmlns:xlink="http://www.w3.org/1999/xlink" x="0px" y="0px"
	 width="1792px" height="1792px" viewBox="0 0 1792 1792" enable-background="new 0 0 1792 1792" xml:space="preserve">
<path d="M1733.016,459.99c-37.756-37.781-99.002-37.768-136.783,0L1400.68,655.553l-275.404-275.396l195.584-195.58
	c37.768-37.768,37.768-99.008,0-136.783c-37.756-37.761-98.986-37.774-136.797,0L987.57,244.287
	c-131.046-110.022-327.383-103.46-450.609,19.745l-0.296-0.303l-86.668,86.674c-243.677,243.673-267.935,623.659-72.782,894.482
	c10.68,14.822,9.068,35.225-3.85,48.144L58.979,1607.426c-37.775,37.768-37.775,99.001,0,136.782
	c18.884,18.878,43.638,28.323,68.391,28.323c24.754,0,49.507-9.445,68.392-28.336l318.6-318.612
	c12.497-12.497,31.976-14.481,46.766-4.805c268.738,175.824,632.782,145.702,868.865-90.372l82.891-82.889
	c1.295-1.256,2.686-2.321,3.98-3.59c123.211-123.249,129.738-319.611,19.689-450.674l196.475-196.481
	C1770.795,558.997,1770.795,497.758,1733.016,459.99z M1415.813,1142.863c-74.484,74.456-195.668,74.456-270.137-0.028
	L638.027,635.202c-74.484-74.478-74.484-195.654-0.013-270.118c67.449-67.437,173.161-73.792,247.846-19.085l-98.386,98.387
	c-37.775,37.768-37.775,99.007,0,136.781c18.884,18.891,43.638,28.33,68.39,28.33c24.747,0,49.508-9.446,68.398-28.33l99.969-99.967
	l275.4,275.404l-99.971,99.976c-37.768,37.775-37.768,99.008,0.016,136.789c18.877,18.877,43.637,28.323,68.385,28.323
	c24.746,0,49.506-9.446,68.396-28.336l98.383-98.387C1489.592,969.656,1483.236,1075.414,1415.813,1142.863z"/>
</svg>
