<?xml version="1.0" encoding="utf-8"?>
<!-- Generator: Adobe Illustrator 16.0.0, SVG Export Plug-In . SVG Version: 6.00 Build 0)  -->
<!DOCTYPE svg PUBLIC "-//W3C//DTD SVG 1.1//EN" "http://www.w3.org/Graphics/SVG/1.1/DTD/svg11.dtd">
<svg version="1.1" id="Layer_1" xmlns="http://www.w3.org/2000/svg" xmlns:xlink="http://www.w3.org/1999/xlink" x="0px" y="0px"
	 width="200px" height="200px" viewBox="796 796 200 200" enable-background="new 796 796 200 200" xml:space="preserve">
<path d="M991.491,846.257c-4.307-4.311-11.294-4.309-15.604,0l-22.31,22.311l-31.42-31.419l22.313-22.313
	c4.309-4.309,4.309-11.295,0-15.605c-4.308-4.308-11.293-4.31-15.606,0l-22.418,22.417c-14.95-12.552-37.349-11.803-51.408,2.253
	l-0.034-0.035l-9.888,9.888c-27.8,27.8-30.567,71.15-8.303,102.048c1.218,1.691,1.035,4.019-0.439,5.492l-35.867,35.869
	c-4.31,4.309-4.31,11.294,0,15.604c2.154,2.153,4.979,3.231,7.802,3.231c2.824,0,5.648-1.078,7.803-3.232l36.348-36.35
	c1.426-1.426,3.648-1.652,5.335-0.548c30.659,20.059,72.191,16.622,99.125-10.311l9.457-9.456c0.147-0.144,0.307-0.266,0.454-0.41
	c14.057-14.061,14.801-36.463,2.246-51.416l22.415-22.416C995.802,857.553,995.802,850.566,991.491,846.257z M955.303,924.163
	c-8.497,8.495-22.322,8.495-30.818-0.003l-57.916-57.914c-8.498-8.497-8.498-22.321-0.001-30.817
	c7.695-7.693,19.755-8.418,28.276-2.177l-11.225,11.225c-4.31,4.309-4.31,11.295,0,15.605c2.155,2.155,4.979,3.232,7.803,3.232
	c2.823,0,5.648-1.078,7.802-3.232l11.405-11.405l31.42,31.419l-11.405,11.406c-4.31,4.31-4.31,11.295,0.001,15.606
	c2.154,2.153,4.979,3.231,7.803,3.231c2.822,0,5.647-1.078,7.803-3.233l11.224-11.224
	C963.721,904.403,962.995,916.469,955.303,924.163z"/>
</svg>
