<?xml version="1.0" encoding="utf-8"?>
<!-- Generator: Adobe Illustrator 16.0.0, SVG Export Plug-In . SVG Version: 6.00 Build 0)  -->
<!DOCTYPE svg PUBLIC "-//W3C//DTD SVG 1.1//EN" "http://www.w3.org/Graphics/SVG/1.1/DTD/svg11.dtd">
<svg version="1.1" id="Layer_1" xmlns="http://www.w3.org/2000/svg" xmlns:xlink="http://www.w3.org/1999/xlink" x="0px" y="0px"
	 width="200px" height="200px" viewBox="796 675.578 200 200" enable-background="new 796 675.578 200 200" xml:space="preserve">
<g>
	<path d="M980.674,732.687h-10.723v-34.028c0-5.296-4.309-9.604-9.604-9.604H831.654c-5.295,0-9.604,4.309-9.604,9.604v34.028
		h-10.723c-8.465,0-15.327,6.861-15.327,15.326v55.128c0,8.465,6.862,15.327,15.327,15.327h10.723v34.028
		c0,5.296,4.309,9.604,9.604,9.604h128.694c5.295,0,9.604-4.309,9.604-9.604v-34.028h10.723c8.465,0,15.326-6.862,15.326-15.327
		v-55.128C996,739.548,989.139,732.687,980.674,732.687z M834.097,701.102h123.807v31.585H834.097V701.102z M834.097,850.053
		v-72.212h123.807v72.212H834.097z"/>
	<path d="M936.44,793.89h-80.879c-3.327,0-6.024,2.697-6.024,6.024s2.697,6.023,6.024,6.023h80.879c3.327,0,6.023-2.696,6.023-6.023
		S939.768,793.89,936.44,793.89z"/>
	<path d="M936.44,819.869h-80.879c-3.327,0-6.024,2.696-6.024,6.023s2.697,6.023,6.024,6.023h80.879
		c3.327,0,6.023-2.696,6.023-6.023S939.768,819.869,936.44,819.869z"/>
</g>
</svg>
