<?xml version="1.0" encoding="utf-8"?>
<!-- Generator: Adobe Illustrator 16.0.0, SVG Export Plug-In . SVG Version: 6.00 Build 0)  -->
<!DOCTYPE svg PUBLIC "-//W3C//DTD SVG 1.1//EN" "http://www.w3.org/Graphics/SVG/1.1/DTD/svg11.dtd">
<svg version="1.1" id="Layer_1" xmlns="http://www.w3.org/2000/svg" xmlns:xlink="http://www.w3.org/1999/xlink" x="0px" y="0px"
	 width="2048px" height="1644px" viewBox="0 80.5 2048 1644" enable-background="new 0 80.5 2048 1644" xml:space="preserve">
<path d="M1911.939,654.625h-852.736l-283.9-505.49c-22.434-39.929-72.976-54.117-112.884-31.69
	c-39.922,22.42-54.11,72.962-31.69,112.884l238.304,424.297H136.075c-69.534,0-125.898,56.378-125.898,125.898
	c0,69.534,56.364,125.898,125.898,125.898c15.761,0,29.185,11.454,31.665,27.019l100.076,628.019
	c12.55,78.764,80.485,136.734,160.248,136.734h595.939h595.954c79.764,0,147.691-57.971,160.254-136.734l100.059-628.018
	c2.479-15.564,15.903-27.02,31.665-27.02h0.005c69.533,0,125.885-56.364,125.885-125.898
	C2037.824,711.003,1981.473,654.625,1911.939,654.625z M641.362,1469.875c-2.632,0.297-5.249,0.433-7.834,0.433
	c-34.686,0-64.582-26.058-68.563-61.344l-36.42-322.856c-4.277-37.918,22.987-72.125,60.905-76.402
	c37.904-4.346,72.111,22.993,76.396,60.911l36.42,322.856C706.545,1431.391,679.28,1465.598,641.362,1469.875z M1093.086,1401.218
	c0,38.161-30.928,69.09-69.083,69.09c-38.154,0-69.089-30.929-69.089-69.09v-322.855c0-38.161,30.935-69.09,69.089-69.09
	c38.155,0,69.083,30.929,69.083,69.09V1401.218z M1519.467,1086.107l-36.42,322.856c-3.98,35.286-33.883,61.344-68.576,61.344
	c-2.576,0-5.195-0.136-7.826-0.433c-37.918-4.277-65.189-38.484-60.912-76.402l36.42-322.856
	c4.279-37.918,38.363-65.229,76.404-60.911C1496.475,1013.982,1523.746,1048.189,1519.467,1086.107z"/>
</svg>
