<?xml version="1.0" encoding="utf-8"?>
<!-- Generator: Adobe Illustrator 16.0.0, SVG Export Plug-In . SVG Version: 6.00 Build 0)  -->
<!DOCTYPE svg PUBLIC "-//W3C//DTD SVG 1.1//EN" "http://www.w3.org/Graphics/SVG/1.1/DTD/svg11.dtd">
<svg version="1.1" id="Layer_1" xmlns="http://www.w3.org/2000/svg" xmlns:xlink="http://www.w3.org/1999/xlink" x="0px" y="0px"
	 width="200px" height="200px" viewBox="924 722 200 200" enable-background="new 924 722 200 200" xml:space="preserve">
<path d="M1111.583,797.55h-84.11l-28.003-49.859c-2.213-3.938-7.198-5.338-11.134-3.126c-3.938,2.212-5.337,7.196-3.126,11.135
	l23.505,41.851h-72.296c-6.858,0-12.418,5.562-12.418,12.418c0,6.859,5.56,12.419,12.418,12.419c1.555,0,2.879,1.129,3.124,2.665
	l9.871,61.945c1.238,7.769,7.939,13.487,15.806,13.487H1024h58.783c7.867,0,14.567-5.719,15.807-13.487l9.869-61.945
	c0.244-1.535,1.568-2.665,3.123-2.665h0.001c6.858,0,12.417-5.56,12.417-12.419C1124,803.111,1118.441,797.55,1111.583,797.55z
	 M986.258,877.963c-0.26,0.029-0.518,0.043-0.772,0.043c-3.421,0-6.37-2.57-6.763-6.051l-3.592-31.845
	c-0.422-3.74,2.268-7.114,6.008-7.536c3.738-0.429,7.112,2.268,7.535,6.008l3.592,31.845
	C992.688,874.167,989.998,877.541,986.258,877.963z M1030.814,871.191c0,3.764-3.051,6.814-6.814,6.814
	c-3.763,0-6.814-3.051-6.814-6.814v-31.846c0-3.764,3.051-6.814,6.814-6.814c3.764,0,6.814,3.051,6.814,6.814V871.191z
	 M1072.871,840.109l-3.592,31.846c-0.393,3.48-3.343,6.051-6.765,6.051c-0.255,0-0.513-0.014-0.772-0.043
	c-3.74-0.422-6.43-3.796-6.008-7.536l3.592-31.845c0.423-3.74,3.785-6.435,7.537-6.008
	C1070.604,832.996,1073.293,836.37,1072.871,840.109z"/>
</svg>
