<?xml version="1.0" encoding="utf-8"?>
<!-- Generator: Adobe Illustrator 16.0.0, SVG Export Plug-In . SVG Version: 6.00 Build 0)  -->
<!DOCTYPE svg PUBLIC "-//W3C//DTD SVG 1.1//EN" "http://www.w3.org/Graphics/SVG/1.1/DTD/svg11.dtd">
<svg version="1.1" id="Layer_1" xmlns="http://www.w3.org/2000/svg" xmlns:xlink="http://www.w3.org/1999/xlink" x="0px" y="0px"
	 width="200px" height="200px" viewBox="704.081 796 200 200" enable-background="new 704.081 796 200 200" xml:space="preserve">
<path d="M891.876,977.909l-6.938-125.811h-34.661v-10.157c0-25.333-20.608-45.941-45.94-45.941s-45.94,20.609-45.94,45.941v10.157
	h-36.161l-5.969,126.355l-0.006,0.219c-0.049,4.547,1.758,9.01,4.955,12.239c3.198,3.233,7.641,5.089,12.19,5.089h141.351
	c4.688,0,9.228-1.953,12.453-5.36C890.434,987.233,892.135,982.593,891.876,977.909z M770.379,841.941
	c0-18.725,15.233-33.959,33.958-33.959c18.724,0,33.958,15.234,33.958,33.959v10.157h-67.917V841.941z M878.507,982.402
	c-0.973,1.026-2.339,1.615-3.751,1.615H733.405c-1.37,0-2.707-0.558-3.672-1.534c-0.942-0.95-1.483-2.257-1.492-3.597l5.423-114.806
	h24.731v15.173c0,3.309,2.682,5.991,5.991,5.991c3.309,0,5.991-2.682,5.991-5.991v-15.173h67.917v15.173
	c0,3.309,2.682,5.991,5.991,5.991c3.309,0,5.99-2.682,5.99-5.991v-15.173h23.321l6.313,114.49
	C879.99,979.98,879.478,981.377,878.507,982.402z"/>
</svg>
