<?xml version="1.0" encoding="utf-8"?>
<!-- Generator: Adobe Illustrator 16.0.0, SVG Export Plug-In . SVG Version: 6.00 Build 0)  -->
<!DOCTYPE svg PUBLIC "-//W3C//DTD SVG 1.1//EN" "http://www.w3.org/Graphics/SVG/1.1/DTD/svg11.dtd">
<svg version="1.1" id="Layer_1" xmlns="http://www.w3.org/2000/svg" xmlns:xlink="http://www.w3.org/1999/xlink" x="0px" y="0px"
	 width="2048px" height="1792px" viewBox="0 0 2048 1792" enable-background="new 0 0 2048 1792" xml:space="preserve">
<g>
	<path d="M1423.492,308.014c-4.197-32.103-23.062-60.498-51.073-76.729c-154.653-89.602-346.433-90.837-502.164-3.786
		c-15.167,8.478-33.991,6.763-47.38-4.31c-143.6-118.755-338.489-148.306-504.142-79.712
		C137.146,218.709,19.83,394.339,19.83,590.885v980.626c0,62.603,50.755,113.357,113.357,113.357
		c62.604,0,113.358-50.755,113.358-113.357V590.885c0-104.527,62.404-197.923,158.963-237.941
		c83.826-34.692,177.906-22.768,249.632,29.317c16.914,12.282,22.208,35.022,12.521,53.544
		c-80.246,153.43-76.816,339.222,10.419,489.832c16.229,28.025,44.586,46.916,76.701,51.112c32.116,4.196,64.364-6.777,87.266-29.68
		l551.79-551.816C1416.74,372.351,1427.675,340.116,1423.492,308.014z"/>
	<g>
		<g>
			<path d="M1202.629,835.354c-19.91,0-39.305-8.049-53.416-22.16c-14.1-13.848-22.16-33.506-22.16-53.416
				c0-19.896,8.061-39.291,22.16-53.416c28.223-27.945,78.846-27.945,106.818,0c14.098,14.125,22.174,33.52,22.174,53.416
				c0,20.175-8.076,39.568-22.174,53.416C1242.17,827.305,1222.525,835.354,1202.629,835.354z"/>
		</g>
		<g>
			<path d="M1462.096,1126.075c-29.734-29.48-29.734-77.323,0-107.069l0,0c29.467-29.468,77.336-29.468,106.83,0l0,0
				c29.469,29.746,29.469,77.589,0,107.069l0,0c-14.879,14.615-34.285,22.161-53.416,22.161l0,0
				C1496.117,1148.236,1476.709,1140.69,1462.096,1126.075z M1305.66,969.628c-29.48-29.468-29.48-77.324,0-106.792l0,0
				c29.469-29.494,77.324-29.494,106.818,0l0,0c29.469,29.468,29.469,77.324,0,106.792l0,0
				c-14.615,14.866-34.021,22.174-53.416,22.174l0,0C1339.67,991.802,1320.262,984.494,1305.66,969.628z"/>
		</g>
		<g>
			<path d="M1671.693,1304.433c-19.896,0-39.291-8.049-53.402-21.923c-14.098-14.336-22.174-33.743-22.174-53.653
				c0-19.633,8.076-39.291,22.174-53.402c28.211-27.946,78.596-28.224,106.818,0c14.1,14.111,22.16,33.505,22.16,53.402
				c0,19.91-8.061,39.568-22.16,53.653C1710.998,1296.384,1691.59,1304.433,1671.693,1304.433z"/>
		</g>
	</g>
	<g>
		<g>
			<path d="M1063.563,998.857c-19.896,0-39.556-8.062-53.667-21.922c-13.848-14.099-21.909-33.744-21.909-53.654
				c0-19.896,8.062-39.291,21.909-53.402c28.474-28.224,78.859-27.959,107.07,0c14.098,14.111,22.174,33.744,22.174,53.402
				c0,19.91-8.076,39.556-22.174,53.654C1102.865,990.796,1083.459,998.857,1063.563,998.857z"/>
		</g>
		<g>
			<path d="M1103.104,1336.442c-11.582-40.059,11.861-81.878,51.906-93.461l0,0c40.047-11.346,81.879,11.835,93.463,51.88l0,0
				c11.344,40.059-11.85,82.129-51.908,93.461l0,0c-7.043,2.025-14.098,3.031-20.902,3.031l0,0
				C1142.66,1391.354,1112.689,1369.684,1103.104,1336.442z M1046.936,1140.438c-11.584-40.296,11.848-82.115,51.893-93.461l0,0
				c40.045-11.583,81.877,11.584,93.461,51.881l0,0c11.346,40.085-11.848,81.877-51.893,93.223l0,0
				c-7.057,2.012-13.861,3.031-20.916,3.031l0,0C1086.742,1195.112,1056.506,1173.429,1046.936,1140.438z"/>
		</g>
		<g>
			<path d="M1231.832,1587.596c-19.898,0-39.291-8.063-53.391-22.161c-14.111-14.125-22.174-33.757-22.174-53.415
				c0-19.897,8.063-39.556,22.174-53.654c28.211-27.973,78.596-27.973,106.807,0c14.111,14.099,22.174,33.757,22.174,53.654
				c0,19.658-8.063,39.29-22.174,53.415C1271.148,1579.533,1251.742,1587.596,1231.832,1587.596z"/>
		</g>
	</g>
	<g>
		<g>
			<path d="M1372.42,703.859c-19.91,0-39.555-8.062-53.416-22.16c-14.098-13.86-22.174-33.506-22.174-53.416
				s8.076-39.29,22.174-53.416c27.973-28.21,78.596-28.21,106.818,0c14.111,14.126,22.16,33.506,22.16,53.416
				s-8.049,39.317-22.16,53.416S1392.316,703.859,1372.42,703.859z"/>
		</g>
		<g>
			<path d="M1735.17,830.071c-39.541-13.344-60.947-56.169-47.604-95.725l0,0c13.344-39.568,56.182-60.975,95.738-47.604l0,0
				c39.541,13.33,60.709,56.155,47.604,95.725l0,0c-10.828,31.479-40.059,51.628-71.803,51.628l0,0
				C1751.295,834.096,1742.98,832.601,1735.17,830.071z M1541.709,765.072c-39.555-13.33-60.961-56.169-47.617-95.725l0,0
				c13.344-39.542,56.182-60.975,95.725-47.604l0,0c39.555,13.356,60.975,56.155,47.617,95.725l0,0
				c-10.578,31.493-40.045,51.39-71.539,51.39l0,0C1557.82,768.858,1549.758,767.602,1541.709,765.072z"/>
		</g>
		<g>
			<path d="M1952.594,899.095c-19.91,0-39.305-8.062-53.402-22.16c-14.113-14.099-22.174-33.506-22.174-53.416
				c0-19.896,8.061-39.555,22.174-53.402c28.209-28.224,78.594-28.224,106.805,0c14.098,14.112,22.174,33.506,22.174,53.402
				c0,19.91-8.076,39.317-22.174,53.416C1991.896,891.033,1972.504,899.095,1952.594,899.095z"/>
		</g>
	</g>
</g>
</svg>
