<?xml version="1.0" encoding="utf-8"?>
<!-- Generator: Adobe Illustrator 16.0.0, SVG Export Plug-In . SVG Version: 6.00 Build 0)  -->
<!DOCTYPE svg PUBLIC "-//W3C//DTD SVG 1.1//EN" "http://www.w3.org/Graphics/SVG/1.1/DTD/svg11.dtd">
<svg version="1.1" id="Layer_1" xmlns="http://www.w3.org/2000/svg" xmlns:xlink="http://www.w3.org/1999/xlink" x="0px" y="0px"
	 width="200px" height="200px" viewBox="924 796 200 200" enable-background="new 924 796 200 200" xml:space="preserve">
<g>
	<path d="M1063.783,837.446c-0.417-3.197-2.296-6.025-5.086-7.641c-15.401-8.923-34.5-9.046-50.008-0.377
		c-1.511,0.844-3.385,0.673-4.719-0.429c-14.3-11.826-33.708-14.769-50.204-7.938C935.684,828.552,924,846.042,924,865.615v97.654
		c0,6.234,5.055,11.289,11.289,11.289s11.288-5.055,11.288-11.289v-97.654c0-10.409,6.215-19.71,15.831-23.695
		c8.348-3.455,17.716-2.267,24.859,2.919c1.684,1.223,2.211,3.488,1.247,5.333c-7.992,15.279-7.65,33.781,1.037,48.779
		c1.616,2.791,4.44,4.672,7.638,5.09c3.199,0.418,6.41-0.676,8.691-2.955l54.949-54.953
		C1063.111,843.853,1064.2,840.643,1063.783,837.446z"/>
	<g>
		<g>
			<path d="M1041.789,889.96c-1.983,0-3.915-0.801-5.319-2.207c-1.404-1.379-2.207-3.336-2.207-5.319
				c0-1.981,0.803-3.913,2.207-5.319c2.811-2.783,7.852-2.783,10.637,0c1.404,1.406,2.209,3.338,2.209,5.319
				c0,2.009-0.805,3.94-2.209,5.319C1045.727,889.159,1043.771,889.96,1041.789,889.96z"/>
		</g>
		<g>
			<path d="M1067.628,918.912c-2.961-2.936-2.961-7.699,0-10.662l0,0c2.934-2.936,7.701-2.936,10.638,0l0,0
				c2.936,2.963,2.936,7.727,0,10.662l0,0c-1.48,1.455-3.414,2.207-5.318,2.207l0,0
				C1071.016,921.119,1069.083,920.367,1067.628,918.912z M1052.049,903.332c-2.936-2.934-2.936-7.7,0-10.635l0,0
				c2.935-2.937,7.7-2.937,10.638,0l0,0c2.935,2.935,2.935,7.701,0,10.635l0,0c-1.455,1.48-3.389,2.209-5.319,2.209l0,0
				C1055.437,905.541,1053.503,904.813,1052.049,903.332z"/>
		</g>
		<g>
			<path d="M1088.5,936.674c-1.98,0-3.912-0.801-5.318-2.184c-1.403-1.428-2.208-3.359-2.208-5.344c0-1.955,0.805-3.912,2.208-5.318
				c2.81-2.781,7.827-2.809,10.638,0c1.404,1.406,2.207,3.338,2.207,5.318c0,1.984-0.803,3.941-2.207,5.344
				C1092.414,935.873,1090.481,936.674,1088.5,936.674z"/>
		</g>
	</g>
	<g>
		<g>
			<path d="M1027.94,906.242c-1.981,0-3.939-0.803-5.345-2.184c-1.379-1.402-2.182-3.359-2.182-5.342s0.803-3.913,2.182-5.318
				c2.836-2.811,7.854-2.785,10.663,0c1.403,1.405,2.207,3.361,2.207,5.318c0,1.982-0.804,3.939-2.207,5.342
				C1031.854,905.441,1029.921,906.242,1027.94,906.242z"/>
		</g>
		<g>
			<path d="M1031.877,939.861c-1.153-3.988,1.182-8.154,5.17-9.307l0,0c3.987-1.131,8.153,1.178,9.308,5.166l0,0
				c1.129,3.988-1.181,8.178-5.17,9.307l0,0c-0.701,0.201-1.403,0.303-2.082,0.303l0,0
				C1035.816,945.33,1032.832,943.172,1031.877,939.861z M1026.284,920.342c-1.153-4.014,1.18-8.178,5.167-9.307l0,0
				c3.989-1.154,8.155,1.154,9.308,5.166l0,0c1.13,3.992-1.18,8.154-5.167,9.283l0,0c-0.703,0.201-1.381,0.303-2.083,0.303l0,0
				C1030.248,925.787,1027.237,923.627,1026.284,920.342z"/>
		</g>
		<g>
			<path d="M1044.697,964.873c-1.981,0-3.913-0.805-5.316-2.207c-1.406-1.406-2.209-3.363-2.209-5.32
				c0-1.98,0.803-3.939,2.209-5.344c2.809-2.785,7.826-2.785,10.636,0c1.405,1.404,2.208,3.363,2.208,5.344
				c0,1.957-0.803,3.914-2.208,5.32C1048.612,964.068,1046.68,964.873,1044.697,964.873z"/>
		</g>
	</g>
	<g>
		<g>
			<path d="M1058.697,876.866c-1.983,0-3.939-0.803-5.318-2.207c-1.404-1.381-2.209-3.337-2.209-5.32s0.805-3.913,2.209-5.319
				c2.784-2.809,7.826-2.809,10.637,0c1.404,1.407,2.207,3.336,2.207,5.319s-0.803,3.916-2.207,5.32
				C1062.61,876.063,1060.679,876.866,1058.697,876.866z"/>
		</g>
		<g>
			<path d="M1094.821,889.435c-3.937-1.329-6.068-5.594-4.74-9.533l0,0c1.329-3.94,5.595-6.072,9.534-4.74l0,0
				c3.938,1.328,6.045,5.592,4.741,9.533l0,0c-1.079,3.135-3.989,5.141-7.151,5.141l0,0
				C1096.428,889.835,1095.6,889.687,1094.821,889.435z M1075.557,882.961c-3.939-1.327-6.072-5.594-4.743-9.533l0,0
				c1.329-3.938,5.596-6.072,9.533-4.741l0,0c3.939,1.33,6.073,5.592,4.742,9.533l0,0c-1.054,3.136-3.987,5.117-7.124,5.117l0,0
				C1077.16,883.338,1076.357,883.213,1075.557,882.961z"/>
		</g>
		<g>
			<path d="M1116.474,896.308c-1.983,0-3.914-0.803-5.317-2.207c-1.405-1.404-2.209-3.336-2.209-5.319
				c0-1.981,0.804-3.939,2.209-5.318c2.809-2.811,7.826-2.811,10.636,0c1.403,1.405,2.208,3.337,2.208,5.318
				c0,1.983-0.805,3.916-2.208,5.319C1120.388,895.505,1118.457,896.308,1116.474,896.308z"/>
		</g>
	</g>
</g>
</svg>
