<?xml version="1.0" encoding="utf-8"?>
<!-- Generator: Adobe Illustrator 16.0.0, SVG Export Plug-In . SVG Version: 6.00 Build 0)  -->
<!DOCTYPE svg PUBLIC "-//W3C//DTD SVG 1.1//EN" "http://www.w3.org/Graphics/SVG/1.1/DTD/svg11.dtd">
<svg version="1.1" id="Layer_1" xmlns="http://www.w3.org/2000/svg" xmlns:xlink="http://www.w3.org/1999/xlink" x="0px" y="0px"
	 width="1792px" height="1549.172px" viewBox="0 112.241 1792 1549.172" enable-background="new 0 112.241 1792 1549.172"
	 xml:space="preserve">
<g>
	<path d="M238.124,1652.24c-128.526,0-233.079-104.552-233.079-233.079V354.493c0-128.526,104.553-233.079,233.079-233.079h580.89
		c49.022,0,88.912,39.89,88.912,88.913c0,49.022-39.89,88.912-88.912,88.912h-580.89c-30.48,0-55.268,24.787-55.268,55.254v1064.668
		c0,30.468,24.787,55.254,55.268,55.254h580.89c49.022,0,88.912,39.89,88.912,88.913c0,49.022-39.89,88.912-88.912,88.912H238.124z"
		/>
	<path d="M1213.658,1460.151c-23.754,0-46.078-9.257-62.873-26.052c-16.795-16.781-26.039-39.105-26.039-62.86
		c0-23.741,9.244-46.066,26.039-62.861l332.623-332.638H452.882V797.915h1030.526l-332.623-332.639
		c-16.795-16.795-26.039-39.119-26.039-62.86c0-23.755,9.244-46.079,26.039-62.86c16.781-16.795,39.105-26.052,62.859-26.052
		c23.77,0,46.094,9.257,62.875,26.052l484.383,484.411c16.795,16.795,26.053,39.105,26.053,62.86s-9.258,46.066-26.053,62.861
		L1276.52,1434.1C1259.738,1450.908,1237.414,1460.151,1213.658,1460.151z"/>
</g>
</svg>
