<?xml version="1.0" encoding="utf-8"?>
<!-- Generator: Adobe Illustrator 16.0.0, SVG Export Plug-In . SVG Version: 6.00 Build 0)  -->
<!DOCTYPE svg PUBLIC "-//W3C//DTD SVG 1.1//EN" "http://www.w3.org/Graphics/SVG/1.1/DTD/svg11.dtd">
<svg version="1.1" id="Layer_1" xmlns="http://www.w3.org/2000/svg" xmlns:xlink="http://www.w3.org/1999/xlink" x="0px" y="0px"
	 width="200px" height="200px" viewBox="796 632.07 200 200" enable-background="new 796 632.07 200 200" xml:space="preserve">
<g>
	<path d="M909.152,813.736c-5.217,0-9.46-4.242-9.46-9.457c0-5.218,4.243-9.46,9.46-9.46h61.998c3.271,0,5.933-2.659,5.933-5.929
		V675.251c0-3.269-2.661-5.928-5.933-5.928h-61.998c-5.217,0-9.46-4.243-9.46-9.46c0-5.216,4.243-9.458,9.46-9.458h61.998
		c13.703,0,24.85,11.146,24.85,24.846V788.89c0,13.699-11.146,24.846-24.85,24.846H909.152z"/>
	<path d="M870.573,793.234c-2.526,0-4.902-0.985-6.688-2.771c-1.787-1.787-2.771-4.161-2.771-6.688s0.984-4.901,2.771-6.688
		l35.554-35.557H796v-18.92h103.439l-35.554-35.558c-1.787-1.785-2.771-4.159-2.771-6.686s0.984-4.9,2.771-6.689
		c1.786-1.785,4.161-2.77,6.689-2.77c2.526,0,4.9,0.984,6.686,2.77l51.703,51.705c1.787,1.785,2.77,4.161,2.771,6.688
		c-0.001,2.526-0.983,4.901-2.771,6.688l-51.703,51.703C875.475,792.249,873.101,793.234,870.573,793.234z"/>
</g>
</svg>
