<?xml version="1.0" encoding="utf-8"?>
<!-- Generator: Adobe Illustrator 21.0.0, SVG Export Plug-In . SVG Version: 6.00 Build 0)  -->
<svg version="1.1" id="Layer_1" xmlns="http://www.w3.org/2000/svg" xmlns:xlink="http://www.w3.org/1999/xlink" x="0px" y="0px"
	 viewBox="0 0 1792 1792" style="enable-background:new 0 0 1792 1792;" xml:space="preserve">
<path d="M896.5,1696l-371.9-546.6h259.8c13.5-5.7,25.6-13.2,30.6-22.4c10.3-20.3,6.4-88.3-75.1-214.9
	C637.8,753.3,603.3,596.4,637.8,446.2c51.6-225.3,244.1-344.8,252-350.2l124.6,203.9c-1.1,0.7-114.9,73.3-144.1,199.6
	c-19.6,85.1,4.3,180.4,70.1,282.9c78.3,121.4,117.4,229.5,117.4,322.8c0,15.3-1.4,29.9-3.6,44.1h213.2L896.5,1696z"/>
</svg>
