<?xml version="1.0" encoding="utf-8"?>
<!-- Generator: Adobe Illustrator 21.0.0, SVG Export Plug-In . SVG Version: 6.00 Build 0)  -->
<svg version="1.1" id="Layer_1" xmlns="http://www.w3.org/2000/svg" xmlns:xlink="http://www.w3.org/1999/xlink" x="0px" y="0px"
	 viewBox="0 0 1792 1792" style="enable-background:new 0 0 1792 1792;" xml:space="preserve">
<path d="M1696,896.2l-546.5-371.7V784c-5.7,13.5-13.2,25.6-22.4,30.6c-20.3,10.3-88.3,6.4-215-75.1
	C753.2,637.3,596.6,602.8,446.3,637.3C220.6,689,101,881.6,96,889.8l204,124.6c0.7-1.1,73.3-115,199.7-143.8
	c85.1-19.6,180.5,4.3,283,70.1c121.4,78.3,229.6,117.5,322.6,117.5c15.3,0,29.9-1.4,44.1-3.6v212.9L1696,896.2z"/>
</svg>
