<?xml version="1.0" encoding="utf-8"?>
<!-- Generator: Adobe Illustrator 21.0.0, SVG Export Plug-In . SVG Version: 6.00 Build 0)  -->
<svg version="1.1" id="Layer_1" xmlns="http://www.w3.org/2000/svg" xmlns:xlink="http://www.w3.org/1999/xlink" x="0px" y="0px"
	 viewBox="0 0 1792 1792" style="enable-background:new 0 0 1792 1792;" xml:space="preserve">
<path d="M1696,895.8l-546.6,371.5v-259.8c-5.7-13.5-13.2-25.6-22.4-30.6c-20.3-10.3-88.3-6.4-214.9,75.1
	c-158.7,102.1-315.7,136.7-465.8,102.1C220.6,1102.6,101,910.4,96,902.2l203.9-124.6c0.7,1.1,73.3,114.9,199.6,144.1
	c85.1,19.6,180.4-4.3,282.9-70.1c121.4-78.3,229.5-117.4,322.8-117.4c15.3,0,29.9,1.4,44.1,3.6V524.6L1696,895.8z"/>
</svg>
