<?xml version="1.0" encoding="utf-8"?>
<!-- Generator: Adobe Illustrator 21.0.0, SVG Export Plug-In . SVG Version: 6.00 Build 0)  -->
<svg version="1.1" id="Layer_1" xmlns="http://www.w3.org/2000/svg" xmlns:xlink="http://www.w3.org/1999/xlink" x="0px" y="0px"
	 viewBox="0 0 1792 1792" style="enable-background:new 0 0 1792 1792;" xml:space="preserve">
<path d="M895.8,1696l371.6-546.4h-259.5c-13.5-5.7-25.6-13.2-30.6-22.4c-10.3-20.3-6.4-88.3,75.1-215
	c102.2-158.8,136.7-315.4,102.2-465.6C1103,220.6,910.4,101,902.2,96L777.6,300c1.1,0.7,115,73.3,143.8,199.7
	c19.6,85.1-4.3,180.5-70.1,283C773,904,733.9,1012.2,733.9,1105.1c0,15.3,1.4,29.9,3.6,44.1H524.6L895.8,1696z"/>
</svg>
