<?xml version="1.0" encoding="utf-8"?>
<!-- Generator: Adobe Illustrator 21.0.0, SVG Export Plug-In . SVG Version: 6.00 Build 0)  -->
<svg version="1.1" id="Layer_1" xmlns="http://www.w3.org/2000/svg" xmlns:xlink="http://www.w3.org/1999/xlink" x="0px" y="0px"
	 viewBox="0 0 1792 1792" style="enable-background:new 0 0 1792 1792;" xml:space="preserve">
<path d="M895.6,96l371.9,546.6h-259.8c-13.5,5.7-25.6,13.2-30.6,22.4c-10.3,20.3-6.4,88.3,75.1,214.9
	c102.1,158.7,136.7,315.7,102.1,465.8C1102.8,1571.4,910.2,1691,902,1696l-124.6-203.9c1.1-0.7,114.9-73.3,144.1-199.6
	c19.6-85.1-4.3-180.4-70.1-282.9C773.2,888.2,734.1,780,734.1,686.7c0-15.3,1.4-29.9,3.6-44.1H524.5L895.6,96z"/>
</svg>
