<?xml version="1.0" encoding="utf-8"?>
<!-- Generator: Adobe Illustrator 16.0.0, SVG Export Plug-In . SVG Version: 6.00 Build 0)  -->
<!DOCTYPE svg PUBLIC "-//W3C//DTD SVG 1.1//EN" "http://www.w3.org/Graphics/SVG/1.1/DTD/svg11.dtd">
<svg version="1.1" id="Layer_1" xmlns="http://www.w3.org/2000/svg" xmlns:xlink="http://www.w3.org/1999/xlink" x="0px" y="0px"
	 width="1626.162px" height="1792px" viewBox="82.238 0 1626.162 1792" enable-background="new 82.238 0 1626.162 1792"
	 xml:space="preserve">
<path d="M1644.138,715.083c-48.896-66.675-132.732-106.48-224.246-106.48h-268.869c7.338-49.301,18.674-130.33,35.077-259.678
	c13.139-103.536-6.998-186.458-59.866-246.456c-69.915-79.348-172.728-91.193-227.789-91.193h-39.043l-295.524,724.31H210.133
	c-59.368,0-107.666,48.298-107.666,107.666v829.807c0,59.361,48.298,107.666,107.666,107.666h197.238
	c58.063,0,106.354-47.232,107.647-105.283l0.188-8.523l199.679,53.928c86.263,23.289,175.293,35.102,264.62,35.102h240.271
	c119.746,0,224.486-76.762,260.623-190.996l43.903-138.746c63.713-201.363,123.062-388.93,149.288-472.199
	C1709.791,839.078,1677.563,760.645,1644.138,715.083z M1562.761,919.1c-26.227,83.236-85.55,270.754-149.25,472.053
	l-43.891,138.746c-20.792,65.705-81.011,109.848-149.843,109.848H979.506c-79.102,0-157.938-10.465-234.321-31.094l-229.618-62.006
	V851.788h54.041c43.954,0,83.086-26.296,99.691-66.99l267.072-654.583c32.833,4.734,74.618,17.242,102.673,49.073
	c29.845,33.867,40.537,86.023,31.787,155.012c-32.581,256.79-44.888,320.508-44.988,321.025l-13.87,69.48h407.919
	c53.826,0,103.857,22.607,130.551,59.003C1575.937,818.577,1580.085,864.094,1562.761,919.1z"/>
</svg>
