<?xml version="1.0" encoding="utf-8"?>
<!-- Generator: Adobe Illustrator 16.0.0, SVG Export Plug-In . SVG Version: 6.00 Build 0)  -->
<!DOCTYPE svg PUBLIC "-//W3C//DTD SVG 1.1//EN" "http://www.w3.org/Graphics/SVG/1.1/DTD/svg11.dtd">
<svg version="1.1" id="Layer_1" xmlns="http://www.w3.org/2000/svg" xmlns:xlink="http://www.w3.org/1999/xlink" x="0px" y="0px"
	 width="1620.162px" height="1792px" viewBox="85.238 0 1620.162 1792" enable-background="new 85.238 0 1620.162 1792"
	 xml:space="preserve">
<g>
	<path d="M431.933,786.171H152.236c-29.371,0-53.192,23.821-53.192,53.206v890.752c0,29.385,23.821,53.207,53.192,53.207h225.598
		c28.924,0,52.542-23.105,53.192-52.029l0.906-40.861V786.171z"/>
	<path d="M1464.699,649.862c-134.265,0-361.813,0-361.813,0s12.939-64.791,48.996-348.968
		c30.644-241.502-137.974-292.23-246.922-292.23L534.107,895.992v773.895l190.083,51.324
		c87.299,23.576,177.359,35.527,267.793,35.527h257.919c100.726,0,189.92-65.426,220.292-161.469
		c84.62-267.463,172.786-545.994,207.354-655.734C1736.533,752.267,1599.02,649.862,1464.699,649.862z"/>
</g>
</svg>
