<?xml version="1.0" encoding="utf-8"?>
<!-- Generator: Adobe Illustrator 16.0.0, SVG Export Plug-In . SVG Version: 6.00 Build 0)  -->
<!DOCTYPE svg PUBLIC "-//W3C//DTD SVG 1.1//EN" "http://www.w3.org/Graphics/SVG/1.1/DTD/svg11.dtd">
<svg version="1.1" id="Layer_1" xmlns="http://www.w3.org/2000/svg" xmlns:xlink="http://www.w3.org/1999/xlink" x="0px" y="0px"
	 width="200px" height="200px" viewBox="713.082 796 200 200" enable-background="new 713.082 796 200 200" xml:space="preserve">
<path d="M900.972,889.443c-2.964-9.412-9.672-30.613-16.874-53.372l-4.962-15.682c-4.085-12.913-15.924-21.588-29.458-21.588H822.52
	c-10.097,0-20.16,1.335-29.911,3.968l-22.569,6.095l-0.021-0.963c-0.145-6.562-5.603-11.9-12.167-11.9h-22.294
	c-6.71,0-12.169,5.459-12.169,12.169v93.792c0,6.71,5.459,12.169,12.169,12.169h39.984L808.945,996h4.413
	c6.224,0,17.845-1.34,25.747-10.308c5.976-6.781,8.252-16.153,6.767-27.857c-1.854-14.619-3.135-23.778-3.965-29.351h30.391
	c10.344,0,19.819-4.499,25.347-12.036C901.421,911.3,905.064,902.434,900.972,889.443z M887.053,908.681
	c-3.018,4.114-8.672,6.669-14.757,6.669l-46.078,0.011l1.538,7.832c0.013,0.068,1.403,7.271,5.086,36.296
	c0.989,7.799-0.219,13.693-3.593,17.521c-3.171,3.599-7.894,5.011-11.604,5.547l-30.187-73.986
	c-1.875-4.601-6.299-7.573-11.269-7.573h-6.349v-78.475l26.194-7.074c8.634-2.332,17.546-3.514,26.486-3.514h27.158
	c7.78,0,14.587,4.989,16.937,12.416l4.961,15.683c7.2,22.752,13.905,43.946,16.87,53.355
	C890.404,899.606,889.935,904.751,887.053,908.681z"/>
</svg>
