<?xml version="1.0" encoding="utf-8"?>
<!-- Generator: Adobe Illustrator 16.0.0, SVG Export Plug-In . SVG Version: 6.00 Build 0)  -->
<!DOCTYPE svg PUBLIC "-//W3C//DTD SVG 1.1//EN" "http://www.w3.org/Graphics/SVG/1.1/DTD/svg11.dtd">
<svg version="1.1" id="Layer_1" xmlns="http://www.w3.org/2000/svg" xmlns:xlink="http://www.w3.org/1999/xlink" x="0px" y="0px"
	 width="1606.76px" height="1792px" viewBox="98.64 0 1606.76 1792" enable-background="new 98.64 0 1606.76 1792"
	 xml:space="preserve">
<g>
	<path d="M440.198,1005.458H161.446c-29.271,0-53.012-23.741-53.012-53.025V64.69c0-29.284,23.741-53.025,53.012-53.025h224.836
		c28.826,0,52.364,23.026,53.011,51.853l0.904,40.724V1005.458z"/>
	<path d="M1469.479,1141.306c-133.812,0-360.59,0-360.59,0s12.896,64.572,48.83,347.788
		c30.539,240.686-137.507,291.241-246.094,291.241l-369.6-884.327V124.73l189.44-51.15c87.004-23.497,176.76-35.408,266.88-35.408
		h257.062c100.385,0,189.278,65.206,219.548,160.924c84.333,266.557,172.201,544.148,206.651,653.518
		C1740.393,1039.248,1603.344,1141.306,1469.479,1141.306z"/>
</g>
</svg>
