<?xml version="1.0" encoding="utf-8"?>
<!-- Generator: Adobe Illustrator 16.0.0, SVG Export Plug-In . SVG Version: 6.00 Build 0)  -->
<!DOCTYPE svg PUBLIC "-//W3C//DTD SVG 1.1//EN" "http://www.w3.org/Graphics/SVG/1.1/DTD/svg11.dtd">
<svg version="1.1" id="Layer_1" xmlns="http://www.w3.org/2000/svg" xmlns:xlink="http://www.w3.org/1999/xlink" x="0px" y="0px"
	 width="200px" height="200px" viewBox="703.38 796 200 200" enable-background="new 703.38 796 200 200" xml:space="preserve">
<g>
	<path d="M751.157,908.377h-31.521c-3.31,0-5.995-2.685-5.995-5.995V801.996c0-3.312,2.685-5.996,5.995-5.996h25.424
		c3.26,0,5.921,2.604,5.994,5.863l0.103,4.605V908.377L751.157,908.377z"/>
	<path d="M867.548,923.739c-15.131,0-40.775,0-40.775,0s1.458,7.302,5.521,39.327C835.748,990.283,816.745,996,804.466,996
		l-41.794-99.999v-87.216l21.421-5.784c9.838-2.657,19.989-4.004,30.179-4.004h29.068c11.352,0,21.403,7.373,24.826,18.197
		c9.536,30.142,19.473,61.532,23.368,73.899C898.183,912.198,882.686,923.739,867.548,923.739z"/>
</g>
</svg>
