<?xml version="1.0" encoding="utf-8"?>
<!-- Generator: Adobe Illustrator 16.0.0, SVG Export Plug-In . SVG Version: 6.00 Build 0)  -->
<!DOCTYPE svg PUBLIC "-//W3C//DTD SVG 1.1//EN" "http://www.w3.org/Graphics/SVG/1.1/DTD/svg11.dtd">
<svg version="1.1" id="Layer_1" xmlns="http://www.w3.org/2000/svg" xmlns:xlink="http://www.w3.org/1999/xlink" x="0px" y="0px"
	 width="200px" height="200px" viewBox="796 796 200 200" enable-background="new 796 796 200 200" xml:space="preserve">
<g>
	<path d="M995.998,871.884c0-3.136-1.222-6.084-3.439-8.301l-14.355-14.355c-1.479-1.479-3.445-2.294-5.538-2.294
		c-1.906,0-3.747,0.694-5.181,1.958c-3.145,2.771-7.195,4.298-11.403,4.298c-4.614,0-8.953-1.796-12.216-5.059
		c-6.43-6.43-6.764-16.805-0.762-23.617c2.729-3.094,2.582-7.804-0.335-10.721l-14.355-14.355c-2.219-2.216-5.166-3.438-8.301-3.438
		c-3.136,0-6.083,1.221-8.302,3.438L799.434,911.813c-4.575,4.577-4.575,12.023,0,16.602l14.356,14.356
		c1.479,1.479,3.446,2.296,5.539,2.296c1.908,0,3.748-0.695,5.182-1.959c3.146-2.772,7.195-4.299,11.404-4.299
		c4.614,0,8.951,1.797,12.214,5.061c6.431,6.431,6.765,16.804,0.761,23.616c-2.73,3.096-2.581,7.807,0.336,10.719l14.354,14.355
		c2.218,2.219,5.166,3.439,8.302,3.439s6.084-1.221,8.301-3.439l82.754-82.753c0.001-0.001,0.001-0.001,0.001-0.001s0,0,0.002-0.002
		l29.618-29.618C994.776,877.969,995.998,875.021,995.998,871.884z M958.53,896.588l-1.469-1.469c-2.435-2.435-6.379-2.434-8.813,0
		c-2.433,2.434-2.433,6.379,0.001,8.814l1.469,1.467l-77.835,77.836l-10.997-10.997c7.497-11.569,6.08-27.161-3.943-37.183
		c-5.616-5.618-13.084-8.711-21.027-8.711c-5.772,0-11.375,1.672-16.157,4.769l-11-11l77.837-77.836l1.47,1.469
		c1.217,1.217,2.811,1.825,4.406,1.825s3.19-0.609,4.407-1.826c2.434-2.434,2.434-6.379-0.001-8.813l-1.468-1.469l24.703-24.703
		l10.997,10.997c-7.495,11.572-6.079,27.163,3.943,37.184c5.616,5.617,13.084,8.709,21.028,8.709c5.771,0,11.373-1.671,16.155-4.767
		l10.998,10.998L958.53,896.588z"/>
	<path d="M909.645,847.701c-2.432-2.434-6.381-2.434-8.813,0c-2.434,2.434-2.434,6.379,0,8.813l10.942,10.943
		c1.216,1.216,2.812,1.825,4.406,1.825s3.19-0.608,4.406-1.825c2.434-2.434,2.434-6.379,0-8.813L909.645,847.701z"/>
	<path d="M933.353,871.41c-2.431-2.433-6.38-2.433-8.812,0c-2.435,2.434-2.435,6.379,0,8.813l10.941,10.942
		c1.217,1.217,2.813,1.826,4.406,1.826c1.595,0,3.19-0.608,4.406-1.825c2.435-2.434,2.435-6.379,0-8.813L933.353,871.41z"/>
</g>
</svg>
