<?xml version="1.0" encoding="utf-8"?>
<!-- Generator: Adobe Illustrator 16.0.0, SVG Export Plug-In . SVG Version: 6.00 Build 0)  -->
<!DOCTYPE svg PUBLIC "-//W3C//DTD SVG 1.1//EN" "http://www.w3.org/Graphics/SVG/1.1/DTD/svg11.dtd">
<svg version="1.1" id="Layer_1" xmlns="http://www.w3.org/2000/svg" xmlns:xlink="http://www.w3.org/1999/xlink" x="0px" y="0px"
	 width="1792px" height="1792px" viewBox="0 0 1792 1792" enable-background="new 0 0 1792 1792" xml:space="preserve">
<g>
	<path d="M1788.691,680.718c0-27.997-10.902-54.315-30.701-74.109l-128.154-128.146c-13.207-13.207-30.76-20.481-49.438-20.481
		c-17.021,0-33.453,6.199-46.25,17.476c-28.07,24.743-64.229,38.373-101.799,38.373c-41.191,0-79.922-16.038-109.053-45.164
		c-57.395-57.4-60.377-150.017-6.797-210.833c24.363-27.623,23.047-69.666-2.994-95.707L1185.354,33.978
		c-19.801-19.787-46.119-30.688-74.104-30.688s-54.303,10.901-74.104,30.695L33.94,1037.167
		c-40.842,40.866-40.842,107.339,0.006,148.206l128.159,128.164c13.208,13.208,30.768,20.488,49.444,20.488
		c17.035,0,33.459-6.206,46.263-17.481c28.082-24.75,64.233-38.38,101.804-38.38c41.186,0,79.904,16.045,109.035,45.177
		c57.412,57.406,60.395,150.004,6.791,210.827c-24.369,27.635-23.041,69.685,3,95.688l128.141,128.153
		c19.8,19.8,46.118,30.701,74.115,30.701s54.315-10.901,74.108-30.701l738.752-738.747c0.012-0.012,0.012-0.012,0.012-0.012
		s0,0,0.014-0.012l264.406-264.406C1777.789,735.033,1788.691,708.715,1788.691,680.718z M1454.215,901.245l-13.111-13.11
		c-21.732-21.731-56.947-21.726-78.68,0.006c-21.719,21.73-21.719,56.947,0.012,78.679l13.111,13.099l-694.849,694.85l-98.17-98.176
		c66.919-103.282,54.273-242.47-35.204-331.93c-50.139-50.15-116.805-77.761-187.708-77.761c-51.533,0-101.55,14.922-144.234,42.568
		l-98.194-98.2l694.862-694.85l13.123,13.117c10.86,10.865,25.094,16.292,39.334,16.292c14.239,0,28.479-5.433,39.339-16.298
		c21.725-21.726,21.725-56.947-0.006-78.673l-13.112-13.11l220.522-220.522l98.176,98.17
		c-66.908,103.301-54.268,242.482,35.205,331.948c50.137,50.138,116.803,77.748,187.719,77.748
		c51.527,0,101.533-14.915,144.223-42.556l98.176,98.182L1454.215,901.245z"/>
	<path d="M1017.807,464.832c-21.707-21.731-56.959-21.726-78.666-0.006c-21.732,21.725-21.732,56.947,0,78.678l97.68,97.688
		c10.854,10.859,25.1,16.292,39.334,16.292s28.48-5.433,39.334-16.292c21.73-21.725,21.73-56.947,0-78.673L1017.807,464.832z"/>
	<path d="M1229.455,676.48c-21.707-21.72-56.959-21.72-78.666,0c-21.732,21.725-21.732,56.947,0,78.672l97.68,97.688
		c10.854,10.865,25.1,16.298,39.334,16.298s28.479-5.433,39.332-16.292c21.732-21.726,21.732-56.947,0-78.679L1229.455,676.48z"/>
</g>
</svg>
