<?xml version="1.0" encoding="utf-8"?>
<!-- Generator: Adobe Illustrator 16.0.0, SVG Export Plug-In . SVG Version: 6.00 Build 0)  -->
<!DOCTYPE svg PUBLIC "-//W3C//DTD SVG 1.1//EN" "http://www.w3.org/Graphics/SVG/1.1/DTD/svg11.dtd">
<svg version="1.1" id="Layer_1" xmlns="http://www.w3.org/2000/svg" xmlns:xlink="http://www.w3.org/1999/xlink" x="0px" y="0px"
	 width="1792px" height="1658.739px" viewBox="0 61.236 1792 1658.739" enable-background="new 0 61.236 1792 1658.739"
	 xml:space="preserve">
<path d="M1353.316,66.631c-240.041,0-435.323,195.275-435.323,435.316v193.008H169.487c-91.739,0-166.108,74.369-166.108,166.108
	v515.72c0,186.56,151.237,337.797,337.797,337.797h597.865c186.56,0,337.797-151.237,337.797-337.797v-515.72
	c0-91.739-74.369-166.108-166.107-166.108h-35.297V501.947c0-153.225,124.657-277.882,277.883-277.882
	c153.213,0,277.869,124.657,277.869,277.882v280.396c0,43.478,35.234,78.723,78.713,78.723c43.477,0,78.723-35.245,78.723-78.723
	V501.947C1788.621,261.906,1593.344,66.631,1353.316,66.631z"/>
<g>
	<path fill="#FFFFFF" d="M778.84,1085.104c0-78.311-63.477-141.776-141.781-141.776c-78.292,0-141.77,63.466-141.77,141.776
		c0,56.037,32.6,104.343,79.804,127.364v210.174c0,34.234,27.75,61.966,61.966,61.966c34.216,0,61.966-27.731,61.966-61.966
		v-210.174C746.223,1189.459,778.84,1141.142,778.84,1085.104z"/>
</g>
</svg>
