<?xml version="1.0" encoding="utf-8"?>
<!-- Generator: Adobe Illustrator 16.0.0, SVG Export Plug-In . SVG Version: 6.00 Build 0)  -->
<!DOCTYPE svg PUBLIC "-//W3C//DTD SVG 1.1//EN" "http://www.w3.org/Graphics/SVG/1.1/DTD/svg11.dtd">
<svg version="1.1" id="Layer_1" xmlns="http://www.w3.org/2000/svg" xmlns:xlink="http://www.w3.org/1999/xlink" x="0px" y="0px"
	 width="200px" height="200px" viewBox="796 796 200 200" enable-background="new 796 796 200 200" xml:space="preserve">
<g>
	<g>
		<path d="M966.616,867.303c0,2.917-1.138,5.66-3.199,7.721c-2.064,2.063-4.804,3.199-7.721,3.199s-5.659-1.136-7.721-3.199
			l-41.055-41.048v119.427h-21.844V833.976l-41.053,41.048c-2.062,2.063-4.803,3.199-7.719,3.199c-2.917,0-5.658-1.136-7.723-3.199
			c-2.062-2.061-3.198-4.804-3.198-7.723c0-2.917,1.136-5.658,3.198-7.72l59.696-59.694c2.061-2.063,4.804-3.198,7.721-3.2
			c2.917,0.002,5.66,1.137,7.722,3.2l59.696,59.694C965.479,861.643,966.616,864.384,966.616,867.303z"/>
	</g>
	<g>
		<path d="M973.588,995.313H818.412c-12.358,0-22.412-10.054-22.412-22.411v-53.362c0-12.358,10.054-22.412,22.412-22.412h32.994
			c5.781,0,10.468,4.688,10.468,10.468s-4.687,10.468-10.468,10.468h-32.994c-0.814,0-1.477,0.662-1.477,1.477v53.362
			c0,0.813,0.663,1.477,1.477,1.477h155.176c0.814,0,1.477-0.663,1.477-1.477v-53.362c0-0.814-0.662-1.477-1.477-1.477h-32.994
			c-5.781,0-10.468-4.688-10.468-10.468s4.687-10.468,10.468-10.468h32.994c12.358,0,22.412,10.054,22.412,22.412v53.362
			C996,985.259,985.946,995.313,973.588,995.313z"/>
	</g>
</g>
</svg>
