<?xml version="1.0" encoding="utf-8"?>
<!-- Generator: Adobe Illustrator 16.0.0, SVG Export Plug-In . SVG Version: 6.00 Build 0)  -->
<!DOCTYPE svg PUBLIC "-//W3C//DTD SVG 1.1//EN" "http://www.w3.org/Graphics/SVG/1.1/DTD/svg11.dtd">
<svg version="1.1" id="Layer_1" xmlns="http://www.w3.org/2000/svg" xmlns:xlink="http://www.w3.org/1999/xlink" x="0px" y="0px"
	 width="1792px" height="1792px" viewBox="0 0 1792 1792" enable-background="new 0 0 1792 1792" xml:space="preserve">
<g>
	<g>
		<path d="M1520.588,642.179c0,25.798-10.066,50.058-28.299,68.291c-18.263,18.247-42.493,28.298-68.29,28.298
			c-25.798,0-50.058-10.051-68.291-28.298L992.589,347.41v1056.299h-193.2V347.41L436.283,710.47
			c-18.232,18.247-42.478,28.298-68.274,28.298c-25.798,0-50.043-10.051-68.306-28.298c-18.233-18.233-28.283-42.493-28.283-68.306
			c0-25.797,10.05-50.043,28.283-68.275L827.702,45.905c18.232-18.248,42.493-28.284,68.29-28.299
			c25.805,0.015,50.065,10.051,68.298,28.299l527.999,527.983C1510.521,592.121,1520.588,616.367,1520.588,642.179z"/>
	</g>
	<g>
		<path d="M1582.248,1774.394H209.752c-109.299,0-198.226-88.919-198.226-198.226v-471.975
			c0-109.307,88.927-198.226,198.226-198.226h291.831c51.127,0,92.58,41.453,92.58,92.58c0,51.128-41.453,92.581-92.58,92.581
			H209.752c-7.203,0-13.064,5.861-13.064,13.064v471.975c0,7.202,5.861,13.064,13.064,13.064h1372.496
			c7.202,0,13.064-5.862,13.064-13.064v-471.975c0-7.203-5.862-13.064-13.064-13.064h-291.831
			c-51.128,0-92.581-41.453-92.581-92.581c0-51.127,41.453-92.58,92.581-92.58h291.831c109.307,0,198.226,88.919,198.226,198.226
			v471.975C1780.474,1685.475,1691.555,1774.394,1582.248,1774.394z"/>
	</g>
</g>
</svg>
