<?xml version="1.0" encoding="utf-8"?>
<!-- Generator: Adobe Illustrator 16.0.0, SVG Export Plug-In . SVG Version: 6.00 Build 0)  -->
<!DOCTYPE svg PUBLIC "-//W3C//DTD SVG 1.1//EN" "http://www.w3.org/Graphics/SVG/1.1/DTD/svg11.dtd">
<svg version="1.1" id="Layer_1" xmlns="http://www.w3.org/2000/svg" xmlns:xlink="http://www.w3.org/1999/xlink" x="0px" y="0px"
	 width="1792px" height="1792px" viewBox="0 0 1792 1792" enable-background="new 0 0 1792 1792" xml:space="preserve">
<g>
	<g>
		<path d="M1356.084,546.946c0,295.013-202.521,534.208-452.319,534.208c-249.778,0-452.262-239.196-452.262-534.208
			c0-295.062,202.483-534.179,452.262-534.179C1153.563,12.767,1356.084,251.884,1356.084,546.946z"/>
	</g>
	<path d="M1705.702,1546.729c-57.589-200.969-188.163-370.869-361.045-479.857c-9.41-5.932-19.595-9.951-30.041-12.117v343.83
		c48.192,15.91,82.984,61.303,82.984,114.84c0,66.783-54.149,120.92-120.92,120.92c-66.782,0-120.92-54.137-120.92-120.92
		c0-53.539,34.786-98.932,82.983-114.842v-325.365c-0.917,0.748-1.824,1.51-2.718,2.297
		c-92.775,81.707-207.605,130.363-332.256,130.363c-125.871,0-241.707-49.578-334.979-132.723v178.307
		c101.604,17.992,179.015,106.934,179.015,213.619v112.41c0,36.516-29.705,66.215-66.215,66.215h-30.495
		c-20.95,0-37.936-16.98-37.936-37.936c0-20.957,16.985-37.938,37.936-37.938h20.839V1465.08
		c0-77.787-63.288-141.074-141.079-141.074s-141.079,63.287-141.079,141.074v102.752h20.845c20.95,0,37.936,16.98,37.936,37.938
		c0,20.955-16.985,37.936-37.936,37.936H380.12c-36.509,0-66.214-29.699-66.214-66.215v-112.41
		c0-106.686,77.41-195.627,179.015-213.619v-203.342c-12.209,1.654-24.21,5.795-35.223,12.52
		c-177.976,108.666-312.673,281.201-371.417,486.09c-15.782,54.965-4.693,114.227,29.711,159.953
		c34.49,45.654,88.368,72.551,145.555,72.551H1530.41c57.236,0,111.127-26.797,145.617-72.551
		C1710.48,1660.955,1721.483,1601.756,1705.702,1546.729z"/>
</g>
</svg>
