<?xml version="1.0" encoding="utf-8"?>
<!-- Generator: Adobe Illustrator 16.0.0, SVG Export Plug-In . SVG Version: 6.00 Build 0)  -->
<!DOCTYPE svg PUBLIC "-//W3C//DTD SVG 1.1//EN" "http://www.w3.org/Graphics/SVG/1.1/DTD/svg11.dtd">
<svg version="1.1" id="Layer_1" xmlns="http://www.w3.org/2000/svg" xmlns:xlink="http://www.w3.org/1999/xlink" x="0px" y="0px"
	 width="2048px" height="1356px" viewBox="0 212.5 2048 1356" enable-background="new 0 212.5 2048 1356" xml:space="preserve">
<g>
	<g>
		<path d="M624.294,494.409c0,141.969-97.45,257.053-217.643,257.053c-120.193,0-217.623-115.084-217.623-257.053
			c0-141.956,97.43-257.027,217.623-257.027C526.844,237.382,624.294,352.453,624.294,494.409z"/>
		<path d="M654.724,947.695c15.718-9.589,33.11-15.816,51.118-18.812c-36.571-51.597-62.474-106.947-77.446-173.184
			c-4.102-24.202-37.245-27.04-61.879-6.959c-46.096,37.585-99.877,62.729-159.865,62.729c-61.153,0-117.4-24.333-162.508-65.045
			c-14.391-13.004-35.591-14.967-52.146-4.854c-85.629,52.303-150.438,135.322-178.71,233.91
			c-7.587,26.439-2.256,54.972,14.306,76.963c16.595,21.965,42.511,34.917,70.036,34.917H489.77
			C536.702,1033.201,592.092,985.936,654.724,947.695z"/>
	</g>
	<g>
		<path d="M1423.718,494.409c0,141.969,97.437,257.053,217.636,257.053c120.2,0,217.623-115.084,217.623-257.053
			c0-141.956-97.423-257.027-217.623-257.027C1521.154,237.382,1423.718,352.453,1423.718,494.409z"/>
		<path d="M1393.288,947.695c-15.725-9.589-33.124-15.816-51.125-18.812c36.577-51.597,62.48-106.947,77.446-173.184
			c4.108-24.202,37.245-27.04,61.879-6.959c46.103,37.585,99.87,62.729,159.865,62.729c61.146,0,117.4-24.333,162.508-65.045
			c14.391-13.004,35.584-14.967,52.146-4.854c85.637,52.303,150.446,135.322,178.704,233.91
			c7.588,26.439,2.263,54.972-14.299,76.963c-16.602,21.965-42.518,34.917-70.029,34.917h-392.153
			C1511.303,1033.201,1455.913,985.936,1393.288,947.695z"/>
	</g>
	<g>
		<path d="M1616.994,1371.691c-42.583-148.608-139.137-274.243-266.976-354.837c-25.225-15.902-57.952-13.317-80.33,6.391
			c-68.604,60.42-153.51,96.403-245.687,96.403c-93.99,0-180.42-37.38-249.735-99.956c-22.125-19.974-54.691-22.982-80.131-7.449
			c-131.602,80.358-231.208,207.942-274.638,359.448c-11.676,40.646-3.486,84.472,21.965,118.276
			c25.511,33.766,65.339,53.65,107.641,53.65h938.272c42.32,0,82.169-19.819,107.68-53.65
			C1620.526,1456.163,1628.664,1412.377,1616.994,1371.691z"/>
		<path d="M1358.463,632.388c0,218.159-149.739,395.031-334.461,395.031c-184.708,0-334.44-176.872-334.44-395.031
			c0-218.186,149.732-395.006,334.44-395.006C1208.724,237.382,1358.463,414.202,1358.463,632.388z"/>
	</g>
</g>
</svg>
