<?xml version="1.0" encoding="utf-8"?>
<!-- Generator: Adobe Illustrator 16.0.0, SVG Export Plug-In . SVG Version: 6.00 Build 0)  -->
<!DOCTYPE svg PUBLIC "-//W3C//DTD SVG 1.1//EN" "http://www.w3.org/Graphics/SVG/1.1/DTD/svg11.dtd">
<svg version="1.1" id="Layer_1" xmlns="http://www.w3.org/2000/svg" xmlns:xlink="http://www.w3.org/1999/xlink" x="0px" y="0px"
	 width="200px" height="200px" viewBox="924 796 200 200" enable-background="new 924 796 200 200" xml:space="preserve">
<g>
	<path d="M1050.379,857.065c0,29.431-20.199,53.292-45.119,53.292c-24.917,0-45.116-23.862-45.116-53.292
		c0-29.433,20.198-53.285,45.116-53.285C1030.18,803.78,1050.379,827.632,1050.379,857.065z"/>
	<path d="M1065.693,988.22c1.768,0,3.201-1.433,3.201-3.2v-18.697c0-1.767-1.434-3.2-3.201-3.2h-14.774
		c-8.276,0-15.012-6.733-15.012-15.012c0-8.277,6.735-15.011,15.012-15.011h17.905c-5.382-6.167-11.636-11.557-18.591-15.94
		c-3.404-2.146-7.82-1.797-10.839,0.862c-9.255,8.15-20.709,13.004-33.143,13.004c-12.679,0-24.337-5.043-33.688-13.485
		c-2.985-2.694-7.378-3.1-10.81-1.005c-17.754,10.842-31.191,28.053-37.051,48.491c-1.574,5.483-0.468,11.396,2.963,15.956
		c3.442,4.557,8.816,7.237,14.521,7.237H1065.693L1065.693,988.22z"/>
	<path d="M1116.891,941.001h-25.875v-25.876c0-3.927-3.184-7.11-7.111-7.11c-3.929,0-7.111,3.184-7.111,7.11v25.876h-25.875
		c-3.927,0-7.11,3.184-7.11,7.109c0,3.927,3.184,7.11,7.11,7.11h25.875v25.876c0,3.927,3.183,7.11,7.111,7.11
		c3.928,0,7.111-3.184,7.111-7.11v-25.876h25.875c3.926,0,7.109-3.184,7.109-7.11C1124,944.185,1120.816,941.001,1116.891,941.001z"
		/>
</g>
</svg>
