<?xml version="1.0" encoding="utf-8"?>
<!-- Generator: Adobe Illustrator 16.0.0, SVG Export Plug-In . SVG Version: 6.00 Build 0)  -->
<!DOCTYPE svg PUBLIC "-//W3C//DTD SVG 1.1//EN" "http://www.w3.org/Graphics/SVG/1.1/DTD/svg11.dtd">
<svg version="1.1" id="Layer_1" xmlns="http://www.w3.org/2000/svg" xmlns:xlink="http://www.w3.org/1999/xlink" x="0px" y="0px"
	 width="1792px" height="1792px" viewBox="0 0 1792 1792" enable-background="new 0 0 1792 1792" xml:space="preserve">
<path d="M896,9.856C407.379,9.856,9.862,407.379,9.862,896c0,488.626,397.517,886.144,886.138,886.144
	S1782.138,1384.626,1782.138,896C1782.138,407.379,1384.621,9.856,896,9.856z M901.661,288.326
	c181.997,0,329.549,174.217,329.549,389.206c0,214.954-147.552,389.229-329.549,389.229S572.136,892.486,572.136,677.532
	C572.136,462.543,719.664,288.326,901.661,288.326z M896,1674.569c-218.813,0-416.829-90.739-558.406-236.563
	c-20.083-20.685-26.453-51.173-16.31-78.16c48.475-128.984,139.286-237.149,255.365-308.028
	c25.067-15.306,57.154-12.341,78.955,7.341c68.292,61.653,153.455,98.484,246.057,98.484c90.817,0,174.483-35.453,242.082-94.986
	c22.049-19.417,54.295-21.964,79.148-6.297c112.512,70.926,200.424,177.275,247.818,303.529
	c10.135,26.998,3.767,57.446-16.321,78.136C1312.813,1583.837,1114.804,1674.569,896,1674.569z"/>
</svg>
