<?xml version="1.0" encoding="utf-8"?>
<!-- Generator: Adobe Illustrator 16.0.0, SVG Export Plug-In . SVG Version: 6.00 Build 0)  -->
<!DOCTYPE svg PUBLIC "-//W3C//DTD SVG 1.1//EN" "http://www.w3.org/Graphics/SVG/1.1/DTD/svg11.dtd">
<svg version="1.1" id="Layer_1" xmlns="http://www.w3.org/2000/svg" xmlns:xlink="http://www.w3.org/1999/xlink" x="0px" y="0px"
	 width="200px" height="200px" viewBox="796 796 200 200" enable-background="new 796 796 200 200" xml:space="preserve">
<g>
	<g>
		<path d="M987.675,969.676c-6.521-22.754-21.304-41.99-40.878-54.33c-3.862-2.435-8.873-2.039-12.299,0.979
			c-10.504,9.251-23.506,14.76-37.618,14.76c-14.391,0-27.624-5.723-38.236-15.304c-3.388-3.058-8.374-3.519-12.269-1.14
			c-20.15,12.303-35.401,31.837-42.052,55.035c-1.787,6.223-0.531,12.933,3.364,18.109c3.905,5.169,10.005,8.215,16.48,8.215
			h143.661c6.48,0,12.582-3.034,16.486-8.215C988.216,982.608,989.462,975.906,987.675,969.676z"/>
		<path d="M948.091,856.479c0,33.403-22.929,60.484-51.211,60.484c-28.28,0-51.206-27.081-51.206-60.484
			c0-33.406,22.925-60.479,51.206-60.479C925.162,796,948.091,823.073,948.091,856.479z"/>
	</g>
</g>
</svg>
