<?xml version="1.0" encoding="utf-8"?>
<!-- Generator: Adobe Illustrator 16.0.0, SVG Export Plug-In . SVG Version: 6.00 Build 0)  -->
<!DOCTYPE svg PUBLIC "-//W3C//DTD SVG 1.1//EN" "http://www.w3.org/Graphics/SVG/1.1/DTD/svg11.dtd">
<svg version="1.1" id="Layer_1" xmlns="http://www.w3.org/2000/svg" xmlns:xlink="http://www.w3.org/1999/xlink" x="0px" y="0px"
	 width="2048px" height="1792px" viewBox="0 0 2048 1792" enable-background="new 0 0 2048 1792" xml:space="preserve">
<g>
	<path d="M1344.881,548.83c0,293.423-201.401,531.315-449.853,531.315c-248.399,0-449.8-237.893-449.8-531.315
		c0-293.441,201.4-531.25,449.8-531.25C1143.479,17.58,1344.881,255.389,1344.881,548.83z"/>
	<g>
		<path d="M1332.56,1596.176l110.096-110.106c12.536-12.538,12.536-32.864-0.001-45.401l-110.082-110.082
			c-27.032-27.006-41.91-62.949-41.91-101.178c0-38.217,14.878-74.147,41.91-101.179c13.548-13.561,29.369-24.062,46.585-31.151
			c-14.891-10.811-30.015-21.323-45.616-31.165c-33.929-21.375-77.944-17.9-108.036,8.614
			c-92.28,81.264-206.49,129.657-330.464,129.657c-126.389,0-242.639-50.292-335.888-134.448
			c-29.757-26.864-73.553-30.919-107.765-10.01c-177.004,108.075-310.975,279.681-369.39,483.445
			c-15.705,54.67-4.663,113.603,29.55,159.09c34.315,45.41,87.889,72.158,144.78,72.158h1056.935
			C1277.851,1719.052,1284.23,1644.505,1332.56,1596.176z"/>
	</g>
	<path d="M1952.105,1646.933l-183.526-183.526l183.539-183.552c27.858-27.858,27.858-73.01-0.013-100.881
		c-27.858-27.858-73.01-27.858-100.868-0.014l-183.552,183.553l-183.514-183.539c-27.858-27.846-73.01-27.846-100.868,0
		c-27.846,27.858-27.846,73.022,0,100.868l183.539,183.539l-183.552,183.526c-27.846,27.858-27.846,73.01,0.013,100.881
		c27.871,27.858,73.023,27.858,100.868,0.013l183.552-183.539l183.514,183.526c27.858,27.846,73.023,27.846,100.868,0
		C1979.964,1719.93,1979.964,1674.766,1952.105,1646.933z"/>
</g>
</svg>
