<?xml version="1.0" encoding="utf-8"?>
<!-- Generator: Adobe Illustrator 16.0.0, SVG Export Plug-In . SVG Version: 6.00 Build 0)  -->
<!DOCTYPE svg PUBLIC "-//W3C//DTD SVG 1.1//EN" "http://www.w3.org/Graphics/SVG/1.1/DTD/svg11.dtd">
<svg version="1.1" id="Layer_1" xmlns="http://www.w3.org/2000/svg" xmlns:xlink="http://www.w3.org/1999/xlink" x="0px" y="0px"
	 width="200px" height="200px" viewBox="924 578 200 200" enable-background="new 924 578 200 200" xml:space="preserve">
<g>
	<g>
		<path d="M984.585,638.942c0,13.999-9.609,25.348-21.462,25.348c-11.852,0-21.459-11.349-21.459-25.348
			c0-13.998,9.607-25.346,21.459-25.346C974.976,613.596,984.585,624.944,984.585,638.942z"/>
		<path d="M987.585,683.641c1.55-0.945,3.265-1.561,5.041-1.855c-3.606-5.088-6.161-10.546-7.637-17.078
			c-0.404-2.387-3.672-2.667-6.102-0.687c-4.546,3.706-9.849,6.186-15.765,6.186c-6.03,0-11.577-2.399-16.024-6.414
			c-1.419-1.282-3.51-1.476-5.143-0.479c-8.443,5.158-14.834,13.344-17.622,23.067c-0.749,2.605-0.223,5.42,1.411,7.588
			c1.636,2.166,4.192,3.443,6.906,3.443h38.668C975.947,692.072,981.41,687.41,987.585,683.641z"/>
	</g>
	<g>
		<path d="M1063.416,638.942c0,13.999,9.608,25.348,21.461,25.348c11.854,0,21.46-11.349,21.46-25.348
			c0-13.998-9.606-25.346-21.46-25.346C1073.024,613.596,1063.416,624.944,1063.416,638.942z"/>
		<path d="M1060.415,683.641c-1.55-0.945-3.266-1.561-5.041-1.855c3.606-5.088,6.161-10.546,7.637-17.078
			c0.405-2.387,3.673-2.667,6.103-0.687c4.546,3.706,9.848,6.186,15.764,6.186c6.029,0,11.577-2.399,16.025-6.414
			c1.419-1.282,3.509-1.476,5.142-0.479c8.444,5.158,14.836,13.344,17.622,23.067c0.748,2.605,0.223,5.42-1.41,7.588
			c-1.637,2.166-4.192,3.443-6.905,3.443h-38.67C1072.053,692.072,1066.591,687.41,1060.415,683.641z"/>
	</g>
	<g>
		<path d="M1082.475,725.451c-4.198-14.654-13.72-27.045-26.326-34.992c-2.487-1.566-5.715-1.313-7.921,0.631
			c-6.766,5.959-15.138,9.506-24.228,9.506c-9.269,0-17.791-3.686-24.626-9.855c-2.182-1.971-5.393-2.268-7.902-0.734
			c-12.977,7.924-22.799,20.504-27.082,35.445c-1.151,4.008-0.344,8.328,2.166,11.662c2.516,3.33,6.443,5.291,10.615,5.291h92.523
			c4.173,0,8.103-1.955,10.618-5.291C1082.823,733.779,1083.626,729.463,1082.475,725.451z"/>
		<path d="M1056.981,652.547c0,21.513-14.766,38.955-32.981,38.955c-18.214,0-32.979-17.442-32.979-38.955
			c0-21.515,14.765-38.951,32.979-38.951C1042.216,613.596,1056.981,631.033,1056.981,652.547z"/>
	</g>
</g>
</svg>
