<?xml version="1.0" encoding="utf-8"?>
<!-- Generator: Adobe Illustrator 16.0.0, SVG Export Plug-In . SVG Version: 6.00 Build 0)  -->
<!DOCTYPE svg PUBLIC "-//W3C//DTD SVG 1.1//EN" "http://www.w3.org/Graphics/SVG/1.1/DTD/svg11.dtd">
<svg version="1.1" id="Layer_1" xmlns="http://www.w3.org/2000/svg" xmlns:xlink="http://www.w3.org/1999/xlink" x="0px" y="0px"
	 width="200px" height="200px" viewBox="796 796 200 200" enable-background="new 796 796 200 200" xml:space="preserve">
<g>
	<g>
		<path d="M948.091,856.479c0,33.402-22.93,60.483-51.212,60.483c-28.28,0-51.205-27.082-51.205-60.483
			c0-33.407,22.925-60.479,51.205-60.479C925.161,796,948.091,823.073,948.091,856.479z"/>
	</g>
	<path d="M987.675,969.676c-6.521-22.754-21.304-41.99-40.878-54.33c-1.065-0.672-2.219-1.127-3.401-1.372v38.929
		c5.456,1.802,9.396,6.94,9.396,13.002c0,7.562-6.131,13.691-13.69,13.691c-7.562,0-13.69-6.13-13.69-13.691
		c0-6.062,3.938-11.2,9.396-13.002v-36.838c-0.104,0.085-0.207,0.171-0.308,0.26c-10.505,9.251-23.506,14.76-37.619,14.76
		c-14.25,0-27.365-5.613-37.926-15.026v20.188c11.504,2.037,20.268,12.107,20.268,24.187v12.727c0,4.135-3.363,7.497-7.497,7.497
		h-3.453c-2.372,0-4.295-1.923-4.295-4.295c0-2.373,1.923-4.296,4.295-4.296h2.359v-11.634c0-8.807-7.166-15.972-15.973-15.972
		s-15.973,7.165-15.973,15.972v11.634h2.36c2.372,0,4.295,1.923,4.295,4.296c0,2.372-1.923,4.295-4.295,4.295h-3.454
		c-4.133,0-7.497-3.362-7.497-7.497v-12.727c0-12.079,8.765-22.149,20.268-24.187v-23.022c-1.382,0.188-2.741,0.656-3.988,1.418
		c-20.15,12.303-35.401,31.837-42.052,55.035c-1.787,6.223-0.531,12.933,3.364,18.109c3.905,5.169,10.005,8.215,16.479,8.215
		h143.661c6.48,0,12.582-3.034,16.486-8.215C988.216,982.608,989.461,975.905,987.675,969.676z"/>
</g>
</svg>
