<?xml version="1.0" encoding="utf-8"?>
<!-- Generator: Adobe Illustrator 16.0.0, SVG Export Plug-In . SVG Version: 6.00 Build 0)  -->
<!DOCTYPE svg PUBLIC "-//W3C//DTD SVG 1.1//EN" "http://www.w3.org/Graphics/SVG/1.1/DTD/svg11.dtd">
<svg version="1.1" id="Layer_1" xmlns="http://www.w3.org/2000/svg" xmlns:xlink="http://www.w3.org/1999/xlink" x="0px" y="0px"
	 width="2048px" height="1792px" viewBox="0 0 2048 1792" enable-background="new 0 0 2048 1792" xml:space="preserve">
<g>
	<path d="M1278.321,520.632c0,283.738-194.745,513.78-434.995,513.78c-240.224,0-434.955-230.042-434.955-513.78
		c0-283.759,194.731-513.713,434.955-513.713C1083.576,6.919,1278.321,236.873,1278.321,520.632z"/>
	<path d="M1425.964,1785.081c17.041,0,30.855-13.814,30.855-30.855v-180.254c0-17.041-13.814-30.855-30.855-30.855h-142.438
		c-79.795,0-144.728-64.92-144.728-144.728c0-79.794,64.933-144.714,144.728-144.714h172.621
		c-51.888-59.459-112.181-111.413-179.238-153.684c-32.816-20.699-75.383-17.323-104.487,8.312
		c-89.222,78.584-199.653,125.373-319.533,125.373c-122.233,0-234.636-48.618-324.785-130.014
		c-28.781-25.97-71.134-29.884-104.219-9.684c-171.161,104.528-300.704,270.451-357.198,467.496
		c-15.184,52.868-4.512,109.866,28.566,153.832c33.18,43.925,84.992,69.774,139.993,69.774H1425.964z"/>
	<path d="M1919.553,1329.852h-249.469v-249.47c0-37.859-30.691-68.551-68.551-68.551c-37.873,0-68.564,30.691-68.564,68.551v249.47
		h-249.456c-37.859,0-68.551,30.691-68.551,68.537c0,37.859,30.691,68.551,68.551,68.551h249.456v249.47
		c0,37.859,30.691,68.551,68.564,68.551c37.859,0,68.551-30.691,68.551-68.551v-249.47h249.469
		c37.847,0,68.538-30.691,68.538-68.551C1988.091,1360.543,1957.399,1329.852,1919.553,1329.852z"/>
</g>
</svg>
