<?xml version="1.0" encoding="utf-8"?>
<!-- Generator: Adobe Illustrator 16.0.0, SVG Export Plug-In . SVG Version: 6.00 Build 0)  -->
<!DOCTYPE svg PUBLIC "-//W3C//DTD SVG 1.1//EN" "http://www.w3.org/Graphics/SVG/1.1/DTD/svg11.dtd">
<svg version="1.1" id="Layer_1" xmlns="http://www.w3.org/2000/svg" xmlns:xlink="http://www.w3.org/1999/xlink" x="0px" y="0px"
	 width="200px" height="200px" viewBox="796 796 200 200" enable-background="new 796 796 200 200" xml:space="preserve">
<g>
	<path d="M896.003,827.425c-20.538,0-37.187,19.66-37.187,43.921c0,24.258,16.648,43.924,37.187,43.924s37.188-19.667,37.188-43.924
		C933.191,847.085,916.541,827.425,896.003,827.425z"/>
	<path d="M896,796c-55.141,0-100,44.859-100,99.999C796.001,951.14,840.86,996,896,996c55.139,0,99.999-44.86,99.999-100.001
		C995.999,840.859,951.14,796,896,796z M962.014,953.885c-0.029-0.111-0.044-0.223-0.075-0.333
		c-4.735-16.523-15.472-30.494-29.687-39.455c-2.805-1.768-6.442-1.48-8.931,0.71c-7.63,6.719-17.069,10.72-27.319,10.72
		c-10.45,0-20.061-4.156-27.767-11.113c-2.46-2.222-6.082-2.556-8.91-0.829c-14.407,8.797-25.353,22.689-30.299,39.192
		c-13.012-15.325-20.887-35.145-20.887-56.777c0-48.446,39.414-87.86,87.86-87.86c48.445,0,87.859,39.414,87.859,87.86
		C983.859,918.159,975.597,938.412,962.014,953.885z"/>
</g>
</svg>
