<?xml version="1.0" encoding="utf-8"?>
<!-- Generator: Adobe Illustrator 16.0.0, SVG Export Plug-In . SVG Version: 6.00 Build 0)  -->
<!DOCTYPE svg PUBLIC "-//W3C//DTD SVG 1.1//EN" "http://www.w3.org/Graphics/SVG/1.1/DTD/svg11.dtd">
<svg version="1.1" id="Layer_1" xmlns="http://www.w3.org/2000/svg" xmlns:xlink="http://www.w3.org/1999/xlink" x="0px" y="0px"
	 width="1420px" height="1792px" viewBox="192.5 0 1420 1792" enable-background="new 192.5 0 1420 1792" xml:space="preserve">
<g>
	<path d="M573.915,327.256c59.361,16.669,113.956,48.697,157.88,92.622c43.907,43.901,75.941,98.501,92.634,157.893
		c6.796,24.203,28.814,40.021,52.774,40.021c4.903,0,9.902-0.661,14.866-2.059c29.16-8.195,46.156-38.473,37.955-67.633
		c-21.769-77.464-63.498-148.621-120.668-205.786c-57.195-57.189-128.353-98.917-205.781-120.663
		c-29.147-8.17-59.438,8.814-67.633,37.974C527.752,288.783,544.754,319.067,573.915,327.256z"/>
	<path d="M621.708,115.174c99.286,26.005,190.367,78.351,263.397,151.394c73.031,73.025,125.388,164.111,151.381,263.416
		c6.463,24.643,28.686,40.961,53.024,40.961c4.594,0,9.272-0.583,13.926-1.803c29.304-7.671,46.835-37.646,39.169-66.949
		c-30.933-118.116-93.157-226.413-179.936-313.184C875.893,102.219,767.596,39.994,649.499,9.067
		c-29.292-7.659-59.278,9.855-66.949,39.158C574.873,77.527,592.404,107.503,621.708,115.174z"/>
	<path d="M1566.128,1492.555l-204.286-204.287c-17.414-17.412-41.027-27.147-65.64-27.053c-24.603,0.083-48.168,9.997-65.438,27.518
		c-7.939,8.033-17.104,17.294-28.305,28.481c-137.502,137.517-301.585,41.563-433.114-89.979l-0.012,0.013
		c-131.553-131.53-227.508-295.611-89.979-433.14c11.193-11.193,20.447-20.37,28.488-28.297
		c17.531-17.271,27.44-40.83,27.523-65.438c0.089-24.607-9.652-48.233-27.054-65.634L504.008,430.446
		c-36.057-36.057-94.52-36.057-130.577,0l-20.501,20.502c-341.064,341.064,14.651,721.895,242.718,949.984l0.018-0.013
		c228.073,228.068,608.901,583.773,949.966,242.708l20.496-20.496C1602.18,1587.081,1602.191,1528.618,1566.128,1492.555z"/>
</g>
</svg>
