<?xml version="1.0" encoding="utf-8"?>
<!-- Generator: Adobe Illustrator 16.0.0, SVG Export Plug-In . SVG Version: 6.00 Build 0)  -->
<!DOCTYPE svg PUBLIC "-//W3C//DTD SVG 1.1//EN" "http://www.w3.org/Graphics/SVG/1.1/DTD/svg11.dtd">
<svg version="1.1" id="Layer_1" xmlns="http://www.w3.org/2000/svg" xmlns:xlink="http://www.w3.org/1999/xlink" x="0px" y="0px"
	 width="200px" height="200px" viewBox="796 698.08 200 200" enable-background="new 796 698.08 200 200" xml:space="preserve">
<path d="M994.47,869.072L905.896,715.66c-2.041-3.535-5.813-5.713-9.896-5.713c-4.083,0-7.854,2.178-9.896,5.713l-88.573,153.412
	c-2.041,3.536-2.041,7.892,0,11.427c2.041,3.536,5.813,5.714,9.896,5.714h177.147c4.083,0,7.854-2.178,9.896-5.714
	C996.511,876.963,996.511,872.608,994.47,869.072z M896,870.253c-7.22,0-13.072-5.852-13.072-13.071
	c0-7.221,5.852-13.072,13.072-13.072c7.221,0,13.072,5.852,13.072,13.072C909.072,864.402,903.221,870.253,896,870.253z
	 M910.58,765.235l-7.793,62.267c-0.469,3.748-3.889,6.407-7.637,5.938c-3.168-0.396-5.557-2.908-5.938-5.938l-7.793-62.267
	c-1.007-8.053,4.703-15.397,12.755-16.405c8.053-1.007,15.397,4.703,16.405,12.756C910.732,762.8,910.719,764.072,910.58,765.235z"
	/>
</svg>
