<?xml version="1.0" encoding="utf-8"?>
<!-- Generator: Adobe Illustrator 16.0.0, SVG Export Plug-In . SVG Version: 6.00 Build 0)  -->
<!DOCTYPE svg PUBLIC "-//W3C//DTD SVG 1.1//EN" "http://www.w3.org/Graphics/SVG/1.1/DTD/svg11.dtd">
<svg version="1.1" id="Layer_1" xmlns="http://www.w3.org/2000/svg" xmlns:xlink="http://www.w3.org/1999/xlink" x="0px" y="0px"
	 width="200px" height="200px" viewBox="784.479 796 200 200" enable-background="new 784.479 796 200 200" xml:space="preserve">
<path d="M981.692,865.588c-0.999-0.856-2.383-1.102-3.614-0.64l-40.815,15.34l-24.028-19.738l5.076-30.678l40.814-15.342
	c1.232-0.463,2.113-1.561,2.301-2.864s-0.352-2.601-1.402-3.392c-16.041-12.092-37.73-15.971-57.925-8.378
	c-31.379,11.795-47.251,46.791-35.456,78.168c0.712,1.897,0.25,4.035-1.184,5.469l-72.615,72.616
	c-9.116,9.115-9.116,23.898,0,33.015c4.561,4.557,10.534,6.836,16.509,6.836c5.976,0,11.947-2.279,16.508-6.836l73.505-73.505
	c1.375-1.375,3.412-1.863,5.261-1.259c12.655,4.142,26.751,4.173,40.184-0.876c20.196-7.593,33.96-24.798,38.064-44.46
	C983.143,867.776,982.689,866.445,981.692,865.588z M809.354,981.591c-4.936,0-8.939-3.999-8.939-8.935
	c0-4.935,4.003-8.935,8.939-8.935c4.931,0,8.93,4,8.93,8.935C818.284,977.592,814.285,981.591,809.354,981.591z"/>
</svg>
