<?xml version="1.0" encoding="utf-8"?>
<!-- Generator: Adobe Illustrator 16.0.0, SVG Export Plug-In . SVG Version: 6.00 Build 0)  -->
<!DOCTYPE svg PUBLIC "-//W3C//DTD SVG 1.1//EN" "http://www.w3.org/Graphics/SVG/1.1/DTD/svg11.dtd">
<svg version="1.1" id="Layer_1" xmlns="http://www.w3.org/2000/svg" xmlns:xlink="http://www.w3.org/1999/xlink" x="0px" y="0px"
	 width="1792px" height="1792px" viewBox="0 0 1792 1792" enable-background="new 0 0 1792 1792" xml:space="preserve">
<path d="M1743.077,989.54c0.257,0.372,0.408,0.593,0.408,0.593l-190.173-392.624c-2.698-5.729-5.561-11.383-8.597-16.914
	l-0.222-0.418v0.012c-39.608-71.898-106.598-126.628-186.789-150.201l-68.978-140.318l-0.163,0.163
	c-29.58-56.259-88.521-94.767-156.382-94.767c-97.385,0-176.624,79.238-176.624,176.634v180.386
	c0,32.878-26.648,59.539-59.526,59.557c-0.012,0-0.022,0-0.036,0c-0.011,0-0.022,0-0.033,0
	c-32.885-0.018-59.521-26.673-59.521-59.557V371.699c0-97.396-79.239-176.634-176.635-176.634
	c-67.85,0-126.796,38.508-156.37,94.767l-0.169-0.163l-68.984,140.318c-80.191,23.573-147.176,78.303-186.777,150.201l-0.012-0.012
	l-0.216,0.418c-3.035,5.531-5.891,11.185-8.602,16.914L48.509,990.133c0,0,0.146-0.221,0.401-0.593
	c-29.493,57.148-46.261,121.881-46.261,190.499c0,229.874,187.021,416.896,416.896,416.896
	c181.822,0,336.732-117.053,393.597-279.717c0.232-0.594,0.459-1.095,0.698-1.745c16.646-45.738,50.78-65.582,82.156-65.582
	c31.379,0,65.52,19.844,82.153,65.582c0.243,0.65,0.465,1.151,0.698,1.745c56.87,162.664,211.774,279.717,393.607,279.717
	c229.874,0,416.896-187.021,416.896-416.896C1789.351,1111.421,1772.579,1046.688,1743.077,989.54z M418.801,1490.396
	c-169.394,0-306.717-137.329-306.717-306.716s137.323-306.716,306.717-306.716c169.393,0,306.716,137.329,306.716,306.716
	S588.193,1490.396,418.801,1490.396z M1372.711,1490.396c-169.388,0-306.717-137.329-306.717-306.716
	s137.329-306.716,306.717-306.716c169.399,0,306.716,137.329,306.716,306.716S1542.11,1490.396,1372.711,1490.396z"/>
</svg>
