<?xml version="1.0" encoding="utf-8"?>
<!-- Generator: Adobe Illustrator 16.0.0, SVG Export Plug-In . SVG Version: 6.00 Build 0)  -->
<!DOCTYPE svg PUBLIC "-//W3C//DTD SVG 1.1//EN" "http://www.w3.org/Graphics/SVG/1.1/DTD/svg11.dtd">
<svg version="1.1" id="Layer_1" xmlns="http://www.w3.org/2000/svg" xmlns:xlink="http://www.w3.org/1999/xlink" x="0px" y="0px"
	 width="1792px" height="1792px" viewBox="0 0 1792 1792" enable-background="new 0 0 1792 1792" xml:space="preserve">
<path d="M1733.601,972.764h-301.563c-7.754-97.92-35.818-189.218-79.354-268.477c157.986-36.48,276.171-178.214,276.171-347.134
	c0-30.642-24.839-55.479-55.48-55.479c-30.641,0-55.479,24.837-55.479,55.479c0,131.993-104.844,239.69-235.596,244.891
	c-20.3-23.826-42.188-45.871-65.629-65.713c4.635-20.997,7.211-42.405,7.211-64.064c0-84.471-35.697-161.142-93.478-217.26
	l123.12-123.131c21.659-21.66,21.659-56.792-0.012-78.452c-21.673-21.659-56.792-21.672-78.465,0L1044.74,183.743
	c-2.528,2.528-4.695,5.274-6.634,8.14c-43.019-19.722-91.238-30.773-142.118-30.773c-51.784,0-100.78,11.485-144.37,31.869
	c-2.649-5.623-6.099-10.969-10.746-15.628L616.946,53.424c-21.672-21.659-56.792-21.672-78.464,0
	c-21.666,21.66-21.666,56.792,0,78.464l123.102,123.107c-57.785,56.118-93.489,132.801-93.489,217.271
	c0,21.659,2.576,43.067,7.212,64.053c-23.437,19.854-45.33,41.886-65.63,65.713c-130.734-5.201-235.571-112.886-235.571-244.879
	c0-30.642-24.839-55.479-55.479-55.479c-30.642,0-55.48,24.837-55.48,55.479c0,168.907,118.165,310.641,276.152,347.134
	c-43.548,79.259-71.601,170.557-79.36,268.477H58.399c-30.642,0-55.479,24.838-55.479,55.479s24.838,55.479,55.479,55.479h301.538
	c7.76,97.92,35.813,189.23,79.36,268.489c-157.98,36.493-276.152,178.225-276.152,347.133c0,30.642,24.839,55.48,55.48,55.48
	c30.641,0,55.479-24.839,55.479-55.48c0-131.992,104.837-239.677,235.571-244.891c97.921,114.98,234.862,186.642,386.312,186.642
	s288.391-71.661,386.311-186.642c130.752,5.202,235.596,112.887,235.596,244.891c0,30.642,24.839,55.48,55.479,55.48
	c30.642,0,55.48-24.839,55.48-55.48c0-168.92-118.185-310.652-276.171-347.133c43.536-79.271,71.601-170.569,79.354-268.489h301.563
	c30.642,0,55.479-24.838,55.479-55.479S1764.242,972.764,1733.601,972.764z M895.988,272.067
	c117.846,0,213.84,87.205,216.669,195.348c-66.34-33.351-139.614-52.013-216.669-52.013c-77.062,0-150.324,18.662-216.67,52.013
	C682.148,359.272,778.147,272.067,895.988,272.067z M468.585,1028.243c0-239.012,143.049-439.386,333.868-489.61
	c9.099-2.395,18.793-0.431,26.243,5.315c7.45,5.746,11.812,14.625,11.812,24.034v920.537c0,9.405-4.365,18.276-11.813,24.021
	c-7.448,5.743-17.146,7.723-26.241,5.329C611.635,1467.65,468.585,1267.255,468.585,1028.243z M989.521,1517.868
	c-9.099,2.395-18.793,0.43-26.242-5.316c-7.45-5.745-11.812-14.625-11.812-24.033V567.982c0-9.406,4.365-18.277,11.813-24.021
	c7.448-5.744,17.146-7.722,26.242-5.329c190.823,50.224,333.868,250.598,333.868,489.61
	C1323.391,1267.256,1180.345,1467.65,989.521,1517.868z"/>
</svg>
