<?xml version="1.0" encoding="utf-8"?>
<!-- Generator: Adobe Illustrator 21.0.0, SVG Export Plug-In . SVG Version: 6.00 Build 0)  -->
<svg version="1.1" id="Layer_1" xmlns="http://www.w3.org/2000/svg" xmlns:xlink="http://www.w3.org/1999/xlink" x="0px" y="0px"
	 viewBox="0 0 1792 1792" style="enable-background:new 0 0 1792 1792;" xml:space="preserve">
<path d="M1530.6,899.5c0,209.2,0.8,417.9-0.4,627.1c-0.8,136.8-56.9,193.3-193.7,193.7c-296.2,0.8-592.8,1.3-889,0
	c-128.9-0.4-191.2-60.2-192-188.7c-1.3-421.3-1.3-842.6,0.4-1263.4c0.4-126.8,64-189.5,191.6-190.3c299.5-2.1,599.1-2.1,898.6,0
	c125.5,0.8,183.2,60.7,184.1,185.3C1531.9,475.3,1530.6,687.4,1530.6,899.5z M1411,895.3c0-199.6-1.3-399.1,0.8-598.7
	c0.8-64.4-15.5-96.6-88.7-95.8c-287,3.3-574,2.5-860.5,0.4c-61.9-0.8-81.6,22.2-81.2,82c1.7,411.7,1.7,823.3,0,1235
	c0,55.2,18,79.9,74.9,79.5c162.3-1.7,324.2-2.1,486.5,0.4c52.7,0.8,62.3-23,60.7-68.2c-2.5-74.9,0.8-149.8-1.3-224.7
	c-1.7-61.9,22.2-94.5,87.4-91.2c28,1.3,56.1,1.3,84.1,0c64.4-3.3,90.4,28,88.7,90.4c-1.7,68.6,0.4,137.2-0.8,205.8
	c-0.8,48.5-6.3,92,68.6,89.1c69.9-2.9,81.6-37.2,81.2-95.8C1410.1,1300.7,1411,1097.8,1411,895.3z"/>
<path d="M1137.8,1027.9c-134.7,0.4-134.7,0-135.1-124.7c0-128,4.6-133,128.4-133s130.5,6.3,130.9,121.7
	C1262.9,1025.8,1261.2,1027.5,1137.8,1027.9z"/>
<path d="M656.7,1214.5c125.1,0,130.1,5,130.1,130.9c0,123.4-5.4,128.9-133,128.4c-120.9-0.4-124.2-3.3-124.2-126.8
	C529.5,1217,532,1214.5,656.7,1214.5z"/>
<path d="M786.8,897c0.4,125.1-4.2,130.1-119.6,130.5c-136.4,0.4-137.2,0-137.6-120.9c-0.4-132.6,2.9-136.4,123.4-137.2
	C781,769.4,786.8,774.8,786.8,897z"/>
<path d="M1262.1,468.6c-0.8,113-4.2,115.5-145.6,114.2c-112.5-0.8-115.5-4.6-114.2-144.7c1.3-106.7,5.9-110.9,140.1-110
	C1260.4,328.8,1263.3,332.2,1262.1,468.6z"/>
<path d="M656.3,328c127.6,0,131.4,3.3,130.9,130.5c-0.4,119.6-4.6,124.2-127.6,124.2c-129.3,0-130.1-0.8-129.7-130.1
	C529.9,330.5,532.5,328,656.3,328z"/>
</svg>
