<?xml version="1.0" encoding="utf-8"?>
<!-- Generator: Adobe Illustrator 16.0.0, SVG Export Plug-In . SVG Version: 6.00 Build 0)  -->
<!DOCTYPE svg PUBLIC "-//W3C//DTD SVG 1.1//EN" "http://www.w3.org/Graphics/SVG/1.1/DTD/svg11.dtd">
<svg version="1.1" id="Layer_1" xmlns="http://www.w3.org/2000/svg" xmlns:xlink="http://www.w3.org/1999/xlink" x="0px" y="0px"
	 width="1792px" height="1792px" viewBox="0 0 1792 1792" enable-background="new 0 0 1792 1792" xml:space="preserve">
<path d="M1460.324,1.86H331.675c-61.935,0-112.144,50.209-112.144,112.138v1563.996c0,61.942,50.209,112.146,112.144,112.146
	h688.034c16.75,0,30.328-13.578,30.328-30.328v-426.797c0-36.071,29.246-65.306,65.307-65.306h170.803
	c36.059,0,65.293,29.234,65.293,65.306v426.797c0,16.75,13.578,30.328,30.328,30.328h78.557
	c61.932,0,112.145-50.203,112.145-112.146V113.998C1572.469,52.069,1522.256,1.86,1460.324,1.86z M741.95,1503.816
	c0,36.073-29.235,65.307-65.301,65.307H505.854c-36.065,0-65.301-29.233-65.301-65.307v-170.79
	c0-36.071,29.235-65.306,65.301-65.306h170.795c36.066,0,65.301,29.234,65.301,65.306V1503.816z M741.95,981.398
	c0,36.072-29.235,65.306-65.301,65.306H505.854c-36.065,0-65.301-29.233-65.301-65.306v-170.79
	c0-36.066,29.235-65.301,65.301-65.301h170.795c36.066,0,65.301,29.234,65.301,65.301V981.398z M741.95,458.972
	c0,36.066-29.235,65.302-65.301,65.302H505.859c-36.065,0-65.3-29.235-65.3-65.302V288.183c0-36.065,29.235-65.301,65.3-65.301
	h170.789c36.066,0,65.301,29.235,65.301,65.301V458.972z M1351.439,981.398c0,36.072-29.234,65.306-65.293,65.306h-170.803
	c-36.061,0-65.307-29.233-65.307-65.306V810.603c0-36.066,29.246-65.301,65.307-65.301h170.803
	c36.059,0,65.293,29.234,65.293,65.301V981.398z M1351.439,458.972c0,36.066-29.234,65.302-65.293,65.302h-170.803
	c-36.061,0-65.307-29.235-65.307-65.302V288.177c0-36.065,29.246-65.301,65.307-65.301h170.803
	c36.059,0,65.293,29.235,65.293,65.301V458.972z"/>
</svg>
