<?xml version="1.0" encoding="utf-8"?>
<!-- Generator: Adobe Illustrator 21.0.0, SVG Export Plug-In . SVG Version: 6.00 Build 0)  -->
<svg version="1.1" id="Layer_1" xmlns="http://www.w3.org/2000/svg" xmlns:xlink="http://www.w3.org/1999/xlink" x="0px" y="0px"
	 viewBox="0 0 1792 1792" style="enable-background:new 0 0 1792 1792;" xml:space="preserve">
<g>
	<g>
		<path d="M1521.8,1470.8c0,25-20.7,45.7-45.7,45.7H321.2c-25,0-45.7-20.7-45.7-45.7V315.8c0-25,20.7-45.7,45.7-45.7h1154.9
			c25,0,45.7,20.7,45.7,45.7V1470.8 M1694.3,1470.8V315.8c0-120.3-97.9-218.1-218.1-218.1H321.2C200.9,97.7,103,195.6,103,315.8
			v1154.9c0,120.3,97.9,218.1,218.1,218.1h1154.9C1596.4,1688.9,1694.3,1591,1694.3,1470.8L1694.3,1470.8z"/>
	</g>
	<path d="M534.6,881.9c0-24.6,9.9-43.5,29.7-57.8L1061,469.3c22.8-16.8,47.4-19,73.3-5.6c25.9,12.5,38.8,33.6,38.8,63.4v709.2
		c0,29.7-12.9,50.4-38.8,63.4c-25.9,13.4-50.4,11.6-73.3-5.6L564.3,939.2C544.5,925.4,534.6,906,534.6,881.9z"/>
</g>
</svg>
