<?xml version="1.0" encoding="utf-8"?>
<!-- Generator: Adobe Illustrator 21.0.0, SVG Export Plug-In . SVG Version: 6.00 Build 0)  -->
<svg version="1.1" id="Layer_1" xmlns="http://www.w3.org/2000/svg" xmlns:xlink="http://www.w3.org/1999/xlink" x="0px" y="0px"
	 viewBox="0 0 1792 1792" style="enable-background:new 0 0 1792 1792;" xml:space="preserve">
<path d="M1536.4,424.6c-56.8-56.4-148.3-56.4-204.7,0l-633.9,634.6L460.3,821.9c-56.8-56.4-148.3-56.4-204.7,0
	c-56.4,56.8-56.4,148.3,0,204.7l326.1,325.8c3.9,5.1,8.2,10.1,12.9,14.8c34.6,34.6,82.3,48.1,126.9,40.5
	c29.2-4.6,57.3-18.1,79.7-40.5c4.7-4.7,9-9.7,12.9-14.9l722.3-723C1592.8,572.5,1592.8,481,1536.4,424.6z"/>
</svg>
