<?xml version="1.0" encoding="utf-8"?>
<!-- Generator: Adobe Illustrator 21.0.0, SVG Export Plug-In . SVG Version: 6.00 Build 0)  -->
<svg version="1.1" id="Layer_1" xmlns="http://www.w3.org/2000/svg" xmlns:xlink="http://www.w3.org/1999/xlink" x="0px" y="0px"
	 viewBox="0 0 1792 1792" style="enable-background:new 0 0 1792 1792;" xml:space="preserve">
<path d="M895.2,341.1c-100.5,0-193.2,24.6-278.1,74.3S465,532.3,415.4,617.2S341,794.7,341,895.2s24.6,193.2,74.3,278.1
	c49.7,84.9,116.9,152.1,201.8,201.8c84.9,49.7,177.5,74.3,278.1,74.3s193.2-24.6,278.1-74.3c84.9-49.7,152.1-116.9,201.8-201.8
	c49.7-84.9,74.3-177.5,74.3-278.1s-24.6-193.2-74.3-278.1c-49.7-84.9-116.9-152.1-201.8-201.8C1088.4,365.7,995.7,341.1,895.2,341.1
	z M1677.3,895.2c0,142-34.8,272.6-104.8,392.6c-70,119.7-164.6,214.7-284.7,284.7s-250.7,104.8-392.6,104.8s-272.6-34.8-392.6-104.8
	c-119.7-70-214.7-165-284.7-284.7S113,1037.2,113,895.2s34.8-272.6,104.8-392.6s165-214.7,284.7-284.7s250.7-104.8,392.6-104.8
	s272.6,34.8,392.6,104.8c120.1,70,214.7,164.6,284.7,284.7C1642.5,622.7,1677.3,753.3,1677.3,895.2z"/>
</svg>
