<?xml version="1.0" encoding="utf-8"?>
<!-- Generator: Adobe Illustrator 21.0.0, SVG Export Plug-In . SVG Version: 6.00 Build 0)  -->
<svg version="1.1" id="Layer_1" xmlns="http://www.w3.org/2000/svg" xmlns:xlink="http://www.w3.org/1999/xlink" x="0px" y="0px"
	 viewBox="0 0 1792 1792" style="enable-background:new 0 0 1792 1792;" xml:space="preserve">
<path d="M1568.5,498.7c-69.6-119-164.1-213.4-283-283c-71.5-41.6-147.3-70.8-227-87.5v234c39.3,12.1,77,28.8,113.1,49.8
	c84.4,49.4,151.2,116.2,200.6,200.6s73.9,176.5,73.9,276.4s-24.5,192-73.9,276.4c-49.4,84.4-116.2,151.2-200.6,200.6
	c-84.4,49.4-176.5,73.9-276.4,73.9s-192-24.5-276.4-73.9s-151.2-116.2-200.6-200.6c-49.4-84.4-73.9-176.5-73.9-276.4
	s24.5-192,73.9-276.4S534.4,461.4,618.8,412c36.2-21,73.9-37.7,113.1-49.8v-234c-79.7,16.7-155.5,45.9-227,87.5
	c-119,69.6-213.4,164.1-283,283C152.3,618.1,117.7,747.9,117.7,889c0,141.1,34.6,271,104.2,390.3c69.6,119,163.7,213.4,283,283
	s249.2,104.2,390.3,104.2s271-34.6,390.3-104.2c119-69.6,213.4-163.7,283-283s104.2-249.2,104.2-390.3S1638.1,618.1,1568.5,498.7z"
	/>
</svg>
