<?xml version="1.0" encoding="utf-8"?>
<!-- Generator: Adobe Illustrator 21.0.0, SVG Export Plug-In . SVG Version: 6.00 Build 0)  -->
<svg version="1.1" id="Layer_1" xmlns="http://www.w3.org/2000/svg" xmlns:xlink="http://www.w3.org/1999/xlink" x="0px" y="0px"
	 viewBox="0 0 1792 1792" style="enable-background:new 0 0 1792 1792;" xml:space="preserve">
<path d="M299.9,1492.6L299.9,1492.6c-51.5-51.5-51.5-134.6,0-186.1l1006.4-1006c51.5-51.5,134.6-51.5,186.1,0l0,0
	c51.5,51.5,51.5,134.6,0,186.1L486,1492.6C434.9,1544.1,351.5,1544.1,299.9,1492.6z"/>
<path d="M1492.5,1492.6L1492.5,1492.6c-51.5,51.5-134.6,51.5-186.1,0L299.9,486.5c-51.5-51.5-51.5-134.6,0-186.1l0,0
	c51.5-51.5,134.6-51.5,186.1,0l1006,1006C1543.6,1358,1543.6,1441.1,1492.5,1492.6z"/>
</svg>
