<?xml version="1.0" encoding="utf-8"?>
<!-- Generator: Adobe Illustrator 16.0.0, SVG Export Plug-In . SVG Version: 6.00 Build 0)  -->
<!DOCTYPE svg PUBLIC "-//W3C//DTD SVG 1.1//EN" "http://www.w3.org/Graphics/SVG/1.1/DTD/svg11.dtd">
<svg version="1.1" id="Layer_1" xmlns="http://www.w3.org/2000/svg" xmlns:xlink="http://www.w3.org/1999/xlink" x="0px" y="0px"
	 width="1792px" height="1792px" viewBox="0 0 1792 1792" enable-background="new 0 0 1792 1792" xml:space="preserve">
<g>
	<path d="M299.272,1650.67c-20.778,0-40.833-6.189-58-17.887c-35.001-23.898-51.665-66.035-42.483-107.359l57.521-258.859
		c3.858-17.357-2.726-35.631-16.773-46.557C87.066,1101.375,3.094,946.439,3.094,783.738c0-354.228,400.559-642.408,892.917-642.408
		c492.343,0,892.896,288.181,892.896,642.408c0,354.217-400.553,642.385-892.896,642.385c-59.414,0-119.058-4.271-177.282-12.707
		c-18.491-2.621-37.581,1.674-53.152,12.137l-308.898,207.605C339.656,1644.615,319.802,1650.67,299.272,1650.67z M896.011,253.18
		c-430.681,0-781.067,238.009-781.067,530.559c0,127.434,68.639,251.02,193.274,347.988c47.975,37.332,70.464,99.773,57.284,159.098
		l-52.68,237.051l290.366-195.154c38.521-25.887,85.659-36.617,131.547-30.002c52.952,7.67,107.208,11.553,161.275,11.553
		c430.663,0,781.044-237.996,781.044-530.533C1677.055,491.188,1326.674,253.18,896.011,253.18z"/>
</g>
</svg>
