<?xml version="1.0" encoding="utf-8"?>
<!-- Generator: Adobe Illustrator 16.0.0, SVG Export Plug-In . SVG Version: 6.00 Build 0)  -->
<!DOCTYPE svg PUBLIC "-//W3C//DTD SVG 1.1//EN" "http://www.w3.org/Graphics/SVG/1.1/DTD/svg11.dtd">
<svg version="1.1" id="Layer_1" xmlns="http://www.w3.org/2000/svg" xmlns:xlink="http://www.w3.org/1999/xlink" x="0px" y="0px"
	 width="1792px" height="1792px" viewBox="0 0 1792 1792" enable-background="new 0 0 1792 1792" xml:space="preserve">
<path d="M896.012,149.769c-493.687,0-893.884,280.399-893.884,626.343c0,161.056,86.882,307.851,229.458,418.785
	c33.255,25.875,48.683,68.69,39.543,109.822l-61.427,276.436c-4.453,20.04,3.747,40.771,20.702,52.343
	c16.956,11.572,39.25,11.652,56.288,0.202l329.914-221.713c28.949-19.455,64.096-27.48,98.616-22.487
	c58.391,8.445,118.836,12.944,180.79,12.944c493.662,0,893.859-280.412,893.859-626.332
	C1789.871,430.168,1389.674,149.769,896.012,149.769z"/>
</svg>
