<?xml version="1.0" encoding="utf-8"?>
<!-- Generator: Adobe Illustrator 16.0.0, SVG Export Plug-In . SVG Version: 6.00 Build 0)  -->
<!DOCTYPE svg PUBLIC "-//W3C//DTD SVG 1.1//EN" "http://www.w3.org/Graphics/SVG/1.1/DTD/svg11.dtd">
<svg version="1.1" id="Layer_1" xmlns="http://www.w3.org/2000/svg" xmlns:xlink="http://www.w3.org/1999/xlink" x="0px" y="0px"
	 width="1792px" height="1792px" viewBox="0 0 1792 1792" enable-background="new 0 0 1792 1792" xml:space="preserve">
<g>
	<g>
		<path d="M299.639,1648.563c-20.447,0-40.183-6.088-57.067-17.617c-34.39-23.453-50.786-64.902-41.748-105.574l57.479-258.672
			c3.992-17.957-2.819-36.867-17.35-48.173C88.978,1100.285,5.287,945.902,5.287,783.808c0-353.103,399.578-640.371,890.73-640.371
			c491.137,0,890.695,287.269,890.695,640.371c0,353.096-399.559,640.372-890.695,640.372c-59.246,0-118.779-4.264-176.936-12.671
			c-18.965-2.757-38.369,1.707-54.26,12.375L356.105,1631.36C339.35,1642.616,319.821,1648.563,299.639,1648.563z M896.018,251.954
			c-431.312,0-782.212,238.591-782.212,531.854c0,127.877,68.818,251.843,193.781,349.069
			c47.453,36.926,69.689,98.698,56.654,157.372l-53.522,240.857l293.574-197.302c38.15-25.621,84.827-36.301,130.325-29.696
			c53.029,7.666,107.329,11.553,161.399,11.553c431.295,0,782.178-238.586,782.178-531.854
			C1678.195,490.545,1327.313,251.954,896.018,251.954z"/>
	</g>
	<g>
		<g>
			<path d="M630.286,768.476c0,77.291-62.655,139.935-139.94,139.935c-77.297,0-139.945-62.644-139.945-139.935
				c0-77.313,62.648-139.934,139.945-139.934C567.631,628.542,630.286,691.162,630.286,768.476z"/>
		</g>
		<g>
			<path d="M1441.611,768.476c0,77.291-62.643,139.935-139.944,139.935c-77.281,0-139.947-62.644-139.947-139.935
				c0-77.313,62.666-139.934,139.947-139.934C1378.969,628.542,1441.611,691.162,1441.611,768.476z"/>
		</g>
		<g>
			<path d="M1035.951,768.476c0,77.291-62.654,139.935-139.938,139.935c-77.298,0-139.952-62.644-139.952-139.935
				c0-77.313,62.654-139.934,139.952-139.934C973.297,628.542,1035.951,691.162,1035.951,768.476z"/>
		</g>
	</g>
</g>
</svg>
