<?xml version="1.0" encoding="utf-8"?>
<!-- Generator: Adobe Illustrator 16.0.0, SVG Export Plug-In . SVG Version: 6.00 Build 0)  -->
<!DOCTYPE svg PUBLIC "-//W3C//DTD SVG 1.1//EN" "http://www.w3.org/Graphics/SVG/1.1/DTD/svg11.dtd">
<svg version="1.1" id="Layer_1" xmlns="http://www.w3.org/2000/svg" xmlns:xlink="http://www.w3.org/1999/xlink" x="0px" y="0px"
	 width="1792px" height="1792px" viewBox="0 0 1792 1792" enable-background="new 0 0 1792 1792" xml:space="preserve">
<g>
	<path d="M1733.453,700.671c-30.928,0-56,25.071-56,56v816.703c0,57.385-46.689,104.075-104.072,104.075H218.62
		c-57.384,0-104.075-46.69-104.075-104.075V218.627c0-57.385,46.691-104.075,104.075-104.075h854.132c30.93,0,56-25.071,56-55.999
		s-25.07-55.999-56-55.999H218.62C99.477,2.554,2.547,99.482,2.547,218.627v1354.746c0,119.144,96.93,216.073,216.073,216.073
		h1354.761c119.141,0,216.072-96.93,216.072-216.073V756.67C1789.453,725.742,1764.381,700.671,1733.453,700.671z"/>
	<path d="M303.786,1500.737h446.14l957.619-957.618c84.252-84.248,84.252-221.329,0-305.583L1566.988,96.979
		c-40.811-40.808-95.07-63.285-152.783-63.285c-57.725,0-111.986,22.477-152.795,63.285l-957.624,957.6V1500.737z M705.28,1386.998
		L417.521,1099.24l701.061-701.051l287.754,287.753L705.28,1386.998z M1340.596,176.178c19.664-19.657,45.805-30.484,73.609-30.484
		c27.791,0,53.932,10.821,73.596,30.484l140.545,140.551c40.59,40.583,40.59,106.615,0.012,147.192L1512.89,579.388
		c-15.112,15.112-39.612,15.112-54.725,0l-233.027-233.028c-15.111-15.112-15.111-39.613,0-54.725L1340.596,176.178z"/>
</g>
</svg>
