<?xml version="1.0" encoding="utf-8"?>
<!-- Generator: Adobe Illustrator 16.0.0, SVG Export Plug-In . SVG Version: 6.00 Build 0)  -->
<!DOCTYPE svg PUBLIC "-//W3C//DTD SVG 1.1//EN" "http://www.w3.org/Graphics/SVG/1.1/DTD/svg11.dtd">
<svg version="1.1" id="Layer_1" xmlns="http://www.w3.org/2000/svg" xmlns:xlink="http://www.w3.org/1999/xlink" x="0px" y="0px"
	 width="1792px" height="1792px" viewBox="0 0 1792 1792" enable-background="new 0 0 1792 1792" xml:space="preserve">
<path d="M1637.275,606.166L1008.344,47.492c-30.979-27.53-70.883-42.693-112.341-42.693c-41.452,0-81.35,15.163-112.352,42.693
	L154.729,606.16c-36.111,32.074-56.826,78.176-56.826,126.479v885.385c0,93.285,75.886,169.178,169.167,169.178H1524.93
	c93.273,0,169.166-75.893,169.166-169.178V732.638C1694.096,684.347,1673.393,638.251,1637.275,606.166z M661.867,1205.838
	l-456.592,399.615V800.258L661.867,1205.838z M742.786,1277.723l40.871,36.303c32.027,28.451,72.187,42.664,112.346,42.664
	c40.166,0,80.326-14.213,112.341-42.664l40.881-36.314l459.43,402.119H283.34L742.786,1277.723z M1130.127,1205.85l456.598-405.597
	v805.224L1130.127,1205.85z M854.958,127.77c11.324-10.06,25.899-15.6,41.045-15.6c15.146,0,29.714,5.54,41.039,15.594
	l622.537,552.994l-622.537,552.994c-23.393,20.785-58.677,20.785-82.083,0l-622.53-552.994L854.958,127.77z"/>
</svg>
