<?xml version="1.0" encoding="utf-8"?>
<!-- Generator: Adobe Illustrator 16.0.0, SVG Export Plug-In . SVG Version: 6.00 Build 0)  -->
<!DOCTYPE svg PUBLIC "-//W3C//DTD SVG 1.1//EN" "http://www.w3.org/Graphics/SVG/1.1/DTD/svg11.dtd">
<svg version="1.1" id="Layer_1" xmlns="http://www.w3.org/2000/svg" xmlns:xlink="http://www.w3.org/1999/xlink" x="0px" y="0px"
	 width="1792px" height="1792px" viewBox="0 0 1792 1792" enable-background="new 0 0 1792 1792" xml:space="preserve">
<path d="M1585.645,4.361H209.355C96.141,4.361,4.361,96.141,4.361,209.356v1376.289c0,113.215,91.779,204.994,204.994,204.994
	h1376.289c113.215,0,204.994-91.779,204.994-204.994V209.356C1790.639,96.141,1698.859,4.361,1585.645,4.361z M1531.408,399.156
	L934.215,921.828c-20.934,18.328-52.508,18.328-73.429,0L263.592,399.156H1531.408z M192.746,1315.391V479.584L670.25,897.5
	L192.746,1315.391z M263.581,1395.843l488.04-427.126l38.586,33.772c30.574,26.748,68.939,40.146,107.293,40.146
	s76.708-13.398,107.294-40.17l38.597-33.771l488.04,427.148H263.581z M1602.254,1315.415L1124.75,897.477l477.504-417.915V1315.415z
	"/>
</svg>
