<?xml version="1.0" encoding="utf-8"?>
<!-- Generator: Adobe Illustrator 16.0.0, SVG Export Plug-In . SVG Version: 6.00 Build 0)  -->
<!DOCTYPE svg PUBLIC "-//W3C//DTD SVG 1.1//EN" "http://www.w3.org/Graphics/SVG/1.1/DTD/svg11.dtd">
<svg version="1.1" id="Layer_1" xmlns="http://www.w3.org/2000/svg" xmlns:xlink="http://www.w3.org/1999/xlink" x="0px" y="0px"
	 width="1792px" height="1792px" viewBox="0 0 1792 1792" enable-background="new 0 0 1792 1792" xml:space="preserve">
<g>
	<path d="M0.283,345.129v1101.324l628.951-550.459L2.347,347.338C1.573,346.663,1.01,345.838,0.283,345.129z"/>
	<path d="M1081.436,967.182l-58.642,51.316c-36.134,31.623-81.476,47.445-126.794,47.445c-45.33,0-90.654-15.822-126.794-47.445
		l-58.618-51.305L68.255,1529.37h1655.508L1081.436,967.182z"/>
	<path d="M1724.81,262.63H67.196c1.937,1.291,3.918,2.488,5.721,4.069l766.854,671.172c32.053,28.043,80.406,28.055,112.453-0.012
		l766.854-671.16C1720.892,265.118,1722.867,263.921,1724.81,262.63z"/>
	<path d="M1789.647,347.338l-626.876,548.656l628.945,550.471V345.129C1790.996,345.838,1790.427,346.663,1789.647,347.338z"/>
</g>
</svg>
