<?xml version="1.0" encoding="utf-8"?>
<!-- Generator: Adobe Illustrator 16.0.0, SVG Export Plug-In . SVG Version: 6.00 Build 0)  -->
<!DOCTYPE svg PUBLIC "-//W3C//DTD SVG 1.1//EN" "http://www.w3.org/Graphics/SVG/1.1/DTD/svg11.dtd">
<svg version="1.1" id="Layer_1" xmlns="http://www.w3.org/2000/svg" xmlns:xlink="http://www.w3.org/1999/xlink" x="0px" y="0px"
	 width="1792px" height="1792px" viewBox="0 0 1792 1792" enable-background="new 0 0 1792 1792" xml:space="preserve">
<path d="M1759.841,801.392c-56.718-85.516-359.56-505.391-836.355-521.172c-9.104-0.481-18.269-0.754-27.492-0.754
	c-9.224,0-18.387,0.273-27.493,0.754C391.719,296.001,88.888,715.864,32.17,801.379c-38.11,57.46-38.116,131.728-0.011,189.229
	c57.81,87.153,371.163,521.927,863.834,521.927c492.784,0,806.038-434.761,863.823-521.902
	C1797.934,933.167,1797.957,858.899,1759.841,801.392z M1300.592,793.438c0,223.084-181.502,404.573-404.598,404.573
	c-223.084,0-404.574-181.489-404.574-404.573s181.49-404.574,404.574-404.574C1119.09,388.864,1300.592,570.354,1300.592,793.438z
	 M1668.65,930.152c-144.68,218.193-433.846,472.983-772.657,472.983c-338.727,0-627.931-254.803-772.657-472.983
	c-13.751-20.751-13.751-47.566,0-68.304c75.325-113.56,189.847-236.967,330.062-329.279c-45.274,76.53-71.378,165.69-71.378,260.869
	c0,283.41,230.568,513.973,513.973,513.973c283.422,0,513.998-230.563,513.998-513.973c0-95.178-26.104-184.333-71.38-260.856
	c140.217,92.306,254.731,215.707,330.052,329.261C1682.42,882.598,1682.408,909.408,1668.65,930.152z"/>
</svg>
