<?xml version="1.0" encoding="utf-8"?>
<!-- Generator: Adobe Illustrator 16.0.0, SVG Export Plug-In . SVG Version: 6.00 Build 0)  -->
<!DOCTYPE svg PUBLIC "-//W3C//DTD SVG 1.1//EN" "http://www.w3.org/Graphics/SVG/1.1/DTD/svg11.dtd">
<svg version="1.1" id="Layer_1" xmlns="http://www.w3.org/2000/svg" xmlns:xlink="http://www.w3.org/1999/xlink" x="0px" y="0px"
	 width="1792px" height="1792px" viewBox="0 0 1792 1792" enable-background="new 0 0 1792 1792" xml:space="preserve">
<g>
	<g>
		<path d="M1617.938,551.243L1109.365,42.67c-25.675-25.675-59.804-39.818-96.119-39.818h-743.07
			c-74.961,0-135.922,60.984-135.922,135.95v1514.419c0,74.956,60.961,135.928,135.922,135.928h1251.655
			c74.942,0,135.915-60.972,135.915-135.928V647.363C1657.746,611.071,1643.614,576.919,1617.938,551.243z M1554.028,1653.221
			c0,17.765-14.434,32.231-32.198,32.231H270.175c-17.765,0-32.198-14.467-32.198-32.231V138.789
			c0-17.752,14.433-32.197,32.198-32.197h709.248c19.415,0,35.153,15.738,35.153,35.153v383.487
			c0,64.755,52.482,117.238,117.202,117.238h387.118c9.324,0,18.266,3.704,24.857,10.296c6.593,6.593,10.296,15.534,10.296,24.857
			L1554.028,1653.221z"/>
	</g>
	<g>
		<g>
			<path d="M686.942,1489.074c-13.642,0-27.276-5.205-37.686-15.613l-304.85-304.839l304.85-304.843
				c20.823-20.812,54.56-20.8,75.371,0c20.813,20.812,20.813,54.559,0,75.365l-229.479,229.479l229.479,229.48
				c20.813,20.806,20.813,54.554,0,75.358C714.22,1483.869,700.584,1489.074,686.942,1489.074z"/>
		</g>
		<g>
			<path d="M1105.063,1489.074c-13.636,0-27.282-5.205-37.68-15.613c-20.818-20.805-20.818-54.553,0-75.358l229.467-229.48
				l-229.467-229.479c-20.818-20.806-20.818-54.553,0-75.365c20.795-20.806,54.565-20.806,75.359,0l304.851,304.843
				l-304.851,304.839C1132.347,1483.869,1118.699,1489.074,1105.063,1489.074z"/>
		</g>
		<g>
			<path d="M826.063,1489.086c-4.373,0-8.813-0.543-13.243-1.678c-28.515-7.285-45.724-36.314-38.432-64.834l136.627-534.312
				c7.286-28.514,36.332-45.724,64.842-38.431c28.508,7.291,45.716,36.321,38.419,64.834l-136.621,534.323
				C871.496,1473.068,849.828,1489.086,826.063,1489.086z"/>
		</g>
	</g>
</g>
</svg>
