<?xml version="1.0" encoding="utf-8"?>
<!-- Generator: Adobe Illustrator 16.0.0, SVG Export Plug-In . SVG Version: 6.00 Build 0)  -->
<!DOCTYPE svg PUBLIC "-//W3C//DTD SVG 1.1//EN" "http://www.w3.org/Graphics/SVG/1.1/DTD/svg11.dtd">
<svg version="1.1" id="Layer_1" xmlns="http://www.w3.org/2000/svg" xmlns:xlink="http://www.w3.org/1999/xlink" x="0px" y="0px"
	 width="1792px" height="1792px" viewBox="0 0 1792 1792" enable-background="new 0 0 1792 1792" xml:space="preserve">
<path d="M1618.176,563.993L1088.566,34.394c-19.971-19.971-47.046-31.189-75.295-31.189H249.13
	c-58.811,0-106.484,47.674-106.484,106.484v1572.622c0,58.813,47.674,106.484,106.484,106.484h1293.752
	c58.799,0,106.473-47.672,106.473-106.484V639.288C1649.354,611.05,1638.136,583.963,1618.176,563.993z M1248.654,1503.846H543.346
	c-29.585,0-53.567-23.982-53.567-53.568c0-29.584,23.982-53.566,53.567-53.566h705.309c29.586,0,53.567,23.982,53.567,53.566
	C1302.222,1479.863,1278.24,1503.846,1248.654,1503.846z M1248.654,1237.494H543.346c-29.585,0-53.567-23.982-53.567-53.566
	c0-29.586,23.982-53.568,53.567-53.568h705.309c29.586,0,53.567,23.982,53.567,53.568
	C1302.222,1213.512,1278.24,1237.494,1248.654,1237.494z M1248.654,971.145H543.346c-29.585,0-53.567-23.982-53.567-53.568
	c0-29.585,23.982-53.568,53.567-53.568h705.309c29.586,0,53.567,23.982,53.567,53.568
	C1302.222,947.162,1278.24,971.145,1248.654,971.145z M1119.756,639.31c-58.81,0-106.484-47.673-106.484-106.473V129.394
	l509.905,509.917H1119.756z"/>
</svg>
