<?xml version="1.0" encoding="utf-8"?>
<!-- Generator: Adobe Illustrator 16.0.0, SVG Export Plug-In . SVG Version: 6.00 Build 0)  -->
<!DOCTYPE svg PUBLIC "-//W3C//DTD SVG 1.1//EN" "http://www.w3.org/Graphics/SVG/1.1/DTD/svg11.dtd">
<svg version="1.1" id="Layer_1" xmlns="http://www.w3.org/2000/svg" xmlns:xlink="http://www.w3.org/1999/xlink" x="0px" y="0px"
	 width="1792px" height="1792px" viewBox="0 0 1792 1792" enable-background="new 0 0 1792 1792" xml:space="preserve">
<g>
	<path d="M1617.164,551.603l-508.043-508.04c-25.646-25.649-59.729-39.777-96.007-39.777H270.82
		c-74.888,0-135.773,60.92-135.773,135.807v1512.835c0,74.877,60.886,135.787,135.773,135.787H1521.18
		c74.842,0,135.773-60.91,135.773-135.787V647.623C1656.953,611.369,1642.835,577.252,1617.164,551.603z M1553.343,1652.428
		c0,17.745-14.406,32.198-32.152,32.198H270.833c-17.745,0-32.164-14.453-32.164-32.198V139.582
		c0-17.735,14.419-32.164,32.164-32.164h708.496c19.395,0,35.116,15.722,35.116,35.116V525.62
		c0,64.687,52.427,117.115,117.091,117.115h386.703c9.313,0,18.245,3.7,24.83,10.286c6.586,6.585,10.286,15.518,10.286,24.831
		L1553.343,1652.428z"/>
	<g>
		<path d="M904.723,821.279c182.355,0,286.843,90.151,286.843,248.938c0,166.979-104.487,263.285-286.843,263.285H762.318v204.887
			H600.457v-717.11H904.723z M762.318,1198.271h134.203c90.16,0,141.375-40.979,141.375-122.938
			c0-79.902-51.215-119.852-141.375-119.852H762.318V1198.271z"/>
	</g>
</g>
</svg>
