<?xml version="1.0" encoding="utf-8"?>
<!-- Generator: Adobe Illustrator 16.0.0, SVG Export Plug-In . SVG Version: 6.00 Build 0)  -->
<!DOCTYPE svg PUBLIC "-//W3C//DTD SVG 1.1//EN" "http://www.w3.org/Graphics/SVG/1.1/DTD/svg11.dtd">
<svg version="1.1" id="Layer_1" xmlns="http://www.w3.org/2000/svg" xmlns:xlink="http://www.w3.org/1999/xlink" x="0px" y="0px"
	 width="1792px" height="1792px" viewBox="0 0 1792 1792" enable-background="new 0 0 1792 1792" xml:space="preserve">
<g>
	<path d="M1614.883,552.705L1108.461,46.281c-25.572-25.582-59.557-39.65-95.713-39.65H272.82
		c-74.646,0-135.343,60.726-135.343,135.372V1650.01c0,74.646,60.697,135.359,135.343,135.359h1246.365
		c74.623,0,135.338-60.713,135.338-135.359V648.414C1654.523,612.271,1640.455,578.275,1614.883,552.705z M272.838,109.937h706.238
		c19.332,0,35.004,15.672,35.004,35.004v381.854c0,64.483,52.254,116.75,116.716,116.75h385.474c9.284,0,18.188,3.688,24.752,10.253
		c6.564,6.564,10.252,15.468,10.252,24.752l-0.012,549.162l-380.26-380.269l-355.121,355.097
		c-11.247,11.264-26.496,17.578-42.41,17.578c-15.909,0-31.158-6.314-42.41-17.578l-167.96-167.959l-322.322,322.321V142.003
		C240.778,124.324,255.148,109.937,272.838,109.937z"/>
	<path d="M666.298,847.396c89.635,0,162.294-72.659,162.294-162.283c0-89.611-72.66-162.283-162.294-162.283
		c-89.629,0-162.289,72.671-162.289,162.283C504.01,774.736,576.669,847.396,666.298,847.396z"/>
</g>
</svg>
