<?xml version="1.0" encoding="utf-8"?>
<!-- Generator: Adobe Illustrator 16.0.0, SVG Export Plug-In . SVG Version: 6.00 Build 0)  -->
<!DOCTYPE svg PUBLIC "-//W3C//DTD SVG 1.1//EN" "http://www.w3.org/Graphics/SVG/1.1/DTD/svg11.dtd">
<svg version="1.1" id="Layer_1" xmlns="http://www.w3.org/2000/svg" xmlns:xlink="http://www.w3.org/1999/xlink" x="0px" y="0px"
	 width="1792px" height="1792px" viewBox="0 0 1792 1792" enable-background="new 0 0 1792 1792" xml:space="preserve">
<path d="M1693.005,212.234c-25.102-17.27-57.082-21.069-85.584-10.16c-186.013,71.293-426.595,62.725-660.031-23.499
	c-258.628-95.55-469.104-132.963-735.104-38.509V82.683c0-42.365-34.344-76.71-76.71-76.71c-42.365,0-76.709,34.345-76.709,76.71
	v1626.636c0,42.365,34.344,76.709,76.709,76.709c42.366,0,76.71-34.344,76.71-76.709v-482.184
	c254.688-100.666,445.882-68.559,698.3,24.703c141.093,52.115,283.854,78.219,418.567,78.219
	c128.007,0,248.765-23.58,353.884-70.809c30.437-13.68,50.098-44.07,50.098-77.424V288.511
	C1733.134,258,1718.118,229.475,1693.005,212.234z M1626.921,1167.857c-189.009,79.922-435.711,74.404-679.531-15.65
	c-258.628-95.557-469.104-132.957-735.104-38.514V253.511c254.688-100.668,445.882-68.547,698.3,24.698
	c249.761,92.257,509.499,102.871,716.336,29.855V1167.857z"/>
</svg>
