<?xml version="1.0" encoding="utf-8"?>
<!-- Generator: Adobe Illustrator 16.0.0, SVG Export Plug-In . SVG Version: 6.00 Build 0)  -->
<!DOCTYPE svg PUBLIC "-//W3C//DTD SVG 1.1//EN" "http://www.w3.org/Graphics/SVG/1.1/DTD/svg11.dtd">
<svg version="1.1" id="Layer_1" xmlns="http://www.w3.org/2000/svg" xmlns:xlink="http://www.w3.org/1999/xlink" x="0px" y="0px"
	 width="1792px" height="1792px" viewBox="0 0 1792 1792" enable-background="new 0 0 1792 1792" xml:space="preserve">
<path d="M1700.602,230.468c-13.928-9.818-31.767-12.263-47.814-6.533c-203.361,72.605-456.719,59.256-696.72-29.422
	c-244.865-90.455-455.112-135.952-733.184-31.838V76.849C222.884,34.406,188.477,0,146.034,0c-42.442,0-76.849,34.406-76.849,76.849
	v1629.59c0,42.442,34.406,76.849,76.849,76.849c42.443,0,76.85-34.406,76.85-76.849v-549.749
	c278.071-104.115,488.318-58.628,733.184,31.838c256.38,94.721,528.003,103.498,737.639,13.353
	c17.651-7.59,29.108-24.984,29.108-44.198V273.301C1722.814,256.26,1714.528,240.285,1700.602,230.468z"/>
</svg>
