<?xml version="1.0" encoding="utf-8"?>
<!-- Generator: Adobe Illustrator 16.0.0, SVG Export Plug-In . SVG Version: 6.00 Build 0)  -->
<!DOCTYPE svg PUBLIC "-//W3C//DTD SVG 1.1//EN" "http://www.w3.org/Graphics/SVG/1.1/DTD/svg11.dtd">
<svg version="1.1" id="Layer_1" xmlns="http://www.w3.org/2000/svg" xmlns:xlink="http://www.w3.org/1999/xlink" x="0px" y="0px"
	 width="1792px" height="1792px" viewBox="0 0 1792 1792" enable-background="new 0 0 1792 1792" xml:space="preserve">
<path d="M1610.037,1465.933l-427.844-633.44c-23.806-35.236-36.38-76.336-36.38-118.85V115.627h41.069
	c29.992,0,54.305-24.312,54.305-54.304S1216.875,7.02,1186.883,7.02h-41.069H646.189h-41.046c-29.992,0-54.304,24.312-54.304,54.304
	s24.312,54.304,54.304,54.304h41.046v598.016c0,42.514-12.58,83.613-36.374,118.85l-427.851,633.44
	c-42.454,62.848-46.714,143.502-11.13,210.463c35.578,66.973,104.795,108.585,180.642,108.585h1089.049
	c75.848,0,145.07-41.612,180.637-108.573C1656.752,1609.435,1652.486,1528.78,1610.037,1465.933z M699.821,893.277
	c35.968-53.261,54.976-115.378,54.976-179.635V115.627h282.409v598.016c0,64.257,19.009,126.374,54.977,179.635l190.83,282.527
	H508.991L699.821,893.277z"/>
</svg>
