<?xml version="1.0" encoding="utf-8"?>
<!-- Generator: Adobe Illustrator 16.0.0, SVG Export Plug-In . SVG Version: 6.00 Build 0)  -->
<!DOCTYPE svg PUBLIC "-//W3C//DTD SVG 1.1//EN" "http://www.w3.org/Graphics/SVG/1.1/DTD/svg11.dtd">
<svg version="1.1" id="Layer_1" xmlns="http://www.w3.org/2000/svg" xmlns:xlink="http://www.w3.org/1999/xlink" x="0px" y="0px"
	 width="2048px" height="1792px" viewBox="0 0 2048 1792" enable-background="new 0 0 2048 1792" xml:space="preserve">
<path d="M2042.098,1182.058l0.607,0.198L1979.6,703.213c-1.307-15.604-3.34-30.984-6.086-46.113l-0.078-0.516v0.014
	c-40.742-223.032-235.932-392.148-470.752-392.148c-3.037,0-6.02,0.158-9.031,0.225c-0.541-0.026-1.043-0.225-1.57-0.225H555.924
	c-0.541,0-1.042,0.198-1.577,0.225c-3.023-0.066-6.007-0.225-9.037-0.225c-234.814,0-430.004,169.116-470.745,392.148l-0.013-0.014
	l-0.066,0.516c-2.753,15.129-4.792,30.509-6.079,46.113L5.288,1182.256l0.607-0.198c-1.69,13.044-2.872,26.246-2.872,39.765
	c0,168.839,136.884,305.729,305.742,305.729c90.703,0,171.935-39.711,227.924-102.46l0.079,0.33c0,0,152.31-156.931,256.373-264.143
	c60.696-62.537,144.139-97.839,231.29-97.839c86.605,0,169.5,35.064,229.818,97.205c104.07,107.239,256.975,264.776,256.975,264.776
	l0.092-0.33c55.977,62.749,137.207,102.46,227.918,102.46c168.852,0,305.742-136.89,305.742-305.729
	C2044.977,1208.304,2043.787,1195.102,2042.098,1182.058z M749.926,797.606H640.252c-15.097,0-27.335,12.238-27.335,27.334v109.701
	c0,37.335-30.266,67.594-67.594,67.594s-67.594-30.259-67.594-67.594V824.941c0-15.096-12.238-27.334-27.334-27.334H340.708
	c-37.328,0-67.594-30.259-67.594-67.594s30.266-67.594,67.594-67.594h109.688c15.096,0,27.334-12.238,27.334-27.334V525.41
	c0-37.335,30.266-67.594,67.594-67.594s67.594,30.259,67.594,67.594v109.674c0,15.096,12.238,27.334,27.335,27.334h109.674
	c37.328,0,67.594,30.259,67.594,67.594S787.254,797.606,749.926,797.606z M1282.713,806.848c-42.43,0-76.834-34.403-76.834-76.835
	c0-42.431,34.404-76.834,76.834-76.834c42.432,0,76.836,34.403,76.836,76.834C1359.549,772.444,1325.145,806.848,1282.713,806.848z
	 M1473.797,462.095c42.432,0,76.836,34.404,76.836,76.835s-34.404,76.835-76.836,76.835c-42.43,0-76.834-34.404-76.834-76.835
	S1431.367,462.095,1473.797,462.095z M1473.797,997.958c-42.43,0-76.834-34.404-76.834-76.835s34.404-76.835,76.834-76.835
	c42.445,0,76.836,34.404,76.836,76.835S1516.242,997.958,1473.797,997.958z M1664.895,806.861
	c-42.443,0-76.834-34.404-76.834-76.835s34.391-76.835,76.834-76.835s76.834,34.404,76.834,76.835
	S1707.338,806.861,1664.895,806.861z"/>
</svg>
