<?xml version="1.0" encoding="utf-8"?>
<!-- Generator: Adobe Illustrator 16.0.0, SVG Export Plug-In . SVG Version: 6.00 Build 0)  -->
<!DOCTYPE svg PUBLIC "-//W3C//DTD SVG 1.1//EN" "http://www.w3.org/Graphics/SVG/1.1/DTD/svg11.dtd">
<svg version="1.1" id="Layer_1" xmlns="http://www.w3.org/2000/svg" xmlns:xlink="http://www.w3.org/1999/xlink" x="0px" y="0px"
	 width="1792px" height="1792px" viewBox="0 0 1792 1792" enable-background="new 0 0 1792 1792" xml:space="preserve">
<path d="M1641.19,389.517h-155.833c46.875-29.156,84.494-63.022,108.818-100.037c36.645-55.756,43.164-118.013,18.387-175.311
	C1579.387,37.436,1498.987-2.723,1391.491,4.034c-169.417,10.648-387.415,134.657-495.515,310.234
	C787.871,138.691,569.88,14.683,400.457,4.034c-107.34-6.693-187.884,33.401-221.071,110.135
	c-24.777,57.293-18.247,119.555,18.386,175.311c24.319,37.015,61.944,70.881,108.819,100.037H150.81
	c-71.978,0-130.534,58.557-130.534,130.534v267.854c0,61.781,43.187,113.563,100.931,127.019v743.242
	c0,71.978,58.556,130.534,130.534,130.534h1288.484c71.978,0,130.534-58.557,130.534-130.534v-743.23
	c57.756-13.455,100.966-65.237,100.966-127.03V520.051C1771.725,448.073,1713.168,389.517,1641.19,389.517z M1664.819,520.051
	v267.854c0,13.027-10.602,23.629-23.629,23.629h-553.838V496.422h553.838C1654.218,496.422,1664.819,507.024,1664.819,520.051z
	 M1398.195,110.73c42.827-2.727,97.741,3.079,116.255,45.871c6.658,15.417,12.922,39.881-9.616,74.176
	c-51.272,78.027-225.828,158.739-429.197,158.739h-73.732c-5.515,0-10.596-2.993-13.268-7.818
	c-2.671-4.825-2.502-10.711,0.42-15.388C1077.575,224.659,1258.606,119.503,1398.195,110.73z M287.12,230.777
	c-22.533-34.295-16.281-58.759-9.61-74.176c18.507-42.786,73.451-48.545,116.243-45.871
	c139.589,8.772,320.62,113.928,409.147,255.579c2.92,4.673,3.076,10.563,0.407,15.385c-2.669,4.821-7.744,7.822-13.254,7.822
	h-73.735C512.947,389.517,338.386,308.805,287.12,230.777z M127.18,520.051c0-13.026,10.603-23.629,23.629-23.629H701.91v315.111
	H150.81c-13.027,0-23.629-10.602-23.629-23.629V520.051z M228.111,1658.165V933.629c0-8.377,6.791-15.167,15.167-15.167H701.91
	v763.332H251.74C238.713,1681.794,228.111,1671.192,228.111,1658.165z M1563.854,1658.165c0,13.027-10.603,23.629-23.63,23.629
	h-452.872V918.462h461.335c8.377,0,15.167,6.79,15.167,15.167V1658.165z"/>
</svg>
