<?xml version="1.0" encoding="utf-8"?>
<!-- Generator: Adobe Illustrator 16.0.0, SVG Export Plug-In . SVG Version: 6.00 Build 0)  -->
<!DOCTYPE svg PUBLIC "-//W3C//DTD SVG 1.1//EN" "http://www.w3.org/Graphics/SVG/1.1/DTD/svg11.dtd">
<svg version="1.1" id="Layer_1" xmlns="http://www.w3.org/2000/svg" xmlns:xlink="http://www.w3.org/1999/xlink" x="0px" y="0px"
	 width="1792px" height="1792px" viewBox="0 0 1792 1792" enable-background="new 0 0 1792 1792" xml:space="preserve">
<path d="M1433.988,529.354V138.158c0-74.65-60.744-135.383-135.395-135.383H493.405c-74.651,0-135.394,60.732-135.394,135.383
	v391.195c0,248.313,169.142,457.736,398.246,519.417c43.169,11.622,73.25,50.779,73.25,95.486v413.033
	c0,54.648-44.301,98.95-98.95,98.95H460.772c-36.717,0-66.493,29.775-66.493,66.492s29.775,66.492,66.493,66.492h870.453
	c36.718,0,66.493-29.775,66.493-66.492s-29.775-66.492-66.493-66.492h-269.783c-54.648,0-98.95-44.302-98.95-98.95v-413.033
	c0-44.776,30.014-83.846,73.251-95.486C1264.846,987.09,1433.988,777.666,1433.988,529.354z M490.998,529.354V138.159
	c0-1.322,1.086-2.396,2.409-2.396h805.188c1.322,0,2.408,1.074,2.408,2.396v391.194c0,223.315-181.686,405.002-405.001,405.002
	C672.685,934.355,490.998,752.669,490.998,529.354z"/>
</svg>
