<?xml version="1.0" encoding="utf-8"?>
<!-- Generator: Adobe Illustrator 16.0.0, SVG Export Plug-In . SVG Version: 6.00 Build 0)  -->
<!DOCTYPE svg PUBLIC "-//W3C//DTD SVG 1.1//EN" "http://www.w3.org/Graphics/SVG/1.1/DTD/svg11.dtd">
<svg version="1.1" id="Layer_1" xmlns="http://www.w3.org/2000/svg" xmlns:xlink="http://www.w3.org/1999/xlink" x="0px" y="0px"
	 width="1792px" height="1792px" viewBox="0 0 1792 1792" enable-background="new 0 0 1792 1792" xml:space="preserve">
<path d="M895.995,13.78C409.54,13.78,13.78,409.545,13.78,896.006c0,486.455,395.759,882.214,882.214,882.214
	c486.467,0,882.225-395.759,882.225-882.214C1778.22,409.545,1382.462,13.78,895.995,13.78z M1651.628,1074.828
	c-2.42,10.194-9.646,18.576-19.371,22.475c-9.727,3.898-20.746,2.832-29.536-2.871l-74.011-48.015
	c-106.703-69.221-153.277-201.709-113.365-322.469l98.414-297.76c99.523,130.552,158.791,293.362,158.791,469.817
	C1672.55,957.55,1665.26,1017.401,1651.628,1074.828z M1199.76,181.555c24.573,10.483,36.1,38.821,25.812,63.476l-31.783,76.164
	c-4.586,10.973-15.031,18.368-26.91,19.033c-11.891,0.665-23.104-5.515-28.883-15.914l-107.148-192.898
	C1089.691,141.765,1146.253,158.729,1199.76,181.555z M895.995,119.451c17.792,0,34.165,9.712,42.694,25.327l138.857,254.19
	c29.125,53.317,9.908,120.152-43.1,149.849L702.243,734.955c-13.851,7.763-23.046,21.785-24.641,37.586
	c-1.594,15.8,4.621,31.382,16.649,41.759l149.78,129.164c19.354,16.683,44.064,25.867,69.621,25.867h126.16
	c23.93,0,47.148,8.049,65.953,22.84l181.15,142.625c23.746,18.689,38.434,46.586,40.43,76.73
	c1.994,30.155-8.898,59.738-29.973,81.385l-295.936,304.066c-10.883,11.18-27.461,14.654-41.92,8.783
	c-14.459-5.883-23.918-19.928-23.918-35.533v-181.311c0-30.19-10.4-59.475-29.434-82.911l-45.818-56.378
	c-9.941-12.234-15.364-27.508-15.364-43.262v-73.313c0-17.854-7.487-34.88-20.639-46.942L396.182,693.448
	c-32.173-29.513-50.496-71.169-50.496-114.831V390.029c0-27.381,11.647-53.467,32.019-71.763
	C515.263,194.724,696.992,119.451,895.995,119.451z"/>
</svg>
