<?xml version="1.0" encoding="utf-8"?>
<!-- Generator: Adobe Illustrator 16.0.0, SVG Export Plug-In . SVG Version: 6.00 Build 0)  -->
<!DOCTYPE svg PUBLIC "-//W3C//DTD SVG 1.1//EN" "http://www.w3.org/Graphics/SVG/1.1/DTD/svg11.dtd">
<svg version="1.1" id="Layer_1" xmlns="http://www.w3.org/2000/svg" xmlns:xlink="http://www.w3.org/1999/xlink" x="0px" y="0px"
	 width="2304px" height="1792px" viewBox="0 0 2304 1792" enable-background="new 0 0 2304 1792" xml:space="preserve">
<g>
	<path d="M1151.977,1191.696c-47.419,0-93.822-8.862-137.915-26.325L437.995,937.005c0,127.223,0,317.511,0,368.214
		c0,178.694,319.646,323.525,713.996,323.525s714.025-144.831,714.025-323.525V936.99l-576.125,228.381
		C1245.799,1182.834,1199.396,1191.696,1151.977,1191.696z"/>
	<path d="M2261.186,563.932L1250.784,163.424c-63.465-25.156-134.135-25.155-197.599,0.001L42.814,563.933
		c-23.617,9.361-39.126,32.192-39.126,57.597c0,25.405,15.508,48.236,39.125,57.598l141.435,56.067v401.04
		c-31.421,21.42-52.054,57.493-52.054,98.392c0,37.46,17.312,70.869,44.365,92.683l-43.079,206.78
		c-5.78,27.743,1.244,56.614,19.123,78.602c17.879,21.987,44.71,34.752,73.049,34.752h51.085c28.339,0,55.17-12.765,73.049-34.752
		c17.878-21.987,24.902-50.858,19.123-78.602l-43.08-206.78c27.054-21.813,44.365-55.222,44.365-92.683
		c0-40.898-20.633-76.973-52.055-98.393V788.271l731.815,290.105c65.54,25.981,138.522,25.981,204.063,0.001l1007.171-399.25
		c23.617-9.362,39.126-32.193,39.126-57.598C2300.313,596.125,2284.803,573.294,2261.186,563.932z"/>
</g>
</svg>
