<?xml version="1.0" encoding="utf-8"?>
<!-- Generator: Adobe Illustrator 16.0.0, SVG Export Plug-In . SVG Version: 6.00 Build 0)  -->
<!DOCTYPE svg PUBLIC "-//W3C//DTD SVG 1.1//EN" "http://www.w3.org/Graphics/SVG/1.1/DTD/svg11.dtd">
<svg version="1.1" id="Layer_1" xmlns="http://www.w3.org/2000/svg" xmlns:xlink="http://www.w3.org/1999/xlink" x="0px" y="0px"
	 width="1792px" height="1792px" viewBox="0 0 1792 1792" enable-background="new 0 0 1792 1792" xml:space="preserve">
<g>
	<path d="M1054.836,690.688c66.863-47.789,121.518-111.226,161.721-183.177c6.365-11.407,6.215-25.336-0.395-36.592
		c-6.609-11.268-18.703-18.145-31.76-18.145H607.619c-13.051,0-25.126,6.912-31.736,18.168c-6.609,11.244-6.784,25.173-0.418,36.568
		c40.198,71.951,94.847,135.388,161.71,183.177c69.071,49.357,123.435,71.44,158.83,71.44
		C931.4,762.128,985.764,740.045,1054.836,690.688z"/>
	<path d="M1525.121,1645.906h-45.305v-101.734c0-214.123-119.379-436.634-319.344-595.207l-66.816-52.982l66.816-52.97
		c199.965-158.552,319.344-381.05,319.344-595.196V146.093h45.305c39.414,0,71.371-31.957,71.371-71.371s-31.957-71.37-71.371-71.37
		H266.878c-39.414,0-71.371,31.956-71.371,71.37s31.957,71.371,71.371,71.371h45.315v82.139
		c0,243.048,117.604,473.167,314.599,615.594l72.172,52.157l-72.172,52.191c-196.989,142.393-314.599,372.523-314.599,615.582v82.15
		h-45.315c-39.414,0-71.371,31.957-71.371,71.371s31.957,71.371,71.371,71.371h1258.243c39.414,0,71.371-31.957,71.371-71.371
		S1564.535,1645.906,1525.121,1645.906z M419.25,1563.756c0-208.803,101.033-406.488,270.271-528.82l75.245-54.422
		c27.042-19.551,43.189-51.146,43.189-84.532c0-33.373-16.146-64.981-43.201-84.543l-75.239-54.376
		C520.282,634.708,419.25,437.022,419.25,228.231V198.34c0-28.855,23.392-52.247,52.247-52.247h849.018
		c28.855,0,52.247,23.392,52.247,52.247v49.477c0,181.748-104.223,372.895-278.791,511.302l-69.559,55.143
		c-25.092,19.922-39.473,49.706-39.473,81.721c0,32.026,14.381,61.822,39.496,81.744l69.523,55.131
		c174.58,138.431,278.803,329.577,278.803,511.313v49.489c0,28.855-23.392,52.247-52.247,52.247H471.497
		c-28.855,0-52.247-23.392-52.247-52.247V1563.756z"/>
	<path d="M1267.646,1518.139c-78.701-138.024-277.166-272.355-371.641-272.355c-94.476,0-292.945,134.331-371.64,272.355
		c-6.5,11.396-6.441,25.395,0.157,36.731c6.592,11.337,18.72,18.284,31.84,18.284h679.28c13.115,0,25.23-6.971,31.828-18.308
		C1274.059,1543.521,1274.139,1529.535,1267.646,1518.139z"/>
</g>
</svg>
