<?xml version="1.0" encoding="utf-8"?>
<!-- Generator: Adobe Illustrator 16.0.0, SVG Export Plug-In . SVG Version: 6.00 Build 0)  -->
<!DOCTYPE svg PUBLIC "-//W3C//DTD SVG 1.1//EN" "http://www.w3.org/Graphics/SVG/1.1/DTD/svg11.dtd">
<svg version="1.1" id="Layer_1" xmlns="http://www.w3.org/2000/svg" xmlns:xlink="http://www.w3.org/1999/xlink" x="0px" y="0px"
	 width="1792px" height="1792px" viewBox="0 0 1792 1792" enable-background="new 0 0 1792 1792" xml:space="preserve">
<g>
	<path d="M1054.18,691.535c66.588-47.592,121.018-110.767,161.055-182.422c6.34-11.359,6.189-25.23-0.393-36.44
		c-6.582-11.221-18.625-18.069-31.629-18.069H608.81c-12.997,0-25.022,6.883-31.605,18.093c-6.583,11.198-6.756,25.068-0.417,36.417
		c40.032,71.655,94.456,134.83,161.043,182.422c68.786,49.154,122.925,71.146,158.174,71.146
		C931.254,762.681,985.395,740.689,1054.18,691.535z"/>
	<path d="M1522.525,1642.813h-45.117v-101.314c0-213.24-118.887-434.833-318.025-592.752l-66.541-52.764l66.541-52.752
		c199.139-157.896,318.025-379.478,318.025-592.74V149.187h45.117c39.252,0,71.076-31.824,71.076-71.076
		c0-39.251-31.824-71.076-71.076-71.076H269.474c-39.251,0-71.076,31.825-71.076,71.076c0,39.252,31.825,71.076,71.076,71.076
		h45.128v81.8c0,242.046,117.118,471.215,313.3,613.055l71.875,51.942l-71.875,51.977c-196.176,141.805-313.3,370.986-313.3,613.043
		v81.811h-45.128c-39.251,0-71.076,31.825-71.076,71.076c0,39.252,31.825,71.076,71.076,71.076h1253.051
		c39.252,0,71.076-31.824,71.076-71.076C1593.602,1674.639,1561.777,1642.813,1522.525,1642.813z M421.217,1561.003
		c0-207.941,100.616-404.813,269.156-526.639l74.934-54.197c26.931-19.471,43.011-50.936,43.011-84.184
		c0-33.235-16.08-64.713-43.023-84.194l-74.928-54.151c-168.534-121.85-269.15-318.721-269.15-526.65v-29.769
		c0-28.736,23.295-52.032,52.032-52.032h845.515c28.736,0,52.031,23.295,52.031,52.032v49.273
		c0,180.999-103.791,371.356-277.641,509.193l-69.271,54.915c-24.988,19.84-39.309,49.502-39.309,81.384
		c0,31.895,14.32,61.567,39.332,81.407l69.236,54.904c173.861,137.859,277.652,328.217,277.652,509.205v49.284
		c0,28.736-23.295,52.031-52.031,52.031H473.249c-28.736,0-52.032-23.295-52.032-52.031V1561.003z"/>
	<path d="M1266.113,1515.573c-78.377-137.455-276.021-271.232-370.107-271.232c-94.085,0-291.737,133.777-370.107,271.232
		c-6.473,11.35-6.415,25.289,0.156,36.58c6.565,11.29,18.642,18.208,31.709,18.208h676.478c13.061,0,25.127-6.94,31.697-18.231
		C1272.498,1540.851,1272.58,1526.923,1266.113,1515.573z"/>
</g>
</svg>
