<?xml version="1.0" encoding="utf-8"?>
<!-- Generator: Adobe Illustrator 16.0.0, SVG Export Plug-In . SVG Version: 6.00 Build 0)  -->
<!DOCTYPE svg PUBLIC "-//W3C//DTD SVG 1.1//EN" "http://www.w3.org/Graphics/SVG/1.1/DTD/svg11.dtd">
<svg version="1.1" id="Layer_1" xmlns="http://www.w3.org/2000/svg" xmlns:xlink="http://www.w3.org/1999/xlink" x="0px" y="0px"
	 width="1792px" height="1792px" viewBox="0 0 1792 1792" enable-background="new 0 0 1792 1792" xml:space="preserve">
<g>
	<path d="M1285.366,311.037c1.809-10.668-1.181-21.593-8.165-29.853c-6.987-8.259-17.25-13.008-28.069-13.008H542.89
		c-10.808,0-21.06,4.772-28.038,13.02c-6.98,8.26-10.003,19.183-8.19,29.84c25.514,150.222,107.441,291.951,230.956,380.222
		c68.879,49.22,123.092,71.241,158.388,71.241c35.298,0,89.51-22.021,158.388-71.241
		C1177.913,602.988,1259.848,461.258,1285.366,311.037z"/>
	<path d="M1523.371,1643.822h-45.176v-101.451c0-213.529-119.051-435.42-318.457-593.555l-66.631-52.834l66.631-52.823
		c199.406-158.111,318.457-379.991,318.457-593.542v-101.44h45.176c39.306,0,71.174-31.868,71.174-71.172
		c0-39.305-31.868-71.173-71.174-71.173H268.627c-39.305,0-71.172,31.868-71.172,71.173c0,39.304,31.867,71.172,71.172,71.172
		h45.189v81.91c0,242.373,117.276,471.853,313.724,613.883l71.972,52.012l-71.972,52.047
		c-196.441,141.996-313.724,371.486-313.724,613.873v81.92h-45.189c-39.305,0-71.172,31.869-71.172,71.174
		c0,39.303,31.867,71.172,71.172,71.172h1254.744c39.306,0,71.174-31.869,71.174-71.172
		C1594.545,1675.691,1562.677,1643.822,1523.371,1643.822z M420.574,1561.902c0-208.223,100.752-405.359,269.52-527.35
		l75.036-54.272c26.967-19.496,43.069-51.004,43.069-84.296c0-33.281-16.102-64.801-43.081-84.309l-75.029-54.225
		C521.327,635.436,420.574,438.3,420.574,230.088V200.28c0-28.775,23.327-52.102,52.102-52.102h846.658
		c28.775,0,52.103,23.327,52.103,52.102v49.339c0,181.243-103.933,371.858-278.017,509.882l-69.363,54.989
		c-25.022,19.867-39.364,49.568-39.364,81.494c0,31.938,14.342,61.651,39.386,81.516l69.33,54.979
		c174.096,138.047,278.028,328.662,278.028,509.894v49.351c0,28.774-23.327,52.102-52.103,52.102H472.676
		c-28.775,0-52.102-23.327-52.102-52.102V1561.902z"/>
</g>
</svg>
