<?xml version="1.0" encoding="utf-8"?>
<!-- Generator: Adobe Illustrator 16.0.0, SVG Export Plug-In . SVG Version: 6.00 Build 0)  -->
<!DOCTYPE svg PUBLIC "-//W3C//DTD SVG 1.1//EN" "http://www.w3.org/Graphics/SVG/1.1/DTD/svg11.dtd">
<svg version="1.1" id="Layer_1" xmlns="http://www.w3.org/2000/svg" xmlns:xlink="http://www.w3.org/1999/xlink" x="0px" y="0px"
	 width="1792px" height="1792px" viewBox="0 0 1792 1792" enable-background="new 0 0 1792 1792" xml:space="preserve">
<g>
	<path d="M1285.935,1529.368c-25.559-150.448-107.617-292.393-231.313-380.797c-68.982-49.295-123.277-71.35-158.628-71.35
		s-89.646,22.055-158.628,71.35c-123.701,88.404-205.765,230.349-231.317,380.797c-1.815,10.686,1.178,21.626,8.173,29.898
		c6.99,8.271,17.281,13.027,28.111,13.027h707.311c10.824,0,21.092-4.779,28.076-13.039
		C1284.716,1550.982,1287.743,1540.042,1285.935,1529.368z"/>
	<path d="M1524.323,1644.955h-45.258v-82.034c0-242.739-117.455-472.566-314.205-614.813l-72.068-52.091l72.068-52.125
		c196.738-142.212,314.205-372.05,314.205-614.801v-82.046h45.258c39.363,0,71.279-31.916,71.279-71.28s-31.916-71.28-71.279-71.28
		H267.678c-39.364,0-71.28,31.916-71.28,71.28s31.916,71.28,71.28,71.28h45.246v101.605c0,213.852,119.229,436.079,318.938,594.452
		l66.732,52.914l-66.732,52.903c-199.709,158.35-318.938,380.564-318.938,594.439v101.595h-45.246
		c-39.364,0-71.28,31.916-71.28,71.28c0,39.363,31.916,71.279,71.28,71.279h1256.646c39.363,0,71.279-31.916,71.279-71.279
		C1595.603,1676.871,1563.687,1644.955,1524.323,1644.955z M419.844,1543.36c0-181.518,104.095-372.422,278.443-510.653
		l69.464-55.073c25.06-19.896,39.428-49.643,39.428-81.616c0-32.009-14.386-61.767-39.451-81.641l-69.436-55.061
		C523.939,621.061,419.844,430.157,419.844,248.651v-49.426c0-28.818,23.362-52.181,52.181-52.181h847.94
		c28.818,0,52.181,23.362,52.181,52.181v29.865c0,208.538-100.899,405.973-269.934,528.148l-75.144,54.354
		c-27.008,19.525-43.134,51.082-43.134,84.425c0,33.331,16.126,64.898,43.146,84.436l75.144,54.308
		c169.022,122.198,269.922,319.633,269.922,528.16v29.854c0,28.818-23.362,52.181-52.181,52.181h-847.94
		c-28.818,0-52.181-23.362-52.181-52.181V1543.36z"/>
</g>
</svg>
