<?xml version="1.0" encoding="utf-8"?>
<!-- Generator: Adobe Illustrator 16.0.0, SVG Export Plug-In . SVG Version: 6.00 Build 0)  -->
<!DOCTYPE svg PUBLIC "-//W3C//DTD SVG 1.1//EN" "http://www.w3.org/Graphics/SVG/1.1/DTD/svg11.dtd">
<svg version="1.1" id="Layer_1" xmlns="http://www.w3.org/2000/svg" xmlns:xlink="http://www.w3.org/1999/xlink" x="0px" y="0px"
	 width="1792px" height="1235.752px" viewBox="0 274.986 1792 1235.752" enable-background="new 0 274.986 1792 1235.752"
	 xml:space="preserve">
<path d="M1762.813,771.944l-286.146-410.422c-25.143-36.079-66.413-57.613-110.388-57.613H425.717
	c-43.975,0-85.239,21.534-110.383,57.606L29.183,771.956c-15.814,22.689-24.175,49.3-24.175,76.949v504.619
	c0,74.199,60.369,134.568,134.568,134.568h1512.848c74.2,0,134.568-60.369,134.568-134.568V848.905
	C1786.992,821.244,1778.627,794.627,1762.813,771.944z M403.057,422.667c5.157-7.408,13.633-11.829,22.66-11.829h940.562
	c9.026,0,17.508,4.42,22.671,11.834l223.438,320.489c3.633,5.211,4.067,12.009,1.129,17.641c-2.938,5.631-8.765,9.163-15.117,9.163
	h-298.21c-50.379,0-96.129,27.766-119.393,72.488l-79.025,151.99c-4.792,9.189-14.19,14.896-24.539,14.896H714.769
	c-10.35,0-19.747-5.697-24.517-14.873l-79.049-152.025c-23.252-44.711-68.995-72.482-119.392-72.482h-298.21
	c-6.352,0-12.178-3.531-15.117-9.163c-2.939-5.632-2.504-12.43,1.129-17.641L403.057,422.667z M1652.424,1381.16H139.576
	c-15.24,0-27.638-12.402-27.638-27.637V895.726c0-10.402,8.433-18.835,18.836-18.835h361.037c10.35,0,19.741,5.703,24.517,14.887
	l79.055,152.024c23.246,44.705,68.995,72.471,119.386,72.471h362.464c50.378,0,96.116-27.766,119.391-72.471L1275.66,891.8
	c4.781-9.195,14.179-14.904,24.529-14.904h361.036c10.403,0,18.836,8.433,18.836,18.835v457.792
	C1680.062,1368.758,1667.658,1381.16,1652.424,1381.16z"/>
</svg>
