<?xml version="1.0" encoding="utf-8"?>
<!-- Generator: Adobe Illustrator 21.0.0, SVG Export Plug-In . SVG Version: 6.00 Build 0)  -->
<svg version="1.1" id="Layer_1" xmlns="http://www.w3.org/2000/svg" xmlns:xlink="http://www.w3.org/1999/xlink" x="0px" y="0px"
	 viewBox="0 0 1792 1792" style="enable-background:new 0 0 1792 1792;" xml:space="preserve">
<path d="M1762.8,775.1l-286.1-410.4c-25.1-36.1-66.4-57.6-110.4-57.6H425.7c-44,0-85.2,21.5-110.4,57.6L29.2,775.1
	C13.4,797.8,5,824.4,5,852v504.6c0,74.2,60.4,134.6,134.6,134.6h1512.8c74.2,0,134.6-60.4,134.6-134.6V852
	C1787,824.4,1778.6,797.8,1762.8,775.1z M403.1,425.8c5.2-7.4,13.6-11.8,22.7-11.8h940.6c9,0,17.5,4.4,22.7,11.8l223.4,320.5
	c3.6,5.2,4.1,12,1.1,17.6c-2.9,5.6-8.8,9.2-15.1,9.2h-298.2c-50.4,0-96.1,27.8-119.4,72.5l-79,152c-4.8,9.2-14.2,14.9-24.5,14.9
	H714.8c-10.3,0-19.7-5.7-24.5-14.9l-79-152c-23.3-44.7-69-72.5-119.4-72.5H193.6c-6.4,0-12.2-3.5-15.1-9.2
	c-2.9-5.6-2.5-12.4,1.1-17.6L403.1,425.8z M1652.4,1384.3H139.6c-15.2,0-27.6-12.4-27.6-27.6V898.9c0-10.4,8.4-18.8,18.8-18.8h361
	c10.4,0,19.7,5.7,24.5,14.9l79.1,152c23.2,44.7,69,72.5,119.4,72.5h362.5c50.4,0,96.1-27.8,119.4-72.5l79-152
	c4.8-9.2,14.2-14.9,24.5-14.9h361c10.4,0,18.8,8.4,18.8,18.8v457.8C1680.1,1371.9,1667.7,1384.3,1652.4,1384.3z"/>
</svg>
