<?xml version="1.0" encoding="utf-8"?>
<!-- Generator: Adobe Illustrator 16.0.0, SVG Export Plug-In . SVG Version: 6.00 Build 0)  -->
<!DOCTYPE svg PUBLIC "-//W3C//DTD SVG 1.1//EN" "http://www.w3.org/Graphics/SVG/1.1/DTD/svg11.dtd">
<svg version="1.1" id="Layer_1" xmlns="http://www.w3.org/2000/svg" xmlns:xlink="http://www.w3.org/1999/xlink" x="0px" y="0px"
	 width="1792px" height="1792px" viewBox="0 0 1792 1792" enable-background="new 0 0 1792 1792" xml:space="preserve">
<path d="M1605.527,364.9l-228.66-228.659c-71.558-71.558-166.702-110.964-267.892-110.964
	c-101.203,0-196.341,39.414-267.905,110.977c-147.712,147.712-147.718,388.064,0,535.79l13.969,13.969
	c15.053,15.053,15.053,39.458,0,54.51l-719.254,719.242c-40.383,40.389-40.383,105.846,0,146.237
	c20.188,20.181,46.65,30.278,73.112,30.278c26.462,0,52.924-10.098,73.112-30.278l32.634-32.636l176.322,176.315
	c37.69,37.696,98.786,37.696,136.477,0c37.691-37.685,37.691-98.781,0-136.478l-39.003-39.004
	c-13.389-13.382-20.915-31.544-20.915-50.487c0-18.942,7.519-37.103,20.915-50.486l3.912-3.917
	c27.882-27.883,73.092-27.883,100.975,0l39.009,39.002c37.69,37.698,98.793,37.698,136.483,0c37.69-37.683,37.684-98.793,0-136.476
	l-176.322-176.314l308.768-308.774c15.053-15.053,39.458-15.053,54.511,0l13.955,13.955
	c71.557,71.558,166.702,110.965,267.891,110.965c101.19,0,196.335-39.407,267.892-110.965
	c71.571-71.57,110.991-166.714,110.991-267.912C1716.491,531.595,1677.084,436.457,1605.527,364.9z M1459.303,754.466
	c-32.514,32.507-75.718,50.406-121.682,50.406c-45.963,0-89.166-17.899-121.667-50.399L987.294,525.82
	c-67.087-67.094-67.087-176.254,0-243.341c32.501-32.507,75.718-50.407,121.682-50.407s89.167,17.9,121.667,50.399l228.66,228.653
	c32.5,32.508,50.406,75.718,50.406,121.674C1509.709,678.756,1491.803,721.966,1459.303,754.466z"/>
</svg>
