<?xml version="1.0" encoding="utf-8"?>
<!-- Generator: Adobe Illustrator 16.0.0, SVG Export Plug-In . SVG Version: 6.00 Build 0)  -->
<!DOCTYPE svg PUBLIC "-//W3C//DTD SVG 1.1//EN" "http://www.w3.org/Graphics/SVG/1.1/DTD/svg11.dtd">
<svg version="1.1" id="Layer_1" xmlns="http://www.w3.org/2000/svg" xmlns:xlink="http://www.w3.org/1999/xlink" x="0px" y="0px"
	 width="1792px" height="1792px" viewBox="0 0 1792 1792" enable-background="new 0 0 1792 1792" xml:space="preserve">
<path d="M1333.197,1241.472C1709.063,824.987,1626.545,33.923,1626.545,33.923S835.492-48.589,419.002,327.264
	C111.514,604.75,112.958,919.361,232.238,1182.231c5.156-7.387,10.335-14.786,15.597-22.327
	c13.413-19.859,28.963-38.968,43.867-59.135c15.104-20.047,30.395-40.577,47.202-60.474c16.466-20.083,33.238-40.494,50.197-61.166
	c17.734-19.931,35.692-40.119,53.802-60.461c9.067-10.101,18.181-20.248,27.318-30.443c9.525-9.817,19.097-19.648,28.668-29.514
	c19.156-19.649,38.393-39.38,57.608-59.087c20.024-18.879,40.085-37.719,60.027-56.504c9.983-9.36,19.919-18.709,29.844-28.017
	c9.983-9.232,20.564-17.811,30.735-26.667c41.083-35.111,80.804-70.222,122.051-100.881c20.235-15.691,40.144-31.117,59.64-46.215
	c19.543-14.951,39.79-28.17,58.864-41.77c38.511-26.743,74.249-52.734,109.438-73.575c5.765-3.586,13.328-2.027,17.206,3.546
	c3.877,5.572,2.704,13.198-2.656,17.364c-0.27,0.209-0.531,0.414-0.786,0.612c-32.825,24.522-65.794,54.143-101.31,84.814
	c-17.569,15.521-36.278,30.812-54.236,47.707c-17.829,17.042-36.045,34.453-54.554,52.152
	c-37.795,34.747-73.792,73.68-110.988,112.761c-9.197,9.831-18.756,19.467-27.812,29.591c-8.902,10.241-17.829,20.536-26.79,30.841
	c-17.911,20.653-35.868,41.377-53.861,62.106c-17.101,21.486-34.177,42.979-51.219,64.379
	c-8.503,10.722-17.006,21.423-25.462,32.109c-8.045,10.994-16.067,21.963-24.077,32.874c-15.914,21.927-31.687,43.678-47.296,65.194
	c-14.739,22.115-29.303,43.973-43.608,65.512c-14.669,21.294-27.8,43.104-40.766,64.407c-12.755,21.436-26.191,41.812-37.56,62.752
	c-11.627,20.801-22.925,41.013-33.848,60.567c-10.816,19.673-20.306,39.264-29.925,57.784c-4.745,9.303-9.396,18.404-13.941,27.308
	c-4.228,9.102-8.362,17.992-12.426,26.648c-7.974,17.405-15.902,33.684-22.714,49.421c-13.319,31.806-25.158,58.689-34.071,83.952
	c-4.487,12.167-8.48,23.043-11.98,32.485c-2.818,8.621-5.238,15.949-7.188,21.892c-3.911,11.909-6.014,18.252-6.014,18.252
	c-0.54,1.668-1.127,3.664-1.585,5.367c-14.493,53.92,17.476,109.401,71.419,123.883c53.932,14.47,109.367-17.511,123.883-71.42
	l0.094-0.353c0,0,1.738-6.459,4.968-18.556c1.632-6.037,3.629-13.495,5.978-22.28c2.407-7.705,5.191-16.571,8.292-26.508
	c5.497-19.226,15.104-44.899,25.333-73.757c5.297-14.469,11.745-29.713,18.075-45.897c3.242-8.069,6.577-16.372,9.948-24.853
	c3.723-8.385,7.528-16.981,11.416-25.756c4.745-10.512,9.537-21.457,14.458-32.545
	C727.665,1547.291,1049.786,1555.536,1333.197,1241.472z"/>
</svg>
