<?xml version="1.0" encoding="utf-8"?>
<!-- Generator: Adobe Illustrator 16.0.0, SVG Export Plug-In . SVG Version: 6.00 Build 0)  -->
<!DOCTYPE svg PUBLIC "-//W3C//DTD SVG 1.1//EN" "http://www.w3.org/Graphics/SVG/1.1/DTD/svg11.dtd">
<svg version="1.1" id="Layer_1" xmlns="http://www.w3.org/2000/svg" xmlns:xlink="http://www.w3.org/1999/xlink" x="0px" y="0px"
	 width="1792px" height="1792px" viewBox="0 0 1792 1792" enable-background="new 0 0 1792 1792" xml:space="preserve">
<path d="M1684.802,11.463h-266.438c-52.938,0-96.013,43.069-96.013,96.013v788.246c0,235.088-191.262,426.35-426.352,426.35
	c-235.089,0-426.351-191.262-426.351-426.35V107.476c0-52.943-43.069-96.013-96.014-96.013H107.198
	c-52.943,0-96.013,43.069-96.013,96.013v788.246c0,487.889,396.925,884.815,884.814,884.815
	c487.891,0,884.814-396.926,884.814-884.815V107.476C1780.814,54.533,1737.74,11.463,1684.802,11.463z M1674.129,118.149v245.723
	h-245.091V118.149H1674.129z M362.963,118.149v247.129H117.872V118.149H362.963z"/>
</svg>
