<?xml version="1.0" encoding="utf-8"?>
<!-- Generator: Adobe Illustrator 16.0.0, SVG Export Plug-In . SVG Version: 6.00 Build 0)  -->
<!DOCTYPE svg PUBLIC "-//W3C//DTD SVG 1.1//EN" "http://www.w3.org/Graphics/SVG/1.1/DTD/svg11.dtd">
<svg version="1.1" id="Layer_1" xmlns="http://www.w3.org/2000/svg" xmlns:xlink="http://www.w3.org/1999/xlink" x="0px" y="0px"
	 width="1060px" height="1792px" viewBox="364.5 0 1060 1792" enable-background="new 364.5 0 1060 1792" xml:space="preserve">
<g>
	<path d="M894.503,1086.198c-46.722,0-92.087-5.825-135.508-16.654v530.335l135.508,167.061l135.508-167.061v-530.335
		C986.589,1080.373,941.229,1086.198,894.503,1086.198z"/>
	<path d="M894.503,25.061c-276.425,0-500.514,224.065-500.514,500.502c0,276.442,224.089,500.502,500.514,500.502
		c276.424,0,500.508-224.06,500.508-500.502C1395.011,249.126,1170.927,25.061,894.503,25.061z M822.13,447.158
		c-59.641,62.537-146.214,76.789-193.364,31.829c-47.139-44.96-37.008-132.107,22.627-194.644
		c59.642-62.542,146.214-76.795,193.364-31.835C891.89,297.475,881.766,384.616,822.13,447.158z"/>
</g>
</svg>
