<?xml version="1.0" encoding="utf-8"?>
<!-- Generator: Adobe Illustrator 16.0.0, SVG Export Plug-In . SVG Version: 6.00 Build 0)  -->
<!DOCTYPE svg PUBLIC "-//W3C//DTD SVG 1.1//EN" "http://www.w3.org/Graphics/SVG/1.1/DTD/svg11.dtd">
<svg version="1.1" id="Layer_1" xmlns="http://www.w3.org/2000/svg" xmlns:xlink="http://www.w3.org/1999/xlink" x="0px" y="0px"
	 width="1792px" height="1792px" viewBox="0 0 1792 1792" enable-background="new 0 0 1792 1792" xml:space="preserve">
<path d="M1552.282,667.023c0-362.448-293.831-656.273-656.279-656.273c-362.455,0-656.279,293.825-656.279,656.273
	c0,143.558,46.22,276.247,124.417,384.287l-0.159,0.023l532.021,729.917l532.026-729.917l-0.165-0.023
	C1506.049,943.27,1552.282,810.581,1552.282,667.023z M896.003,931.464c-146.043,0-264.435-118.397-264.435-264.441
	c0-146.042,118.392-264.428,264.435-264.428c146.037,0,264.434,118.386,264.434,264.428
	C1160.437,813.066,1042.04,931.464,896.003,931.464z"/>
</svg>
