<?xml version="1.0" encoding="utf-8"?>
<!-- Generator: Adobe Illustrator 16.0.0, SVG Export Plug-In . SVG Version: 6.00 Build 0)  -->
<!DOCTYPE svg PUBLIC "-//W3C//DTD SVG 1.1//EN" "http://www.w3.org/Graphics/SVG/1.1/DTD/svg11.dtd">
<svg version="1.1" id="Layer_1" xmlns="http://www.w3.org/2000/svg" xmlns:xlink="http://www.w3.org/1999/xlink" x="0px" y="0px"
	 width="1110.111px" height="1792px" viewBox="337.264 0 1110.111 1792" enable-background="new 337.264 0 1110.111 1792"
	 xml:space="preserve">
<path d="M1284.301,5.83H500.35c-81.352,0-147.539,66.181-147.539,147.526v1485.287c0,81.345,66.187,147.526,147.539,147.526h783.951
	c81.346,0,147.526-66.182,147.526-147.526V153.356C1431.827,72.011,1365.646,5.83,1284.301,5.83z M1322.128,1638.644
	c0,20.854-16.974,37.828-37.827,37.828H500.35c-20.866,0-37.839-16.975-37.839-37.828V153.356c0-20.86,16.974-37.828,37.839-37.828
	h134.979c4.581,37.82,36.782,67.133,75.837,67.133h362.271c39.089,0,71.263-29.313,75.839-67.133h135.025
	c20.854,0,37.827,16.968,37.827,37.828V1638.644z"/>
</svg>
