<?xml version="1.0" encoding="utf-8"?>
<!-- Generator: Adobe Illustrator 16.0.0, SVG Export Plug-In . SVG Version: 6.00 Build 0)  -->
<!DOCTYPE svg PUBLIC "-//W3C//DTD SVG 1.1//EN" "http://www.w3.org/Graphics/SVG/1.1/DTD/svg11.dtd">
<svg version="1.1" id="Layer_1" xmlns="http://www.w3.org/2000/svg" xmlns:xlink="http://www.w3.org/1999/xlink" x="0px" y="0px"
	 width="1792px" height="1551.155px" viewBox="0 121.242 1792 1551.155" enable-background="new 0 121.242 1792 1551.155"
	 xml:space="preserve">
<g>
	<path d="M1640.416,519.735h-94.262v-299.16c0-46.557-37.879-84.438-84.437-84.438H330.295c-46.558,0-84.438,37.881-84.438,84.438
		v299.16h-94.273c-74.417,0-134.745,60.327-134.745,134.744v484.669c0,74.418,60.327,134.746,134.745,134.746h94.273v299.168
		c0,46.557,37.88,84.439,84.438,84.439h1131.423c46.558,0,84.437-37.883,84.437-84.439v-299.168h94.262
		c74.418,0,134.745-60.328,134.745-134.746V654.479C1775.161,580.062,1714.834,519.735,1640.416,519.735z M351.775,242.056h1088.461
		v277.68H351.775V242.056z M351.775,1551.582V916.719h1088.461v634.863H351.775z"/>
	<path d="M1251.536,1057.816H540.481c-29.25,0-52.959,23.711-52.959,52.959c0,29.25,23.709,52.959,52.959,52.959h711.055
		c29.249,0,52.958-23.709,52.958-52.959C1304.494,1081.527,1280.785,1057.816,1251.536,1057.816z"/>
	<path d="M1251.536,1286.203H540.481c-29.25,0-52.959,23.709-52.959,52.959c0,29.248,23.709,52.957,52.959,52.957h711.055
		c29.249,0,52.958-23.709,52.958-52.957C1304.494,1309.912,1280.785,1286.203,1251.536,1286.203z"/>
</g>
</svg>
