<?xml version="1.0" encoding="utf-8"?>
<!-- Generator: Adobe Illustrator 16.0.0, SVG Export Plug-In . SVG Version: 6.00 Build 0)  -->
<!DOCTYPE svg PUBLIC "-//W3C//DTD SVG 1.1//EN" "http://www.w3.org/Graphics/SVG/1.1/DTD/svg11.dtd">
<svg version="1.1" id="Layer_1" xmlns="http://www.w3.org/2000/svg" xmlns:xlink="http://www.w3.org/1999/xlink" x="0px" y="0px"
	 width="1608.161px" height="1792px" viewBox="91.239 0 1608.161 1792" enable-background="new 91.239 0 1608.161 1792"
	 xml:space="preserve">
<path d="M1678.827,1626.979l-61.915-1122.767h-309.324v-90.643c0-226.072-183.919-409.992-409.985-409.992
	c-226.063,0-409.981,183.92-409.981,409.992v90.643H164.912l-53.27,1127.616l-0.052,1.95
	c-0.436,40.586,15.687,80.407,44.219,109.229c28.543,28.857,68.19,45.416,108.784,45.416H1526.05
	c41.84,0,82.347-17.429,111.134-47.841C1665.959,1710.184,1681.136,1668.772,1678.827,1626.979z M594.555,413.569
	c0-167.106,135.946-303.059,303.048-303.059c167.1,0,303.053,135.952,303.053,303.059v90.643H594.555V413.569z M1559.524,1667.077
	c-8.68,9.154-20.874,14.412-33.475,14.412H264.594c-12.224,0-24.157-4.979-32.768-13.692c-8.406-8.482-13.232-20.144-13.314-32.093
	l48.402-1024.559h220.707v135.41c0,29.529,23.937,53.467,53.467,53.467c29.529,0,53.467-23.938,53.467-53.467v-135.41h606.101
	v135.41c0,29.529,23.936,53.467,53.467,53.467c29.529,0,53.466-23.938,53.466-53.467v-135.41h208.124l56.344,1021.728
	C1572.752,1645.461,1568.181,1657.922,1559.524,1667.077z"/>
</svg>
