<?xml version="1.0" encoding="utf-8"?>
<!-- Generator: Adobe Illustrator 16.0.0, SVG Export Plug-In . SVG Version: 6.00 Build 0)  -->
<!DOCTYPE svg PUBLIC "-//W3C//DTD SVG 1.1//EN" "http://www.w3.org/Graphics/SVG/1.1/DTD/svg11.dtd">
<svg version="1.1" id="Layer_1" xmlns="http://www.w3.org/2000/svg" xmlns:xlink="http://www.w3.org/1999/xlink" x="0px" y="0px"
	 width="1792px" height="1464.142px" viewBox="0 169.252 1792 1464.142" enable-background="new 0 169.252 1792 1464.142"
	 xml:space="preserve">
<g>
	<path d="M1012.806,1626.571c-46.337,0-84.012-37.676-84.012-83.986c0-46.337,37.675-84.012,84.012-84.012h550.593
		c29.053,0,52.68-23.614,52.68-52.653V396.726c0-29.026-23.627-52.64-52.68-52.64h-550.593c-46.337,0-84.012-37.688-84.012-84.013
		c0-46.323,37.675-83.999,84.012-83.999h550.593c121.688,0,220.678,98.99,220.678,220.651V1405.92
		c0,121.66-98.99,220.651-220.678,220.651H1012.806z"/>
	<path d="M670.192,1444.499c-22.436,0-43.533-8.754-59.39-24.61c-15.869-15.869-24.609-36.954-24.609-59.389
		s8.74-43.533,24.609-59.39L926.54,985.335H7.924V817.311H926.54L610.803,501.534c-15.869-15.855-24.609-36.94-24.609-59.376
		c0-22.435,8.74-43.52,24.609-59.401c15.856-15.856,36.954-24.597,59.402-24.597c22.435,0,43.52,8.74,59.376,24.597l459.164,459.177
		c15.869,15.856,24.597,36.954,24.61,59.389c-0.014,22.436-8.741,43.533-24.61,59.402l-459.164,459.164
		C713.725,1435.745,692.64,1444.499,670.192,1444.499z"/>
</g>
</svg>
