<?xml version="1.0" encoding="utf-8"?>
<!-- Generator: Adobe Illustrator 21.0.0, SVG Export Plug-In . SVG Version: 6.00 Build 0)  -->
<svg version="1.1" id="Layer_1" xmlns="http://www.w3.org/2000/svg" xmlns:xlink="http://www.w3.org/1999/xlink" x="0px" y="0px"
	 viewBox="0 0 1792 1792" style="enable-background:new 0 0 1792 1792;" xml:space="preserve">
<path d="M96,896.4l546.6-371.9v259.8c5.7,13.5,13.2,25.6,22.4,30.6c20.3,10.3,88.3,6.4,214.9-75.1
	c158.7-102.1,315.7-136.7,465.8-102.1C1571.4,689.2,1691,881.8,1696,890l-203.9,124.6c-0.7-1.1-73.3-114.9-199.6-144.1
	c-85.1-19.6-180.4,4.3-282.9,70.1c-121.4,78.3-229.5,117.4-322.8,117.4c-15.3,0-29.9-1.4-44.1-3.6v213.2L96,896.4z"/>
</svg>
