<?xml version="1.0" encoding="utf-8"?>
<!-- Generator: Adobe Illustrator 21.0.0, SVG Export Plug-In . SVG Version: 6.00 Build 0)  -->
<svg version="1.1" id="Layer_1" xmlns="http://www.w3.org/2000/svg" xmlns:xlink="http://www.w3.org/1999/xlink" x="0px" y="0px"
	 viewBox="0 0 449.6 449.5" style="enable-background:new 0 0 449.6 449.5;" xml:space="preserve">
<path d="M0,224.8l153.6-104.5v73c1.6,3.8,3.7,7.2,6.3,8.6c5.7,2.9,24.8,1.8,60.4-21.1c44.6-28.7,88.7-38.4,130.9-28.7
	c63.4,14.5,97,68.6,98.4,70.9l-57.3,35c-0.2-0.3-20.6-32.3-56.1-40.5c-23.9-5.5-50.7,1.2-79.5,19.7c-34.1,22-64.5,33-90.7,33
	c-4.3,0-8.4-0.4-12.4-1v59.9L0,224.8z"/>
</svg>
