<?xml version="1.0" encoding="utf-8"?>
<!-- Generator: Adobe Illustrator 21.0.0, SVG Export Plug-In . SVG Version: 6.00 Build 0)  -->
<svg version="1.1" id="Layer_1" xmlns="http://www.w3.org/2000/svg" xmlns:xlink="http://www.w3.org/1999/xlink" x="0px" y="0px"
	 viewBox="0 0 449.6 449.5" style="enable-background:new 0 0 449.6 449.5;" xml:space="preserve">
<path d="M224.7,449.5l104.4-153.5h-72.9c-3.8-1.6-7.2-3.7-8.6-6.3c-2.9-5.7-1.8-24.8,21.1-60.4c28.7-44.6,38.4-88.6,28.7-130.8
	C282.9,35,228.8,1.4,226.5,0l-35,57.3c0.3,0.2,32.3,20.6,40.4,56.1c5.5,23.9-1.2,50.7-19.7,79.5c-22,34.1-33,64.5-33,90.6
	c0,4.3,0.4,8.4,1,12.4h-59.8L224.7,449.5z"/>
</svg>
