<?xml version="1.0" encoding="utf-8"?>
<!-- Generator: Adobe Illustrator 21.0.0, SVG Export Plug-In . SVG Version: 6.00 Build 0)  -->
<svg version="1.1" id="Layer_1" xmlns="http://www.w3.org/2000/svg" xmlns:xlink="http://www.w3.org/1999/xlink" x="0px" y="0px"
	 viewBox="0 0 1792 1792" style="enable-background:new 0 0 1792 1792;" xml:space="preserve">
<path d="M896.5,96L524.5,642.5H784c13.5,5.7,25.6,13.2,30.6,22.4c10.3,20.3,6.4,88.3-75.1,215c-102.2,158.8-136.7,315.4-102.2,465.7
	C689,1571.4,881.6,1691,889.8,1696l124.6-204c-1.1-0.7-115-73.3-143.8-199.7c-19.6-85.1,4.3-180.5,70.1-283
	c78.3-121.4,117.5-229.6,117.5-322.6c0-15.3-1.4-29.9-3.6-44.1h212.9L896.5,96z"/>
</svg>
