<?xml version="1.0" encoding="utf-8"?>
<!-- Generator: Adobe Illustrator 21.0.0, SVG Export Plug-In . SVG Version: 6.00 Build 0)  -->
<svg version="1.1" id="Layer_1" xmlns="http://www.w3.org/2000/svg" xmlns:xlink="http://www.w3.org/1999/xlink" x="0px" y="0px"
	 viewBox="0 0 449.6 449.5" style="enable-background:new 0 0 449.6 449.5;" xml:space="preserve">
<path d="M224.9,449.5L120.4,295.9h73c3.8-1.6,7.2-3.7,8.6-6.3c2.9-5.7,1.8-24.8-21.1-60.4c-28.7-44.6-38.4-88.7-28.7-130.9
	C166.7,35,220.8,1.4,223-0.1l35,57.3c-0.3,0.2-32.3,20.6-40.5,56.1c-5.5,23.9,1.2,50.7,19.7,79.5c22,34.1,33,64.5,33,90.7
	c0,4.3-0.4,8.4-1,12.4h59.9L224.9,449.5z"/>
</svg>
