<?xml version="1.0" encoding="utf-8"?>
<!-- Generator: Adobe Illustrator 16.0.0, SVG Export Plug-In . SVG Version: 6.00 Build 0)  -->
<!DOCTYPE svg PUBLIC "-//W3C//DTD SVG 1.1//EN" "http://www.w3.org/Graphics/SVG/1.1/DTD/svg11.dtd">
<svg version="1.1" id="Layer_1" xmlns="http://www.w3.org/2000/svg" xmlns:xlink="http://www.w3.org/1999/xlink" x="0px" y="0px"
	 width="1626.163px" height="1792px" viewBox="85.238 0 1626.163 1792" enable-background="new 85.238 0 1626.163 1792"
	 xml:space="preserve">
<path d="M1678.624,837.785c-26.317-83.559-85.874-271.781-149.808-473.839l-44.058-139.23
	c-36.263-114.641-141.369-191.664-261.532-191.664H982.117c-89.639,0-178.979,11.856-265.551,35.231l-200.374,54.11l-0.19-8.548
	C514.718,55.586,466.265,8.189,407.986,8.189H210.06c-59.575,0-108.042,48.467-108.042,108.042v832.7
	c0,59.569,48.467,108.042,108.042,108.042h354.979l296.555,726.837h39.179c55.256,0,158.426-11.894,228.585-91.505
	c53.054-60.213,73.26-143.419,60.075-247.323c-16.461-129.791-27.836-211.11-35.199-260.583h269.806
	c91.834,0,175.963-39.943,225.029-106.853C1682.61,1031.834,1714.95,953.12,1678.624,837.785z M1555.046,1008.578
	c-26.787,36.528-76.992,59.214-131.008,59.214l-409.088,0.09l13.652,69.538c0.114,0.607,12.463,64.555,45.158,322.239
	c8.78,69.237-1.948,121.568-31.897,155.554c-28.152,31.948-70.084,44.487-103.032,49.244l-267.997-656.853
	c-16.651-40.845-55.925-67.238-100.045-67.238h-56.368V243.659l232.551-62.804c76.657-20.701,155.774-31.195,235.146-31.195h241.109
	c69.071,0,129.501,44.297,150.365,110.23l44.045,139.237c63.921,201.994,123.452,390.159,149.77,473.692
	C1584.792,928.018,1580.629,973.693,1555.046,1008.578z"/>
</svg>
