<?xml version="1.0" encoding="utf-8"?>
<!-- Generator: Adobe Illustrator 16.0.0, SVG Export Plug-In . SVG Version: 6.00 Build 0)  -->
<!DOCTYPE svg PUBLIC "-//W3C//DTD SVG 1.1//EN" "http://www.w3.org/Graphics/SVG/1.1/DTD/svg11.dtd">
<svg version="1.1" id="Layer_1" xmlns="http://www.w3.org/2000/svg" xmlns:xlink="http://www.w3.org/1999/xlink" x="0px" y="0px"
	 width="1792px" height="1792px" viewBox="0 0 1792 1792" enable-background="new 0 0 1792 1792" xml:space="preserve">
<path d="M1763.674,1479.396c-59.758-208.403-224.636-402.345-456.422-539.296c59.96-96.608,95.322-215.094,95.322-342.993
	c0-324.233-227.244-588.013-506.576-588.013c-279.302,0-506.527,263.779-506.527,588.013c0,127.891,35.354,246.37,95.303,342.976
	c-231.807,136.951-396.689,330.898-456.439,539.289c-20.473,71.289-5.989,149.346,38.801,208.879
	c44.778,59.262,115.791,94.654,189.966,94.654h1277.792c74.176,0,145.194-35.393,190.034-94.754
	C1769.656,1628.718,1784.128,1550.661,1763.674,1479.396z M895.998,122.312c216.9,0,393.359,212.994,393.359,474.796
	c0,261.826-176.459,474.839-393.359,474.839c-216.87,0-393.311-213.013-393.311-474.839
	C502.688,335.306,679.128,122.312,895.998,122.312z M1634.523,1619.996c-23.501,31.117-60.748,49.692-99.63,49.692H257.102
	c-38.881,0-76.129-18.575-99.568-49.594c-23.482-31.217-31.099-72.137-20.375-109.495
	c49.443-172.446,191.592-340.962,386.496-461.637c17.206-10.652,39.45-8.448,54.198,5.409
	c87.017,81.761,197.74,130.791,318.146,130.791c120.414,0,231.145-49.026,318.168-130.781c14.771-13.877,36.964-16.076,54.195-5.407
	c194.898,120.674,337.035,289.188,386.481,461.649C1665.567,1547.958,1657.938,1588.878,1634.523,1619.996z"/>
</svg>
