<?xml version="1.0" encoding="utf-8"?>
<!-- Generator: Adobe Illustrator 16.0.0, SVG Export Plug-In . SVG Version: 6.00 Build 0)  -->
<!DOCTYPE svg PUBLIC "-//W3C//DTD SVG 1.1//EN" "http://www.w3.org/Graphics/SVG/1.1/DTD/svg11.dtd">
<svg version="1.1" id="Layer_1" xmlns="http://www.w3.org/2000/svg" xmlns:xlink="http://www.w3.org/1999/xlink" x="0px" y="0px"
	 width="1792px" height="1792px" viewBox="0 0 1792 1792" enable-background="new 0 0 1792 1792" xml:space="preserve">
<g>
	<path d="M1006.135,1272.419c11.698-26.16,7.584-69.027-43.295-69.027H844.734c-50.879,0-54.993,42.867-43.295,69.027
		c29.888,66.799,51.949,110.573,51.949,110.573l-46.62,400.613h194.036l-46.619-400.613
		C954.186,1382.992,976.246,1339.218,1006.135,1272.419z"/>
	<path d="M1704.039,1551.576c-42.51-148.328-124.858-279.688-234.657-382.051l201.004-218.235l-319.803-244.273
		c0-0.001,0-0.002,0-0.003c206.49-38.485,341.864-102.905,341.864-175.881c0-79.174-159.331-148.28-395.95-185.12
		c-14.057-54.563-50.085-193.448-64.931-241.709c-32.01-104.036-113.298-107.435-194.973-84.145
		c-57.369,16.365-90.981,24.124-132.807,24.124c-41.826,0-75.438-7.759-132.821-24.124c-81.661-23.29-162.948-19.892-194.959,84.145
		c-14.845,48.261-50.871,187.142-64.93,241.707C274.444,382.85,115.112,451.957,115.112,531.133
		c0,72.977,135.372,137.396,341.865,175.881c0.001,0.004,0.001,0.008,0.002,0.012L137.188,951.29l193.955,210.581
		c-114.057,103.415-199.605,237.624-243.206,389.705c-15.744,54.846-4.674,113.992,29.647,159.623
		c34.427,45.565,88.191,72.406,145.268,72.406h543.917c-209.036-365.15-271.221-703.043-271.251-844.325
		c81.783,136.04,216.233,224.81,368.242,224.81c152.037,0,286.51-88.784,368.297-224.842
		c-0.021,141.263-62.212,479.179-271.252,844.357h528.307c57.117,0,110.881-26.749,145.308-72.406
		C1708.806,1665.568,1719.796,1606.489,1704.039,1551.576z M515.78,327.794c55.913,33.312,212.279,68.62,388.007,68.62
		s332.093-35.309,388.006-68.62l28.967,116.642c-62.259,37.092-218.583,76.026-416.973,76.026
		c-198.391,0-354.715-38.935-416.973-76.026L515.78,327.794z"/>
</g>
</svg>
