<?xml version="1.0" encoding="utf-8"?>
<!-- Generator: Adobe Illustrator 16.0.0, SVG Export Plug-In . SVG Version: 6.00 Build 0)  -->
<!DOCTYPE svg PUBLIC "-//W3C//DTD SVG 1.1//EN" "http://www.w3.org/Graphics/SVG/1.1/DTD/svg11.dtd">
<svg version="1.1" id="Layer_1" xmlns="http://www.w3.org/2000/svg" xmlns:xlink="http://www.w3.org/1999/xlink" x="0px" y="0px"
	 width="1792px" height="1792px" viewBox="0 0 1792 1792" enable-background="new 0 0 1792 1792" xml:space="preserve">
<g>
	<path d="M896.027,284.801c-183.053,0-331.437,175.228-331.437,391.464c0,216.206,148.384,391.488,331.437,391.488
		c183.058,0,331.453-175.282,331.453-391.488C1227.48,460.028,1079.085,284.801,896.027,284.801z"/>
	<path d="M896.003,4.716C404.548,4.716,4.725,404.539,4.725,895.993c0,491.456,399.823,891.291,891.278,891.291
		c491.449,0,891.272-399.835,891.272-891.291C1787.275,404.539,1387.452,4.716,896.003,4.716z M1484.367,1411.916
		c-0.258-0.987-0.388-1.984-0.669-2.97c-42.206-147.27-137.889-271.786-264.588-351.654c-24.995-15.755-57.421-13.195-79.599,6.329
		c-67.998,59.887-152.141,95.54-243.49,95.54c-93.141,0-178.798-37.039-247.484-99.052c-21.93-19.794-54.204-22.776-79.411-7.383
		c-128.408,78.399-225.962,202.224-270.047,349.316c-115.975-136.598-186.158-313.24-186.158-506.05
		c0-431.791,351.29-783.081,783.081-783.081c431.786,0,783.075,351.29,783.075,783.081
		C1679.078,1093.499,1605.432,1274.016,1484.367,1411.916z"/>
</g>
</svg>
