<?xml version="1.0" encoding="utf-8"?>
<!-- Generator: Adobe Illustrator 16.0.0, SVG Export Plug-In . SVG Version: 6.00 Build 0)  -->
<!DOCTYPE svg PUBLIC "-//W3C//DTD SVG 1.1//EN" "http://www.w3.org/Graphics/SVG/1.1/DTD/svg11.dtd">
<svg version="1.1" id="Layer_1" xmlns="http://www.w3.org/2000/svg" xmlns:xlink="http://www.w3.org/1999/xlink" x="0px" y="0px"
	 width="1792px" height="1792px" viewBox="0 0 1792 1792" enable-background="new 0 0 1792 1792" xml:space="preserve">
<g>
	<g>
		<path d="M1714.059,1553.445c-58.183-203.043-190.104-374.697-364.771-484.811c-34.464-21.727-79.179-18.195-109.753,8.732
			c-93.731,82.549-209.749,131.709-335.684,131.709c-128.415,0-246.495-51.07-341.199-136.563
			c-30.229-27.287-74.721-31.398-109.478-10.176c-179.813,109.787-315.9,284.102-375.25,491.107
			c-15.945,55.531-4.741,115.404,30.018,161.604c34.846,46.125,89.279,73.299,147.058,73.299h1281.958
			c57.827,0,112.273-27.074,147.12-73.299C1718.887,1668.85,1730.003,1609.039,1714.059,1553.445z"/>
		<path d="M1360.831,543.337c0,298.069-204.598,539.729-456.979,539.729c-252.357,0-456.93-241.66-456.93-539.729
			c0-298.102,204.572-539.685,456.93-539.685C1156.233,3.653,1360.831,245.236,1360.831,543.337z"/>
	</g>
</g>
</svg>
