<?xml version="1.0" encoding="utf-8"?>
<!-- Generator: Adobe Illustrator 21.0.0, SVG Export Plug-In . SVG Version: 6.00 Build 0)  -->
<svg version="1.1" id="Layer_1" xmlns="http://www.w3.org/2000/svg" xmlns:xlink="http://www.w3.org/1999/xlink" x="0px" y="0px"
	 viewBox="0 0 1792 1792" style="enable-background:new 0 0 1792 1792;" xml:space="preserve">
<path d="M731.6,893.6l-429.1,429.1l0-289.5l-282.5-0.1l-1.8-270.4l285.5,0.3l0.3-296.7l427.4,427.4L731.6,893.6z"/>
<path d="M763.9,1483.5l-298.5,2.1l429.1-429.1l429.1,429.1h-289.5l-0.2,282.8l-269.9,1.3L763.9,1483.5z"/>
<path d="M1024.7,303.9l298.5-2.1L894.1,730.9L467,303.7l287.6-1.9l0.3-282.7l269.9-1.3V303.9z"/>
<path d="M1056.9,893.7l429.1-429.1l0,289.5l282.8,0.2l1.3,269.9l-285.7,0.5l1.9,298.3L1056.9,893.7L1056.9,893.7z"/>
</svg>
