<?xml version="1.0" encoding="utf-8"?>
<!-- Generator: Adobe Illustrator 21.0.0, SVG Export Plug-In . SVG Version: 6.00 Build 0)  -->
<svg version="1.1" id="Layer_1" xmlns="http://www.w3.org/2000/svg" xmlns:xlink="http://www.w3.org/1999/xlink" x="0px" y="0px"
	 viewBox="0 0 1792 1792" style="enable-background:new 0 0 1792 1792;" xml:space="preserve">
<path d="M1524.3,1118.9l-388-223.9l388-223.9c57-33.2,76.4-106.1,43.5-163.1l0,0c-33.2-57-106.1-76.4-163.1-43.5l-392.5,223.9V240.5
	c0-66-53.6-119.6-119.6-119.6s-119.2,53.6-119.2,119.6v447.8l-388-223.9C328.1,431.3,254.8,451,222,508.3
	c-33.2,57.4-13.5,130.6,43.9,163.4l388,223.9l-382.9,223.2c-57.4,33.2-77.1,106.4-43.9,163.4c33.2,57.4,106.4,77.1,163.4,43.9
	l388-223.9v447.8c0,66,53.6,119.6,119.6,119.6s119.6-53.6,119.6-119.6v-447.8l388,223.9c57,32.8,129.9,13.5,163.1-43.5l0,0
	c33.2-57,13.8-130.3-43.2-163.4C1525.4,1119.3,1524.7,1118.9,1524.3,1118.9z"/>
</svg>
