<?xml version="1.0" encoding="utf-8"?>
<!-- Generator: Adobe Illustrator 21.0.0, SVG Export Plug-In . SVG Version: 6.00 Build 0)  -->
<svg version="1.1" id="Layer_1" xmlns="http://www.w3.org/2000/svg" xmlns:xlink="http://www.w3.org/1999/xlink" x="0px" y="0px"
	 viewBox="0 0 1792 1792" style="enable-background:new 0 0 1792 1792;" xml:space="preserve">
<path d="M1039.5,697.4c84.2,1.2,154.1-25.9,226.4-37.1c47.1-7.2,96.6-19.6,125,36.3c26.7,51.9-8.8,83.4-40.7,114.6
	c-284.2,277.8-568.9,555.7-853.5,833.5c-9.6,9.2-21.2,16.4-49.9,39.1c93-253.5,178-485.8,266.3-726.2c-79.4-4-145.3,21.6-213.2,32.7
	c-88.2,14.8-132.9-33.1-102.6-117.8C482.6,635.5,571.2,400,657,163.2c13.2-36.3,33.5-49.9,72.3-49.5c154.5,1.6,308.6,2.4,463.1-0.4
	c64.7-1.2,57.1,27.1,40.3,70.3C1168.4,352.4,1105.8,521.3,1039.5,697.4z"/>
</svg>
