<?xml version="1.0" encoding="utf-8"?>
<!-- Generator: Adobe Illustrator 21.0.0, SVG Export Plug-In . SVG Version: 6.00 Build 0)  -->
<svg version="1.1" id="Layer_1" xmlns="http://www.w3.org/2000/svg" xmlns:xlink="http://www.w3.org/1999/xlink" x="0px" y="0px"
	 viewBox="0 0 1792 1792" style="enable-background:new 0 0 1792 1792;" xml:space="preserve">
<path d="M291.1,896.7c0-219.6-0.4-439.2,0-659.2C291.5,126.9,319.2,97.2,429,96.7c310-1.2,620-1.2,930,0
	c109,0.4,140.8,32.6,140.8,140.8c0.8,439.2,0.4,878.8,0,1318c0,21.1-0.8,42.5-6.6,62.3c-21.9,73.9-81.7,79.7-144.9,77.2
	c-74.7-2.9-42.5-60.7-44.2-94.9c-4.1-90-3.3-180.4-0.8-270.8c2.1-70.6-21.9-104-98.7-104c-172.1,0-171.7-2.9-172.1,171.7
	c0,78.4-1.7,156.4,0.4,234.9c1.2,45-12,64.8-60.7,64c-186.6-2.1-373.1,0.4-559.7-1.7c-89.6-0.8-121.4-36.3-121.8-130
	C290.3,1342.1,291.1,1119.6,291.1,896.7z M1032.9,889.3c-0.4,140.8-0.4,140.8,127.1,141.2c139.9,0,142.4-2.1,142.8-128.4
	c0.4-137-4.1-142-129.6-142C1032.9,759.7,1032.9,759.7,1032.9,889.3z M620.9,1497.3c132.1,0,137-5,137-134.6
	c0-132.1-3.7-135.8-135-135.8c-133.7,0-136.2,2.5-136.2,133.7C486.8,1493.6,490.5,1497.3,620.9,1497.3z M617.2,1030
	c139.1,0,140.3-0.8,140.8-130c0.4-135-4.5-140.3-131.3-140.3c-135,0-139.5,4.1-139.9,130.8C486.4,1027.6,488.8,1030,617.2,1030z
	 M1169.1,563.2c132.9,0,133.7-1.2,133.7-138.7c-0.4-124.2-7-130.8-134.2-130.8c-133.3,0-135.8,2.1-135.8,136.6
	C1032.9,563.6,1032.9,563.6,1169.1,563.2z M626.3,563.2c128,0,131.3-3.7,131.7-131.7c0-132.1-5.8-138.3-135.8-138.3
	c-131.3,0-135.4,4.5-135.4,137.9C486.8,561.9,488.4,563.6,626.3,563.2z"/>
</svg>
