<?xml version="1.0" standalone="no"?> 
<!DOCTYPE svg PUBLIC "-//W3C//DTD SVG 1.1//EN" "http://www.w3.org/Graphics/SVG/1.1/DTD/svg11.dtd" >
<svg xmlns="http://www.w3.org/2000/svg">
<defs>
  <font id="Ficons" horiz-adv-x="2304">
    <font-face font-family="Ficons"
      units-per-em="1792" ascent="1536"
      descent="256" />
    <missing-glyph horiz-adv-x="0" />
    <glyph glyph-name="500px"
      unicode="&#xF101;"
      horiz-adv-x="1792" d=" M1529 -11L1523 -17Q1410 -130 1264 -192Q1110 -256 947 -256Q782 -256 630 -192Q482 -129 371 -17Q258 95 196 241Q154 344 142 430Q138 458 190 466Q241 474 246 446Q247 445 247 442Q265 352 293 283Q343 159 445 57Q543 -41 671 -95Q803 -151 947 -151Q1090 -151 1223 -95Q1351 -40 1448 57L1454 63Q1464 73 1479 69Q1491 66 1512 47Q1548 10 1529 -11zM1057 604L991 538L1054 475Q1075 454 1047 426Q1030 409 1015 409Q1005 409 996 419L934 480L868 414Q863 409 853 409Q838 409 822 425L820 427Q802 442 802 456Q802 463 810 473L876 538L810 604Q794 620 824 649Q842 667 855 667Q861 667 868 662L933 596L998 661Q1016 678 1046 648Q1073 621 1057 604zM1528 547Q1528 429 1482 319Q1437 214 1356 133Q1276 53 1169 7T941 -39T713 7T526 133Q444 215 401 319Q386 352 386 359H385Q376 386 428 403Q478 419 488 391Q525 292 585 224H586V565Q589 701 688 797Q793 900 941 900Q1088 900 1192 797T1296 548Q1296 401 1191.5 297T941 193Q883 193 829 209Q801 220 816 270Q832 321 860 313L874 310Q888 307 907 304T937 301Q1041 301 1113 372.5T1185 547Q1185 648 1113 718Q1042 789 938 789Q831 789 760 709Q696 637 696 549V136Q806 69 938 69Q1034 69 1123 105.5T1279 209T1382.5 364T1419 547Q1419 745 1278 886Q1138 1026 939 1026Q739 1026 599 886Q546 833 522 799L520 797Q512 786 507 781.5T485.5 772T447 775Q426 780 410.5 791.5T395 818V1498Q395 1513 405.5 1524.5T433 1536H1310Q1340 1536 1340 1481T1310 1426H499V943H500Q540 985 602 1027T710 1088Q819 1134 941 1134Q1062 1134 1169 1088T1356 962Q1437 881 1482 776Q1528 664 1528 547zM1497 1128Q1506 1120 1506 1110T1500.5 1092T1484 1071Q1458 1045 1445 1045Q1436 1045 1429 1052Q1323 1143 1222 1185Q1094 1241 946 1241Q813 1241 684 1192Q657 1182 639 1229Q630 1254 631 1267Q634 1283 647 1287Q777 1344 946 1344Q1110 1344 1262 1280Q1399 1222 1497 1128z" />
    <glyph glyph-name="500px-1"
      unicode="&#x35;&#x30;&#x30;&#x70;&#x78;"
      horiz-adv-x="1792" d=" M1529 -11L1523 -17Q1410 -130 1264 -192Q1110 -256 947 -256Q782 -256 630 -192Q482 -129 371 -17Q258 95 196 241Q154 344 142 430Q138 458 190 466Q241 474 246 446Q247 445 247 442Q265 352 293 283Q343 159 445 57Q543 -41 671 -95Q803 -151 947 -151Q1090 -151 1223 -95Q1351 -40 1448 57L1454 63Q1464 73 1479 69Q1491 66 1512 47Q1548 10 1529 -11zM1057 604L991 538L1054 475Q1075 454 1047 426Q1030 409 1015 409Q1005 409 996 419L934 480L868 414Q863 409 853 409Q838 409 822 425L820 427Q802 442 802 456Q802 463 810 473L876 538L810 604Q794 620 824 649Q842 667 855 667Q861 667 868 662L933 596L998 661Q1016 678 1046 648Q1073 621 1057 604zM1528 547Q1528 429 1482 319Q1437 214 1356 133Q1276 53 1169 7T941 -39T713 7T526 133Q444 215 401 319Q386 352 386 359H385Q376 386 428 403Q478 419 488 391Q525 292 585 224H586V565Q589 701 688 797Q793 900 941 900Q1088 900 1192 797T1296 548Q1296 401 1191.5 297T941 193Q883 193 829 209Q801 220 816 270Q832 321 860 313L874 310Q888 307 907 304T937 301Q1041 301 1113 372.5T1185 547Q1185 648 1113 718Q1042 789 938 789Q831 789 760 709Q696 637 696 549V136Q806 69 938 69Q1034 69 1123 105.5T1279 209T1382.5 364T1419 547Q1419 745 1278 886Q1138 1026 939 1026Q739 1026 599 886Q546 833 522 799L520 797Q512 786 507 781.5T485.5 772T447 775Q426 780 410.5 791.5T395 818V1498Q395 1513 405.5 1524.5T433 1536H1310Q1340 1536 1340 1481T1310 1426H499V943H500Q540 985 602 1027T710 1088Q819 1134 941 1134Q1062 1134 1169 1088T1356 962Q1437 881 1482 776Q1528 664 1528 547zM1497 1128Q1506 1120 1506 1110T1500.5 1092T1484 1071Q1458 1045 1445 1045Q1436 1045 1429 1052Q1323 1143 1222 1185Q1094 1241 946 1241Q813 1241 684 1192Q657 1182 639 1229Q630 1254 631 1267Q634 1283 647 1287Q777 1344 946 1344Q1110 1344 1262 1280Q1399 1222 1497 1128z" />
    <glyph glyph-name="address-book-o"
      unicode="&#xF102;"
      horiz-adv-x="1792" d=" M1092 892Q1092 785 1015.5 709T832 633T648.5 709T572 892Q572 1000 648.5 1076T832 1152T1015.5 1076T1092 892zM1044 672Q1090 672 1126.5 655T1186.5 607.5T1226 540.5T1250 459.5T1261.5 377T1265 298Q1265 231 1225.5 179.5T1120 128H544Q478 128 438.5 179.5T399 298Q399 346 403.5 391.5T422 490T458.5 581.5T521.5 646T615 672H620Q627 668 652 652.5T687.5 631.5T720.5 614.5T757.5 598.5T792.5 589.5T832 585T871.5 589.5T906.5 598.5T943.5 614.5T976.5 631.5T1012 652.5T1044 672zM1728 928Q1728 915 1718.5 905.5T1696 896H1600V768H1696Q1709 768 1718.5 758.5T1728 736V544Q1728 531 1718.5 521.5T1696 512H1600V384H1696Q1709 384 1718.5 374.5T1728 352V160Q1728 147 1718.5 137.5T1696 128H1600V-96Q1600 -162 1553 -209T1440 -256H224Q158 -256 111 -209T64 -96V1376Q64 1442 111 1489T224 1536H1440Q1506 1536 1553 1489T1600 1376V1152H1696Q1709 1152 1718.5 1142.5T1728 1120V928zM1472 -96V1376Q1472 1389 1462.5 1398.5T1440 1408H224Q211 1408 201.5 1398.5T192 1376V-96Q192 -109 201.5 -118.5T224 -128H1440Q1453 -128 1462.5 -118.5T1472 -96z" />
    <glyph glyph-name="address-book-o-1"
      unicode="&#x61;&#x64;&#x64;&#x72;&#x65;&#x73;&#x73;&#x2D;&#x62;&#x6F;&#x6F;&#x6B;&#x2D;&#x6F;"
      horiz-adv-x="1792" d=" M1092 892Q1092 785 1015.5 709T832 633T648.5 709T572 892Q572 1000 648.5 1076T832 1152T1015.5 1076T1092 892zM1044 672Q1090 672 1126.5 655T1186.5 607.5T1226 540.5T1250 459.5T1261.5 377T1265 298Q1265 231 1225.5 179.5T1120 128H544Q478 128 438.5 179.5T399 298Q399 346 403.5 391.5T422 490T458.5 581.5T521.5 646T615 672H620Q627 668 652 652.5T687.5 631.5T720.5 614.5T757.5 598.5T792.5 589.5T832 585T871.5 589.5T906.5 598.5T943.5 614.5T976.5 631.5T1012 652.5T1044 672zM1728 928Q1728 915 1718.5 905.5T1696 896H1600V768H1696Q1709 768 1718.5 758.5T1728 736V544Q1728 531 1718.5 521.5T1696 512H1600V384H1696Q1709 384 1718.5 374.5T1728 352V160Q1728 147 1718.5 137.5T1696 128H1600V-96Q1600 -162 1553 -209T1440 -256H224Q158 -256 111 -209T64 -96V1376Q64 1442 111 1489T224 1536H1440Q1506 1536 1553 1489T1600 1376V1152H1696Q1709 1152 1718.5 1142.5T1728 1120V928zM1472 -96V1376Q1472 1389 1462.5 1398.5T1440 1408H224Q211 1408 201.5 1398.5T192 1376V-96Q192 -109 201.5 -118.5T224 -128H1440Q1453 -128 1462.5 -118.5T1472 -96z" />
    <glyph glyph-name="address-book"
      unicode="&#xF103;"
      horiz-adv-x="1792" d=" M1265 298Q1265 355 1259.5 405T1238.5 505.5T1199 591.5T1135 649.5T1044 672Q1038 668 1010.5 651.5T968 627T927.5 607T878.5 590T832 585T785.5 590T736.5 607T696 627T653.5 651.5T620 672Q569 672 529 649.5T465 591.5T425.5 505.5T404.5 405T399 298Q399 225 441 176.5T544 128H1120Q1181 128 1223 176.5T1265 298zM1092 892Q1092 1000 1015.5 1076T832 1152T648.5 1076T572 892Q572 785 648.5 709T832 633T1015.5 709T1092 892zM1728 352V160Q1728 146 1719 137T1696 128H1600V-96Q1600 -162 1553 -209T1440 -256H224Q158 -256 111 -209T64 -96V1376Q64 1442 111 1489T224 1536H1440Q1506 1536 1553 1489T1600 1376V1152H1696Q1710 1152 1719 1143T1728 1120V928Q1728 914 1719 905T1696 896H1600V768H1696Q1710 768 1719 759T1728 736V544Q1728 530 1719 521T1696 512H1600V384H1696Q1710 384 1719 375T1728 352z" />
    <glyph glyph-name="address-book-1"
      unicode="&#x61;&#x64;&#x64;&#x72;&#x65;&#x73;&#x73;&#x2D;&#x62;&#x6F;&#x6F;&#x6B;"
      horiz-adv-x="1792" d=" M1265 298Q1265 355 1259.5 405T1238.5 505.5T1199 591.5T1135 649.5T1044 672Q1038 668 1010.5 651.5T968 627T927.5 607T878.5 590T832 585T785.5 590T736.5 607T696 627T653.5 651.5T620 672Q569 672 529 649.5T465 591.5T425.5 505.5T404.5 405T399 298Q399 225 441 176.5T544 128H1120Q1181 128 1223 176.5T1265 298zM1092 892Q1092 1000 1015.5 1076T832 1152T648.5 1076T572 892Q572 785 648.5 709T832 633T1015.5 709T1092 892zM1728 352V160Q1728 146 1719 137T1696 128H1600V-96Q1600 -162 1553 -209T1440 -256H224Q158 -256 111 -209T64 -96V1376Q64 1442 111 1489T224 1536H1440Q1506 1536 1553 1489T1600 1376V1152H1696Q1710 1152 1719 1143T1728 1120V928Q1728 914 1719 905T1696 896H1600V768H1696Q1710 768 1719 759T1728 736V544Q1728 530 1719 521T1696 512H1600V384H1696Q1710 384 1719 375T1728 352z" />
    <glyph glyph-name="address-card-o"
      unicode="&#xF104;"
      horiz-adv-x="2048" d=" M1024 405Q1024 341 987 298.5T896 256H384Q330 256 293 298.5T256 405T265 522.5T294.5 625.5T355 703.5T452 732Q458 728 482 714T519.5 692.5T555 675T598 660.5T640 656T682 660.5T725 675T760.5 692.5T798 714T828 732Q885 732 925 703.5T985.5 625.5T1015 522.5T1024 405zM867 925Q867 831 800.5 764.5T640 698T479.5 764.5T413 925T479.5 1085.5T640 1152T800.5 1085.5T867 925zM1792 480V416Q1792 402 1783 393T1760 384H1184Q1170 384 1161 393T1152 416V480Q1152 494 1161 503T1184 512H1760Q1774 512 1783 503T1792 480zM1792 732V676Q1792 661 1781.5 650.5T1756 640H1188Q1173 640 1162.5 650.5T1152 676V732Q1152 747 1162.5 757.5T1188 768H1756Q1771 768 1781.5 757.5T1792 732zM1792 992V928Q1792 914 1783 905T1760 896H1184Q1170 896 1161 905T1152 928V992Q1152 1006 1161 1015T1184 1024H1760Q1774 1024 1783 1015T1792 992zM1920 32V1248Q1920 1261 1910.5 1270.5T1888 1280H160Q147 1280 137.5 1270.5T128 1248V32Q128 19 137.5 9.5T160 0H512V96Q512 110 521 119T544 128H608Q622 128 631 119T640 96V0H1408V96Q1408 110 1417 119T1440 128H1504Q1518 128 1527 119T1536 96V0H1888Q1901 0 1910.5 9.5T1920 32zM2048 1248V32Q2048 -34 2001 -81T1888 -128H160Q94 -128 47 -81T0 32V1248Q0 1314 47 1361T160 1408H1888Q1954 1408 2001 1361T2048 1248z" />
    <glyph glyph-name="address-card-o-1"
      unicode="&#x61;&#x64;&#x64;&#x72;&#x65;&#x73;&#x73;&#x2D;&#x63;&#x61;&#x72;&#x64;&#x2D;&#x6F;"
      horiz-adv-x="2048" d=" M1024 405Q1024 341 987 298.5T896 256H384Q330 256 293 298.5T256 405T265 522.5T294.5 625.5T355 703.5T452 732Q458 728 482 714T519.5 692.5T555 675T598 660.5T640 656T682 660.5T725 675T760.5 692.5T798 714T828 732Q885 732 925 703.5T985.5 625.5T1015 522.5T1024 405zM867 925Q867 831 800.5 764.5T640 698T479.5 764.5T413 925T479.5 1085.5T640 1152T800.5 1085.5T867 925zM1792 480V416Q1792 402 1783 393T1760 384H1184Q1170 384 1161 393T1152 416V480Q1152 494 1161 503T1184 512H1760Q1774 512 1783 503T1792 480zM1792 732V676Q1792 661 1781.5 650.5T1756 640H1188Q1173 640 1162.5 650.5T1152 676V732Q1152 747 1162.5 757.5T1188 768H1756Q1771 768 1781.5 757.5T1792 732zM1792 992V928Q1792 914 1783 905T1760 896H1184Q1170 896 1161 905T1152 928V992Q1152 1006 1161 1015T1184 1024H1760Q1774 1024 1783 1015T1792 992zM1920 32V1248Q1920 1261 1910.5 1270.5T1888 1280H160Q147 1280 137.5 1270.5T128 1248V32Q128 19 137.5 9.5T160 0H512V96Q512 110 521 119T544 128H608Q622 128 631 119T640 96V0H1408V96Q1408 110 1417 119T1440 128H1504Q1518 128 1527 119T1536 96V0H1888Q1901 0 1910.5 9.5T1920 32zM2048 1248V32Q2048 -34 2001 -81T1888 -128H160Q94 -128 47 -81T0 32V1248Q0 1314 47 1361T160 1408H1888Q1954 1408 2001 1361T2048 1248z" />
    <glyph glyph-name="address-card"
      unicode="&#xF105;"
      horiz-adv-x="2048" d=" M1024 405Q1024 469 1015 522.5T985.5 625.5T925 703.5T828 732Q822 728 798 714T760.5 692.5T725 675T682 660.5T640 656T598 660.5T555 675T519.5 692.5T482 714T452 732Q395 732 355 703.5T294.5 625.5T265 522.5T256 405T293 298.5T384 256H896Q950 256 987 298.5T1024 405zM867 925Q867 1019 800.5 1085.5T640 1152T479.5 1085.5T413 925T479.5 764.5T640 698T800.5 764.5T867 925zM1792 416V480Q1792 494 1783 503T1760 512H1184Q1170 512 1161 503T1152 480V416Q1152 402 1161 393T1184 384H1760Q1774 384 1783 393T1792 416zM1792 676V732Q1792 747 1781.5 757.5T1756 768H1188Q1173 768 1162.5 757.5T1152 732V676Q1152 661 1162.5 650.5T1188 640H1756Q1771 640 1781.5 650.5T1792 676zM1792 928V992Q1792 1006 1783 1015T1760 1024H1184Q1170 1024 1161 1015T1152 992V928Q1152 914 1161 905T1184 896H1760Q1774 896 1783 905T1792 928zM2048 1248V32Q2048 -34 2001 -81T1888 -128H1536V-32Q1536 -18 1527 -9T1504 0H1440Q1426 0 1417 -9T1408 -32V-128H640V-32Q640 -18 631 -9T608 0H544Q530 0 521 -9T512 -32V-128H160Q94 -128 47 -81T0 32V1248Q0 1314 47 1361T160 1408H1888Q1954 1408 2001 1361T2048 1248z" />
    <glyph glyph-name="address-card-1"
      unicode="&#x61;&#x64;&#x64;&#x72;&#x65;&#x73;&#x73;&#x2D;&#x63;&#x61;&#x72;&#x64;"
      horiz-adv-x="2048" d=" M1024 405Q1024 469 1015 522.5T985.5 625.5T925 703.5T828 732Q822 728 798 714T760.5 692.5T725 675T682 660.5T640 656T598 660.5T555 675T519.5 692.5T482 714T452 732Q395 732 355 703.5T294.5 625.5T265 522.5T256 405T293 298.5T384 256H896Q950 256 987 298.5T1024 405zM867 925Q867 1019 800.5 1085.5T640 1152T479.5 1085.5T413 925T479.5 764.5T640 698T800.5 764.5T867 925zM1792 416V480Q1792 494 1783 503T1760 512H1184Q1170 512 1161 503T1152 480V416Q1152 402 1161 393T1184 384H1760Q1774 384 1783 393T1792 416zM1792 676V732Q1792 747 1781.5 757.5T1756 768H1188Q1173 768 1162.5 757.5T1152 732V676Q1152 661 1162.5 650.5T1188 640H1756Q1771 640 1781.5 650.5T1792 676zM1792 928V992Q1792 1006 1783 1015T1760 1024H1184Q1170 1024 1161 1015T1152 992V928Q1152 914 1161 905T1184 896H1760Q1774 896 1783 905T1792 928zM2048 1248V32Q2048 -34 2001 -81T1888 -128H1536V-32Q1536 -18 1527 -9T1504 0H1440Q1426 0 1417 -9T1408 -32V-128H640V-32Q640 -18 631 -9T608 0H544Q530 0 521 -9T512 -32V-128H160Q94 -128 47 -81T0 32V1248Q0 1314 47 1361T160 1408H1888Q1954 1408 2001 1361T2048 1248z" />
    <glyph glyph-name="adjust"
      unicode="&#xF106;"
      horiz-adv-x="1792" d=" M896 96V1184Q748 1184 623 1111T425 913T352 640T425 367T623 169T896 96zM1664 640Q1664 431 1561 254.5T1281.5 -25T896 -128T510.5 -25T231 254.5T128 640T231 1025.5T510.5 1305T896 1408T1281.5 1305T1561 1025.5T1664 640z" />
    <glyph glyph-name="adjust-1"
      unicode="&#x61;&#x64;&#x6A;&#x75;&#x73;&#x74;"
      horiz-adv-x="1792" d=" M896 96V1184Q748 1184 623 1111T425 913T352 640T425 367T623 169T896 96zM1664 640Q1664 431 1561 254.5T1281.5 -25T896 -128T510.5 -25T231 254.5T128 640T231 1025.5T510.5 1305T896 1408T1281.5 1305T1561 1025.5T1664 640z" />
    <glyph glyph-name="adn"
      unicode="&#xF107;"
      horiz-adv-x="1792" d=" M896 914L1097 608H695zM1261 384H1355L896 1075L437 384H531L635 544H1157zM1664 640Q1664 431 1561 254.5T1281.5 -25T896 -128T510.5 -25T231 254.5T128 640T231 1025.5T510.5 1305T896 1408T1281.5 1305T1561 1025.5T1664 640z" />
    <glyph glyph-name="adn-1"
      unicode="&#x61;&#x64;&#x6E;"
      horiz-adv-x="1792" d=" M896 914L1097 608H695zM1261 384H1355L896 1075L437 384H531L635 544H1157zM1664 640Q1664 431 1561 254.5T1281.5 -25T896 -128T510.5 -25T231 254.5T128 640T231 1025.5T510.5 1305T896 1408T1281.5 1305T1561 1025.5T1664 640z" />
    <glyph glyph-name="align-center"
      unicode="&#xF108;"
      horiz-adv-x="1792" d=" M1792 192V64Q1792 38 1773 19T1728 0H64Q38 0 19 19T0 64V192Q0 218 19 237T64 256H1728Q1754 256 1773 237T1792 192zM1408 576V448Q1408 422 1389 403T1344 384H448Q422 384 403 403T384 448V576Q384 602 403 621T448 640H1344Q1370 640 1389 621T1408 576zM1664 960V832Q1664 806 1645 787T1600 768H192Q166 768 147 787T128 832V960Q128 986 147 1005T192 1024H1600Q1626 1024 1645 1005T1664 960zM1280 1344V1216Q1280 1190 1261 1171T1216 1152H576Q550 1152 531 1171T512 1216V1344Q512 1370 531 1389T576 1408H1216Q1242 1408 1261 1389T1280 1344z" />
    <glyph glyph-name="align-center-1"
      unicode="&#x61;&#x6C;&#x69;&#x67;&#x6E;&#x2D;&#x63;&#x65;&#x6E;&#x74;&#x65;&#x72;"
      horiz-adv-x="1792" d=" M1792 192V64Q1792 38 1773 19T1728 0H64Q38 0 19 19T0 64V192Q0 218 19 237T64 256H1728Q1754 256 1773 237T1792 192zM1408 576V448Q1408 422 1389 403T1344 384H448Q422 384 403 403T384 448V576Q384 602 403 621T448 640H1344Q1370 640 1389 621T1408 576zM1664 960V832Q1664 806 1645 787T1600 768H192Q166 768 147 787T128 832V960Q128 986 147 1005T192 1024H1600Q1626 1024 1645 1005T1664 960zM1280 1344V1216Q1280 1190 1261 1171T1216 1152H576Q550 1152 531 1171T512 1216V1344Q512 1370 531 1389T576 1408H1216Q1242 1408 1261 1389T1280 1344z" />
    <glyph glyph-name="align-justify"
      unicode="&#xF109;"
      horiz-adv-x="1792" d=" M1792 192V64Q1792 38 1773 19T1728 0H64Q38 0 19 19T0 64V192Q0 218 19 237T64 256H1728Q1754 256 1773 237T1792 192zM1792 576V448Q1792 422 1773 403T1728 384H64Q38 384 19 403T0 448V576Q0 602 19 621T64 640H1728Q1754 640 1773 621T1792 576zM1792 960V832Q1792 806 1773 787T1728 768H64Q38 768 19 787T0 832V960Q0 986 19 1005T64 1024H1728Q1754 1024 1773 1005T1792 960zM1792 1344V1216Q1792 1190 1773 1171T1728 1152H64Q38 1152 19 1171T0 1216V1344Q0 1370 19 1389T64 1408H1728Q1754 1408 1773 1389T1792 1344z" />
    <glyph glyph-name="align-justify-1"
      unicode="&#x61;&#x6C;&#x69;&#x67;&#x6E;&#x2D;&#x6A;&#x75;&#x73;&#x74;&#x69;&#x66;&#x79;"
      horiz-adv-x="1792" d=" M1792 192V64Q1792 38 1773 19T1728 0H64Q38 0 19 19T0 64V192Q0 218 19 237T64 256H1728Q1754 256 1773 237T1792 192zM1792 576V448Q1792 422 1773 403T1728 384H64Q38 384 19 403T0 448V576Q0 602 19 621T64 640H1728Q1754 640 1773 621T1792 576zM1792 960V832Q1792 806 1773 787T1728 768H64Q38 768 19 787T0 832V960Q0 986 19 1005T64 1024H1728Q1754 1024 1773 1005T1792 960zM1792 1344V1216Q1792 1190 1773 1171T1728 1152H64Q38 1152 19 1171T0 1216V1344Q0 1370 19 1389T64 1408H1728Q1754 1408 1773 1389T1792 1344z" />
    <glyph glyph-name="align-left"
      unicode="&#xF10A;"
      horiz-adv-x="1792" d=" M1792 192V64Q1792 38 1773 19T1728 0H64Q38 0 19 19T0 64V192Q0 218 19 237T64 256H1728Q1754 256 1773 237T1792 192zM1408 576V448Q1408 422 1389 403T1344 384H64Q38 384 19 403T0 448V576Q0 602 19 621T64 640H1344Q1370 640 1389 621T1408 576zM1664 960V832Q1664 806 1645 787T1600 768H64Q38 768 19 787T0 832V960Q0 986 19 1005T64 1024H1600Q1626 1024 1645 1005T1664 960zM1280 1344V1216Q1280 1190 1261 1171T1216 1152H64Q38 1152 19 1171T0 1216V1344Q0 1370 19 1389T64 1408H1216Q1242 1408 1261 1389T1280 1344z" />
    <glyph glyph-name="align-left-1"
      unicode="&#x61;&#x6C;&#x69;&#x67;&#x6E;&#x2D;&#x6C;&#x65;&#x66;&#x74;"
      horiz-adv-x="1792" d=" M1792 192V64Q1792 38 1773 19T1728 0H64Q38 0 19 19T0 64V192Q0 218 19 237T64 256H1728Q1754 256 1773 237T1792 192zM1408 576V448Q1408 422 1389 403T1344 384H64Q38 384 19 403T0 448V576Q0 602 19 621T64 640H1344Q1370 640 1389 621T1408 576zM1664 960V832Q1664 806 1645 787T1600 768H64Q38 768 19 787T0 832V960Q0 986 19 1005T64 1024H1600Q1626 1024 1645 1005T1664 960zM1280 1344V1216Q1280 1190 1261 1171T1216 1152H64Q38 1152 19 1171T0 1216V1344Q0 1370 19 1389T64 1408H1216Q1242 1408 1261 1389T1280 1344z" />
    <glyph glyph-name="align-right"
      unicode="&#xF10B;"
      horiz-adv-x="1792" d=" M1792 192V64Q1792 38 1773 19T1728 0H64Q38 0 19 19T0 64V192Q0 218 19 237T64 256H1728Q1754 256 1773 237T1792 192zM1792 576V448Q1792 422 1773 403T1728 384H448Q422 384 403 403T384 448V576Q384 602 403 621T448 640H1728Q1754 640 1773 621T1792 576zM1792 960V832Q1792 806 1773 787T1728 768H192Q166 768 147 787T128 832V960Q128 986 147 1005T192 1024H1728Q1754 1024 1773 1005T1792 960zM1792 1344V1216Q1792 1190 1773 1171T1728 1152H576Q550 1152 531 1171T512 1216V1344Q512 1370 531 1389T576 1408H1728Q1754 1408 1773 1389T1792 1344z" />
    <glyph glyph-name="align-right-1"
      unicode="&#x61;&#x6C;&#x69;&#x67;&#x6E;&#x2D;&#x72;&#x69;&#x67;&#x68;&#x74;"
      horiz-adv-x="1792" d=" M1792 192V64Q1792 38 1773 19T1728 0H64Q38 0 19 19T0 64V192Q0 218 19 237T64 256H1728Q1754 256 1773 237T1792 192zM1792 576V448Q1792 422 1773 403T1728 384H448Q422 384 403 403T384 448V576Q384 602 403 621T448 640H1728Q1754 640 1773 621T1792 576zM1792 960V832Q1792 806 1773 787T1728 768H192Q166 768 147 787T128 832V960Q128 986 147 1005T192 1024H1728Q1754 1024 1773 1005T1792 960zM1792 1344V1216Q1792 1190 1773 1171T1728 1152H576Q550 1152 531 1171T512 1216V1344Q512 1370 531 1389T576 1408H1728Q1754 1408 1773 1389T1792 1344z" />
    <glyph glyph-name="amazon"
      unicode="&#xF10C;"
      horiz-adv-x="1792" d=" M1551 60Q1566 66 1577 63T1588 45.5T1573 12Q1560 -4 1529 -31.5T1433.5 -99.5T1292.5 -173.5T1104.5 -231.5T875 -256Q756 -256 637 -225T428 -148.5T255.5 -44.5T123 60.5T39 148Q31 157 29 164.5T30 176.5T38 183.5T49.5 185.5T61 181Q253 64 361 15Q750 -161 1160 -75Q1350 -35 1551 60zM1758 175Q1769 159 1760.5 105.5T1732 3Q1698 -80 1647 -121Q1630 -135 1621 -130T1621 -106Q1642 -61 1665.5 15.5T1672 114Q1667 121 1656.5 125.5T1629.5 131.5T1600 134T1565 134T1533.5 132T1502.5 129T1480 127Q1474 126 1467 125.5T1456 124.5T1447.5 123.5T1440.5 123H1430.5L1427.5 123.5L1425.5 125L1424 128Q1418 144 1471 168T1574 198Q1620 205 1682 199T1758 175zM1364 618Q1364 587 1377.5 554T1409.5 496T1447 450T1480 418L1493 407L1266 183Q1226 220 1187 258.5T1129 317L1110 337Q1099 348 1085 370Q1047 311 987.5 267.5T860 204T720 181T582.5 202T465 267.5T382 380.5T351 543Q351 627 379 697T451 813.5T557.5 896.5T680 953.5T810 988T929.5 1006.5T1029 1013V1140Q1029 1205 1008 1237Q974 1290 887 1290Q881 1290 870.5 1289T830 1277T774 1247.5T718 1188T670 1092L376 1119Q376 1179 398 1238T465 1351T573 1446T724.5 1511.5T915 1536Q1015 1536 1096 1511T1225.5 1449.5T1306.5 1366.5T1351.5 1280.5T1364 1207V618zM692 597Q692 511 762 464Q828 420 901 442Q985 467 1015 565Q1029 610 1029 666V828Q970 826 918 816T811.5 782.5T724.5 711.5T692 597z" />
    <glyph glyph-name="amazon-1"
      unicode="&#x61;&#x6D;&#x61;&#x7A;&#x6F;&#x6E;"
      horiz-adv-x="1792" d=" M1551 60Q1566 66 1577 63T1588 45.5T1573 12Q1560 -4 1529 -31.5T1433.5 -99.5T1292.5 -173.5T1104.5 -231.5T875 -256Q756 -256 637 -225T428 -148.5T255.5 -44.5T123 60.5T39 148Q31 157 29 164.5T30 176.5T38 183.5T49.5 185.5T61 181Q253 64 361 15Q750 -161 1160 -75Q1350 -35 1551 60zM1758 175Q1769 159 1760.5 105.5T1732 3Q1698 -80 1647 -121Q1630 -135 1621 -130T1621 -106Q1642 -61 1665.5 15.5T1672 114Q1667 121 1656.5 125.5T1629.5 131.5T1600 134T1565 134T1533.5 132T1502.5 129T1480 127Q1474 126 1467 125.5T1456 124.5T1447.5 123.5T1440.5 123H1430.5L1427.5 123.5L1425.5 125L1424 128Q1418 144 1471 168T1574 198Q1620 205 1682 199T1758 175zM1364 618Q1364 587 1377.5 554T1409.5 496T1447 450T1480 418L1493 407L1266 183Q1226 220 1187 258.5T1129 317L1110 337Q1099 348 1085 370Q1047 311 987.5 267.5T860 204T720 181T582.5 202T465 267.5T382 380.5T351 543Q351 627 379 697T451 813.5T557.5 896.5T680 953.5T810 988T929.5 1006.5T1029 1013V1140Q1029 1205 1008 1237Q974 1290 887 1290Q881 1290 870.5 1289T830 1277T774 1247.5T718 1188T670 1092L376 1119Q376 1179 398 1238T465 1351T573 1446T724.5 1511.5T915 1536Q1015 1536 1096 1511T1225.5 1449.5T1306.5 1366.5T1351.5 1280.5T1364 1207V618zM692 597Q692 511 762 464Q828 420 901 442Q985 467 1015 565Q1029 610 1029 666V828Q970 826 918 816T811.5 782.5T724.5 711.5T692 597z" />
    <glyph glyph-name="ambulance"
      unicode="&#xF10D;"
      horiz-adv-x="2048" d=" M704 128Q704 181 666.5 218.5T576 256T485.5 218.5T448 128T485.5 37.5T576 0T666.5 37.5T704 128zM320 640H704V896H546Q532 894 524 887L329 692Q322 680 320 670V640zM1600 128Q1600 181 1562.5 218.5T1472 256T1381.5 218.5T1344 128T1381.5 37.5T1472 0T1562.5 37.5T1600 128zM1728 800V992Q1728 1006 1719 1015T1696 1024H1472V1248Q1472 1262 1463 1271T1440 1280H1248Q1234 1280 1225 1271T1216 1248V1024H992Q978 1024 969 1015T960 992V800Q960 786 969 777T992 768H1216V544Q1216 530 1225 521T1248 512H1440Q1454 512 1463 521T1472 544V768H1696Q1710 768 1719 777T1728 800zM1984 1344V192Q1984 166 1965 147T1920 128H1728Q1728 22 1653 -53T1472 -128T1291 -53T1216 128H832Q832 22 757 -53T576 -128T395 -53T320 128H192Q166 128 147 147T128 192T147 237T192 256V672Q192 698 205 730T237 781L435 979Q454 998 486 1011T544 1024H704V1344Q704 1370 723 1389T768 1408H1920Q1946 1408 1965 1389T1984 1344z" />
    <glyph glyph-name="ambulance-1"
      unicode="&#x61;&#x6D;&#x62;&#x75;&#x6C;&#x61;&#x6E;&#x63;&#x65;"
      horiz-adv-x="2048" d=" M704 128Q704 181 666.5 218.5T576 256T485.5 218.5T448 128T485.5 37.5T576 0T666.5 37.5T704 128zM320 640H704V896H546Q532 894 524 887L329 692Q322 680 320 670V640zM1600 128Q1600 181 1562.5 218.5T1472 256T1381.5 218.5T1344 128T1381.5 37.5T1472 0T1562.5 37.5T1600 128zM1728 800V992Q1728 1006 1719 1015T1696 1024H1472V1248Q1472 1262 1463 1271T1440 1280H1248Q1234 1280 1225 1271T1216 1248V1024H992Q978 1024 969 1015T960 992V800Q960 786 969 777T992 768H1216V544Q1216 530 1225 521T1248 512H1440Q1454 512 1463 521T1472 544V768H1696Q1710 768 1719 777T1728 800zM1984 1344V192Q1984 166 1965 147T1920 128H1728Q1728 22 1653 -53T1472 -128T1291 -53T1216 128H832Q832 22 757 -53T576 -128T395 -53T320 128H192Q166 128 147 147T128 192T147 237T192 256V672Q192 698 205 730T237 781L435 979Q454 998 486 1011T544 1024H704V1344Q704 1370 723 1389T768 1408H1920Q1946 1408 1965 1389T1984 1344z" />
    <glyph glyph-name="american-sign-language-interpreting"
      unicode="&#xF10E;"
      horiz-adv-x="2304" d=" M1032 576Q973 578 948 631Q931 665 900 684.5T832 704Q779 704 741.5 666.5T704 576Q704 520 740 487L750 479Q784 448 832 448Q869 448 900 467.5T948 521Q973 574 1032 576zM1600 704Q1600 760 1564 793L1554 801Q1520 832 1472 832Q1435 832 1404 812.5T1356 759Q1331 706 1272 704Q1331 702 1356 649Q1373 615 1404 595.5T1472 576Q1525 576 1562.5 613.5T1600 704zM1174 925Q1157 890 1119 877T1046 881Q984 912 912 912Q861 912 813 895Q816 895 822.5 895.5T832 896Q924 896 1002.5 846T1121 713Q1138 677 1124.5 639.5T1075 585Q1057 576 1036 576Q1057 576 1075 567Q1111 550 1124.5 512.5T1121 439Q1081 356 1002.5 306T832 256H826Q810 258 782 260L492 287L253 167Q239 160 224 160Q184 160 167 195L7 515Q-4 538 3 562.5T32 600L241 719L389 986Q406 1141 480.5 1277.5T676 1514Q707 1539 746.5 1535.5T811 1501T832.5 1431T798 1366Q728 1307 681 1238Q804 1322 948 1339Q988 1344 1019.5 1320T1055 1256Q1060 1216 1036 1184.5T972 1149Q888 1139 813 1094Q859 1104 912 1104Q1027 1104 1130 1054Q1166 1036 1179 998.5T1174 925zM2137 1085L2297 765Q2308 742 2301 717.5T2272 680L2063 561L1915 294Q1898 139 1823.5 2.5T1628 -234Q1602 -256 1567 -256Q1522 -256 1493 -221Q1468 -190 1471.5 -151T1506 -86Q1576 -27 1623 42Q1500 -42 1356 -59Q1352 -60 1344 -60Q1308 -60 1280.5 -36T1249 24Q1244 64 1268 95.5T1332 131Q1416 141 1491 186Q1445 176 1392 176Q1277 176 1174 226Q1138 244 1125 281.5T1130 355Q1147 390 1185 403T1258 399Q1320 368 1392 368Q1443 368 1491 385Q1488 385 1481.5 384.5T1472 384Q1380 384 1301.5 434T1183 567Q1166 603 1179.5 640.5T1229 695Q1247 704 1268 704Q1247 704 1229 713Q1193 730 1179.5 767.5T1183 841Q1223 924 1301.5 974T1472 1024H1479Q1493 1022 1521 1020L1812 993L2051 1113Q2065 1120 2080 1120Q2120 1120 2137 1085z" />
    <glyph glyph-name="american-sign-language-interpreting-1"
      unicode="&#x61;&#x6D;&#x65;&#x72;&#x69;&#x63;&#x61;&#x6E;&#x2D;&#x73;&#x69;&#x67;&#x6E;&#x2D;&#x6C;&#x61;&#x6E;&#x67;&#x75;&#x61;&#x67;&#x65;&#x2D;&#x69;&#x6E;&#x74;&#x65;&#x72;&#x70;&#x72;&#x65;&#x74;&#x69;&#x6E;&#x67;"
      horiz-adv-x="2304" d=" M1032 576Q973 578 948 631Q931 665 900 684.5T832 704Q779 704 741.5 666.5T704 576Q704 520 740 487L750 479Q784 448 832 448Q869 448 900 467.5T948 521Q973 574 1032 576zM1600 704Q1600 760 1564 793L1554 801Q1520 832 1472 832Q1435 832 1404 812.5T1356 759Q1331 706 1272 704Q1331 702 1356 649Q1373 615 1404 595.5T1472 576Q1525 576 1562.5 613.5T1600 704zM1174 925Q1157 890 1119 877T1046 881Q984 912 912 912Q861 912 813 895Q816 895 822.5 895.5T832 896Q924 896 1002.5 846T1121 713Q1138 677 1124.5 639.5T1075 585Q1057 576 1036 576Q1057 576 1075 567Q1111 550 1124.5 512.5T1121 439Q1081 356 1002.5 306T832 256H826Q810 258 782 260L492 287L253 167Q239 160 224 160Q184 160 167 195L7 515Q-4 538 3 562.5T32 600L241 719L389 986Q406 1141 480.5 1277.5T676 1514Q707 1539 746.5 1535.5T811 1501T832.5 1431T798 1366Q728 1307 681 1238Q804 1322 948 1339Q988 1344 1019.5 1320T1055 1256Q1060 1216 1036 1184.5T972 1149Q888 1139 813 1094Q859 1104 912 1104Q1027 1104 1130 1054Q1166 1036 1179 998.5T1174 925zM2137 1085L2297 765Q2308 742 2301 717.5T2272 680L2063 561L1915 294Q1898 139 1823.5 2.5T1628 -234Q1602 -256 1567 -256Q1522 -256 1493 -221Q1468 -190 1471.5 -151T1506 -86Q1576 -27 1623 42Q1500 -42 1356 -59Q1352 -60 1344 -60Q1308 -60 1280.5 -36T1249 24Q1244 64 1268 95.5T1332 131Q1416 141 1491 186Q1445 176 1392 176Q1277 176 1174 226Q1138 244 1125 281.5T1130 355Q1147 390 1185 403T1258 399Q1320 368 1392 368Q1443 368 1491 385Q1488 385 1481.5 384.5T1472 384Q1380 384 1301.5 434T1183 567Q1166 603 1179.5 640.5T1229 695Q1247 704 1268 704Q1247 704 1229 713Q1193 730 1179.5 767.5T1183 841Q1223 924 1301.5 974T1472 1024H1479Q1493 1022 1521 1020L1812 993L2051 1113Q2065 1120 2080 1120Q2120 1120 2137 1085z" />
    <glyph glyph-name="anchor"
      unicode="&#xF10F;"
      horiz-adv-x="1792" d=" M960 1280Q960 1306 941 1325T896 1344T851 1325T832 1280T851 1235T896 1216T941 1235T960 1280zM1792 352V0Q1792 -22 1772 -30Q1764 -32 1760 -32Q1748 -32 1737 -23L1644 70Q1525 -73 1325.5 -156.5T896 -240T466.5 -156.5T148 70L55 -23Q46 -32 32 -32Q28 -32 20 -30Q0 -22 0 0V352Q0 366 9 375T32 384H384Q406 384 414 364Q422 345 407 329L307 229Q374 138 496.5 75.5T768 -7V640H576Q550 640 531 659T512 704V832Q512 858 531 877T576 896H768V1059Q710 1093 675 1151.5T640 1280Q640 1386 715 1461T896 1536T1077 1461T1152 1280Q1152 1210 1117 1151.5T1024 1059V896H1216Q1242 896 1261 877T1280 832V704Q1280 678 1261 659T1216 640H1024V-7Q1173 13 1295.5 75.5T1485 229L1385 329Q1370 345 1378 364Q1386 384 1408 384H1760Q1774 384 1783 375T1792 352z" />
    <glyph glyph-name="anchor-1"
      unicode="&#x61;&#x6E;&#x63;&#x68;&#x6F;&#x72;"
      horiz-adv-x="1792" d=" M960 1280Q960 1306 941 1325T896 1344T851 1325T832 1280T851 1235T896 1216T941 1235T960 1280zM1792 352V0Q1792 -22 1772 -30Q1764 -32 1760 -32Q1748 -32 1737 -23L1644 70Q1525 -73 1325.5 -156.5T896 -240T466.5 -156.5T148 70L55 -23Q46 -32 32 -32Q28 -32 20 -30Q0 -22 0 0V352Q0 366 9 375T32 384H384Q406 384 414 364Q422 345 407 329L307 229Q374 138 496.5 75.5T768 -7V640H576Q550 640 531 659T512 704V832Q512 858 531 877T576 896H768V1059Q710 1093 675 1151.5T640 1280Q640 1386 715 1461T896 1536T1077 1461T1152 1280Q1152 1210 1117 1151.5T1024 1059V896H1216Q1242 896 1261 877T1280 832V704Q1280 678 1261 659T1216 640H1024V-7Q1173 13 1295.5 75.5T1485 229L1385 329Q1370 345 1378 364Q1386 384 1408 384H1760Q1774 384 1783 375T1792 352z" />
    <glyph glyph-name="android"
      unicode="&#xF110;"
      horiz-adv-x="1792" d=" M685 1053Q701 1053 712.5 1064.5T724 1092T712.5 1119.5T685 1131T658 1119.5T647 1092T658 1064.5T685 1053zM1107 1053Q1123 1053 1134 1064.5T1145 1092T1134 1119.5T1107 1131T1079.5 1119.5T1068 1092T1079.5 1064.5T1107 1053zM295 869Q337 869 367 839T397 767V337Q397 294 367.5 264T295 234T222 264T192 337V767Q192 809 222 839T295 869zM1355 850V184Q1355 138 1323 106T1246 74H1171V-153Q1171 -196 1141 -226T1068 -256T995 -226T965 -153V74H827V-153Q827 -196 797 -226T724 -256Q682 -256 652 -226T622 -153L621 74H547Q501 74 469 106T437 184V850H1355zM1123 1255Q1230 1200 1294 1101.5T1358 886H433Q433 1003 497 1101.5T669 1255L598 1386Q591 1399 603 1406Q616 1412 623 1400L695 1268Q790 1310 896 1310T1097 1268L1169 1400Q1176 1412 1189 1406Q1201 1399 1194 1386zM1600 767V337Q1600 294 1570 264T1497 234Q1455 234 1425 264T1395 337V767Q1395 810 1425 839.5T1497 869Q1540 869 1570 839.5T1600 767z" />
    <glyph glyph-name="android-1"
      unicode="&#x61;&#x6E;&#x64;&#x72;&#x6F;&#x69;&#x64;"
      horiz-adv-x="1792" d=" M685 1053Q701 1053 712.5 1064.5T724 1092T712.5 1119.5T685 1131T658 1119.5T647 1092T658 1064.5T685 1053zM1107 1053Q1123 1053 1134 1064.5T1145 1092T1134 1119.5T1107 1131T1079.5 1119.5T1068 1092T1079.5 1064.5T1107 1053zM295 869Q337 869 367 839T397 767V337Q397 294 367.5 264T295 234T222 264T192 337V767Q192 809 222 839T295 869zM1355 850V184Q1355 138 1323 106T1246 74H1171V-153Q1171 -196 1141 -226T1068 -256T995 -226T965 -153V74H827V-153Q827 -196 797 -226T724 -256Q682 -256 652 -226T622 -153L621 74H547Q501 74 469 106T437 184V850H1355zM1123 1255Q1230 1200 1294 1101.5T1358 886H433Q433 1003 497 1101.5T669 1255L598 1386Q591 1399 603 1406Q616 1412 623 1400L695 1268Q790 1310 896 1310T1097 1268L1169 1400Q1176 1412 1189 1406Q1201 1399 1194 1386zM1600 767V337Q1600 294 1570 264T1497 234Q1455 234 1425 264T1395 337V767Q1395 810 1425 839.5T1497 869Q1540 869 1570 839.5T1600 767z" />
    <glyph glyph-name="angellist"
      unicode="&#xF111;"
      horiz-adv-x="1792" d=" M1209 1158L1095 830L1212 809Q1377 1260 1377 1327Q1377 1383 1339 1383Q1282 1383 1209 1158zM910 471L943 383Q980 425 1014 450L981 455.5L942.5 462.5L910 471zM618 1367Q618 1269 777 846Q794 856 826 856Q841 856 901 851L780 1202Q705 1422 657 1422Q638 1422 628 1404.5T618 1367zM539 608Q539 572 590.5 489T708 336T808 266Q822 266 833.5 279T845 306Q845 330 813 408Q800 440 781 480T733.5 569T672 650T610 682Q590 682 564.5 655T539 608zM381 273Q381 232 406 169Q465 24 589.5 -58T871 -140Q1098 -140 1253 30Q1405 199 1405 457Q1405 500 1404 524T1392.5 586T1362 642Q1306 691 1150.5 717.5T880 744Q843 744 831 733Q819 728 819 698Q819 664 840.5 638T896 598T973.5 574.5T1061 563T1146 559T1216 559H1239Q1263 559 1279 540Q1294 521 1298 485Q1270 457 1202 431Q1141 409 1109 385Q1045 339 1000.5 271T956 134Q956 103 974.5 45.5T993 -42L990 -54Q986 -66 986 -68Q849 -58 840 148Q832 146 799 146Q801 139 801 125Q801 72 760.5 35.5T666 -1Q584 -1 499.5 77T415 236Q415 270 448 303Q500 239 508 227Q585 123 641 123Q653 123 667.5 131.5T682 152Q682 186 594.5 297T478 408Q435 408 408 363.5T381 273zM267 264Q267 365 309.5 427T446 515Q418 589 418 619Q418 681 479 742T601 803Q630 803 671 788Q508 1250 508 1355Q508 1435 549 1485.5T668 1536Q799 1536 993 955Q999 938 1001 932Q1007 948 1030 1011.5T1073.5 1130T1127.5 1257.5T1192 1380.5T1262.5 1467T1339 1503Q1410 1503 1451 1454T1492 1332Q1492 1224 1333 782Q1394 767 1433.5 736T1492 658T1518 564.5T1525 454Q1525 304 1478 174T1346 -51T1135 -201T857 -256Q746 -256 634 -214Q485 -157 376 -22.5T267 264z" />
    <glyph glyph-name="angellist-1"
      unicode="&#x61;&#x6E;&#x67;&#x65;&#x6C;&#x6C;&#x69;&#x73;&#x74;"
      horiz-adv-x="1792" d=" M1209 1158L1095 830L1212 809Q1377 1260 1377 1327Q1377 1383 1339 1383Q1282 1383 1209 1158zM910 471L943 383Q980 425 1014 450L981 455.5L942.5 462.5L910 471zM618 1367Q618 1269 777 846Q794 856 826 856Q841 856 901 851L780 1202Q705 1422 657 1422Q638 1422 628 1404.5T618 1367zM539 608Q539 572 590.5 489T708 336T808 266Q822 266 833.5 279T845 306Q845 330 813 408Q800 440 781 480T733.5 569T672 650T610 682Q590 682 564.5 655T539 608zM381 273Q381 232 406 169Q465 24 589.5 -58T871 -140Q1098 -140 1253 30Q1405 199 1405 457Q1405 500 1404 524T1392.5 586T1362 642Q1306 691 1150.5 717.5T880 744Q843 744 831 733Q819 728 819 698Q819 664 840.5 638T896 598T973.5 574.5T1061 563T1146 559T1216 559H1239Q1263 559 1279 540Q1294 521 1298 485Q1270 457 1202 431Q1141 409 1109 385Q1045 339 1000.5 271T956 134Q956 103 974.5 45.5T993 -42L990 -54Q986 -66 986 -68Q849 -58 840 148Q832 146 799 146Q801 139 801 125Q801 72 760.5 35.5T666 -1Q584 -1 499.5 77T415 236Q415 270 448 303Q500 239 508 227Q585 123 641 123Q653 123 667.5 131.5T682 152Q682 186 594.5 297T478 408Q435 408 408 363.5T381 273zM267 264Q267 365 309.5 427T446 515Q418 589 418 619Q418 681 479 742T601 803Q630 803 671 788Q508 1250 508 1355Q508 1435 549 1485.5T668 1536Q799 1536 993 955Q999 938 1001 932Q1007 948 1030 1011.5T1073.5 1130T1127.5 1257.5T1192 1380.5T1262.5 1467T1339 1503Q1410 1503 1451 1454T1492 1332Q1492 1224 1333 782Q1394 767 1433.5 736T1492 658T1518 564.5T1525 454Q1525 304 1478 174T1346 -51T1135 -201T857 -256Q746 -256 634 -214Q485 -157 376 -22.5T267 264z" />
    <glyph glyph-name="angle-double-down"
      unicode="&#xF112;"
      horiz-adv-x="1792" d=" M1395 672Q1395 659 1385 649L919 183Q909 173 896 173T873 183L407 649Q397 659 397 672T407 695L457 745Q467 755 480 755T503 745L896 352L1289 745Q1299 755 1312 755T1335 745L1385 695Q1395 685 1395 672zM1395 1056Q1395 1043 1385 1033L919 567Q909 557 896 557T873 567L407 1033Q397 1043 397 1056T407 1079L457 1129Q467 1139 480 1139T503 1129L896 736L1289 1129Q1299 1139 1312 1139T1335 1129L1385 1079Q1395 1069 1395 1056z" />
    <glyph glyph-name="angle-double-down-1"
      unicode="&#x61;&#x6E;&#x67;&#x6C;&#x65;&#x2D;&#x64;&#x6F;&#x75;&#x62;&#x6C;&#x65;&#x2D;&#x64;&#x6F;&#x77;&#x6E;"
      horiz-adv-x="1792" d=" M1395 672Q1395 659 1385 649L919 183Q909 173 896 173T873 183L407 649Q397 659 397 672T407 695L457 745Q467 755 480 755T503 745L896 352L1289 745Q1299 755 1312 755T1335 745L1385 695Q1395 685 1395 672zM1395 1056Q1395 1043 1385 1033L919 567Q909 557 896 557T873 567L407 1033Q397 1043 397 1056T407 1079L457 1129Q467 1139 480 1139T503 1129L896 736L1289 1129Q1299 1139 1312 1139T1335 1129L1385 1079Q1395 1069 1395 1056z" />
    <glyph glyph-name="angle-double-left"
      unicode="&#xF113;"
      horiz-adv-x="1792" d=" M1011 160Q1011 147 1001 137L951 87Q941 77 928 77T905 87L439 553Q429 563 429 576T439 599L905 1065Q915 1075 928 1075T951 1065L1001 1015Q1011 1005 1011 992T1001 969L608 576L1001 183Q1011 173 1011 160zM1395 160Q1395 147 1385 137L1335 87Q1325 77 1312 77T1289 87L823 553Q813 563 813 576T823 599L1289 1065Q1299 1075 1312 1075T1335 1065L1385 1015Q1395 1005 1395 992T1385 969L992 576L1385 183Q1395 173 1395 160z" />
    <glyph glyph-name="angle-double-left-1"
      unicode="&#x61;&#x6E;&#x67;&#x6C;&#x65;&#x2D;&#x64;&#x6F;&#x75;&#x62;&#x6C;&#x65;&#x2D;&#x6C;&#x65;&#x66;&#x74;"
      horiz-adv-x="1792" d=" M1011 160Q1011 147 1001 137L951 87Q941 77 928 77T905 87L439 553Q429 563 429 576T439 599L905 1065Q915 1075 928 1075T951 1065L1001 1015Q1011 1005 1011 992T1001 969L608 576L1001 183Q1011 173 1011 160zM1395 160Q1395 147 1385 137L1335 87Q1325 77 1312 77T1289 87L823 553Q813 563 813 576T823 599L1289 1065Q1299 1075 1312 1075T1335 1065L1385 1015Q1395 1005 1395 992T1385 969L992 576L1385 183Q1395 173 1395 160z" />
    <glyph glyph-name="angle-double-right"
      unicode="&#xF114;"
      horiz-adv-x="1792" d=" M979 576Q979 563 969 553L503 87Q493 77 480 77T457 87L407 137Q397 147 397 160T407 183L800 576L407 969Q397 979 397 992T407 1015L457 1065Q467 1075 480 1075T503 1065L969 599Q979 589 979 576zM1363 576Q1363 563 1353 553L887 87Q877 77 864 77T841 87L791 137Q781 147 781 160T791 183L1184 576L791 969Q781 979 781 992T791 1015L841 1065Q851 1075 864 1075T887 1065L1353 599Q1363 589 1363 576z" />
    <glyph glyph-name="angle-double-right-1"
      unicode="&#x61;&#x6E;&#x67;&#x6C;&#x65;&#x2D;&#x64;&#x6F;&#x75;&#x62;&#x6C;&#x65;&#x2D;&#x72;&#x69;&#x67;&#x68;&#x74;"
      horiz-adv-x="1792" d=" M979 576Q979 563 969 553L503 87Q493 77 480 77T457 87L407 137Q397 147 397 160T407 183L800 576L407 969Q397 979 397 992T407 1015L457 1065Q467 1075 480 1075T503 1065L969 599Q979 589 979 576zM1363 576Q1363 563 1353 553L887 87Q877 77 864 77T841 87L791 137Q781 147 781 160T791 183L1184 576L791 969Q781 979 781 992T791 1015L841 1065Q851 1075 864 1075T887 1065L1353 599Q1363 589 1363 576z" />
    <glyph glyph-name="angle-double-up"
      unicode="&#xF115;"
      horiz-adv-x="1792" d=" M1395 224Q1395 211 1385 201L1335 151Q1325 141 1312 141T1289 151L896 544L503 151Q493 141 480 141T457 151L407 201Q397 211 397 224T407 247L873 713Q883 723 896 723T919 713L1385 247Q1395 237 1395 224zM1395 608Q1395 595 1385 585L1335 535Q1325 525 1312 525T1289 535L896 928L503 535Q493 525 480 525T457 535L407 585Q397 595 397 608T407 631L873 1097Q883 1107 896 1107T919 1097L1385 631Q1395 621 1395 608z" />
    <glyph glyph-name="angle-double-up-1"
      unicode="&#x61;&#x6E;&#x67;&#x6C;&#x65;&#x2D;&#x64;&#x6F;&#x75;&#x62;&#x6C;&#x65;&#x2D;&#x75;&#x70;"
      horiz-adv-x="1792" d=" M1395 224Q1395 211 1385 201L1335 151Q1325 141 1312 141T1289 151L896 544L503 151Q493 141 480 141T457 151L407 201Q397 211 397 224T407 247L873 713Q883 723 896 723T919 713L1385 247Q1395 237 1395 224zM1395 608Q1395 595 1385 585L1335 535Q1325 525 1312 525T1289 535L896 928L503 535Q493 525 480 525T457 535L407 585Q397 595 397 608T407 631L873 1097Q883 1107 896 1107T919 1097L1385 631Q1395 621 1395 608z" />
    <glyph glyph-name="angle-down"
      unicode="&#xF116;"
      horiz-adv-x="1792" d=" M1395 800Q1395 787 1385 777L919 311Q909 301 896 301T873 311L407 777Q397 787 397 800T407 823L457 873Q467 883 480 883T503 873L896 480L1289 873Q1299 883 1312 883T1335 873L1385 823Q1395 813 1395 800z" />
    <glyph glyph-name="angle-down-1"
      unicode="&#x61;&#x6E;&#x67;&#x6C;&#x65;&#x2D;&#x64;&#x6F;&#x77;&#x6E;"
      horiz-adv-x="1792" d=" M1395 800Q1395 787 1385 777L919 311Q909 301 896 301T873 311L407 777Q397 787 397 800T407 823L457 873Q467 883 480 883T503 873L896 480L1289 873Q1299 883 1312 883T1335 873L1385 823Q1395 813 1395 800z" />
    <glyph glyph-name="angle-left"
      unicode="&#xF117;"
      horiz-adv-x="1792" d=" M1203 992Q1203 979 1193 969L800 576L1193 183Q1203 173 1203 160T1193 137L1143 87Q1133 77 1120 77T1097 87L631 553Q621 563 621 576T631 599L1097 1065Q1107 1075 1120 1075T1143 1065L1193 1015Q1203 1005 1203 992z" />
    <glyph glyph-name="angle-left-1"
      unicode="&#x61;&#x6E;&#x67;&#x6C;&#x65;&#x2D;&#x6C;&#x65;&#x66;&#x74;"
      horiz-adv-x="1792" d=" M1203 992Q1203 979 1193 969L800 576L1193 183Q1203 173 1203 160T1193 137L1143 87Q1133 77 1120 77T1097 87L631 553Q621 563 621 576T631 599L1097 1065Q1107 1075 1120 1075T1143 1065L1193 1015Q1203 1005 1203 992z" />
    <glyph glyph-name="angle-right"
      unicode="&#xF118;"
      horiz-adv-x="1792" d=" M1171 576Q1171 563 1161 553L695 87Q685 77 672 77T649 87L599 137Q589 147 589 160T599 183L992 576L599 969Q589 979 589 992T599 1015L649 1065Q659 1075 672 1075T695 1065L1161 599Q1171 589 1171 576z" />
    <glyph glyph-name="angle-right-1"
      unicode="&#x61;&#x6E;&#x67;&#x6C;&#x65;&#x2D;&#x72;&#x69;&#x67;&#x68;&#x74;"
      horiz-adv-x="1792" d=" M1171 576Q1171 563 1161 553L695 87Q685 77 672 77T649 87L599 137Q589 147 589 160T599 183L992 576L599 969Q589 979 589 992T599 1015L649 1065Q659 1075 672 1075T695 1065L1161 599Q1171 589 1171 576z" />
    <glyph glyph-name="angle-up"
      unicode="&#xF119;"
      horiz-adv-x="1792" d=" M1395 352Q1395 339 1385 329L1335 279Q1325 269 1312 269T1289 279L896 672L503 279Q493 269 480 269T457 279L407 329Q397 339 397 352T407 375L873 841Q883 851 896 851T919 841L1385 375Q1395 365 1395 352z" />
    <glyph glyph-name="angle-up-1"
      unicode="&#x61;&#x6E;&#x67;&#x6C;&#x65;&#x2D;&#x75;&#x70;"
      horiz-adv-x="1792" d=" M1395 352Q1395 339 1385 329L1335 279Q1325 269 1312 269T1289 279L896 672L503 279Q493 269 480 269T457 279L407 329Q397 339 397 352T407 375L873 841Q883 851 896 851T919 841L1385 375Q1395 365 1395 352z" />
    <glyph glyph-name="apple"
      unicode="&#xF11A;"
      horiz-adv-x="1792" d=" M1585 321Q1546 196 1462 71Q1333 -125 1205 -125Q1156 -125 1065 -93Q979 -61 914 -61Q853 -61 772 -94Q691 -128 640 -128Q488 -128 339 131Q192 392 192 634Q192 862 305 1008Q418 1152 589 1152Q661 1152 766 1122Q870 1092 904 1092Q949 1092 1047 1126Q1149 1160 1220 1160Q1339 1160 1433 1095Q1485 1059 1537 995Q1458 928 1423 877Q1358 783 1358 670Q1358 546 1427 447T1585 321zM1209 1494Q1209 1433 1180 1358Q1150 1283 1087 1220Q1033 1166 979 1148Q942 1137 875 1131Q878 1280 953 1388Q1027 1495 1203 1536Q1204 1533 1205.5 1525T1208 1514Q1208 1510 1208.5 1504T1209 1494z" />
    <glyph glyph-name="apple-1"
      unicode="&#x61;&#x70;&#x70;&#x6C;&#x65;"
      horiz-adv-x="1792" d=" M1585 321Q1546 196 1462 71Q1333 -125 1205 -125Q1156 -125 1065 -93Q979 -61 914 -61Q853 -61 772 -94Q691 -128 640 -128Q488 -128 339 131Q192 392 192 634Q192 862 305 1008Q418 1152 589 1152Q661 1152 766 1122Q870 1092 904 1092Q949 1092 1047 1126Q1149 1160 1220 1160Q1339 1160 1433 1095Q1485 1059 1537 995Q1458 928 1423 877Q1358 783 1358 670Q1358 546 1427 447T1585 321zM1209 1494Q1209 1433 1180 1358Q1150 1283 1087 1220Q1033 1166 979 1148Q942 1137 875 1131Q878 1280 953 1388Q1027 1495 1203 1536Q1204 1533 1205.5 1525T1208 1514Q1208 1510 1208.5 1504T1209 1494z" />
    <glyph glyph-name="archive"
      unicode="&#xF11B;"
      horiz-adv-x="1792" d=" M1088 704Q1088 730 1069 749T1024 768H768Q742 768 723 749T704 704T723 659T768 640H1024Q1050 640 1069 659T1088 704zM1664 896V-64Q1664 -90 1645 -109T1600 -128H192Q166 -128 147 -109T128 -64V896Q128 922 147 941T192 960H1600Q1626 960 1645 941T1664 896zM1728 1344V1088Q1728 1062 1709 1043T1664 1024H128Q102 1024 83 1043T64 1088V1344Q64 1370 83 1389T128 1408H1664Q1690 1408 1709 1389T1728 1344z" />
    <glyph glyph-name="archive-1"
      unicode="&#x61;&#x72;&#x63;&#x68;&#x69;&#x76;&#x65;"
      horiz-adv-x="1792" d=" M1088 704Q1088 730 1069 749T1024 768H768Q742 768 723 749T704 704T723 659T768 640H1024Q1050 640 1069 659T1088 704zM1664 896V-64Q1664 -90 1645 -109T1600 -128H192Q166 -128 147 -109T128 -64V896Q128 922 147 941T192 960H1600Q1626 960 1645 941T1664 896zM1728 1344V1088Q1728 1062 1709 1043T1664 1024H128Q102 1024 83 1043T64 1088V1344Q64 1370 83 1389T128 1408H1664Q1690 1408 1709 1389T1728 1344z" />
    <glyph glyph-name="area-chart"
      unicode="&#xF11C;"
      horiz-adv-x="2048" d=" M2048 0V-128H0V1408H128V0H2048zM1664 1024L1920 128H256V704L704 1280L1280 704z" />
    <glyph glyph-name="area-chart-1"
      unicode="&#x61;&#x72;&#x65;&#x61;&#x2D;&#x63;&#x68;&#x61;&#x72;&#x74;"
      horiz-adv-x="2048" d=" M2048 0V-128H0V1408H128V0H2048zM1664 1024L1920 128H256V704L704 1280L1280 704z" />
    <glyph glyph-name="arrow-circle-down"
      unicode="&#xF11D;"
      horiz-adv-x="1792" d=" M1412 639Q1412 666 1394 684L1303 775Q1285 793 1258 793T1213 775L1024 586V1088Q1024 1114 1005 1133T960 1152H832Q806 1152 787 1133T768 1088V586L579 775Q560 794 534 794T489 775L398 684Q380 666 380 639T398 594L760 232L851 141Q869 123 896 123T941 141L1032 232L1394 594Q1412 612 1412 639zM1664 640Q1664 431 1561 254.5T1281.5 -25T896 -128T510.5 -25T231 254.5T128 640T231 1025.5T510.5 1305T896 1408T1281.5 1305T1561 1025.5T1664 640z" />
    <glyph glyph-name="arrow-circle-down-1"
      unicode="&#x61;&#x72;&#x72;&#x6F;&#x77;&#x2D;&#x63;&#x69;&#x72;&#x63;&#x6C;&#x65;&#x2D;&#x64;&#x6F;&#x77;&#x6E;"
      horiz-adv-x="1792" d=" M1412 639Q1412 666 1394 684L1303 775Q1285 793 1258 793T1213 775L1024 586V1088Q1024 1114 1005 1133T960 1152H832Q806 1152 787 1133T768 1088V586L579 775Q560 794 534 794T489 775L398 684Q380 666 380 639T398 594L760 232L851 141Q869 123 896 123T941 141L1032 232L1394 594Q1412 612 1412 639zM1664 640Q1664 431 1561 254.5T1281.5 -25T896 -128T510.5 -25T231 254.5T128 640T231 1025.5T510.5 1305T896 1408T1281.5 1305T1561 1025.5T1664 640z" />
    <glyph glyph-name="arrow-circle-left"
      unicode="&#xF11E;"
      horiz-adv-x="1792" d=" M1408 576V704Q1408 730 1389 749T1344 768H842L1031 957Q1050 976 1050 1002T1031 1047L940 1138Q922 1156 895 1156T850 1138L488 776L397 685Q379 667 379 640T397 595L488 504L850 142Q868 124 895 124T940 142L1031 233Q1049 251 1049 278T1031 323L842 512H1344Q1370 512 1389 531T1408 576zM1664 640Q1664 431 1561 254.5T1281.5 -25T896 -128T510.5 -25T231 254.5T128 640T231 1025.5T510.5 1305T896 1408T1281.5 1305T1561 1025.5T1664 640z" />
    <glyph glyph-name="arrow-circle-left-1"
      unicode="&#x61;&#x72;&#x72;&#x6F;&#x77;&#x2D;&#x63;&#x69;&#x72;&#x63;&#x6C;&#x65;&#x2D;&#x6C;&#x65;&#x66;&#x74;"
      horiz-adv-x="1792" d=" M1408 576V704Q1408 730 1389 749T1344 768H842L1031 957Q1050 976 1050 1002T1031 1047L940 1138Q922 1156 895 1156T850 1138L488 776L397 685Q379 667 379 640T397 595L488 504L850 142Q868 124 895 124T940 142L1031 233Q1049 251 1049 278T1031 323L842 512H1344Q1370 512 1389 531T1408 576zM1664 640Q1664 431 1561 254.5T1281.5 -25T896 -128T510.5 -25T231 254.5T128 640T231 1025.5T510.5 1305T896 1408T1281.5 1305T1561 1025.5T1664 640z" />
    <glyph glyph-name="arrow-circle-o-down"
      unicode="&#xF11F;"
      horiz-adv-x="1792" d=" M1248 608Q1248 596 1238 584L919 265Q908 256 896 256T873 265L553 585Q538 601 546 620Q554 640 576 640H768V992Q768 1006 777 1015T800 1024H992Q1006 1024 1015 1015T1024 992V640H1216Q1230 640 1239 631T1248 608zM896 1184Q748 1184 623 1111T425 913T352 640T425 367T623 169T896 96T1169 169T1367 367T1440 640T1367 913T1169 1111T896 1184zM1664 640Q1664 431 1561 254.5T1281.5 -25T896 -128T510.5 -25T231 254.5T128 640T231 1025.5T510.5 1305T896 1408T1281.5 1305T1561 1025.5T1664 640z" />
    <glyph glyph-name="arrow-circle-o-down-1"
      unicode="&#x61;&#x72;&#x72;&#x6F;&#x77;&#x2D;&#x63;&#x69;&#x72;&#x63;&#x6C;&#x65;&#x2D;&#x6F;&#x2D;&#x64;&#x6F;&#x77;&#x6E;"
      horiz-adv-x="1792" d=" M1248 608Q1248 596 1238 584L919 265Q908 256 896 256T873 265L553 585Q538 601 546 620Q554 640 576 640H768V992Q768 1006 777 1015T800 1024H992Q1006 1024 1015 1015T1024 992V640H1216Q1230 640 1239 631T1248 608zM896 1184Q748 1184 623 1111T425 913T352 640T425 367T623 169T896 96T1169 169T1367 367T1440 640T1367 913T1169 1111T896 1184zM1664 640Q1664 431 1561 254.5T1281.5 -25T896 -128T510.5 -25T231 254.5T128 640T231 1025.5T510.5 1305T896 1408T1281.5 1305T1561 1025.5T1664 640z" />
    <glyph glyph-name="arrow-circle-o-left"
      unicode="&#xF120;"
      horiz-adv-x="1792" d=" M1280 736V544Q1280 531 1270.5 521.5T1248 512H896V320Q896 306 887 297T864 288Q852 288 840 298L521 617Q512 626 512 640T521 663L841 983Q850 992 864 992Q877 992 886.5 982.5T896 960V768H1248Q1261 768 1270.5 758.5T1280 736zM1440 640Q1440 788 1367 913T1169 1111T896 1184T623 1111T425 913T352 640T425 367T623 169T896 96T1169 169T1367 367T1440 640zM1664 640Q1664 431 1561 254.5T1281.5 -25T896 -128T510.5 -25T231 254.5T128 640T231 1025.5T510.5 1305T896 1408T1281.5 1305T1561 1025.5T1664 640z" />
    <glyph glyph-name="arrow-circle-o-left-1"
      unicode="&#x61;&#x72;&#x72;&#x6F;&#x77;&#x2D;&#x63;&#x69;&#x72;&#x63;&#x6C;&#x65;&#x2D;&#x6F;&#x2D;&#x6C;&#x65;&#x66;&#x74;"
      horiz-adv-x="1792" d=" M1280 736V544Q1280 531 1270.5 521.5T1248 512H896V320Q896 306 887 297T864 288Q852 288 840 298L521 617Q512 626 512 640T521 663L841 983Q850 992 864 992Q877 992 886.5 982.5T896 960V768H1248Q1261 768 1270.5 758.5T1280 736zM1440 640Q1440 788 1367 913T1169 1111T896 1184T623 1111T425 913T352 640T425 367T623 169T896 96T1169 169T1367 367T1440 640zM1664 640Q1664 431 1561 254.5T1281.5 -25T896 -128T510.5 -25T231 254.5T128 640T231 1025.5T510.5 1305T896 1408T1281.5 1305T1561 1025.5T1664 640z" />
    <glyph glyph-name="arrow-circle-o-right"
      unicode="&#xF121;"
      horiz-adv-x="1792" d=" M1280 640Q1280 626 1271 617L951 297Q942 288 928 288Q915 288 905.5 297.5T896 320V512H544Q531 512 521.5 521.5T512 544V736Q512 749 521.5 758.5T544 768H896V960Q896 974 905 983T928 992Q940 992 952 982L1271 663Q1280 654 1280 640zM1440 640Q1440 788 1367 913T1169 1111T896 1184T623 1111T425 913T352 640T425 367T623 169T896 96T1169 169T1367 367T1440 640zM1664 640Q1664 431 1561 254.5T1281.5 -25T896 -128T510.5 -25T231 254.5T128 640T231 1025.5T510.5 1305T896 1408T1281.5 1305T1561 1025.5T1664 640z" />
    <glyph glyph-name="arrow-circle-o-right-1"
      unicode="&#x61;&#x72;&#x72;&#x6F;&#x77;&#x2D;&#x63;&#x69;&#x72;&#x63;&#x6C;&#x65;&#x2D;&#x6F;&#x2D;&#x72;&#x69;&#x67;&#x68;&#x74;"
      horiz-adv-x="1792" d=" M1280 640Q1280 626 1271 617L951 297Q942 288 928 288Q915 288 905.5 297.5T896 320V512H544Q531 512 521.5 521.5T512 544V736Q512 749 521.5 758.5T544 768H896V960Q896 974 905 983T928 992Q940 992 952 982L1271 663Q1280 654 1280 640zM1440 640Q1440 788 1367 913T1169 1111T896 1184T623 1111T425 913T352 640T425 367T623 169T896 96T1169 169T1367 367T1440 640zM1664 640Q1664 431 1561 254.5T1281.5 -25T896 -128T510.5 -25T231 254.5T128 640T231 1025.5T510.5 1305T896 1408T1281.5 1305T1561 1025.5T1664 640z" />
    <glyph glyph-name="arrow-circle-o-up"
      unicode="&#xF122;"
      horiz-adv-x="1792" d=" M1246 660Q1238 640 1216 640H1024V288Q1024 274 1015 265T992 256H800Q786 256 777 265T768 288V640H576Q562 640 553 649T544 672Q544 684 554 696L873 1015Q884 1024 896 1024T919 1015L1239 695Q1254 679 1246 660zM896 1184Q748 1184 623 1111T425 913T352 640T425 367T623 169T896 96T1169 169T1367 367T1440 640T1367 913T1169 1111T896 1184zM1664 640Q1664 431 1561 254.5T1281.5 -25T896 -128T510.5 -25T231 254.5T128 640T231 1025.5T510.5 1305T896 1408T1281.5 1305T1561 1025.5T1664 640z" />
    <glyph glyph-name="arrow-circle-o-up-1"
      unicode="&#x61;&#x72;&#x72;&#x6F;&#x77;&#x2D;&#x63;&#x69;&#x72;&#x63;&#x6C;&#x65;&#x2D;&#x6F;&#x2D;&#x75;&#x70;"
      horiz-adv-x="1792" d=" M1246 660Q1238 640 1216 640H1024V288Q1024 274 1015 265T992 256H800Q786 256 777 265T768 288V640H576Q562 640 553 649T544 672Q544 684 554 696L873 1015Q884 1024 896 1024T919 1015L1239 695Q1254 679 1246 660zM896 1184Q748 1184 623 1111T425 913T352 640T425 367T623 169T896 96T1169 169T1367 367T1440 640T1367 913T1169 1111T896 1184zM1664 640Q1664 431 1561 254.5T1281.5 -25T896 -128T510.5 -25T231 254.5T128 640T231 1025.5T510.5 1305T896 1408T1281.5 1305T1561 1025.5T1664 640z" />
    <glyph glyph-name="arrow-circle-right"
      unicode="&#xF123;"
      horiz-adv-x="1792" d=" M1413 640Q1413 667 1395 685L1304 776L942 1138Q924 1156 897 1156T852 1138L761 1047Q743 1029 743 1002T761 957L950 768H448Q422 768 403 749T384 704V576Q384 550 403 531T448 512H950L761 323Q742 304 742 278T761 233L852 142Q870 124 897 124T942 142L1304 504L1395 595Q1413 613 1413 640zM1664 640Q1664 431 1561 254.5T1281.5 -25T896 -128T510.5 -25T231 254.5T128 640T231 1025.5T510.5 1305T896 1408T1281.5 1305T1561 1025.5T1664 640z" />
    <glyph glyph-name="arrow-circle-right-1"
      unicode="&#x61;&#x72;&#x72;&#x6F;&#x77;&#x2D;&#x63;&#x69;&#x72;&#x63;&#x6C;&#x65;&#x2D;&#x72;&#x69;&#x67;&#x68;&#x74;"
      horiz-adv-x="1792" d=" M1413 640Q1413 667 1395 685L1304 776L942 1138Q924 1156 897 1156T852 1138L761 1047Q743 1029 743 1002T761 957L950 768H448Q422 768 403 749T384 704V576Q384 550 403 531T448 512H950L761 323Q742 304 742 278T761 233L852 142Q870 124 897 124T942 142L1304 504L1395 595Q1413 613 1413 640zM1664 640Q1664 431 1561 254.5T1281.5 -25T896 -128T510.5 -25T231 254.5T128 640T231 1025.5T510.5 1305T896 1408T1281.5 1305T1561 1025.5T1664 640z" />
    <glyph glyph-name="arrow-circle-up"
      unicode="&#xF124;"
      horiz-adv-x="1792" d=" M1412 641Q1412 668 1394 686L1032 1048L941 1139Q923 1157 896 1157T851 1139L760 1048L398 686Q380 668 380 641T398 596L489 505Q507 487 534 487T579 505L768 694V192Q768 166 787 147T832 128H960Q986 128 1005 147T1024 192V694L1213 505Q1232 486 1258 486T1303 505L1394 596Q1412 614 1412 641zM1664 640Q1664 431 1561 254.5T1281.5 -25T896 -128T510.5 -25T231 254.5T128 640T231 1025.5T510.5 1305T896 1408T1281.5 1305T1561 1025.5T1664 640z" />
    <glyph glyph-name="arrow-circle-up-1"
      unicode="&#x61;&#x72;&#x72;&#x6F;&#x77;&#x2D;&#x63;&#x69;&#x72;&#x63;&#x6C;&#x65;&#x2D;&#x75;&#x70;"
      horiz-adv-x="1792" d=" M1412 641Q1412 668 1394 686L1032 1048L941 1139Q923 1157 896 1157T851 1139L760 1048L398 686Q380 668 380 641T398 596L489 505Q507 487 534 487T579 505L768 694V192Q768 166 787 147T832 128H960Q986 128 1005 147T1024 192V694L1213 505Q1232 486 1258 486T1303 505L1394 596Q1412 614 1412 641zM1664 640Q1664 431 1561 254.5T1281.5 -25T896 -128T510.5 -25T231 254.5T128 640T231 1025.5T510.5 1305T896 1408T1281.5 1305T1561 1025.5T1664 640z" />
    <glyph glyph-name="arrow-down"
      unicode="&#xF125;"
      horiz-adv-x="1792" d=" M1675 704Q1675 651 1638 614L987 -38Q948 -75 896 -75Q843 -75 806 -38L155 614Q117 650 117 704Q117 757 155 795L229 870Q268 907 320 907Q373 907 410 870L704 576V1280Q704 1332 742 1370T832 1408H960Q1012 1408 1050 1370T1088 1280V576L1382 870Q1419 907 1472 907Q1524 907 1563 870L1638 795Q1675 756 1675 704z" />
    <glyph glyph-name="arrow-down-1"
      unicode="&#x61;&#x72;&#x72;&#x6F;&#x77;&#x2D;&#x64;&#x6F;&#x77;&#x6E;"
      horiz-adv-x="1792" d=" M1675 704Q1675 651 1638 614L987 -38Q948 -75 896 -75Q843 -75 806 -38L155 614Q117 650 117 704Q117 757 155 795L229 870Q268 907 320 907Q373 907 410 870L704 576V1280Q704 1332 742 1370T832 1408H960Q1012 1408 1050 1370T1088 1280V576L1382 870Q1419 907 1472 907Q1524 907 1563 870L1638 795Q1675 756 1675 704z" />
    <glyph glyph-name="arrow-left"
      unicode="&#xF126;"
      horiz-adv-x="1792" d=" M1664 640V512Q1664 459 1631.5 421.5T1547 384H843L1136 90Q1174 54 1174 0T1136 -90L1061 -166Q1024 -203 971 -203Q919 -203 880 -166L229 486Q192 523 192 576Q192 628 229 667L880 1317Q918 1355 971 1355Q1023 1355 1061 1317L1136 1243Q1174 1205 1174 1152T1136 1061L843 768H1547Q1599 768 1631.5 730.5T1664 640z" />
    <glyph glyph-name="arrow-left-1"
      unicode="&#x61;&#x72;&#x72;&#x6F;&#x77;&#x2D;&#x6C;&#x65;&#x66;&#x74;"
      horiz-adv-x="1792" d=" M1664 640V512Q1664 459 1631.5 421.5T1547 384H843L1136 90Q1174 54 1174 0T1136 -90L1061 -166Q1024 -203 971 -203Q919 -203 880 -166L229 486Q192 523 192 576Q192 628 229 667L880 1317Q918 1355 971 1355Q1023 1355 1061 1317L1136 1243Q1174 1205 1174 1152T1136 1061L843 768H1547Q1599 768 1631.5 730.5T1664 640z" />
    <glyph glyph-name="arrow-right"
      unicode="&#xF127;"
      horiz-adv-x="1792" d=" M1600 576Q1600 522 1563 485L912 -166Q873 -203 821 -203Q770 -203 731 -166L656 -91Q618 -53 618 0T656 91L949 384H245Q193 384 160.5 421.5T128 512V640Q128 693 160.5 730.5T245 768H949L656 1062Q618 1098 618 1152T656 1242L731 1317Q769 1355 821 1355Q874 1355 912 1317L1563 666Q1600 631 1600 576z" />
    <glyph glyph-name="arrow-right-1"
      unicode="&#x61;&#x72;&#x72;&#x6F;&#x77;&#x2D;&#x72;&#x69;&#x67;&#x68;&#x74;"
      horiz-adv-x="1792" d=" M1600 576Q1600 522 1563 485L912 -166Q873 -203 821 -203Q770 -203 731 -166L656 -91Q618 -53 618 0T656 91L949 384H245Q193 384 160.5 421.5T128 512V640Q128 693 160.5 730.5T245 768H949L656 1062Q618 1098 618 1152T656 1242L731 1317Q769 1355 821 1355Q874 1355 912 1317L1563 666Q1600 631 1600 576z" />
    <glyph glyph-name="arrow-up"
      unicode="&#xF128;"
      horiz-adv-x="1792" d=" M1675 565Q1675 514 1638 475L1563 400Q1525 362 1472 362Q1418 362 1382 400L1088 693V-11Q1088 -63 1050.5 -95.5T960 -128H832Q779 -128 741.5 -95.5T704 -11V693L410 400Q374 362 320 362T230 400L155 475Q117 513 117 565Q117 618 155 656L806 1307Q841 1344 896 1344Q950 1344 987 1307L1638 656Q1675 617 1675 565z" />
    <glyph glyph-name="arrow-up-1"
      unicode="&#x61;&#x72;&#x72;&#x6F;&#x77;&#x2D;&#x75;&#x70;"
      horiz-adv-x="1792" d=" M1675 565Q1675 514 1638 475L1563 400Q1525 362 1472 362Q1418 362 1382 400L1088 693V-11Q1088 -63 1050.5 -95.5T960 -128H832Q779 -128 741.5 -95.5T704 -11V693L410 400Q374 362 320 362T230 400L155 475Q117 513 117 565Q117 618 155 656L806 1307Q841 1344 896 1344Q950 1344 987 1307L1638 656Q1675 617 1675 565z" />
    <glyph glyph-name="arrows-alt"
      unicode="&#xF129;"
      horiz-adv-x="1792" d=" M1411 995L1056 640L1411 285L1555 429Q1584 460 1625 443Q1664 426 1664 384V-64Q1664 -90 1645 -109T1600 -128H1152Q1110 -128 1093 -88Q1076 -49 1107 -19L1251 125L896 480L541 125L685 -19Q716 -49 699 -88Q682 -128 640 -128H192Q166 -128 147 -109T128 -64V384Q128 426 168 443Q207 460 237 429L381 285L736 640L381 995L237 851Q218 832 192 832Q180 832 168 837Q128 854 128 896V1344Q128 1370 147 1389T192 1408H640Q682 1408 699 1368Q716 1329 685 1299L541 1155L896 800L1251 1155L1107 1299Q1076 1329 1093 1368Q1110 1408 1152 1408H1600Q1626 1408 1645 1389T1664 1344V896Q1664 854 1625 837Q1612 832 1600 832Q1574 832 1555 851z" />
    <glyph glyph-name="arrows-alt-1"
      unicode="&#x61;&#x72;&#x72;&#x6F;&#x77;&#x73;&#x2D;&#x61;&#x6C;&#x74;"
      horiz-adv-x="1792" d=" M1411 995L1056 640L1411 285L1555 429Q1584 460 1625 443Q1664 426 1664 384V-64Q1664 -90 1645 -109T1600 -128H1152Q1110 -128 1093 -88Q1076 -49 1107 -19L1251 125L896 480L541 125L685 -19Q716 -49 699 -88Q682 -128 640 -128H192Q166 -128 147 -109T128 -64V384Q128 426 168 443Q207 460 237 429L381 285L736 640L381 995L237 851Q218 832 192 832Q180 832 168 837Q128 854 128 896V1344Q128 1370 147 1389T192 1408H640Q682 1408 699 1368Q716 1329 685 1299L541 1155L896 800L1251 1155L1107 1299Q1076 1329 1093 1368Q1110 1408 1152 1408H1600Q1626 1408 1645 1389T1664 1344V896Q1664 854 1625 837Q1612 832 1600 832Q1574 832 1555 851z" />
    <glyph glyph-name="arrows-h"
      unicode="&#xF12A;"
      horiz-adv-x="1792" d=" M1792 640Q1792 614 1773 595L1517 339Q1498 320 1472 320T1427 339T1408 384V512H384V384Q384 358 365 339T320 320T275 339L19 595Q0 614 0 640T19 685L275 941Q294 960 320 960T365 941T384 896V768H1408V896Q1408 922 1427 941T1472 960T1517 941L1773 685Q1792 666 1792 640z" />
    <glyph glyph-name="arrows-h-1"
      unicode="&#x61;&#x72;&#x72;&#x6F;&#x77;&#x73;&#x2D;&#x68;"
      horiz-adv-x="1792" d=" M1792 640Q1792 614 1773 595L1517 339Q1498 320 1472 320T1427 339T1408 384V512H384V384Q384 358 365 339T320 320T275 339L19 595Q0 614 0 640T19 685L275 941Q294 960 320 960T365 941T384 896V768H1408V896Q1408 922 1427 941T1472 960T1517 941L1773 685Q1792 666 1792 640z" />
    <glyph glyph-name="arrows-v"
      unicode="&#xF12B;"
      horiz-adv-x="1792" d=" M1216 1216Q1216 1190 1197 1171T1152 1152H1024V128H1152Q1178 128 1197 109T1216 64T1197 19L941 -237Q922 -256 896 -256T851 -237L595 19Q576 38 576 64T595 109T640 128H768V1152H640Q614 1152 595 1171T576 1216T595 1261L851 1517Q870 1536 896 1536T941 1517L1197 1261Q1216 1242 1216 1216z" />
    <glyph glyph-name="arrows-v-1"
      unicode="&#x61;&#x72;&#x72;&#x6F;&#x77;&#x73;&#x2D;&#x76;"
      horiz-adv-x="1792" d=" M1216 1216Q1216 1190 1197 1171T1152 1152H1024V128H1152Q1178 128 1197 109T1216 64T1197 19L941 -237Q922 -256 896 -256T851 -237L595 19Q576 38 576 64T595 109T640 128H768V1152H640Q614 1152 595 1171T576 1216T595 1261L851 1517Q870 1536 896 1536T941 1517L1197 1261Q1216 1242 1216 1216z" />
    <glyph glyph-name="arrows"
      unicode="&#xF12C;"
      horiz-adv-x="1792" d=" M1792 640Q1792 614 1773 595L1517 339Q1498 320 1472 320T1427 339T1408 384V512H1024V128H1152Q1178 128 1197 109T1216 64T1197 19L941 -237Q922 -256 896 -256T851 -237L595 19Q576 38 576 64T595 109T640 128H768V512H384V384Q384 358 365 339T320 320T275 339L19 595Q0 614 0 640T19 685L275 941Q294 960 320 960T365 941T384 896V768H768V1152H640Q614 1152 595 1171T576 1216T595 1261L851 1517Q870 1536 896 1536T941 1517L1197 1261Q1216 1242 1216 1216T1197 1171T1152 1152H1024V768H1408V896Q1408 922 1427 941T1472 960T1517 941L1773 685Q1792 666 1792 640z" />
    <glyph glyph-name="arrows-1"
      unicode="&#x61;&#x72;&#x72;&#x6F;&#x77;&#x73;"
      horiz-adv-x="1792" d=" M1792 640Q1792 614 1773 595L1517 339Q1498 320 1472 320T1427 339T1408 384V512H1024V128H1152Q1178 128 1197 109T1216 64T1197 19L941 -237Q922 -256 896 -256T851 -237L595 19Q576 38 576 64T595 109T640 128H768V512H384V384Q384 358 365 339T320 320T275 339L19 595Q0 614 0 640T19 685L275 941Q294 960 320 960T365 941T384 896V768H768V1152H640Q614 1152 595 1171T576 1216T595 1261L851 1517Q870 1536 896 1536T941 1517L1197 1261Q1216 1242 1216 1216T1197 1171T1152 1152H1024V768H1408V896Q1408 922 1427 941T1472 960T1517 941L1773 685Q1792 666 1792 640z" />
    <glyph glyph-name="asl-interpreting"
      unicode="&#xF12D;"
      horiz-adv-x="2304" d=" M1032 576Q973 578 948 631Q931 665 900 684.5T832 704Q779 704 741.5 666.5T704 576Q704 520 740 487L750 479Q784 448 832 448Q869 448 900 467.5T948 521Q973 574 1032 576zM1600 704Q1600 760 1564 793L1554 801Q1520 832 1472 832Q1435 832 1404 812.5T1356 759Q1331 706 1272 704Q1331 702 1356 649Q1373 615 1404 595.5T1472 576Q1525 576 1562.5 613.5T1600 704zM1174 925Q1157 890 1119 877T1046 881Q984 912 912 912Q861 912 813 895Q816 895 822.5 895.5T832 896Q924 896 1002.5 846T1121 713Q1138 677 1124.5 639.5T1075 585Q1057 576 1036 576Q1057 576 1075 567Q1111 550 1124.5 512.5T1121 439Q1081 356 1002.5 306T832 256H826Q810 258 782 260L492 287L253 167Q239 160 224 160Q184 160 167 195L7 515Q-4 538 3 562.5T32 600L241 719L389 986Q406 1141 480.5 1277.5T676 1514Q707 1539 746.5 1535.5T811 1501T832.5 1431T798 1366Q728 1307 681 1238Q804 1322 948 1339Q988 1344 1019.5 1320T1055 1256Q1060 1216 1036 1184.5T972 1149Q888 1139 813 1094Q859 1104 912 1104Q1027 1104 1130 1054Q1166 1036 1179 998.5T1174 925zM2137 1085L2297 765Q2308 742 2301 717.5T2272 680L2063 561L1915 294Q1898 139 1823.5 2.5T1628 -234Q1602 -256 1567 -256Q1522 -256 1493 -221Q1468 -190 1471.5 -151T1506 -86Q1576 -27 1623 42Q1500 -42 1356 -59Q1352 -60 1344 -60Q1308 -60 1280.5 -36T1249 24Q1244 64 1268 95.5T1332 131Q1416 141 1491 186Q1445 176 1392 176Q1277 176 1174 226Q1138 244 1125 281.5T1130 355Q1147 390 1185 403T1258 399Q1320 368 1392 368Q1443 368 1491 385Q1488 385 1481.5 384.5T1472 384Q1380 384 1301.5 434T1183 567Q1166 603 1179.5 640.5T1229 695Q1247 704 1268 704Q1247 704 1229 713Q1193 730 1179.5 767.5T1183 841Q1223 924 1301.5 974T1472 1024H1479Q1493 1022 1521 1020L1812 993L2051 1113Q2065 1120 2080 1120Q2120 1120 2137 1085z" />
    <glyph glyph-name="asl-interpreting-1"
      unicode="&#x61;&#x73;&#x6C;&#x2D;&#x69;&#x6E;&#x74;&#x65;&#x72;&#x70;&#x72;&#x65;&#x74;&#x69;&#x6E;&#x67;"
      horiz-adv-x="2304" d=" M1032 576Q973 578 948 631Q931 665 900 684.5T832 704Q779 704 741.5 666.5T704 576Q704 520 740 487L750 479Q784 448 832 448Q869 448 900 467.5T948 521Q973 574 1032 576zM1600 704Q1600 760 1564 793L1554 801Q1520 832 1472 832Q1435 832 1404 812.5T1356 759Q1331 706 1272 704Q1331 702 1356 649Q1373 615 1404 595.5T1472 576Q1525 576 1562.5 613.5T1600 704zM1174 925Q1157 890 1119 877T1046 881Q984 912 912 912Q861 912 813 895Q816 895 822.5 895.5T832 896Q924 896 1002.5 846T1121 713Q1138 677 1124.5 639.5T1075 585Q1057 576 1036 576Q1057 576 1075 567Q1111 550 1124.5 512.5T1121 439Q1081 356 1002.5 306T832 256H826Q810 258 782 260L492 287L253 167Q239 160 224 160Q184 160 167 195L7 515Q-4 538 3 562.5T32 600L241 719L389 986Q406 1141 480.5 1277.5T676 1514Q707 1539 746.5 1535.5T811 1501T832.5 1431T798 1366Q728 1307 681 1238Q804 1322 948 1339Q988 1344 1019.5 1320T1055 1256Q1060 1216 1036 1184.5T972 1149Q888 1139 813 1094Q859 1104 912 1104Q1027 1104 1130 1054Q1166 1036 1179 998.5T1174 925zM2137 1085L2297 765Q2308 742 2301 717.5T2272 680L2063 561L1915 294Q1898 139 1823.5 2.5T1628 -234Q1602 -256 1567 -256Q1522 -256 1493 -221Q1468 -190 1471.5 -151T1506 -86Q1576 -27 1623 42Q1500 -42 1356 -59Q1352 -60 1344 -60Q1308 -60 1280.5 -36T1249 24Q1244 64 1268 95.5T1332 131Q1416 141 1491 186Q1445 176 1392 176Q1277 176 1174 226Q1138 244 1125 281.5T1130 355Q1147 390 1185 403T1258 399Q1320 368 1392 368Q1443 368 1491 385Q1488 385 1481.5 384.5T1472 384Q1380 384 1301.5 434T1183 567Q1166 603 1179.5 640.5T1229 695Q1247 704 1268 704Q1247 704 1229 713Q1193 730 1179.5 767.5T1183 841Q1223 924 1301.5 974T1472 1024H1479Q1493 1022 1521 1020L1812 993L2051 1113Q2065 1120 2080 1120Q2120 1120 2137 1085z" />
    <glyph glyph-name="assistive-listening-systems"
      unicode="&#xF12E;"
      horiz-adv-x="1792" d=" M128 -192Q128 -218 109 -237T64 -256T19 -237T0 -192T19 -147T64 -128T109 -147T128 -192zM320 0Q320 -26 301 -45T256 -64T211 -45T192 0T211 45T256 64T301 45T320 0zM365 365L621 109L531 19L275 275zM704 384Q704 358 685 339T640 320T595 339T576 384T595 429T640 448T685 429T704 384zM1411 704Q1411 645 1399.5 595.5T1362 502T1318 434.5T1265 370Q1234 335 1219.5 316T1186 266T1159.5 202T1152 128Q1152 -31 1039.5 -143.5T768 -256Q742 -256 723 -237T704 -192T723 -147T768 -128Q874 -128 949 -53T1024 128Q1024 185 1035.5 233.5T1072.5 324.5T1116 391T1168 454Q1208 500 1227.5 526T1265 600.5T1283 704Q1283 889 1151.5 1020.5T835 1152T518.5 1020.5T387 704Q387 678 368 659T323 640T278 659T259 704Q259 821 304.5 927.5T427.5 1111.5T611.5 1234.5T835 1280T1058.5 1234.5T1242.5 1111.5T1365.5 927.5T1411 704zM896 576Q896 550 877 531T832 512T787 531T768 576T787 621T832 640T877 621T896 576zM1184 704Q1184 678 1165 659T1120 640T1075 659T1056 704Q1056 797 990.5 862.5T832 928Q740 928 674 862.5T608 704Q608 678 589 659T544 640T499 659T480 704Q480 850 583 953T832 1056T1081 953T1184 704zM1578 993Q1588 968 1577 944T1541 910Q1532 906 1518 906Q1499 906 1482.5 917T1459 947Q1391 1125 1235 1242Q1214 1258 1210 1284T1222 1331Q1239 1352 1265 1356T1312 1344Q1495 1207 1578 993zM1788 1074Q1797 1049 1786.5 1025T1751 991Q1740 987 1728 987Q1684 987 1668 1028Q1576 1266 1371 1421Q1349 1437 1345.5 1463T1358 1510Q1374 1532 1400 1535.5T1447 1523Q1682 1348 1788 1074z" />
    <glyph glyph-name="assistive-listening-systems-1"
      unicode="&#x61;&#x73;&#x73;&#x69;&#x73;&#x74;&#x69;&#x76;&#x65;&#x2D;&#x6C;&#x69;&#x73;&#x74;&#x65;&#x6E;&#x69;&#x6E;&#x67;&#x2D;&#x73;&#x79;&#x73;&#x74;&#x65;&#x6D;&#x73;"
      horiz-adv-x="1792" d=" M128 -192Q128 -218 109 -237T64 -256T19 -237T0 -192T19 -147T64 -128T109 -147T128 -192zM320 0Q320 -26 301 -45T256 -64T211 -45T192 0T211 45T256 64T301 45T320 0zM365 365L621 109L531 19L275 275zM704 384Q704 358 685 339T640 320T595 339T576 384T595 429T640 448T685 429T704 384zM1411 704Q1411 645 1399.5 595.5T1362 502T1318 434.5T1265 370Q1234 335 1219.5 316T1186 266T1159.5 202T1152 128Q1152 -31 1039.5 -143.5T768 -256Q742 -256 723 -237T704 -192T723 -147T768 -128Q874 -128 949 -53T1024 128Q1024 185 1035.5 233.5T1072.5 324.5T1116 391T1168 454Q1208 500 1227.5 526T1265 600.5T1283 704Q1283 889 1151.5 1020.5T835 1152T518.5 1020.5T387 704Q387 678 368 659T323 640T278 659T259 704Q259 821 304.5 927.5T427.5 1111.5T611.5 1234.5T835 1280T1058.5 1234.5T1242.5 1111.5T1365.5 927.5T1411 704zM896 576Q896 550 877 531T832 512T787 531T768 576T787 621T832 640T877 621T896 576zM1184 704Q1184 678 1165 659T1120 640T1075 659T1056 704Q1056 797 990.5 862.5T832 928Q740 928 674 862.5T608 704Q608 678 589 659T544 640T499 659T480 704Q480 850 583 953T832 1056T1081 953T1184 704zM1578 993Q1588 968 1577 944T1541 910Q1532 906 1518 906Q1499 906 1482.5 917T1459 947Q1391 1125 1235 1242Q1214 1258 1210 1284T1222 1331Q1239 1352 1265 1356T1312 1344Q1495 1207 1578 993zM1788 1074Q1797 1049 1786.5 1025T1751 991Q1740 987 1728 987Q1684 987 1668 1028Q1576 1266 1371 1421Q1349 1437 1345.5 1463T1358 1510Q1374 1532 1400 1535.5T1447 1523Q1682 1348 1788 1074z" />
    <glyph glyph-name="asterisk"
      unicode="&#xF12F;"
      horiz-adv-x="1792" d=" M1546 486Q1592 460 1605.5 408.5T1593 311L1529 201Q1503 155 1451.5 141.5T1354 154L1088 307V0Q1088 -52 1050 -90T960 -128H832Q780 -128 742 -90T704 0V307L438 154Q392 128 340.5 141.5T263 201L199 311Q173 357 186.5 408.5T246 486L512 640L246 794Q200 820 186.5 871.5T199 969L263 1079Q289 1125 340.5 1138.5T438 1126L704 973V1280Q704 1332 742 1370T832 1408H960Q1012 1408 1050 1370T1088 1280V973L1354 1126Q1400 1152 1451.5 1138.5T1529 1079L1593 969Q1619 923 1605.5 871.5T1546 794L1280 640z" />
    <glyph glyph-name="asterisk-1"
      unicode="&#x61;&#x73;&#x74;&#x65;&#x72;&#x69;&#x73;&#x6B;"
      horiz-adv-x="1792" d=" M1546 486Q1592 460 1605.5 408.5T1593 311L1529 201Q1503 155 1451.5 141.5T1354 154L1088 307V0Q1088 -52 1050 -90T960 -128H832Q780 -128 742 -90T704 0V307L438 154Q392 128 340.5 141.5T263 201L199 311Q173 357 186.5 408.5T246 486L512 640L246 794Q200 820 186.5 871.5T199 969L263 1079Q289 1125 340.5 1138.5T438 1126L704 973V1280Q704 1332 742 1370T832 1408H960Q1012 1408 1050 1370T1088 1280V973L1354 1126Q1400 1152 1451.5 1138.5T1529 1079L1593 969Q1619 923 1605.5 871.5T1546 794L1280 640z" />
    <glyph glyph-name="at"
      unicode="&#xF130;"
      horiz-adv-x="1792" d=" M1100 761Q1100 869 1046.5 930T899 991Q836 991 775 960.5T665 876T585.5 739T555 559Q555 447 608.5 386T759 325Q855 325 935 391.5T1057.5 557.5T1100 761zM1664 640Q1664 529 1627 443T1528.5 308T1397 233.5T1252 206Q1246 206 1236.5 205.5T1220 205Q1125 205 1078 258Q1050 291 1045 341Q993 275 913.5 231T740 187Q579 187 490.5 282.5T402 552Q402 709 468 842T647 1052.5T893 1130Q980 1130 1048 1094.5T1154 995L1156 1014L1167 1070Q1168 1076 1172.5 1082T1182 1088H1300Q1305 1088 1313 1077Q1318 1072 1316 1061L1196 447Q1191 423 1191 399Q1191 360 1203.5 347T1248 334Q1276 335 1305 339.5T1378 363.5T1455 413.5T1512 503T1536 640Q1536 932 1362 1106T896 1280Q766 1280 647.5 1229T443.5 1092.5T307 888.5T256 640T307 391.5T443.5 187.5T647.5 51T896 0Q1124 0 1301 144Q1312 153 1325 152T1346 140L1387 91Q1395 79 1394 67Q1392 54 1382 45Q1280 -38 1154.5 -83T896 -128Q740 -128 598 -67T353 97T189 342T128 640T189 938T353 1183T598 1347T896 1408Q1240 1408 1452 1196T1664 640z" />
    <glyph glyph-name="at-1"
      unicode="&#x61;&#x74;"
      horiz-adv-x="1792" d=" M1100 761Q1100 869 1046.5 930T899 991Q836 991 775 960.5T665 876T585.5 739T555 559Q555 447 608.5 386T759 325Q855 325 935 391.5T1057.5 557.5T1100 761zM1664 640Q1664 529 1627 443T1528.5 308T1397 233.5T1252 206Q1246 206 1236.5 205.5T1220 205Q1125 205 1078 258Q1050 291 1045 341Q993 275 913.5 231T740 187Q579 187 490.5 282.5T402 552Q402 709 468 842T647 1052.5T893 1130Q980 1130 1048 1094.5T1154 995L1156 1014L1167 1070Q1168 1076 1172.5 1082T1182 1088H1300Q1305 1088 1313 1077Q1318 1072 1316 1061L1196 447Q1191 423 1191 399Q1191 360 1203.5 347T1248 334Q1276 335 1305 339.5T1378 363.5T1455 413.5T1512 503T1536 640Q1536 932 1362 1106T896 1280Q766 1280 647.5 1229T443.5 1092.5T307 888.5T256 640T307 391.5T443.5 187.5T647.5 51T896 0Q1124 0 1301 144Q1312 153 1325 152T1346 140L1387 91Q1395 79 1394 67Q1392 54 1382 45Q1280 -38 1154.5 -83T896 -128Q740 -128 598 -67T353 97T189 342T128 640T189 938T353 1183T598 1347T896 1408Q1240 1408 1452 1196T1664 640z" />
    <glyph glyph-name="audio-description"
      unicode="&#xF131;"
      horiz-adv-x="2304" d=" M504 542H675L674 807zM1530 641Q1530 728 1479.5 781T1333 834H1279V446H1331Q1422 446 1476 503T1530 641zM956 1018L957 262Q957 248 947.5 238T924 228H708Q694 228 684.5 238T675 262V324H384L329 243Q319 228 301 228H34Q13 228 3.5 246T7 281L563 1038Q572 1052 590 1052H922Q936 1052 946 1042T956 1018zM1783 641Q1783 448 1657.5 338T1333 228H1063Q1049 228 1039 238T1029 262V1018Q1029 1032 1039 1042T1063 1052H1331Q1531 1052 1657 943T1783 641zM1939 640Q1939 629 1938.5 611T1930.5 539.5T1909 437.5T1864.5 329.5T1791 227H1740Q1778 272 1806.5 331.5T1848 443.5T1869 541.5T1878 614L1879 641Q1879 649 1878.5 663.5T1871 723.5T1851 815T1810 926.5T1744 1051H1787Q1828 1004 1859 944T1904.5 832.5T1927.5 736.5T1938 666zM2123 640Q2123 629 2122.5 611T2114.5 539.5T2093 437.5T2048 329.5T1974 227H1923Q1961 272 1989.5 331.5T2031 443.5T2052 541.5T2061 614L2062 641Q2062 649 2061.5 663.5T2054 723.5T2034.5 815T1994 926.5T1928 1051H1971Q2012 1004 2043 944T2088.5 832.5T2111.5 736.5T2122 666zM2304 640Q2304 629 2303.5 611T2295.5 539.5T2274 437.5T2229.5 329.5T2156 227H2105Q2143 272 2171 331.5T2212 443.5T2233 541.5T2242 614L2243 641Q2243 649 2242.5 663.5T2235 723.5T2215.5 815T2175 926.5T2109 1051H2152Q2193 1004 2224 944T2269.5 832.5T2292.5 736.5T2302 666z" />
    <glyph glyph-name="audio-description-1"
      unicode="&#x61;&#x75;&#x64;&#x69;&#x6F;&#x2D;&#x64;&#x65;&#x73;&#x63;&#x72;&#x69;&#x70;&#x74;&#x69;&#x6F;&#x6E;"
      horiz-adv-x="2304" d=" M504 542H675L674 807zM1530 641Q1530 728 1479.5 781T1333 834H1279V446H1331Q1422 446 1476 503T1530 641zM956 1018L957 262Q957 248 947.5 238T924 228H708Q694 228 684.5 238T675 262V324H384L329 243Q319 228 301 228H34Q13 228 3.5 246T7 281L563 1038Q572 1052 590 1052H922Q936 1052 946 1042T956 1018zM1783 641Q1783 448 1657.5 338T1333 228H1063Q1049 228 1039 238T1029 262V1018Q1029 1032 1039 1042T1063 1052H1331Q1531 1052 1657 943T1783 641zM1939 640Q1939 629 1938.5 611T1930.5 539.5T1909 437.5T1864.5 329.5T1791 227H1740Q1778 272 1806.5 331.5T1848 443.5T1869 541.5T1878 614L1879 641Q1879 649 1878.5 663.5T1871 723.5T1851 815T1810 926.5T1744 1051H1787Q1828 1004 1859 944T1904.5 832.5T1927.5 736.5T1938 666zM2123 640Q2123 629 2122.5 611T2114.5 539.5T2093 437.5T2048 329.5T1974 227H1923Q1961 272 1989.5 331.5T2031 443.5T2052 541.5T2061 614L2062 641Q2062 649 2061.5 663.5T2054 723.5T2034.5 815T1994 926.5T1928 1051H1971Q2012 1004 2043 944T2088.5 832.5T2111.5 736.5T2122 666zM2304 640Q2304 629 2303.5 611T2295.5 539.5T2274 437.5T2229.5 329.5T2156 227H2105Q2143 272 2171 331.5T2212 443.5T2233 541.5T2242 614L2243 641Q2243 649 2242.5 663.5T2235 723.5T2215.5 815T2175 926.5T2109 1051H2152Q2193 1004 2224 944T2269.5 832.5T2292.5 736.5T2302 666z" />
    <glyph glyph-name="automobile"
      unicode="&#xF132;"
      horiz-adv-x="2048" d=" M480 448Q480 514 433 561T320 608T207 561T160 448T207 335T320 288T433 335T480 448zM516 768H1532L1443 1125Q1441 1133 1429 1142.5T1408 1152H640Q631 1152 619 1142.5T605 1125zM1888 448Q1888 514 1841 561T1728 608T1615 561T1568 448T1615 335T1728 288T1841 335T1888 448zM2048 544V160Q2048 146 2039 137T2016 128H1920V0Q1920 -80 1864 -136T1728 -192T1592 -136T1536 0V128H512V0Q512 -80 456 -136T320 -192T184 -136T128 0V128H32Q18 128 9 137T0 160V544Q0 637 65.5 702.5T224 768H252L357 1187Q380 1281 461 1344.5T640 1408H1408Q1506 1408 1587 1344.5T1691 1187L1796 768H1824Q1917 768 1982.5 702.5T2048 544z" />
    <glyph glyph-name="automobile-1"
      unicode="&#x61;&#x75;&#x74;&#x6F;&#x6D;&#x6F;&#x62;&#x69;&#x6C;&#x65;"
      horiz-adv-x="2048" d=" M480 448Q480 514 433 561T320 608T207 561T160 448T207 335T320 288T433 335T480 448zM516 768H1532L1443 1125Q1441 1133 1429 1142.5T1408 1152H640Q631 1152 619 1142.5T605 1125zM1888 448Q1888 514 1841 561T1728 608T1615 561T1568 448T1615 335T1728 288T1841 335T1888 448zM2048 544V160Q2048 146 2039 137T2016 128H1920V0Q1920 -80 1864 -136T1728 -192T1592 -136T1536 0V128H512V0Q512 -80 456 -136T320 -192T184 -136T128 0V128H32Q18 128 9 137T0 160V544Q0 637 65.5 702.5T224 768H252L357 1187Q380 1281 461 1344.5T640 1408H1408Q1506 1408 1587 1344.5T1691 1187L1796 768H1824Q1917 768 1982.5 702.5T2048 544z" />
    <glyph glyph-name="backward"
      unicode="&#xF133;"
      horiz-adv-x="1792" d=" M1683 1395Q1702 1414 1715 1408T1728 1376V-96Q1728 -122 1715 -128T1683 -115L973 595Q964 604 960 614V-96Q960 -122 947 -128T915 -115L205 595Q186 614 186 640T205 685L915 1395Q934 1414 947 1408T960 1376V666Q964 676 973 685z" />
    <glyph glyph-name="backward-1"
      unicode="&#x62;&#x61;&#x63;&#x6B;&#x77;&#x61;&#x72;&#x64;"
      horiz-adv-x="1792" d=" M1683 1395Q1702 1414 1715 1408T1728 1376V-96Q1728 -122 1715 -128T1683 -115L973 595Q964 604 960 614V-96Q960 -122 947 -128T915 -115L205 595Q186 614 186 640T205 685L915 1395Q934 1414 947 1408T960 1376V666Q964 676 973 685z" />
    <glyph glyph-name="balance-scale"
      unicode="&#xF134;"
      horiz-adv-x="2304" d=" M1728 1088L1344 384H2112zM448 1088L64 384H832zM1269 1280Q1255 1240 1223.5 1208.5T1152 1163V-128H1760Q1774 -128 1783 -137T1792 -160V-224Q1792 -238 1783 -247T1760 -256H416Q402 -256 393 -247T384 -224V-160Q384 -146 393 -137T416 -128H1024V1163Q984 1177 952.5 1208.5T907 1280H416Q402 1280 393 1289T384 1312V1376Q384 1390 393 1399T416 1408H907Q928 1465 977 1500.5T1088 1536T1199 1500.5T1269 1408H1760Q1774 1408 1783 1399T1792 1376V1312Q1792 1298 1783 1289T1760 1280H1269zM1088 1264Q1121 1264 1144.5 1287.5T1168 1344T1144.5 1400.5T1088 1424T1031.5 1400.5T1008 1344T1031.5 1287.5T1088 1264zM2176 384Q2176 311 2129.5 253T2012 162T1867.5 112.5T1728 96T1588.5 112.5T1444 162T1326.5 253T1280 384Q1280 395 1315 465T1407 639.5T1514 835T1616 1019T1672 1119Q1690 1152 1728 1152T1784 1119Q1788 1112 1840 1019T1942 835T2049 639.5T2141 465T2176 384zM896 384Q896 311 849.5 253T732 162T587.5 112.5T448 96T308.5 112.5T164 162T46.5 253T0 384Q0 395 35 465T127 639.5T234 835T336 1019T392 1119Q410 1152 448 1152T504 1119Q508 1112 560 1019T662 835T769 639.5T861 465T896 384z" />
    <glyph glyph-name="balance-scale-1"
      unicode="&#x62;&#x61;&#x6C;&#x61;&#x6E;&#x63;&#x65;&#x2D;&#x73;&#x63;&#x61;&#x6C;&#x65;"
      horiz-adv-x="2304" d=" M1728 1088L1344 384H2112zM448 1088L64 384H832zM1269 1280Q1255 1240 1223.5 1208.5T1152 1163V-128H1760Q1774 -128 1783 -137T1792 -160V-224Q1792 -238 1783 -247T1760 -256H416Q402 -256 393 -247T384 -224V-160Q384 -146 393 -137T416 -128H1024V1163Q984 1177 952.5 1208.5T907 1280H416Q402 1280 393 1289T384 1312V1376Q384 1390 393 1399T416 1408H907Q928 1465 977 1500.5T1088 1536T1199 1500.5T1269 1408H1760Q1774 1408 1783 1399T1792 1376V1312Q1792 1298 1783 1289T1760 1280H1269zM1088 1264Q1121 1264 1144.5 1287.5T1168 1344T1144.5 1400.5T1088 1424T1031.5 1400.5T1008 1344T1031.5 1287.5T1088 1264zM2176 384Q2176 311 2129.5 253T2012 162T1867.5 112.5T1728 96T1588.5 112.5T1444 162T1326.5 253T1280 384Q1280 395 1315 465T1407 639.5T1514 835T1616 1019T1672 1119Q1690 1152 1728 1152T1784 1119Q1788 1112 1840 1019T1942 835T2049 639.5T2141 465T2176 384zM896 384Q896 311 849.5 253T732 162T587.5 112.5T448 96T308.5 112.5T164 162T46.5 253T0 384Q0 395 35 465T127 639.5T234 835T336 1019T392 1119Q410 1152 448 1152T504 1119Q508 1112 560 1019T662 835T769 639.5T861 465T896 384z" />
    <glyph glyph-name="ban"
      unicode="&#xF135;"
      horiz-adv-x="1792" d=" M1440 643Q1440 804 1353 938L599 185Q736 96 896 96Q1007 96 1107.5 139.5T1281 256T1397 430.5T1440 643zM441 344L1196 1098Q1061 1189 896 1189Q748 1189 623 1116T425 917T352 643Q352 481 441 344zM1664 643Q1664 486 1603 343T1439.5 97T1194.5 -67T896 -128T597.5 -67T352.5 97T189 343T128 643T189 942.5T352.5 1188T597.5 1352T896 1413T1194.5 1352T1439.5 1188T1603 942.5T1664 643z" />
    <glyph glyph-name="ban-1"
      unicode="&#x62;&#x61;&#x6E;"
      horiz-adv-x="1792" d=" M1440 643Q1440 804 1353 938L599 185Q736 96 896 96Q1007 96 1107.5 139.5T1281 256T1397 430.5T1440 643zM441 344L1196 1098Q1061 1189 896 1189Q748 1189 623 1116T425 917T352 643Q352 481 441 344zM1664 643Q1664 486 1603 343T1439.5 97T1194.5 -67T896 -128T597.5 -67T352.5 97T189 343T128 643T189 942.5T352.5 1188T597.5 1352T896 1413T1194.5 1352T1439.5 1188T1603 942.5T1664 643z" />
    <glyph glyph-name="bandcamp"
      unicode="&#xF136;"
      horiz-adv-x="1792" d=" M1070 358L1376 922H722L416 358H1070zM1792 640Q1792 458 1721 292T1530 6T1244 -185T896 -256T548 -185T262 6T71 292T0 640T71 988T262 1274T548 1465T896 1536T1244 1465T1530 1274T1721 988T1792 640z" />
    <glyph glyph-name="bandcamp-1"
      unicode="&#x62;&#x61;&#x6E;&#x64;&#x63;&#x61;&#x6D;&#x70;"
      horiz-adv-x="1792" d=" M1070 358L1376 922H722L416 358H1070zM1792 640Q1792 458 1721 292T1530 6T1244 -185T896 -256T548 -185T262 6T71 292T0 640T71 988T262 1274T548 1465T896 1536T1244 1465T1530 1274T1721 988T1792 640z" />
    <glyph glyph-name="bank"
      unicode="&#xF137;"
      horiz-adv-x="2048" d=" M960 1536L1920 1152V1024H1792Q1792 998 1771.5 979T1723 960H197Q169 960 148.5 979T128 1024H0V1152zM256 896H512V128H640V896H896V128H1024V896H1280V128H1408V896H1664V128H1723Q1751 128 1771.5 109T1792 64V0H128V64Q128 90 148.5 109T197 128H256V896zM1851 -64Q1879 -64 1899.5 -83T1920 -128V-256H0V-128Q0 -102 20.5 -83T69 -64H1851z" />
    <glyph glyph-name="bank-1"
      unicode="&#x62;&#x61;&#x6E;&#x6B;"
      horiz-adv-x="2048" d=" M960 1536L1920 1152V1024H1792Q1792 998 1771.5 979T1723 960H197Q169 960 148.5 979T128 1024H0V1152zM256 896H512V128H640V896H896V128H1024V896H1280V128H1408V896H1664V128H1723Q1751 128 1771.5 109T1792 64V0H128V64Q128 90 148.5 109T197 128H256V896zM1851 -64Q1879 -64 1899.5 -83T1920 -128V-256H0V-128Q0 -102 20.5 -83T69 -64H1851z" />
    <glyph glyph-name="bar-chart-o"
      unicode="&#xF138;"
      horiz-adv-x="2048" d=" M640 640V128H384V640H640zM1024 1152V128H768V1152H1024zM2048 0V-128H0V1408H128V0H2048zM1408 896V128H1152V896H1408zM1792 1280V128H1536V1280H1792z" />
    <glyph glyph-name="bar-chart-o-1"
      unicode="&#x62;&#x61;&#x72;&#x2D;&#x63;&#x68;&#x61;&#x72;&#x74;&#x2D;&#x6F;"
      horiz-adv-x="2048" d=" M640 640V128H384V640H640zM1024 1152V128H768V1152H1024zM2048 0V-128H0V1408H128V0H2048zM1408 896V128H1152V896H1408zM1792 1280V128H1536V1280H1792z" />
    <glyph glyph-name="bar-chart"
      unicode="&#xF139;"
      horiz-adv-x="2048" d=" M640 640V128H384V640H640zM1024 1152V128H768V1152H1024zM2048 0V-128H0V1408H128V0H2048zM1408 896V128H1152V896H1408zM1792 1280V128H1536V1280H1792z" />
    <glyph glyph-name="bar-chart-1"
      unicode="&#x62;&#x61;&#x72;&#x2D;&#x63;&#x68;&#x61;&#x72;&#x74;"
      horiz-adv-x="2048" d=" M640 640V128H384V640H640zM1024 1152V128H768V1152H1024zM2048 0V-128H0V1408H128V0H2048zM1408 896V128H1152V896H1408zM1792 1280V128H1536V1280H1792z" />
    <glyph glyph-name="barcode"
      unicode="&#xF13A;"
      horiz-adv-x="1792" d=" M63 0H0V1408H63V0zM126 1H94V1408H126V1zM220 1H189V1408H220V1zM377 1H346V1408H377V1zM534 1H472V1408H534V1zM660 1H629V1408H660V1zM723 1H692V1408H723V1zM786 1H755V1408H786V1zM943 1H880V1408H943V1zM1100 1H1037V1408H1100V1zM1226 1H1163V1408H1226V1zM1352 1H1289V1408H1352V1zM1446 1H1383V1408H1446V1zM1635 1H1541V1408H1635V1zM1698 1H1666V1408H1698V1zM1792 0H1729V1408H1792V0z" />
    <glyph glyph-name="barcode-1"
      unicode="&#x62;&#x61;&#x72;&#x63;&#x6F;&#x64;&#x65;"
      horiz-adv-x="1792" d=" M63 0H0V1408H63V0zM126 1H94V1408H126V1zM220 1H189V1408H220V1zM377 1H346V1408H377V1zM534 1H472V1408H534V1zM660 1H629V1408H660V1zM723 1H692V1408H723V1zM786 1H755V1408H786V1zM943 1H880V1408H943V1zM1100 1H1037V1408H1100V1zM1226 1H1163V1408H1226V1zM1352 1H1289V1408H1352V1zM1446 1H1383V1408H1446V1zM1635 1H1541V1408H1635V1zM1698 1H1666V1408H1698V1zM1792 0H1729V1408H1792V0z" />
    <glyph glyph-name="bars"
      unicode="&#xF13B;"
      horiz-adv-x="1792" d=" M1664 192V64Q1664 38 1645 19T1600 0H192Q166 0 147 19T128 64V192Q128 218 147 237T192 256H1600Q1626 256 1645 237T1664 192zM1664 704V576Q1664 550 1645 531T1600 512H192Q166 512 147 531T128 576V704Q128 730 147 749T192 768H1600Q1626 768 1645 749T1664 704zM1664 1216V1088Q1664 1062 1645 1043T1600 1024H192Q166 1024 147 1043T128 1088V1216Q128 1242 147 1261T192 1280H1600Q1626 1280 1645 1261T1664 1216z" />
    <glyph glyph-name="bars-1"
      unicode="&#x62;&#x61;&#x72;&#x73;"
      horiz-adv-x="1792" d=" M1664 192V64Q1664 38 1645 19T1600 0H192Q166 0 147 19T128 64V192Q128 218 147 237T192 256H1600Q1626 256 1645 237T1664 192zM1664 704V576Q1664 550 1645 531T1600 512H192Q166 512 147 531T128 576V704Q128 730 147 749T192 768H1600Q1626 768 1645 749T1664 704zM1664 1216V1088Q1664 1062 1645 1043T1600 1024H192Q166 1024 147 1043T128 1088V1216Q128 1242 147 1261T192 1280H1600Q1626 1280 1645 1261T1664 1216z" />
    <glyph glyph-name="bath"
      unicode="&#xF13C;"
      horiz-adv-x="1792" d=" M1664 448V256Q1664 87 1536 -30V-224Q1536 -238 1527 -247T1504 -256H1440Q1426 -256 1417 -247T1408 -224V-106Q1345 -128 1280 -128H512Q447 -128 384 -106V-216Q384 -233 374.5 -244.5T352 -256H288Q275 -256 265.5 -244.5T256 -216V-30Q128 87 128 256V448H1664zM704 864Q704 850 695 841T672 832T649 841T640 864T649 887T672 896T695 887T704 864zM768 928Q768 914 759 905T736 896T713 905T704 928T713 951T736 960T759 951T768 928zM704 992Q704 978 695 969T672 960T649 969T640 992T649 1015T672 1024T695 1015T704 992zM832 992Q832 978 823 969T800 960T777 969T768 992T777 1015T800 1024T823 1015T832 992zM768 1056Q768 1042 759 1033T736 1024T713 1033T704 1056T713 1079T736 1088T759 1079T768 1056zM704 1120Q704 1106 695 1097T672 1088T649 1097T640 1120T649 1143T672 1152T695 1143T704 1120zM1792 608V544Q1792 530 1783 521T1760 512H32Q18 512 9 521T0 544V608Q0 622 9 631T32 640H128V1280Q128 1386 203 1461T384 1536Q492 1536 568 1458Q614 1477 666 1470T759 1431L781 1453Q792 1464 803 1453L845 1411Q856 1400 845 1389L531 1075Q520 1064 509 1075L467 1117Q456 1128 467 1139L489 1161Q453 1207 448.5 1265T472 1373Q435 1408 384 1408Q331 1408 293.5 1370.5T256 1280V640H1760Q1774 640 1783 631T1792 608zM896 1056Q896 1042 887 1033T864 1024T841 1033T832 1056T841 1079T864 1088T887 1079T896 1056zM832 1120Q832 1106 823 1097T800 1088T777 1097T768 1120T777 1143T800 1152T823 1143T832 1120zM768 1184Q768 1170 759 1161T736 1152T713 1161T704 1184T713 1207T736 1216T759 1207T768 1184zM960 1120Q960 1106 951 1097T928 1088T905 1097T896 1120T905 1143T928 1152T951 1143T960 1120zM896 1184Q896 1170 887 1161T864 1152T841 1161T832 1184T841 1207T864 1216T887 1207T896 1184zM832 1248Q832 1234 823 1225T800 1216T777 1225T768 1248T777 1271T800 1280T823 1271T832 1248zM1024 1184Q1024 1170 1015 1161T992 1152T969 1161T960 1184T969 1207T992 1216T1015 1207T1024 1184zM960 1248Q960 1234 951 1225T928 1216T905 1225T896 1248T905 1271T928 1280T951 1271T960 1248zM1088 1248Q1088 1234 1079 1225T1056 1216T1033 1225T1024 1248T1033 1271T1056 1280T1079 1271T1088 1248z" />
    <glyph glyph-name="bath-1"
      unicode="&#x62;&#x61;&#x74;&#x68;"
      horiz-adv-x="1792" d=" M1664 448V256Q1664 87 1536 -30V-224Q1536 -238 1527 -247T1504 -256H1440Q1426 -256 1417 -247T1408 -224V-106Q1345 -128 1280 -128H512Q447 -128 384 -106V-216Q384 -233 374.5 -244.5T352 -256H288Q275 -256 265.5 -244.5T256 -216V-30Q128 87 128 256V448H1664zM704 864Q704 850 695 841T672 832T649 841T640 864T649 887T672 896T695 887T704 864zM768 928Q768 914 759 905T736 896T713 905T704 928T713 951T736 960T759 951T768 928zM704 992Q704 978 695 969T672 960T649 969T640 992T649 1015T672 1024T695 1015T704 992zM832 992Q832 978 823 969T800 960T777 969T768 992T777 1015T800 1024T823 1015T832 992zM768 1056Q768 1042 759 1033T736 1024T713 1033T704 1056T713 1079T736 1088T759 1079T768 1056zM704 1120Q704 1106 695 1097T672 1088T649 1097T640 1120T649 1143T672 1152T695 1143T704 1120zM1792 608V544Q1792 530 1783 521T1760 512H32Q18 512 9 521T0 544V608Q0 622 9 631T32 640H128V1280Q128 1386 203 1461T384 1536Q492 1536 568 1458Q614 1477 666 1470T759 1431L781 1453Q792 1464 803 1453L845 1411Q856 1400 845 1389L531 1075Q520 1064 509 1075L467 1117Q456 1128 467 1139L489 1161Q453 1207 448.5 1265T472 1373Q435 1408 384 1408Q331 1408 293.5 1370.5T256 1280V640H1760Q1774 640 1783 631T1792 608zM896 1056Q896 1042 887 1033T864 1024T841 1033T832 1056T841 1079T864 1088T887 1079T896 1056zM832 1120Q832 1106 823 1097T800 1088T777 1097T768 1120T777 1143T800 1152T823 1143T832 1120zM768 1184Q768 1170 759 1161T736 1152T713 1161T704 1184T713 1207T736 1216T759 1207T768 1184zM960 1120Q960 1106 951 1097T928 1088T905 1097T896 1120T905 1143T928 1152T951 1143T960 1120zM896 1184Q896 1170 887 1161T864 1152T841 1161T832 1184T841 1207T864 1216T887 1207T896 1184zM832 1248Q832 1234 823 1225T800 1216T777 1225T768 1248T777 1271T800 1280T823 1271T832 1248zM1024 1184Q1024 1170 1015 1161T992 1152T969 1161T960 1184T969 1207T992 1216T1015 1207T1024 1184zM960 1248Q960 1234 951 1225T928 1216T905 1225T896 1248T905 1271T928 1280T951 1271T960 1248zM1088 1248Q1088 1234 1079 1225T1056 1216T1033 1225T1024 1248T1033 1271T1056 1280T1079 1271T1088 1248z" />
    <glyph glyph-name="bathtub"
      unicode="&#xF13D;"
      horiz-adv-x="1792" d=" M1664 448V256Q1664 87 1536 -30V-224Q1536 -238 1527 -247T1504 -256H1440Q1426 -256 1417 -247T1408 -224V-106Q1345 -128 1280 -128H512Q447 -128 384 -106V-216Q384 -233 374.5 -244.5T352 -256H288Q275 -256 265.5 -244.5T256 -216V-30Q128 87 128 256V448H1664zM704 864Q704 850 695 841T672 832T649 841T640 864T649 887T672 896T695 887T704 864zM768 928Q768 914 759 905T736 896T713 905T704 928T713 951T736 960T759 951T768 928zM704 992Q704 978 695 969T672 960T649 969T640 992T649 1015T672 1024T695 1015T704 992zM832 992Q832 978 823 969T800 960T777 969T768 992T777 1015T800 1024T823 1015T832 992zM768 1056Q768 1042 759 1033T736 1024T713 1033T704 1056T713 1079T736 1088T759 1079T768 1056zM704 1120Q704 1106 695 1097T672 1088T649 1097T640 1120T649 1143T672 1152T695 1143T704 1120zM1792 608V544Q1792 530 1783 521T1760 512H32Q18 512 9 521T0 544V608Q0 622 9 631T32 640H128V1280Q128 1386 203 1461T384 1536Q492 1536 568 1458Q614 1477 666 1470T759 1431L781 1453Q792 1464 803 1453L845 1411Q856 1400 845 1389L531 1075Q520 1064 509 1075L467 1117Q456 1128 467 1139L489 1161Q453 1207 448.5 1265T472 1373Q435 1408 384 1408Q331 1408 293.5 1370.5T256 1280V640H1760Q1774 640 1783 631T1792 608zM896 1056Q896 1042 887 1033T864 1024T841 1033T832 1056T841 1079T864 1088T887 1079T896 1056zM832 1120Q832 1106 823 1097T800 1088T777 1097T768 1120T777 1143T800 1152T823 1143T832 1120zM768 1184Q768 1170 759 1161T736 1152T713 1161T704 1184T713 1207T736 1216T759 1207T768 1184zM960 1120Q960 1106 951 1097T928 1088T905 1097T896 1120T905 1143T928 1152T951 1143T960 1120zM896 1184Q896 1170 887 1161T864 1152T841 1161T832 1184T841 1207T864 1216T887 1207T896 1184zM832 1248Q832 1234 823 1225T800 1216T777 1225T768 1248T777 1271T800 1280T823 1271T832 1248zM1024 1184Q1024 1170 1015 1161T992 1152T969 1161T960 1184T969 1207T992 1216T1015 1207T1024 1184zM960 1248Q960 1234 951 1225T928 1216T905 1225T896 1248T905 1271T928 1280T951 1271T960 1248zM1088 1248Q1088 1234 1079 1225T1056 1216T1033 1225T1024 1248T1033 1271T1056 1280T1079 1271T1088 1248z" />
    <glyph glyph-name="bathtub-1"
      unicode="&#x62;&#x61;&#x74;&#x68;&#x74;&#x75;&#x62;"
      horiz-adv-x="1792" d=" M1664 448V256Q1664 87 1536 -30V-224Q1536 -238 1527 -247T1504 -256H1440Q1426 -256 1417 -247T1408 -224V-106Q1345 -128 1280 -128H512Q447 -128 384 -106V-216Q384 -233 374.5 -244.5T352 -256H288Q275 -256 265.5 -244.5T256 -216V-30Q128 87 128 256V448H1664zM704 864Q704 850 695 841T672 832T649 841T640 864T649 887T672 896T695 887T704 864zM768 928Q768 914 759 905T736 896T713 905T704 928T713 951T736 960T759 951T768 928zM704 992Q704 978 695 969T672 960T649 969T640 992T649 1015T672 1024T695 1015T704 992zM832 992Q832 978 823 969T800 960T777 969T768 992T777 1015T800 1024T823 1015T832 992zM768 1056Q768 1042 759 1033T736 1024T713 1033T704 1056T713 1079T736 1088T759 1079T768 1056zM704 1120Q704 1106 695 1097T672 1088T649 1097T640 1120T649 1143T672 1152T695 1143T704 1120zM1792 608V544Q1792 530 1783 521T1760 512H32Q18 512 9 521T0 544V608Q0 622 9 631T32 640H128V1280Q128 1386 203 1461T384 1536Q492 1536 568 1458Q614 1477 666 1470T759 1431L781 1453Q792 1464 803 1453L845 1411Q856 1400 845 1389L531 1075Q520 1064 509 1075L467 1117Q456 1128 467 1139L489 1161Q453 1207 448.5 1265T472 1373Q435 1408 384 1408Q331 1408 293.5 1370.5T256 1280V640H1760Q1774 640 1783 631T1792 608zM896 1056Q896 1042 887 1033T864 1024T841 1033T832 1056T841 1079T864 1088T887 1079T896 1056zM832 1120Q832 1106 823 1097T800 1088T777 1097T768 1120T777 1143T800 1152T823 1143T832 1120zM768 1184Q768 1170 759 1161T736 1152T713 1161T704 1184T713 1207T736 1216T759 1207T768 1184zM960 1120Q960 1106 951 1097T928 1088T905 1097T896 1120T905 1143T928 1152T951 1143T960 1120zM896 1184Q896 1170 887 1161T864 1152T841 1161T832 1184T841 1207T864 1216T887 1207T896 1184zM832 1248Q832 1234 823 1225T800 1216T777 1225T768 1248T777 1271T800 1280T823 1271T832 1248zM1024 1184Q1024 1170 1015 1161T992 1152T969 1161T960 1184T969 1207T992 1216T1015 1207T1024 1184zM960 1248Q960 1234 951 1225T928 1216T905 1225T896 1248T905 1271T928 1280T951 1271T960 1248zM1088 1248Q1088 1234 1079 1225T1056 1216T1033 1225T1024 1248T1033 1271T1056 1280T1079 1271T1088 1248z" />
    <glyph glyph-name="battery-0"
      unicode="&#xF13E;"
      horiz-adv-x="2304" d=" M2176 960Q2229 960 2266.5 922.5T2304 832V448Q2304 395 2266.5 357.5T2176 320V160Q2176 94 2129 47T2016 0H160Q94 0 47 47T0 160V1120Q0 1186 47 1233T160 1280H2016Q2082 1280 2129 1233T2176 1120V960zM2176 448V832H2048V1120Q2048 1134 2039 1143T2016 1152H160Q146 1152 137 1143T128 1120V160Q128 146 137 137T160 128H2016Q2030 128 2039 137T2048 160V448H2176z" />
    <glyph glyph-name="battery-0-1"
      unicode="&#x62;&#x61;&#x74;&#x74;&#x65;&#x72;&#x79;&#x2D;&#x30;"
      horiz-adv-x="2304" d=" M2176 960Q2229 960 2266.5 922.5T2304 832V448Q2304 395 2266.5 357.5T2176 320V160Q2176 94 2129 47T2016 0H160Q94 0 47 47T0 160V1120Q0 1186 47 1233T160 1280H2016Q2082 1280 2129 1233T2176 1120V960zM2176 448V832H2048V1120Q2048 1134 2039 1143T2016 1152H160Q146 1152 137 1143T128 1120V160Q128 146 137 137T160 128H2016Q2030 128 2039 137T2048 160V448H2176z" />
    <glyph glyph-name="battery-1"
      unicode="&#xF13F;"
      horiz-adv-x="2304" d=" M256 256V1024H768V256H256zM2176 960Q2229 960 2266.5 922.5T2304 832V448Q2304 395 2266.5 357.5T2176 320V160Q2176 94 2129 47T2016 0H160Q94 0 47 47T0 160V1120Q0 1186 47 1233T160 1280H2016Q2082 1280 2129 1233T2176 1120V960zM2176 448V832H2048V1120Q2048 1134 2039 1143T2016 1152H160Q146 1152 137 1143T128 1120V160Q128 146 137 137T160 128H2016Q2030 128 2039 137T2048 160V448H2176z" />
    <glyph glyph-name="battery-1-1"
      unicode="&#x62;&#x61;&#x74;&#x74;&#x65;&#x72;&#x79;&#x2D;&#x31;"
      horiz-adv-x="2304" d=" M256 256V1024H768V256H256zM2176 960Q2229 960 2266.5 922.5T2304 832V448Q2304 395 2266.5 357.5T2176 320V160Q2176 94 2129 47T2016 0H160Q94 0 47 47T0 160V1120Q0 1186 47 1233T160 1280H2016Q2082 1280 2129 1233T2176 1120V960zM2176 448V832H2048V1120Q2048 1134 2039 1143T2016 1152H160Q146 1152 137 1143T128 1120V160Q128 146 137 137T160 128H2016Q2030 128 2039 137T2048 160V448H2176z" />
    <glyph glyph-name="battery-2"
      unicode="&#xF140;"
      horiz-adv-x="2304" d=" M256 256V1024H1152V256H256zM2176 960Q2229 960 2266.5 922.5T2304 832V448Q2304 395 2266.5 357.5T2176 320V160Q2176 94 2129 47T2016 0H160Q94 0 47 47T0 160V1120Q0 1186 47 1233T160 1280H2016Q2082 1280 2129 1233T2176 1120V960zM2176 448V832H2048V1120Q2048 1134 2039 1143T2016 1152H160Q146 1152 137 1143T128 1120V160Q128 146 137 137T160 128H2016Q2030 128 2039 137T2048 160V448H2176z" />
    <glyph glyph-name="battery-2-1"
      unicode="&#x62;&#x61;&#x74;&#x74;&#x65;&#x72;&#x79;&#x2D;&#x32;"
      horiz-adv-x="2304" d=" M256 256V1024H1152V256H256zM2176 960Q2229 960 2266.5 922.5T2304 832V448Q2304 395 2266.5 357.5T2176 320V160Q2176 94 2129 47T2016 0H160Q94 0 47 47T0 160V1120Q0 1186 47 1233T160 1280H2016Q2082 1280 2129 1233T2176 1120V960zM2176 448V832H2048V1120Q2048 1134 2039 1143T2016 1152H160Q146 1152 137 1143T128 1120V160Q128 146 137 137T160 128H2016Q2030 128 2039 137T2048 160V448H2176z" />
    <glyph glyph-name="battery-3"
      unicode="&#xF141;"
      horiz-adv-x="2304" d=" M256 256V1024H1536V256H256zM2176 960Q2229 960 2266.5 922.5T2304 832V448Q2304 395 2266.5 357.5T2176 320V160Q2176 94 2129 47T2016 0H160Q94 0 47 47T0 160V1120Q0 1186 47 1233T160 1280H2016Q2082 1280 2129 1233T2176 1120V960zM2176 448V832H2048V1120Q2048 1134 2039 1143T2016 1152H160Q146 1152 137 1143T128 1120V160Q128 146 137 137T160 128H2016Q2030 128 2039 137T2048 160V448H2176z" />
    <glyph glyph-name="battery-3-1"
      unicode="&#x62;&#x61;&#x74;&#x74;&#x65;&#x72;&#x79;&#x2D;&#x33;"
      horiz-adv-x="2304" d=" M256 256V1024H1536V256H256zM2176 960Q2229 960 2266.5 922.5T2304 832V448Q2304 395 2266.5 357.5T2176 320V160Q2176 94 2129 47T2016 0H160Q94 0 47 47T0 160V1120Q0 1186 47 1233T160 1280H2016Q2082 1280 2129 1233T2176 1120V960zM2176 448V832H2048V1120Q2048 1134 2039 1143T2016 1152H160Q146 1152 137 1143T128 1120V160Q128 146 137 137T160 128H2016Q2030 128 2039 137T2048 160V448H2176z" />
    <glyph glyph-name="battery-4"
      unicode="&#xF142;"
      horiz-adv-x="2304" d=" M1920 1024V256H256V1024H1920zM2048 448H2176V832H2048V1120Q2048 1134 2039 1143T2016 1152H160Q146 1152 137 1143T128 1120V160Q128 146 137 137T160 128H2016Q2030 128 2039 137T2048 160V448zM2304 832V448Q2304 395 2266.5 357.5T2176 320V160Q2176 94 2129 47T2016 0H160Q94 0 47 47T0 160V1120Q0 1186 47 1233T160 1280H2016Q2082 1280 2129 1233T2176 1120V960Q2229 960 2266.5 922.5T2304 832z" />
    <glyph glyph-name="battery-4-1"
      unicode="&#x62;&#x61;&#x74;&#x74;&#x65;&#x72;&#x79;&#x2D;&#x34;"
      horiz-adv-x="2304" d=" M1920 1024V256H256V1024H1920zM2048 448H2176V832H2048V1120Q2048 1134 2039 1143T2016 1152H160Q146 1152 137 1143T128 1120V160Q128 146 137 137T160 128H2016Q2030 128 2039 137T2048 160V448zM2304 832V448Q2304 395 2266.5 357.5T2176 320V160Q2176 94 2129 47T2016 0H160Q94 0 47 47T0 160V1120Q0 1186 47 1233T160 1280H2016Q2082 1280 2129 1233T2176 1120V960Q2229 960 2266.5 922.5T2304 832z" />
    <glyph glyph-name="battery-empty"
      unicode="&#xF143;"
      horiz-adv-x="2304" d=" M2176 960Q2229 960 2266.5 922.5T2304 832V448Q2304 395 2266.5 357.5T2176 320V160Q2176 94 2129 47T2016 0H160Q94 0 47 47T0 160V1120Q0 1186 47 1233T160 1280H2016Q2082 1280 2129 1233T2176 1120V960zM2176 448V832H2048V1120Q2048 1134 2039 1143T2016 1152H160Q146 1152 137 1143T128 1120V160Q128 146 137 137T160 128H2016Q2030 128 2039 137T2048 160V448H2176z" />
    <glyph glyph-name="battery-empty-1"
      unicode="&#x62;&#x61;&#x74;&#x74;&#x65;&#x72;&#x79;&#x2D;&#x65;&#x6D;&#x70;&#x74;&#x79;"
      horiz-adv-x="2304" d=" M2176 960Q2229 960 2266.5 922.5T2304 832V448Q2304 395 2266.5 357.5T2176 320V160Q2176 94 2129 47T2016 0H160Q94 0 47 47T0 160V1120Q0 1186 47 1233T160 1280H2016Q2082 1280 2129 1233T2176 1120V960zM2176 448V832H2048V1120Q2048 1134 2039 1143T2016 1152H160Q146 1152 137 1143T128 1120V160Q128 146 137 137T160 128H2016Q2030 128 2039 137T2048 160V448H2176z" />
    <glyph glyph-name="battery-full"
      unicode="&#xF144;"
      horiz-adv-x="2304" d=" M1920 1024V256H256V1024H1920zM2048 448H2176V832H2048V1120Q2048 1134 2039 1143T2016 1152H160Q146 1152 137 1143T128 1120V160Q128 146 137 137T160 128H2016Q2030 128 2039 137T2048 160V448zM2304 832V448Q2304 395 2266.5 357.5T2176 320V160Q2176 94 2129 47T2016 0H160Q94 0 47 47T0 160V1120Q0 1186 47 1233T160 1280H2016Q2082 1280 2129 1233T2176 1120V960Q2229 960 2266.5 922.5T2304 832z" />
    <glyph glyph-name="battery-full-1"
      unicode="&#x62;&#x61;&#x74;&#x74;&#x65;&#x72;&#x79;&#x2D;&#x66;&#x75;&#x6C;&#x6C;"
      horiz-adv-x="2304" d=" M1920 1024V256H256V1024H1920zM2048 448H2176V832H2048V1120Q2048 1134 2039 1143T2016 1152H160Q146 1152 137 1143T128 1120V160Q128 146 137 137T160 128H2016Q2030 128 2039 137T2048 160V448zM2304 832V448Q2304 395 2266.5 357.5T2176 320V160Q2176 94 2129 47T2016 0H160Q94 0 47 47T0 160V1120Q0 1186 47 1233T160 1280H2016Q2082 1280 2129 1233T2176 1120V960Q2229 960 2266.5 922.5T2304 832z" />
    <glyph glyph-name="battery-half"
      unicode="&#xF145;"
      horiz-adv-x="2304" d=" M256 256V1024H1152V256H256zM2176 960Q2229 960 2266.5 922.5T2304 832V448Q2304 395 2266.5 357.5T2176 320V160Q2176 94 2129 47T2016 0H160Q94 0 47 47T0 160V1120Q0 1186 47 1233T160 1280H2016Q2082 1280 2129 1233T2176 1120V960zM2176 448V832H2048V1120Q2048 1134 2039 1143T2016 1152H160Q146 1152 137 1143T128 1120V160Q128 146 137 137T160 128H2016Q2030 128 2039 137T2048 160V448H2176z" />
    </font>
</defs>
</svg>
