<!-- Generator: Adobe Illustrator 22.0.0, SVG Export Plug-In  -->
<svg version="1.1"
	 xmlns="http://www.w3.org/2000/svg" xmlns:xlink="http://www.w3.org/1999/xlink" xmlns:a="http://ns.adobe.com/AdobeSVGViewerExtensions/3.0/"
	 x="0px" y="0px" width="390.9px" height="438.4px" viewBox="0 0 390.9 438.4" style="enable-background:new 0 0 390.9 438.4;"
	 xml:space="preserve">
<defs>
</defs>
<g>
	<path d="M238.3,17.9l138,137.2c9,8.9,13.9,20.8,13.9,33.4l0.7,209.7c0.1,15.8-9.4,30-24,36.1c-14.6,6.1-31.4,2.9-42.6-8.3
		L195.5,298L67.4,426.9c-11.1,11.2-27.8,14.6-42.5,8.6c-14.4-5.9-24.2-20.4-24.3-36L0,189.7c0-12.7,4.9-24.5,13.8-33.5l137.1-138
		C174.9-6,214.1-6.1,238.3,17.9z M323.4,196.8L194.7,68.9L66.9,197.6l0.4,134.5l127.9-128.7l128.7,127.9L323.4,196.8z"/>
</g>
</svg>